<svg width="150" height="60" viewBox="0 0 150 60" fill="none" xmlns="http://www.w3.org/2000/svg">
<path fill-rule="evenodd" clip-rule="evenodd" d="M58.4058 37.9114L56.3574 47.4347H51.6461L59.43 12.9209H65.011L72.334 47.4347H67.5715L65.5743 37.9114H58.4058ZM65.011 34.0706L63.4235 25.825C62.9626 23.4693 62.5017 20.3984 62.1441 17.9395H61.9384C61.5808 20.4488 61.067 23.623 60.6078 25.825L58.9691 34.0706H65.011ZM90.3173 12V41.0343C90.3173 42.93 90.4197 45.6953 90.5212 47.4356H86.3741L86.0668 44.415H85.9132C85.0938 46.1553 83.1991 47.8461 80.6906 47.8461C76.0818 47.8461 73.2652 42.8267 73.2652 35.0957C73.2652 26.2876 77.0027 22.1396 80.9467 22.1396C82.943 22.1396 84.5305 23.0622 85.4011 24.9561H85.5035V12H90.3173ZM85.5027 32.0222C85.5027 31.5622 85.5027 30.9989 85.4515 30.4851C85.1954 28.2327 83.9152 26.2867 82.1749 26.2867C79.1526 26.2867 78.1293 30.4851 78.1293 35.0948C78.1293 40.2158 79.4608 43.7997 82.0212 43.7997C83.0967 43.7997 84.5297 43.2364 85.349 40.267C85.4515 39.8574 85.5027 39.242 85.5027 38.6804V32.0222ZM101.783 47.8453C96.8167 47.8453 93.2311 43.5948 93.2311 35.0445C93.2311 25.9795 97.4807 22.1387 102.038 22.1387C106.955 22.1387 110.487 26.5428 110.487 34.9412C110.487 44.8247 105.622 47.8453 101.834 47.8453H101.783ZM101.936 44.0566C104.905 44.0566 105.572 38.7819 105.572 34.9933C105.572 31.2541 104.906 25.9291 101.834 25.9291C98.6585 25.9291 98.0448 31.2541 98.0448 34.9933C98.0448 39.1404 98.7618 44.0566 101.886 44.0566H101.936ZM113.389 12H118.202V25.3649H118.304C119.585 23.1126 121.326 22.1387 123.528 22.1387C127.777 22.1387 130.441 26.9524 130.441 34.5827C130.441 43.4924 126.805 47.8453 122.708 47.8453C120.25 47.8453 118.868 46.5129 117.791 44.3109H117.588L117.331 47.4347H113.184C113.287 45.7457 113.389 42.9291 113.389 41.0335V12ZM118.202 38.6266C118.202 39.1916 118.253 39.7549 118.407 40.1638C119.174 43.186 120.66 43.7997 121.632 43.7997C124.5 43.7997 125.575 40.011 125.575 34.89C125.575 30.1275 124.45 26.2867 121.581 26.2867C119.993 26.2867 118.713 28.1815 118.355 29.9738C118.252 30.4859 118.201 31.1525 118.201 31.6638V38.6266H118.202ZM137.544 35.9645C137.595 42.3658 140.36 43.9524 143.279 43.9524C145.02 43.9524 146.505 43.5436 147.58 43.0307L148.297 46.5129C146.812 47.2811 144.559 47.6916 142.357 47.6916C136.11 47.6916 132.833 42.9803 132.833 35.2988C132.833 27.1564 136.57 22.1379 141.742 22.1379C146.914 22.1379 149.321 27.1052 149.321 33.3537C149.321 34.5819 149.269 35.3509 149.219 36.0158L137.544 35.9645ZM144.764 32.5343C144.815 28.1303 143.279 25.7755 141.385 25.7755C138.875 25.7755 137.748 29.4114 137.595 32.5343H144.764Z" fill="#1C273B"/>
<path fill-rule="evenodd" clip-rule="evenodd" d="M24.5185 13.0131H38.8974V47.4347L24.5185 13.0131ZM14.3891 13.0131H0V47.4347L14.3891 13.0131ZM19.4547 25.6986L28.6161 47.4347H22.6126L19.8729 40.512H13.1669L19.4547 25.6986Z" fill="#1C273B"/>
<path fill-rule="evenodd" clip-rule="evenodd" d="M148.913 22.0747C149.057 22.0753 149.2 22.1046 149.332 22.1607C149.465 22.2168 149.586 22.2987 149.687 22.4016C149.788 22.5045 149.868 22.6264 149.921 22.7603C149.975 22.8942 150.002 23.0374 150 23.1817C150 23.8064 149.518 24.2938 148.907 24.2938C148.302 24.2938 147.81 23.8073 147.81 23.1817C147.809 23.0368 147.837 22.8933 147.892 22.7593C147.946 22.6252 148.027 22.5033 148.129 22.4005C148.231 22.2976 148.352 22.2159 148.486 22.16C148.619 22.1041 148.763 22.0751 148.907 22.0747H148.913ZM148.907 22.2462C148.421 22.2462 148.021 22.6653 148.021 23.1817C148.021 23.7083 148.421 24.1214 148.913 24.1214C149.404 24.1265 149.798 23.7083 149.798 23.1868C149.798 22.6653 149.404 22.2462 148.913 22.2462H148.907ZM148.701 23.8269H148.505V22.591C148.608 22.5765 148.707 22.5612 148.854 22.5612C149.041 22.5612 149.163 22.6013 149.238 22.655C149.312 22.7088 149.351 22.7925 149.351 22.9111C149.351 23.0733 149.243 23.1723 149.11 23.2115V23.2209C149.218 23.2405 149.292 23.3395 149.316 23.5213C149.346 23.7134 149.375 23.7868 149.396 23.8269H149.189C149.159 23.7868 149.13 23.6741 149.105 23.5119C149.076 23.3541 148.997 23.2952 148.839 23.2952H148.702V23.8269H148.701ZM148.701 23.1424H148.843C149.006 23.1424 149.145 23.0835 149.145 22.9307C149.145 22.8223 149.065 22.7139 148.843 22.7139C148.78 22.7139 148.735 22.7191 148.701 22.7242V23.1424ZM40.793 13.0131C40.9372 13.0137 41.08 13.043 41.2129 13.0991C41.3458 13.1552 41.4662 13.237 41.5673 13.34C41.6684 13.4429 41.7481 13.5648 41.8019 13.6987C41.8556 13.8326 41.8823 13.9758 41.8803 14.12C41.8803 14.7448 41.3981 15.2322 40.7879 15.2322C40.1827 15.2322 39.6903 14.7457 39.6903 14.12C39.6895 13.9752 39.7173 13.8317 39.772 13.6977C39.8268 13.5636 39.9075 13.4417 40.0094 13.3389C40.1114 13.236 40.2326 13.1543 40.3662 13.0984C40.4998 13.0425 40.6431 13.0135 40.7879 13.0131H40.793ZM40.7879 13.1846C40.3005 13.1846 39.9019 13.6037 39.9019 14.12C39.9019 14.6467 40.3005 15.0597 40.793 15.0597C41.2846 15.0649 41.6789 14.6467 41.6789 14.1252C41.6789 13.6037 41.2846 13.1846 40.793 13.1846H40.7879ZM40.5813 14.7653H40.3842V13.5294C40.4998 13.5102 40.6169 13.5005 40.7341 13.5004C40.921 13.5004 41.0439 13.5388 41.1173 13.5934C41.1916 13.6472 41.2308 13.7317 41.2308 13.8495C41.2308 14.0117 41.1224 14.1107 40.9893 14.1499V14.1593C41.0977 14.1789 41.1719 14.2779 41.1967 14.4606C41.2257 14.6526 41.2556 14.726 41.2752 14.7661H41.0687C41.0388 14.726 41.0089 14.6134 40.985 14.4512C40.9552 14.2933 40.8766 14.2344 40.7187 14.2344H40.5813V14.7653ZM40.5813 14.0808H40.7239C40.886 14.0808 41.0243 14.0219 41.0243 13.8691C41.0243 13.7607 40.9458 13.6523 40.7239 13.6523C40.6598 13.6523 40.6155 13.6575 40.5813 13.6626V14.0808Z" fill="#1C273B"/>
</svg>
