<svg width="90" height="90" viewBox="0 0 90 90" fill="none" xmlns="http://www.w3.org/2000/svg">
<g clip-path="url(#clip0_193_165)">
<path d="M42.5199 36.4871L35.3518 54.7407H37.9917C38.2735 54.7407 38.5178 54.6562 38.7151 54.4965C38.9123 54.3367 39.0439 54.1582 39.1096 53.9704L40.4718 50.2501H48.0345L49.3967 53.9704C49.4812 54.1864 49.6222 54.3743 49.8101 54.5152C49.9979 54.6656 50.2422 54.7407 50.5334 54.7407H53.1639L45.9959 36.4871H42.5199ZM41.3455 47.8545L43.5721 41.8044C43.6848 41.5226 43.7975 41.2031 43.9103 40.8274C44.023 40.461 44.1357 40.057 44.2579 39.6248C44.38 40.057 44.4927 40.4516 44.6149 40.818C44.737 41.1843 44.8497 41.5038 44.9531 41.7668L47.1796 47.8357H41.3549L41.3455 47.8545Z" fill="#1C273B"/>
<path d="M58.8664 36.4871H55.4562V54.7407H58.8664V36.4871Z" fill="#1C273B"/>
<path d="M83.4144 37.9244C79.9666 37.9244 77.1388 40.5925 76.8664 43.9745H65.7056V36.487C65.7056 33.1989 64.0146 30.296 61.4687 28.605L64.1743 25.8994H64.9071C65.6399 28.7365 68.214 30.8315 71.2672 30.8315C74.8935 30.8315 77.8434 27.8816 77.8434 24.2553C77.8434 20.629 74.8935 17.6791 71.2672 17.6791C68.2046 17.6791 65.6399 19.7835 64.9071 22.6113H62.8121L58.19 27.224C57.5605 27.0925 56.9029 27.0173 56.2359 27.0173H48.7484V17.8764C51.5856 17.1436 53.6806 14.5695 53.6806 11.5163C53.6806 7.88996 50.7307 4.94006 47.1044 4.94006C43.4781 4.94006 40.5282 7.88996 40.5282 11.5163C40.5282 14.5789 42.6326 17.1436 45.4603 17.8764V27.0173H38.2171V21.8973C38.2171 15.2647 32.8246 9.87221 26.1921 9.87221C21.1378 9.87221 16.6848 13.01 14.9374 17.6509C9.19729 17.8388 4.59395 22.5643 4.59395 28.3513C4.59395 29.3096 4.89457 30.5685 5.17641 31.5267C1.99165 33.4432 0 36.9004 0 40.6958C0 43.533 1.14614 46.2292 3.119 48.2209C1.17432 50.7856 0 53.9797 0 57.4369C0 65.8733 6.86743 72.7407 15.3038 72.7407C15.3883 72.7407 15.4729 72.7313 15.5668 72.7313C17.5866 76.5455 21.5887 79.1572 26.2015 79.1572C32.834 79.1572 38.2265 73.7647 38.2265 67.1321V64.2292H45.4697V71.153C42.6326 71.8858 40.5376 74.4599 40.5376 77.5131C40.5376 81.1394 43.4875 84.0893 47.1138 84.0893C50.7401 84.0893 53.69 81.1394 53.69 77.5131C53.69 74.4505 51.5856 71.8858 48.7578 71.153V64.2292H56.2453C56.7432 64.2292 57.2223 64.1822 57.7015 64.1071L62.8215 69.2271H64.9165C65.6493 72.0643 68.2234 74.1593 71.2766 74.1593C74.9029 74.1593 77.8528 71.2094 77.8528 67.5831C77.8528 63.9568 74.9029 61.0069 71.2766 61.0069C68.214 61.0069 65.6493 63.1112 64.9165 65.939H64.1837L61.1117 62.867C63.8643 61.2042 65.715 58.1979 65.715 54.7595V47.272H77.4582C78.501 49.5267 80.7839 51.0956 83.4238 51.0956C87.0501 51.0956 90 48.1457 90 44.5194C90 40.8931 87.0501 37.9432 83.4238 37.9432L83.4144 37.9244ZM71.2766 20.9578C73.0898 20.9578 74.5647 22.4328 74.5647 24.2459C74.5647 26.0591 73.0898 27.534 71.2766 27.534C69.4635 27.534 67.9885 26.0591 67.9885 24.2459C67.9885 22.4328 69.4635 20.9578 71.2766 20.9578ZM43.8163 11.5069C43.8163 9.69372 45.2912 8.21877 47.1044 8.21877C48.9175 8.21877 50.3925 9.69372 50.3925 11.5069C50.3925 13.32 48.9175 14.795 47.1044 14.795C45.2912 14.795 43.8163 13.32 43.8163 11.5069ZM50.3925 77.5037C50.3925 79.3169 48.9175 80.7918 47.1044 80.7918C45.2912 80.7918 43.8163 79.3169 43.8163 77.5037C43.8163 75.6906 45.2912 74.2156 47.1044 74.2156C48.9175 74.2156 50.3925 75.6906 50.3925 77.5037ZM71.2766 64.2762C73.0898 64.2762 74.5647 65.7511 74.5647 67.5643C74.5647 69.3774 73.0898 70.8524 71.2766 70.8524C69.4635 70.8524 67.9885 69.3774 67.9885 67.5643C67.9885 65.7511 69.4635 64.2762 71.2766 64.2762ZM26.2015 75.8597C21.382 75.8597 17.4645 71.9421 17.4645 67.1227C17.4645 64.605 18.5543 62.2 20.452 60.5371L18.2912 58.0664C15.6795 60.3492 14.1764 63.6561 14.1764 67.1227C14.1764 67.9025 14.261 68.6634 14.4019 69.4056C8.20146 68.9359 3.29749 63.7501 3.29749 57.4369C3.29749 51.1238 8.04175 46.0977 14.0919 45.487C13.8194 46.5016 13.6691 47.5538 13.6691 48.653C13.6691 50.3346 14.0073 51.9693 14.6837 53.5006L17.69 52.176C17.2015 51.0674 16.9572 49.8837 16.9572 48.653C16.9572 44.153 20.3299 40.414 24.8017 39.963L24.4729 36.6937C22.8758 36.8534 21.3727 37.3325 20.0386 38.0465C19.5219 37.0225 19.2401 35.9046 19.2401 34.7302C19.2401 31.9401 20.7808 29.4129 23.261 28.1353L21.7484 25.2135C18.1691 27.0643 15.952 30.7094 15.952 34.7302C15.952 36.6092 16.4311 38.4035 17.3424 40.01C16.6754 40.6582 16.0835 41.3816 15.5762 42.1614C15.4916 42.1614 15.4071 42.152 15.3132 42.152C11.5177 42.152 8.05115 43.5518 5.37369 45.844C4.05845 44.4724 3.29749 42.6405 3.29749 40.7146C3.29749 37.7271 5.07307 35.0497 7.81628 33.8847L9.24426 33.2741L8.71816 31.8085C8.39875 30.9161 7.89144 29.1968 7.89144 28.3701C7.89144 24.2835 11.2171 20.9484 15.3132 20.9484C15.5574 20.9484 16.0271 20.986 16.0271 20.986L17.3987 21.0799L17.737 19.7459C18.7234 15.8753 22.2088 13.1697 26.2015 13.1697C31.0209 13.1697 34.9384 17.0872 34.9384 21.9067V27.534C31.2088 28.8023 28.5031 32.3346 28.5031 36.4964V54.7689C28.5031 58.8837 31.143 62.4536 34.9384 63.7313V67.1321C34.9384 71.9515 31.0209 75.8691 26.2015 75.8691V75.8597ZM62.4175 54.7501C62.4175 58.1603 59.6461 60.9317 56.2359 60.9317H37.9635C37.5877 60.9317 37.2213 60.8941 36.8643 60.8378C33.9238 60.3117 31.7818 57.747 31.7818 54.7595V36.487C31.7818 33.0768 34.5532 30.3054 37.9635 30.3054H56.2359C59.6461 30.3054 62.4175 33.0768 62.4175 36.487V54.7595V54.7501ZM83.4144 47.7981C81.6013 47.7981 80.1263 46.3232 80.1263 44.51C80.1263 42.6968 81.6013 41.2219 83.4144 41.2219C85.2276 41.2219 86.7025 42.6968 86.7025 44.51C86.7025 46.3232 85.2276 47.7981 83.4144 47.7981Z" fill="#1C273B"/>
</g>
<defs>
<clipPath id="clip0_193_165">
<rect width="90" height="79.1493" fill="white" transform="translate(0 4.93066)"/>
</clipPath>
</defs>
</svg>
