<svg width="155" height="155" viewBox="0 0 155 155" fill="none" xmlns="http://www.w3.org/2000/svg">
<path d="M82.9766 105.571C82.133 105.571 81.4457 106.258 81.4457 107.102V111.601H17.6803V41.6806C17.7115 41.6806 17.7429 41.6806 17.7741 41.6806H81.4457V46.2107C81.4457 47.0542 82.133 47.7416 82.9766 47.7416C83.8201 47.7416 84.5074 47.0542 84.5074 46.2107V22.2167C84.5074 17.6866 80.8521 14 76.3532 14H22.7728C20.5858 14 18.5552 14.8748 17.0243 16.4369C15.4935 17.999 14.6499 20.061 14.6499 22.2479V113.038C14.6499 113.038 14.6499 113.1 14.6499 113.131C14.6499 113.163 14.6499 113.194 14.6499 113.225V130.783C14.6499 132.97 15.4935 135.032 17.0243 136.594C18.5552 138.156 20.6171 139 22.7728 139H76.3532C78.5402 139 80.5708 138.125 82.1017 136.563C83.6326 135.001 84.4761 132.939 84.4761 130.752V107.07C84.4761 106.227 83.7888 105.54 82.9453 105.54L82.9766 105.571ZM19.1799 18.5926C20.1484 17.6241 21.4294 17.093 22.7728 17.093H76.3532C79.165 17.093 81.4457 19.4049 81.4457 22.2479V38.6501H17.7741C17.7429 38.6501 17.7115 38.6501 17.6803 38.6501V22.2167C17.6803 20.842 18.2114 19.5299 19.1799 18.5614V18.5926ZM79.9774 134.439C79.0089 135.407 77.7279 135.938 76.3845 135.938H22.8041C21.4607 135.938 20.1796 135.407 19.2111 134.439C18.2426 133.47 17.7116 132.158 17.7116 130.783V114.631H81.477V130.783C81.477 132.158 80.9459 133.47 79.9774 134.439Z" fill="#0073AD" fill-opacity="0.15"/>
<path d="M56.983 123.785H41.6434C40.7998 123.785 40.1125 124.472 40.1125 125.316C40.1125 126.16 40.7998 126.847 41.6434 126.847H56.983C57.8266 126.847 58.5139 126.16 58.5139 125.316C58.5139 124.472 57.8266 123.785 56.983 123.785Z" fill="#0073AD" fill-opacity="0.15"/>
<path d="M49.4537 29.4335H67.6677C68.5113 29.4335 69.1986 28.7462 69.1986 27.9027C69.1986 27.0591 68.5113 26.3718 67.6677 26.3718H49.4537C48.6101 26.3718 47.9229 27.0591 47.9229 27.9027C47.9229 28.7462 48.6101 29.4335 49.4537 29.4335Z" fill="#0073AD" fill-opacity="0.15"/>
<path d="M31.2081 29.4335H37.238C38.0815 29.4335 38.7688 28.7462 38.7688 27.9027C38.7688 27.0591 38.0815 26.3718 37.238 26.3718H31.2081C30.3645 26.3718 29.6772 27.0591 29.6772 27.9027C29.6772 28.7462 30.3645 29.4335 31.2081 29.4335Z" fill="#0073AD" fill-opacity="0.15"/>
<path d="M132.089 70.6421C129.184 70.6421 126.747 72.6104 125.935 75.266H58.6075C57.764 75.266 57.0767 75.9533 57.0767 76.7968C57.0767 77.6404 57.764 78.3277 58.6075 78.3277H125.747C126.309 81.2957 128.934 83.5139 132.058 83.5139C135.62 83.5139 138.494 80.6396 138.494 77.078C138.494 73.5164 135.62 70.6421 132.058 70.6421H132.089ZM132.089 80.4522C130.215 80.4522 128.684 78.9213 128.684 77.0468C128.684 75.1722 130.215 73.6414 132.089 73.6414C133.964 73.6414 135.494 75.1722 135.494 77.0468C135.494 78.9213 133.964 80.4522 132.089 80.4522Z" fill="#0073AD" fill-opacity="0.15"/>
<path d="M117.999 55.2085V66.0183H58.6387C57.7952 66.0183 57.1079 66.7056 57.1079 67.5491C57.1079 68.3927 57.7952 69.08 58.6387 69.08H119.498C120.342 69.08 121.029 68.3927 121.029 67.5491V55.2085C123.841 54.5211 125.935 51.9905 125.935 48.96C125.935 45.3984 123.06 42.5241 119.498 42.5241C115.937 42.5241 113.063 45.3984 113.063 48.96C113.063 51.9905 115.156 54.4899 117.968 55.2085H117.999ZM119.498 45.5859C121.373 45.5859 122.904 47.1167 122.904 48.9913C122.904 50.8658 121.373 52.3967 119.498 52.3967C117.624 52.3967 116.093 50.8658 116.093 48.9913C116.093 47.1167 117.624 45.5859 119.498 45.5859Z" fill="#0073AD" fill-opacity="0.15"/>
<path d="M102.69 37.0566V53.9899H58.6387C57.7952 53.9899 57.1079 54.6772 57.1079 55.5207C57.1079 56.3643 57.7952 57.0516 58.6387 57.0516H104.19C105.034 57.0516 105.721 56.3643 105.721 55.5207V37.0566C108.533 36.3693 110.626 33.8387 110.626 30.8394C110.626 27.2778 107.752 24.4035 104.19 24.4035C100.628 24.4035 97.754 27.2778 97.754 30.8394C97.754 33.8699 99.8471 36.3693 102.659 37.0566H102.69ZM104.19 27.434C106.065 27.434 107.595 28.9649 107.595 30.8394C107.595 32.7139 106.065 34.2448 104.19 34.2448C102.316 34.2448 100.784 32.7139 100.784 30.8394C100.784 28.9649 102.316 27.434 104.19 27.434Z" fill="#0073AD" fill-opacity="0.15"/>
<path d="M114.969 98.3539V85.7945C114.969 84.951 114.281 84.2636 113.438 84.2636H58.6387C57.7952 84.2636 57.1079 84.951 57.1079 85.7945C57.1079 86.6381 57.7952 87.3254 58.6387 87.3254H111.938V98.3539C109.126 99.0412 107.033 101.572 107.033 104.602C107.033 108.164 109.907 111.038 113.469 111.038C117.031 111.038 119.905 108.164 119.905 104.602C119.905 101.572 117.812 99.0724 115 98.3539H114.969ZM113.438 107.976C111.563 107.976 110.032 106.446 110.032 104.571C110.032 102.697 111.563 101.166 113.438 101.166C115.312 101.166 116.843 102.697 116.843 104.571C116.843 106.446 115.312 107.976 113.438 107.976Z" fill="#0073AD" fill-opacity="0.15"/>
<path d="M99.7536 117.818V97.9165C99.7536 97.073 99.0663 96.3857 98.2227 96.3857H58.6387C57.7952 96.3857 57.1079 97.073 57.1079 97.9165C57.1079 98.7601 57.7952 99.4474 58.6387 99.4474H96.6919V117.849C93.8801 118.536 91.7867 121.067 91.7867 124.066C91.7867 127.628 94.6611 130.502 98.2227 130.502C101.784 130.502 104.658 127.628 104.658 124.066C104.658 121.036 102.565 118.536 99.7536 117.849V117.818ZM98.2227 127.472C96.3482 127.472 94.8174 125.941 94.8174 124.066C94.8174 122.192 96.3482 120.661 98.2227 120.661C100.097 120.661 101.628 122.192 101.628 124.066C101.628 125.941 100.097 127.472 98.2227 127.472Z" fill="#0073AD" fill-opacity="0.15"/>
</svg>
