<svg width="155" height="155" viewBox="0 0 155 155" fill="none" xmlns="http://www.w3.org/2000/svg">
<g clip-path="url(#clip0_111_2718)">
<path d="M138.5 71.5625C139.312 71.5625 140 70.9062 140 70.0625C140 69.2188 139.344 68.5625 138.5 68.5625H124.938V56.75H138.5C139.312 56.75 140 56.0937 140 55.25C140 54.4062 139.344 53.75 138.5 53.75H124.938V45.6562C124.938 37 117.875 29.9375 109.219 29.9375H101.312V16.5C101.312 15.6875 100.656 15 99.8125 15C98.9688 15 98.3125 15.6562 98.3125 16.5V30.0312H86.4062V16.5C86.4062 15.6875 85.75 15 84.9062 15C84.0625 15 83.4062 15.6562 83.4062 16.5V30.0312H71.5V16.5C71.5 15.6875 70.8438 15 70 15C69.1562 15 68.5 15.6562 68.5 16.5V30.0312H56.5938V16.5C56.5938 15.6875 55.9375 15 55.0938 15C54.25 15 53.5938 15.6562 53.5938 16.5V30.0312H45.3125C36.6562 30.0312 29.5938 37.0937 29.5938 45.75V53.8125L16.375 53.75C15.6562 53.75 15 54.4062 15 55.2187C15 56.0312 15.6562 56.7187 16.4688 56.7187L29.6875 56.7812V68.5937L16.4688 68.5312C15.6562 68.5312 15 69.2187 15 70.0312C15 70.8437 15.6562 71.5312 16.4688 71.5312L29.6875 71.5937V83.4062L16.4688 83.3438C15.6562 83.3438 15 84 15 84.8125C15 85.625 15.6562 86.3125 16.4688 86.3125L29.6875 86.375V98.1875L16.4688 98.125C15.6562 98.1562 15 98.8125 15 99.625C15 100.437 15.6562 101.125 16.4688 101.125L29.6875 101.187V109.5C29.6875 118.156 36.75 125.219 45.4062 125.219H53.6875V138.469C53.6875 139.281 54.3438 139.969 55.1875 139.969C56.0312 139.969 56.6875 139.312 56.6875 138.469V125.219H68.5938V138.469C68.5938 139.281 69.25 139.969 70.0937 139.969C70.9375 139.969 71.5938 139.312 71.5938 138.469V125.219H83.5V138.469C83.5 139.281 84.1562 139.969 85 139.969C85.8438 139.969 86.5 139.312 86.5 138.469V125.219H98.4062V138.469C98.4062 139.281 99.0625 139.969 99.9062 139.969C100.75 139.969 101.406 139.312 101.406 138.469V125.219H109.312C117.969 125.219 125.031 118.156 125.031 109.5V101.187H138.594C139.406 101.187 140.094 100.531 140.094 99.6875C140.094 98.8437 139.438 98.1875 138.594 98.1875H125.031V86.375H138.594C139.406 86.375 140.094 85.7188 140.094 84.875C140.094 84.0312 139.438 83.375 138.594 83.375H125.031V71.5625H138.594H138.5ZM121.969 109.469C121.969 116.5 116.25 122.219 109.219 122.219H45.4375C38.4062 122.219 32.6875 116.5 32.6875 109.469V45.7187C32.6875 38.6875 38.4062 32.9687 45.4375 32.9687H109.219C116.25 32.9687 121.969 38.6875 121.969 45.7187V109.469Z" fill="#0073AD" fill-opacity="0.15"/>
<path d="M105.875 69.1875C106.156 68.1875 106.281 67.1875 106.281 66.125C106.281 59.6563 101 54.375 94.4375 54.5938C93.2812 50.6563 89.6562 47.8438 85.4687 47.8438C83.875 47.8438 82.3437 48.25 81.0312 48.9688C80.9687 48.9688 80.9062 49.0312 80.875 49.0625C80.6875 49.1562 80.5312 49.2813 80.3437 49.375C80.2187 49.4375 80.125 49.5313 80 49.625C79.9062 49.6875 79.8125 49.7812 79.7187 49.8437C79.5625 49.9687 79.375 50.125 79.2187 50.25C79.2187 50.25 79.1562 50.3125 79.125 50.3125C78.5 50.875 77.9687 51.5313 77.5 52.2813C77.5 52.2188 77.4375 52.1875 77.4062 52.125C77.3125 51.9688 77.2187 51.8438 77.125 51.7188C77.0312 51.5938 76.9687 51.5 76.875 51.375C76.7812 51.2813 76.7187 51.1875 76.625 51.0625C76.5 50.9375 76.375 50.7812 76.25 50.6562C76.1875 50.5938 76.125 50.5313 76.0625 50.4688C75.9062 50.3125 75.75 50.1875 75.5937 50.0313C75.5625 50 75.5 49.9375 75.4687 49.9063C75.2812 49.75 75.0625 49.5938 74.875 49.4375C74.875 49.4375 74.8437 49.4063 74.8125 49.375C73.3125 48.375 71.5312 47.7812 69.5937 47.7812C65.4062 47.7812 61.7812 50.5937 60.625 54.5312C60.5312 54.5312 60.4062 54.5312 60.3125 54.5312C53.9375 54.5312 48.7813 59.7188 48.7813 66.0625C48.7813 67.0938 48.9062 68.125 49.1875 69.125C46.5 70.8437 44.8438 73.8125 44.8438 77.0312C44.8438 80.5 46.7812 83.6562 49.7812 85.25C49.5 86.3125 49.375 87.375 49.375 88.4375C49.375 95.7812 55.5937 101.75 63 101.281C63.8125 104.906 67.0625 107.625 70.9062 107.625C73.6562 107.625 76.0937 106.187 77.5625 104C79.0312 106.187 81.4687 107.625 84.2187 107.625C88.0625 107.625 91.3125 104.906 92.125 101.281C99.5312 101.75 105.75 95.7812 105.75 88.4375C105.75 87.375 105.625 86.3125 105.344 85.25C108.344 83.625 110.281 80.4688 110.281 77.0312C110.281 73.8125 108.625 70.8437 105.937 69.125L105.875 69.1875ZM70.8438 104.75C68.0625 104.75 65.7812 102.469 65.7187 99.6875C65.7187 99.25 65.5 98.8437 65.1875 98.5625C65 98.4062 64.7812 98.3125 64.5625 98.2812C64.4687 98.2812 64.375 98.25 64.3125 98.25C64.3125 98.25 64.2812 98.25 64.25 98.25C64.25 98.25 64.2187 98.25 64.1875 98.25C64.0937 98.25 64 98.25 63.875 98.25C58.5 99.1562 53.4062 95.5312 52.5 90.1562C51.5937 84.7812 55.2187 79.6875 60.5937 78.7812C61.4062 78.6562 61.9375 77.875 61.8125 77.0625C61.6875 76.25 60.9062 75.7187 60.0937 75.8437C55.9687 76.5312 52.6562 79.125 50.875 82.5625C48.9687 81.4062 47.75 79.375 47.75 77.125C47.75 74.625 49.25 72.3125 51.5312 71.2812C52.25 70.9375 52.5937 70.0937 52.3125 69.375C51.9062 68.3437 51.6875 67.2813 51.6875 66.1563C51.6875 61.4375 55.5312 57.5938 60.25 57.5938C60.625 57.5938 61.0312 57.625 61.5 57.6875C61.9062 57.75 62.2812 57.6562 62.625 57.4062C62.9375 57.1562 63.1562 56.8125 63.2187 56.4062C63.6562 53.25 66.3438 50.875 69.5 50.8438C69.5312 50.8438 69.5937 50.8438 69.625 50.8438C70.4687 50.8438 71.3125 51.0313 72.0625 51.3438C72.0937 51.3438 72.1562 51.375 72.1875 51.4062C72.5 51.5625 72.8125 51.7188 73.0937 51.9063C73.1562 51.9375 73.2187 52 73.2812 52.0313C73.5312 52.2188 73.7812 52.4063 74.0312 52.6563C74.0937 52.7188 74.125 52.7813 74.1875 52.8125C74.4062 53.0313 74.625 53.2813 74.8125 53.5625C74.8437 53.625 74.875 53.6875 74.9375 53.75C75.125 54.0312 75.2812 54.3125 75.4062 54.625C75.4062 54.6875 75.4687 54.75 75.5 54.8438C75.625 55.1562 75.7188 55.4688 75.7812 55.7813C75.7812 55.875 75.8125 55.9688 75.8437 56.0625C75.9062 56.375 75.9375 56.6563 75.9375 56.9688V57.3438C75.8437 60.7188 73.0625 63.4375 69.6562 63.4375C68.8437 63.4375 68.1562 64.0937 68.1562 64.9375C68.1562 65.7812 68.8125 66.4375 69.6562 66.4375C72.0625 66.4375 74.2812 65.5 75.9375 63.9688V93.4375C74.5625 92.3125 72.8125 91.625 70.875 91.625C70.0625 91.625 69.375 92.2812 69.375 93.125C69.375 93.9687 70.0312 94.625 70.875 94.625C73.6875 94.625 75.9375 96.9062 75.9375 99.6875V100.031C75.7187 102.719 73.5312 104.75 70.875 104.75H70.8438ZM104.156 82.5625C103.875 82.0625 103.594 81.5312 103.25 81.0625C101.25 78.2812 98.3125 76.4062 94.9062 75.8437C94.0937 75.7187 93.3125 76.25 93.1875 77.0625C93.0625 77.875 93.5937 78.625 94.4062 78.7812C99.7812 79.6875 103.406 84.7812 102.5 90.1562C101.594 95.5312 96.5 99.1562 91.125 98.25C90.9062 98.2187 90.6875 98.25 90.4687 98.3125C90.2187 98.375 90 98.4375 89.8125 98.625C89.4687 98.9062 89.2812 99.3125 89.2812 99.75C89.25 102.531 86.9687 104.812 84.1562 104.812C81.3437 104.812 79.3125 102.781 79.0937 100.219V99.7188C79.0937 96.9375 81.375 94.6562 84.1562 94.6562C84.9687 94.6562 85.6562 94 85.6562 93.1562C85.6562 92.3125 85 91.6562 84.1562 91.6562C82.25 91.6562 80.4687 92.3438 79.0937 93.4688V64C80.75 65.5312 82.9687 66.4687 85.375 66.4687C86.1875 66.4687 86.875 65.8125 86.875 64.9687C86.875 64.125 86.2187 63.4688 85.375 63.4688C81.9375 63.4688 79.1562 60.7188 79.0937 57.3125V57.0625C79.0937 56.7812 79.125 56.5312 79.1875 56.2812C79.2188 56.0938 79.25 55.875 79.3125 55.6875C79.3437 55.5313 79.4062 55.375 79.4687 55.2188C79.5625 55 79.625 54.75 79.75 54.5312C79.8125 54.4062 79.875 54.2812 79.9688 54.1562C80.0938 53.9375 80.2187 53.7188 80.3437 53.5312C80.4375 53.4062 80.5625 53.2813 80.6562 53.1563C80.7812 53 80.9375 52.8125 81.0937 52.6875C81.25 52.5313 81.4375 52.4063 81.5937 52.2813C81.7187 52.1875 81.8438 52.0625 82 51.9688C82.25 51.8125 82.5312 51.6562 82.7812 51.5312C82.8438 51.5 82.9375 51.4375 83 51.4062C83.75 51.0937 84.5625 50.9375 85.4062 50.9375C85.4375 50.9375 85.5 50.9375 85.5312 50.9375C88.6875 50.9375 91.375 53.3437 91.8125 56.5C91.875 56.9062 92.0625 57.25 92.4062 57.5C92.7187 57.75 93.125 57.8437 93.5312 57.7812C94.0312 57.7187 94.4062 57.6875 94.7812 57.6875C99.5 57.6875 103.344 61.5312 103.344 66.25C103.344 67.3437 103.125 68.4375 102.719 69.4688C102.406 70.2188 102.75 71.0625 103.5 71.375C105.812 72.4063 107.281 74.7187 107.281 77.2187C107.281 79.4687 106.062 81.5312 104.188 82.6562L104.156 82.5625Z" fill="#0073AD" fill-opacity="0.15"/>
<path d="M88.625 82.9375C88.625 82.125 87.9687 81.4375 87.125 81.4375C86.2812 81.4375 85.625 82.0937 85.625 82.9375C85.625 87.25 89.125 90.75 93.4375 90.75C94.25 90.75 94.9375 90.0937 94.9375 89.25C94.9375 88.4062 94.2812 87.75 93.4375 87.75C90.7812 87.75 88.5937 85.5937 88.5937 82.9062L88.625 82.9375Z" fill="#0073AD" fill-opacity="0.15"/>
<path d="M95.0625 64.4688C94.25 64.4688 93.5625 65.125 93.5625 65.9687C93.5625 68.625 91.4062 70.8125 88.7187 70.8125C87.9062 70.8125 87.2188 71.4688 87.2188 72.3125C87.2188 73.1563 87.875 73.8125 88.7187 73.8125C93.0312 73.8125 96.5312 70.3125 96.5312 66C96.5312 65.1875 95.875 64.5 95.0312 64.5L95.0625 64.4688Z" fill="#0073AD" fill-opacity="0.15"/>
<path d="M67.9062 81.4375C67.0938 81.4375 66.4063 82.0937 66.4063 82.9375C66.4063 85.5937 64.25 87.7813 61.5625 87.7813C60.75 87.7813 60.0625 88.4375 60.0625 89.2813C60.0625 90.125 60.7187 90.7812 61.5625 90.7812C65.875 90.7812 69.375 87.2812 69.375 82.9687C69.375 82.1562 68.7187 81.4688 67.875 81.4688L67.9062 81.4375Z" fill="#0073AD" fill-opacity="0.15"/>
<path d="M67.7812 72.2812C67.7812 71.4688 67.125 70.7813 66.2813 70.7813C63.625 70.7813 61.4375 68.625 61.4375 65.9375C61.4375 65.125 60.7813 64.4375 59.9375 64.4375C59.0938 64.4375 58.4375 65.0937 58.4375 65.9375C58.4375 70.25 61.9375 73.75 66.25 73.75C67.0625 73.75 67.75 73.0937 67.75 72.25L67.7812 72.2812Z" fill="#0073AD" fill-opacity="0.15"/>
</g>
<defs>
<clipPath id="clip0_111_2718">
<rect width="125" height="124.906" fill="white" transform="translate(15 15)"/>
</clipPath>
</defs>
</svg>
