<svg width="150" height="61" viewBox="0 0 150 61" fill="none" xmlns="http://www.w3.org/2000/svg">
<g clip-path="url(#clip0_222_303)">
<path d="M53.1811 22.6196C53.1811 23.8489 53.314 24.8456 53.5465 25.5765C53.8123 26.3074 54.1445 27.1047 54.6096 27.9685C54.7758 28.2343 54.8422 28.5 54.8422 28.7326C54.8422 29.0648 54.6429 29.3971 54.211 29.7293L52.118 31.1246C51.819 31.324 51.5199 31.4236 51.2542 31.4236C50.9219 31.4236 50.5897 31.2575 50.2575 30.9585C49.7924 30.4602 49.3937 29.9286 49.0615 29.3971C48.7292 28.8323 48.397 28.201 48.0316 27.4369C45.4402 30.4934 42.1761 32.0299 38.2558 32.0299C35.4651 32.0299 33.2309 31.2326 31.603 29.6379C29.9751 28.0432 29.1445 25.917 29.1445 23.2509C29.1445 20.427 30.1412 18.1263 32.1678 16.3987C34.1944 14.6711 36.8937 13.8074 40.3156 13.8074C41.4452 13.8074 42.608 13.907 43.8372 14.0731C45.0665 14.2392 46.3289 14.505 47.6661 14.804V12.3788C47.6661 9.85386 47.1346 8.08476 46.1047 7.05486C45.0415 6.02496 43.2475 5.52662 40.6811 5.52662C39.5183 5.52662 38.3223 5.65951 37.093 5.95852C35.8638 6.25752 34.6678 6.62297 33.505 7.08808C32.9734 7.32064 32.5748 7.45353 32.3422 7.51998C32.1096 7.58642 31.9435 7.61965 31.8106 7.61965C31.3455 7.61965 31.113 7.28742 31.113 6.58974V4.96184C31.113 4.43028 31.1794 4.03161 31.3455 3.79905C31.5116 3.56649 31.8106 3.33393 32.2758 3.10137C33.4386 2.50337 34.8339 2.00503 36.4701 1.60636C38.098 1.17446 39.8256 0.975127 41.6611 0.975127C45.6229 0.975127 48.5133 1.87214 50.3738 3.66616C52.201 5.46018 53.1312 8.19274 53.1312 11.8472V22.6196H53.1977H53.1811ZM39.6761 27.6778C40.7724 27.6778 41.902 27.4784 43.098 27.0798C44.294 26.6811 45.3572 25.9502 46.2542 24.9535C46.7857 24.3223 47.1844 23.6246 47.3837 22.8273C47.5831 22.0299 47.716 21.0665 47.716 19.9369V18.5416C46.7525 18.309 45.7226 18.1097 44.6595 17.9768C43.5964 17.8439 42.5665 17.7775 41.5366 17.7775C39.3106 17.7775 37.6744 18.2093 36.5781 19.1064C35.4817 20.0034 34.9502 21.2658 34.9502 22.9353C34.9502 24.4967 35.3489 25.6595 36.1794 26.4569C36.9768 27.2874 38.1395 27.6861 39.6678 27.6861L39.6761 27.6778ZM66.3871 31.2658C65.7891 31.2658 65.3904 31.1662 65.1246 30.9336C64.8588 30.7343 64.6263 30.2691 64.4269 29.6379L56.6113 3.92363C56.412 3.25918 56.3123 2.82729 56.3123 2.59473C56.3123 2.06317 56.5781 1.76416 57.1096 1.76416H60.3655C60.9967 1.76416 61.4286 1.86383 61.6611 2.09639C61.9269 2.29572 62.1263 2.76084 62.3256 3.39207L67.9153 25.4103L73.1063 3.39207C73.2724 2.72762 73.4718 2.29572 73.7376 2.09639C74.0033 1.89705 74.4685 1.76416 75.0665 1.76416H77.7243C78.3555 1.76416 78.7874 1.86383 79.0532 2.09639C79.319 2.29572 79.5515 2.76084 79.6844 3.39207L84.9419 25.6761L90.6977 3.39207C90.897 2.72762 91.1296 2.29572 91.3621 2.09639C91.6279 1.89705 92.0598 1.76416 92.6578 1.76416H95.7475C96.2791 1.76416 96.5781 2.02994 96.5781 2.59473C96.5781 2.76084 96.5449 2.92695 96.5116 3.12629C96.4784 3.32563 96.412 3.59141 96.2791 3.95685L88.2641 29.6628C88.0648 30.3273 87.8322 30.7592 87.5665 30.9585C87.3007 31.1579 86.8688 31.2907 86.304 31.2907H83.4469C82.8156 31.2907 82.3837 31.1911 82.118 30.9585C81.8522 30.726 81.6196 30.2941 81.4867 29.6296L76.3289 8.17612L71.2043 29.5964C71.0382 30.2608 70.8389 30.6927 70.5731 30.9253C70.3073 31.1579 69.8422 31.2575 69.2442 31.2575H66.3871V31.2658ZM109.128 32.1628C107.4 32.1628 105.673 31.9635 104.003 31.5648C102.342 31.1662 101.047 30.7343 100.174 30.2359C99.6429 29.9369 99.2774 29.6047 99.1445 29.3057C99.0116 29.0067 98.9452 28.6745 98.9452 28.3755V26.6811C98.9452 25.9834 99.211 25.6512 99.7093 25.6512C99.9087 25.6512 100.108 25.6844 100.307 25.7509C100.507 25.8173 100.806 25.9502 101.138 26.0831C102.267 26.5814 103.497 26.9801 104.792 27.2459C106.121 27.5117 107.417 27.6446 108.754 27.6446C110.847 27.6446 112.475 27.2791 113.613 26.5482C114.743 25.8173 115.341 24.7542 115.341 23.3921C115.341 22.4618 115.042 21.6977 114.444 21.0665C113.846 20.4353 112.716 19.8705 111.088 19.3389L106.262 17.8439C103.837 17.0798 102.035 15.9502 100.939 14.4552C99.8422 12.9934 99.2774 11.3655 99.2774 9.62961C99.2774 8.23426 99.5764 7.00503 100.174 5.9419C100.772 4.87878 101.57 3.94855 102.566 3.21765C103.563 2.45353 104.693 1.88875 106.022 1.49008C107.351 1.09141 108.746 0.925293 110.216 0.925293C110.947 0.925293 111.711 0.958516 112.442 1.05818C113.206 1.15785 113.904 1.29074 114.601 1.42363C115.266 1.58974 115.897 1.75586 116.495 1.95519C117.093 2.15453 117.558 2.35386 117.89 2.5532C118.355 2.81898 118.688 3.08476 118.887 3.38376C119.086 3.64955 119.186 4.01499 119.186 4.48011V6.04157C119.186 6.73925 118.92 7.10469 118.422 7.10469C118.156 7.10469 117.724 6.9718 117.159 6.70602C115.266 5.84224 113.131 5.41034 110.772 5.41034C108.879 5.41034 107.384 5.70935 106.346 6.34058C105.307 6.9718 104.784 7.93526 104.784 9.29739C104.784 10.2276 105.116 11.025 105.781 11.6562C106.445 12.2874 107.674 12.9186 109.435 13.4834L114.161 14.9784C116.553 15.7426 118.289 16.8057 119.319 18.1678C120.349 19.5299 120.847 21.0914 120.847 22.8273C120.847 24.2559 120.548 25.5515 119.983 26.6894C119.385 27.819 118.588 28.8157 117.558 29.613C116.528 30.4436 115.299 31.0416 113.87 31.4735C112.375 31.9386 110.814 32.1711 109.111 32.1711L109.128 32.1628Z" fill="#252F3E"/>
<path fill-rule="evenodd" clip-rule="evenodd" d="M115.407 48.3256C104.468 56.407 88.5631 60.701 74.9003 60.701C55.7392 60.701 38.4801 53.6163 25.4402 41.8389C24.4103 40.9087 25.3405 39.6462 26.5698 40.3771C40.6728 48.5582 58.0648 53.5166 76.0631 53.5166C88.206 53.5166 101.537 50.9917 113.812 45.8007C115.64 44.9701 117.201 46.9967 115.407 48.3256Z" fill="#252F3E"/>
<path fill-rule="evenodd" clip-rule="evenodd" d="M119.967 43.1429C118.571 41.3489 110.723 42.2791 107.159 42.711C106.096 42.8439 105.93 41.9136 106.894 41.216C113.148 36.8223 123.422 38.093 124.618 39.5548C125.814 41.0499 124.286 51.3322 118.43 56.2492C117.533 57.0133 116.669 56.6146 117.068 55.618C118.397 52.3289 121.362 44.912 119.958 43.1429H119.967Z" fill="#252F3E"/>
</g>
<defs>
<clipPath id="clip0_222_303">
<rect width="100" height="59.8007" fill="white" transform="translate(25 0.900391)"/>
</clipPath>
</defs>
</svg>
