<svg width="150" height="60" viewBox="0 0 150 60" fill="none" xmlns="http://www.w3.org/2000/svg">
<g clip-path="url(#clip0_222_311)">
<path d="M146.587 19.59C148.472 19.59 150 18.0622 150 16.1775C150 14.2928 148.472 12.765 146.587 12.765C144.703 12.765 143.175 14.2928 143.175 16.1775C143.175 18.0622 144.703 19.59 146.587 19.59Z" fill="#1C273B"/>
<path d="M46.83 24.12C54.4125 23.97 60.7275 29.925 60.93 37.56C61.1325 45.1425 55.125 51.4575 47.5425 51.66H46.83C39.2475 51.8625 32.9325 45.855 32.73 38.2725C32.5275 30.69 38.535 24.3225 46.1175 24.12H46.83ZM46.83 46.515C51.465 46.62 55.3275 42.9525 55.4325 38.2725V37.8675C55.4325 33.135 51.615 29.265 46.8825 29.265C42.15 29.265 38.28 33.0825 38.28 37.815C38.13 42.45 41.79 46.3125 46.425 46.47C46.53 46.5225 46.68 46.5225 46.83 46.5225V46.515Z" fill="#1C273B"/>
<path d="M78.0825 24.12C85.665 24.27 91.725 30.5325 91.5675 38.115C91.4625 45.75 85.155 51.81 77.5725 51.6525C70.0875 51.5025 64.0875 45.39 64.0875 37.9125C64.035 30.3825 70.0425 24.2175 77.5725 24.1725C77.775 24.12 77.9325 24.12 78.0825 24.12ZM78.0825 46.515C82.7175 46.62 86.58 42.9525 86.685 38.2725V37.8675C86.685 33.135 82.8675 29.265 78.135 29.265C73.4025 29.265 69.5325 33.0825 69.5325 37.815C69.3825 42.45 73.0425 46.3125 77.6775 46.47C77.8275 46.5225 77.985 46.5225 78.0825 46.5225V46.515Z" fill="#1C273B"/>
<path d="M143.843 50.4825V24.7275C143.843 24.3675 144.098 24.12 144.45 24.12H148.673C148.98 24.12 149.28 24.375 149.28 24.7275V50.4825C149.28 50.79 149.025 51.09 148.673 51.09H144.45C144.143 51.09 143.843 50.835 143.843 50.4825Z" fill="#1C273B"/>
<path d="M127.958 24.12C124.193 24.015 120.63 25.905 118.538 29.055C116.858 26.0025 113.648 24.12 109.118 24.12C104.588 24.12 101.94 26.6625 101.13 27.99V23.82C101.13 23.5125 100.875 23.2125 100.568 23.2125C100.463 23.2125 100.313 23.265 100.208 23.3175L95.7825 25.86C95.6775 25.9125 95.6325 26.01 95.6325 26.115V50.445C95.6325 50.805 95.8875 51.0525 96.24 51.0525H100.515C100.875 51.0525 101.123 50.7975 101.123 50.445V36.2475C101.123 31.8675 104.333 29.325 108.248 29.325C112.163 29.325 114.458 31.8675 114.458 36.2475V50.55C114.458 50.8575 114.713 51.1575 115.065 51.1575H119.34C119.648 51.1575 119.948 50.9025 119.948 50.55V35.8875C120.098 31.7175 123.255 29.325 127.125 29.325C130.995 29.325 133.335 31.8675 133.335 36.2475V50.55C133.335 50.8575 133.59 51.1575 133.943 51.1575H138.218C138.525 51.1575 138.825 50.9025 138.825 50.55V35.0775C138.773 28.665 134.955 24.135 127.935 24.135L127.958 24.12Z" fill="#1C273B"/>
<path d="M15.165 24.12C11.55 24.0675 8.0925 25.395 5.445 27.8325V9.6075C5.445 9.2475 5.19 9 4.8375 9C4.7325 9 4.635 9.0525 4.53 9.105L0.15 11.6475C0.045 11.7 0 11.7975 0 11.9025V50.4825C0 50.79 0.255 51.09 0.6075 51.09H4.8825C5.19 51.09 5.49 50.835 5.49 50.4825V47.94C8.1375 50.385 11.6475 51.705 15.21 51.6525C22.7925 51.855 29.1075 45.8475 29.31 38.265C29.46 30.63 23.46 24.315 15.87 24.1125H15.1575L15.165 24.12ZM15.165 46.515C10.53 46.62 6.6675 42.9525 6.5625 38.2725V37.8675C6.5625 33.135 10.38 29.265 15.165 29.265C19.95 29.265 23.7675 33.0825 23.7675 37.8675C23.9175 42.5025 20.2575 46.365 15.6225 46.5225H15.165V46.515Z" fill="#1C273B"/>
</g>
<defs>
<clipPath id="clip0_222_311">
<rect width="150" height="42.66" fill="white" transform="translate(0 9)"/>
</clipPath>
</defs>
</svg>
