<svg width="324" height="160" viewBox="0 0 324 160" fill="none" xmlns="http://www.w3.org/2000/svg">
<path d="M0 12C0 5.37259 5.37258 0 12 0H312C318.627 0 324 5.37258 324 12V141.562C324 148.19 318.627 153.562 312 153.562H12C5.37258 153.562 0 148.19 0 141.562V12Z" fill="white"/>
<g clip-path="url(#clip0_280_180)">
<path d="M216.25 55.3006H258.969C259.75 55.3006 260.375 54.6764 260.375 53.8963V31.0528C260.375 30.2726 259.75 29.6485 258.969 29.6485H238.75L232.406 24.3433C232.156 24.1248 231.844 24 231.5 24H216.25C215.469 24 214.844 24.6241 214.844 25.4043V53.865C214.844 54.6452 215.469 55.2694 216.25 55.2694V55.3006ZM217.687 26.8398H231L234.375 29.6485H227.375C226.594 29.6485 225.969 30.2726 225.969 31.0528C225.969 31.8329 226.594 32.4571 227.375 32.4571H241.531H257.594V52.4607H217.687V26.8398Z" fill="#0073AD" fill-opacity="0.15"/>
<path d="M300 101.268V88.3175C300 82.3882 289.656 77.8944 275.906 77.8944C262.156 77.8944 251.812 82.3882 251.812 88.3175V127.139C251.812 133.068 262.156 137.562 275.906 137.562C289.656 137.562 299.094 133.443 299.906 127.888H300V127.139V114.188V101.237V101.268ZM275.906 80.7342C288.438 80.7342 297.156 84.7287 297.156 88.3175C297.156 91.9063 288.438 95.9008 275.906 95.9008C263.375 95.9008 254.656 91.9063 254.656 88.3175C254.656 84.7287 263.375 80.7342 275.906 80.7342ZM254.656 93.373C258.656 96.6186 266.469 98.7406 275.906 98.7406C285.344 98.7406 293.187 96.6186 297.156 93.373V101.268C297.156 104.857 288.438 108.852 275.906 108.852C263.375 108.852 254.656 104.857 254.656 101.268V93.373ZM254.656 106.324C258.656 109.569 266.469 111.692 275.906 111.692C285.344 111.692 293.187 109.569 297.156 106.324V114.219C297.156 117.808 288.438 121.803 275.906 121.803C263.375 121.803 254.656 117.808 254.656 114.219V106.324ZM275.906 134.722C263.375 134.722 254.656 130.728 254.656 127.139V119.244C258.656 122.489 266.469 124.611 275.906 124.611C285.344 124.611 293.187 122.489 297.156 119.244V127.139C297.156 130.728 288.438 134.722 275.906 134.722Z" fill="#0073AD" fill-opacity="0.15"/>
<path d="M199.094 77.8944C185.344 77.8944 175 82.3882 175 88.3175V127.139C175 133.068 185.344 137.562 199.094 137.562C212.844 137.562 222.281 133.443 223.094 127.888H223.187V88.3175C223.187 82.3882 212.844 77.8944 199.094 77.8944ZM199.094 134.722C186.562 134.722 177.844 130.728 177.844 127.139V119.244C181.844 122.489 189.656 124.611 199.094 124.611C208.531 124.611 216.375 122.489 220.344 119.244V127.139C220.344 130.728 211.625 134.722 199.094 134.722ZM199.094 121.771C186.562 121.771 177.844 117.777 177.844 114.188V106.293C181.844 109.538 189.656 111.66 199.094 111.66C208.531 111.66 216.375 109.538 220.344 106.293V114.188C220.344 117.777 211.625 121.771 199.094 121.771ZM199.094 108.82C186.562 108.82 177.844 104.826 177.844 101.237V93.3418C181.844 96.5874 189.656 98.7094 199.094 98.7094C208.531 98.7094 216.375 96.5874 220.344 93.3418V101.237C220.344 104.826 211.625 108.82 199.094 108.82ZM199.094 95.9008C186.562 95.9008 177.844 91.9063 177.844 88.3175C177.844 84.7287 186.562 80.7342 199.094 80.7342C211.625 80.7342 220.344 84.7287 220.344 88.3175C220.344 91.9063 211.625 95.9008 199.094 95.9008Z" fill="#0073AD" fill-opacity="0.15"/>
<path d="M200.656 41.0702H207.781C208.562 41.0702 209.187 40.4461 209.187 39.6659C209.187 38.8857 208.562 38.2616 207.781 38.2616H199.25C198.469 38.2616 197.844 38.8857 197.844 39.6659V70.8416C197.844 71.6218 198.469 72.246 199.25 72.246C200.031 72.246 200.656 71.6218 200.656 70.8416V41.0702Z" fill="#0073AD" fill-opacity="0.15"/>
<path d="M274.563 67.7209L270.281 63.6952C269.719 63.1647 268.813 63.1959 268.281 63.7577C267.75 64.3194 267.781 65.2244 268.344 65.7549L274.906 71.8715C275.156 72.1211 275.531 72.246 275.875 72.246C275.875 72.246 275.875 72.246 275.906 72.246C276.281 72.246 276.625 72.0587 276.906 71.8091L283.031 65.2556C283.563 64.6939 283.531 63.7889 282.969 63.2584C282.406 62.7278 281.5 62.759 280.969 63.3208L277.406 67.0968V39.6659C277.406 38.8857 276.781 38.2616 276 38.2616H267.469C266.688 38.2616 266.062 38.8857 266.062 39.6659C266.062 40.4461 266.688 41.0702 267.469 41.0702H274.594V67.7209H274.563Z" fill="#0073AD" fill-opacity="0.15"/>
</g>
<defs>
<clipPath id="clip0_280_180">
<rect width="125" height="113.562" fill="white" transform="translate(175 24)"/>
</clipPath>
</defs>
</svg>
