<svg width="324" height="160" viewBox="0 0 324 160" fill="none" xmlns="http://www.w3.org/2000/svg">
<path d="M0 12C0 5.37259 5.37258 0 12 0H312C318.627 0 324 5.37258 324 12V141.562C324 148.19 318.627 153.562 312 153.562H12C5.37258 153.562 0 148.19 0 141.562V12Z" fill="white"/>
<path d="M289.128 29.4648H185.872C179.874 29.4648 175 34.3385 175 40.337V113.225C175 119.224 179.874 124.097 185.872 124.097H289.128C295.126 124.097 300 119.224 300 113.225V40.337C300 34.3385 295.126 29.4648 289.128 29.4648ZM211.585 99.6347V81.2955H257.354V99.6347H211.585ZM257.354 102.696V121.036H211.585V102.696H257.354ZM257.354 59.9259V78.2651H211.585V59.9259H257.354ZM296.938 59.9259V78.2651H260.385V59.9259H296.938ZM208.523 78.2651H178.062V59.9259H208.523V78.2651ZM178.062 81.2955H208.523V99.6347H178.062V81.2955ZM260.385 81.2955H296.938V99.6347H260.385V81.2955ZM185.872 32.4952H289.128C293.439 32.4952 296.938 35.9944 296.938 40.3058V56.8642H178.062V40.3058C178.062 35.9944 181.561 32.4952 185.872 32.4952ZM178.062 113.194V102.665H208.523V121.004H185.872C181.561 121.004 178.062 117.505 178.062 113.194ZM289.128 121.004H260.385V102.665H296.938V113.194C296.938 117.505 293.439 121.004 289.128 121.004Z" fill="#0073AD" fill-opacity="0.15"/>
</svg>
