<svg width="324" height="160" viewBox="0 0 324 160" fill="none" xmlns="http://www.w3.org/2000/svg">
<path d="M0 12C0 5.37259 5.37258 0 12 0H312C318.627 0 324 5.37258 324 12V141.562C324 148.19 318.627 153.562 312 153.562H12C5.37258 153.562 0 148.19 0 141.562V12Z" fill="white"/>
<g clip-path="url(#clip0_280_239)">
<path d="M288.094 73.0311C288.75 75.6873 291.125 77.6561 293.938 77.6561C297.281 77.6561 299.969 74.9373 299.969 71.6248C299.969 68.3123 297.25 65.5936 293.938 65.5936C291.094 65.5936 288.719 67.5623 288.094 70.2186H271.938V62.7186H282.063C282.844 62.7186 283.5 62.0936 283.5 61.2811C283.5 60.4686 282.875 59.8436 282.063 59.8436H271.938V57.0936C271.938 48.8123 265.188 42.0623 256.906 42.0623H254.469V36.4373C254.469 35.6561 253.844 34.9998 253.031 34.9998C252.219 34.9998 251.594 35.6248 251.594 36.4373V42.0623H244.094V27.1873H259.219C259.875 29.8436 262.25 31.8123 265.063 31.8123C268.406 31.8123 271.094 29.0936 271.094 25.7811C271.094 22.4686 268.375 19.7498 265.063 19.7498C262.219 19.7498 259.844 21.7186 259.219 24.3748H242.688C241.906 24.3748 241.25 24.9998 241.25 25.8123V42.0936H233.75V26.1873C236.406 25.5311 238.375 23.1561 238.375 20.3436C238.375 16.9998 235.656 14.3123 232.344 14.3123C229.031 14.3123 226.313 17.0311 226.313 20.3436C226.313 23.1873 228.281 25.5623 230.938 26.1873V42.0623H223.438V32.2498C223.438 31.4686 222.813 30.8123 222 30.8123C221.188 30.8123 220.563 31.4373 220.563 32.2498V42.0623H218.125C209.844 42.0623 203.094 48.8123 203.094 57.0936V59.8436H196.375C195.594 59.8436 194.938 60.4686 194.938 61.2811C194.938 62.0936 195.563 62.7186 196.375 62.7186H203.094V70.2186H187.094V55.0936C189.75 54.4373 191.719 52.0623 191.719 49.2498C191.719 45.9061 189 43.2186 185.688 43.2186C182.375 43.2186 179.656 45.9373 179.656 49.2498C179.656 52.0936 181.625 54.4686 184.281 55.0936V71.6248C184.281 72.4061 184.906 73.0623 185.719 73.0623H203.125V80.5623H186.906C186.25 77.9061 183.875 75.9373 181.063 75.9373C177.719 75.9373 175.031 78.6561 175.031 81.9686C175.031 85.2811 177.75 87.9998 181.063 87.9998C183.906 87.9998 186.281 86.0311 186.906 83.3748H203.062V90.8748H193.563C192.781 90.8748 192.125 91.4998 192.125 92.3123C192.125 93.1248 192.75 93.7498 193.563 93.7498H203.062V95.9061C203.062 104.187 209.813 110.937 218.094 110.937H220.531V117.937C220.531 118.719 221.156 119.375 221.969 119.375C222.781 119.375 223.406 118.75 223.406 117.937V110.937H230.906V127.219H215.781C215.125 124.562 212.75 122.594 209.938 122.594C206.594 122.594 203.906 125.312 203.906 128.625C203.906 131.937 206.625 134.656 209.938 134.656C212.781 134.656 215.156 132.687 215.781 130.031H232.313C233.094 130.031 233.75 129.406 233.75 128.594V110.906H241.25V127.375C238.594 128.031 236.625 130.406 236.625 133.219C236.625 136.562 239.344 139.25 242.656 139.25C245.969 139.25 248.688 136.531 248.688 133.219C248.688 130.375 246.719 128 244.063 127.375V110.906H251.563V120.719C251.563 121.5 252.188 122.156 253 122.156C253.813 122.156 254.438 121.531 254.438 120.719V110.906H256.875C265.156 110.906 271.906 104.156 271.906 95.8748V93.7186H277.813C278.594 93.7186 279.25 93.0936 279.25 92.2811C279.25 91.4686 278.625 90.8436 277.813 90.8436H271.906V83.3436H287.063V98.4686C284.406 99.1248 282.438 101.5 282.438 104.312C282.438 107.656 285.156 110.344 288.469 110.344C291.781 110.344 294.5 107.625 294.5 104.312C294.5 101.469 292.531 99.0936 289.875 98.4686V81.9373C289.875 81.1561 289.25 80.4998 288.438 80.4998H271.844V72.9998H288L288.094 73.0311ZM293.969 68.4061C295.719 68.4061 297.156 69.8436 297.156 71.5936C297.156 73.3436 295.719 74.7811 293.969 74.7811C292.219 74.7811 290.781 73.3436 290.781 71.5936C290.781 69.8436 292.219 68.4061 293.969 68.4061ZM265.094 22.5623C266.844 22.5623 268.281 23.9998 268.281 25.7498C268.281 27.4998 266.844 28.9373 265.094 28.9373C263.344 28.9373 261.906 27.4998 261.906 25.7498C261.906 23.9998 263.344 22.5623 265.094 22.5623ZM229.125 20.3123C229.125 18.5623 230.563 17.1248 232.313 17.1248C234.063 17.1248 235.5 18.5623 235.5 20.3123C235.5 22.0623 234.063 23.4998 232.313 23.4998C230.563 23.4998 229.125 22.0623 229.125 20.3123ZM182.469 49.1873C182.469 47.4373 183.906 45.9998 185.656 45.9998C187.406 45.9998 188.844 47.4373 188.844 49.1873C188.844 50.9373 187.406 52.3748 185.656 52.3748C183.906 52.3748 182.469 50.9373 182.469 49.1873ZM181.031 85.1561C179.281 85.1561 177.844 83.7186 177.844 81.9686C177.844 80.2186 179.281 78.7811 181.031 78.7811C182.781 78.7811 184.219 80.2186 184.219 81.9686C184.219 83.7186 182.781 85.1561 181.031 85.1561ZM209.906 131.812C208.156 131.812 206.719 130.375 206.719 128.625C206.719 126.875 208.156 125.437 209.906 125.437C211.656 125.437 213.094 126.875 213.094 128.625C213.094 130.375 211.656 131.812 209.906 131.812ZM245.875 133.25C245.875 135 244.438 136.437 242.688 136.437C240.938 136.437 239.5 135 239.5 133.25C239.5 131.5 240.938 130.062 242.688 130.062C244.438 130.062 245.875 131.5 245.875 133.25ZM291.719 104.375C291.719 106.125 290.281 107.562 288.531 107.562C286.781 107.562 285.344 106.125 285.344 104.375C285.344 102.625 286.781 101.187 288.531 101.187C290.281 101.187 291.719 102.625 291.719 104.375ZM269.094 95.8748C269.094 102.594 263.625 108.062 256.906 108.062H218.094C211.375 108.062 205.906 102.594 205.906 95.8748V57.0623C205.906 50.3436 211.375 44.8748 218.094 44.8748H256.906C263.625 44.8748 269.094 50.3436 269.094 57.0623V95.8748Z" fill="#0073AD" fill-opacity="0.15"/>
<path d="M259.562 65.1873C259.219 64.5623 258.469 64.2811 257.812 64.4998L254.875 65.5623C253.625 63.6248 252.062 61.9061 250.25 60.4686L251.594 57.6248C251.906 56.9686 251.687 56.2186 251.062 55.8123C250.094 55.1873 249.094 54.6248 248.094 54.1561C247.094 53.6873 246.031 53.2811 244.937 52.9373C244.25 52.7186 243.531 53.0623 243.219 53.6873L241.875 56.5311C239.625 56.0311 237.281 55.9373 235 56.2186L233.937 53.2811C233.687 52.6248 233 52.2186 232.312 52.3748C230.094 52.8436 227.969 53.6248 225.937 54.6873C225.312 55.0311 225.031 55.7498 225.25 56.4373L226.312 59.3748C224.375 60.6248 222.656 62.1873 221.25 63.9998L218.406 62.6561C217.75 62.3436 217 62.5623 216.594 63.1873C215.969 64.1561 215.406 65.1561 214.937 66.1561C214.469 67.1561 214.062 68.2186 213.719 69.3123C213.5 69.9998 213.844 70.7186 214.469 71.0311L217.312 72.3748C216.812 74.6248 216.719 76.9686 217 79.2498L214.062 80.3123C213.406 80.5623 213 81.2498 213.156 81.9373C213.625 84.1561 214.406 86.2811 215.469 88.3123C215.812 88.9373 216.531 89.2186 217.219 88.9998L220.156 87.9373C221.406 89.8748 222.969 91.5936 224.781 93.0311L223.437 95.8748C223.125 96.5311 223.344 97.2811 223.969 97.6873C224.937 98.3123 225.937 98.8748 226.937 99.3436C227.937 99.8123 229 100.219 230.094 100.562C230.781 100.781 231.5 100.437 231.812 99.8123L233.156 96.9686C235.406 97.4686 237.75 97.5623 240.031 97.2811L241.094 100.219C241.312 100.781 241.844 101.156 242.437 101.156C242.531 101.156 242.625 101.156 242.75 101.125C244.969 100.656 247.094 99.8748 249.125 98.8123C249.75 98.4686 250.031 97.7498 249.812 97.0623L248.75 94.1248C250.687 92.8748 252.406 91.3123 253.812 89.4998L256.656 90.8436C257.312 91.1561 258.062 90.9373 258.469 90.3123C259.094 89.3436 259.656 88.3436 260.125 87.3436C260.594 86.3436 261 85.2811 261.344 84.1873C261.562 83.4998 261.219 82.7811 260.594 82.4686L257.75 81.1248C258.25 78.8748 258.344 76.5311 258.062 74.2498L261 73.1873C261.656 72.9373 262.062 72.2498 261.906 71.5623C261.437 69.3436 260.656 67.2186 259.594 65.1873H259.562ZM255.937 71.9998C255.281 72.2498 254.906 72.9061 255.031 73.5936C255.5 76.2186 255.375 78.9686 254.656 81.5623C254.469 82.2186 254.781 82.9373 255.437 83.2498L258.187 84.5311C257.969 85.0936 257.75 85.6561 257.5 86.1561C257.25 86.6873 256.969 87.2186 256.687 87.7186L253.937 86.4373C253.312 86.1561 252.562 86.3436 252.156 86.9061C250.625 89.1561 248.625 90.9686 246.281 92.2811C245.687 92.6248 245.406 93.3436 245.656 93.9998L246.687 96.8436C245.625 97.3436 244.5 97.7186 243.375 98.0311L242.344 95.1873C242.125 94.6248 241.594 94.2498 241 94.2498C240.906 94.2498 240.844 94.2498 240.75 94.2498C238.094 94.7498 235.406 94.6248 232.781 93.8748C232.125 93.6873 231.406 93.9998 231.094 94.6561L229.812 97.4061C229.25 97.1873 228.719 96.9686 228.187 96.7186C227.656 96.4686 227.125 96.1873 226.625 95.9061L227.906 93.1561C228.187 92.5311 228 91.7811 227.437 91.3748C225.187 89.8436 223.375 87.8436 222.062 85.4998C221.719 84.9061 221 84.6248 220.344 84.8436L217.5 85.8748C217 84.8123 216.594 83.6873 216.281 82.5623L219.125 81.5311C219.781 81.2811 220.156 80.6248 220.031 79.9373C219.562 77.3123 219.687 74.5623 220.406 71.9686C220.594 71.3123 220.281 70.5936 219.625 70.2811L216.875 68.9998C217.094 68.4373 217.312 67.8748 217.562 67.3748C217.812 66.8436 218.094 66.3123 218.375 65.8123L221.125 67.0936C221.75 67.4061 222.5 67.1873 222.906 66.6248C224.437 64.3748 226.437 62.5623 228.781 61.2498C229.375 60.9061 229.656 60.1873 229.406 59.5311L228.375 56.6873C229.437 56.1873 230.562 55.8123 231.687 55.4998L232.719 58.3436C232.969 58.9998 233.625 59.3748 234.312 59.2498C236.969 58.7498 239.656 58.8748 242.281 59.6248C242.969 59.8123 243.656 59.4998 243.969 58.8436L245.25 56.0936C245.812 56.3123 246.344 56.5311 246.875 56.7811C247.406 57.0311 247.906 57.3123 248.437 57.5936L247.156 60.3436C246.875 60.9686 247.062 61.7186 247.625 62.1248C249.875 63.6561 251.687 65.6561 253 67.9998C253.344 68.5936 254.062 68.8748 254.719 68.6561L257.562 67.6248C258.062 68.6873 258.469 69.8123 258.781 70.9373L255.937 71.9686V71.9998Z" fill="#0073AD" fill-opacity="0.15"/>
<path d="M240.344 66.906C234.906 65.3435 229.187 68.4998 227.594 73.9373C226.031 79.3748 229.187 85.0935 234.625 86.6873C235.562 86.9685 236.531 87.0935 237.469 87.0935C241.937 87.0935 246.062 84.156 247.375 79.656C248.937 74.2185 245.781 68.4998 240.344 66.906ZM244.656 78.8435C243.531 82.781 239.375 85.0623 235.437 83.9373C231.5 82.8123 229.219 78.656 230.344 74.7185C231.469 70.781 235.625 68.4998 239.562 69.6248C243.5 70.7498 245.781 74.906 244.656 78.8435Z" fill="#0073AD" fill-opacity="0.15"/>
</g>
<defs>
<clipPath id="clip0_280_239">
<rect width="125" height="125" fill="white" transform="translate(175 14.2811)"/>
</clipPath>
</defs>
</svg>
