<svg width="324" height="160" viewBox="0 0 324 160" fill="none" xmlns="http://www.w3.org/2000/svg">
<path d="M0 12C0 5.37259 5.37258 0 12 0H312C318.627 0 324 5.37258 324 12V141.562C324 148.19 318.627 153.562 312 153.562H12C5.37258 153.562 0 148.19 0 141.562V12Z" fill="white"/>
<g clip-path="url(#clip0_280_223)">
<path d="M237.636 106.3C220.677 106.3 204.716 99.6801 192.715 87.7091L181.106 76.1009L192.715 64.4927C204.716 52.4915 220.647 45.9014 237.636 45.9014C254.625 45.9014 270.556 52.5217 282.557 64.4927L294.166 76.1009L282.557 87.7091C270.556 99.7103 254.625 106.3 237.636 106.3ZM185.036 76.0707L194.679 85.7139C206.137 97.171 221.403 103.489 237.636 103.489C253.869 103.489 269.105 97.171 280.592 85.7139L290.236 76.0707L280.592 66.4274C269.135 54.9703 253.869 48.6523 237.636 48.6523C221.403 48.6523 206.167 54.9703 194.679 66.4274L185.036 76.0707Z" fill="#0073AD" fill-opacity="0.15"/>
<path d="M237.636 94.7829C227.328 94.7829 218.924 86.379 218.924 76.0707C218.924 65.7623 227.328 57.3584 237.636 57.3584C247.944 57.3584 256.348 65.7623 256.348 76.0707C256.348 86.379 247.944 94.7829 237.636 94.7829ZM237.636 60.1396C228.839 60.1396 221.705 67.304 221.705 76.0707C221.705 84.8373 228.839 92.0017 237.636 92.0017C246.433 92.0017 253.567 84.8675 253.567 76.0707C253.567 67.2738 246.433 60.1396 237.636 60.1396Z" fill="#0073AD" fill-opacity="0.15"/>
<path d="M175.151 139.281L184.401 110.774L201.904 93.3016L203.869 95.2665L186.85 112.286L179.444 135.049L202.479 127.915L227.237 103.217L229.202 105.182L203.96 130.363L175.151 139.281Z" fill="#0073AD" fill-opacity="0.15"/>
<path d="M274.637 59.7466L272.672 57.7817L292.442 38.0719C295.617 34.8977 295.617 29.7284 292.442 26.5543L287.968 22.0803C284.976 19.0876 280.109 19.0876 277.116 22.0803L249.879 49.2569L247.914 47.2919L275.121 20.0852C279.202 16.0041 285.852 16.0041 289.933 20.0852L294.407 24.5592C298.67 28.8216 298.67 35.7442 294.407 40.0066L274.637 59.7164V59.7466Z" fill="#0073AD" fill-opacity="0.15"/>
<path d="M203.44 24.812L196.664 31.5881L198.63 33.5546L205.406 26.7786L203.44 24.812Z" fill="#0073AD" fill-opacity="0.15"/>
<path d="M212.644 34.1692L205.867 40.9453L207.834 42.9118L214.61 36.1357L212.644 34.1692Z" fill="#0073AD" fill-opacity="0.15"/>
<path d="M279.417 100.852L272.641 107.628L274.608 109.595L281.384 102.819L279.417 100.852Z" fill="#0073AD" fill-opacity="0.15"/>
<path d="M288.118 109.696L281.342 116.472L283.309 118.438L290.085 111.662L288.118 109.696Z" fill="#0073AD" fill-opacity="0.15"/>
<path d="M280.411 137.739L247.582 104.91L249.547 102.945L280.411 133.809L296.07 118.15L272.461 94.541L274.426 92.5761L300 118.15L280.411 137.739Z" fill="#0073AD" fill-opacity="0.15"/>
<path d="M201.693 59.0211L176.542 33.8699L196.131 14.2811L228.9 47.0199L226.935 48.9848L196.131 18.2109L180.472 33.8699L203.658 57.0561L201.693 59.0211Z" fill="#0073AD" fill-opacity="0.15"/>
<path d="M186.604 110.519L184.637 112.485L202.251 130.099L204.218 128.132L186.604 110.519Z" fill="#0073AD" fill-opacity="0.15"/>
<path d="M270.39 26.866L268.388 28.7962L285.697 46.7513L287.699 44.8212L270.39 26.866Z" fill="#0073AD" fill-opacity="0.15"/>
</g>
<defs>
<clipPath id="clip0_280_223">
<rect width="124.849" height="125" fill="white" transform="translate(175.151 14.2811)"/>
</clipPath>
</defs>
</svg>
