<svg width="324" height="160" viewBox="0 0 324 160" fill="none" xmlns="http://www.w3.org/2000/svg">
<path d="M0 12C0 5.37259 5.37258 0 12 0H312C318.627 0 324 5.37258 324 12V141.562C324 148.19 318.627 153.562 312 153.562H12C5.37258 153.562 0 148.19 0 141.562V12Z" fill="white"/>
<g clip-path="url(#clip0_280_311)">
<path d="M298.594 68.2811C297.813 68.2811 297.188 68.9061 297.188 69.6873V76.5623H285.375V65.4061C285.375 52.3748 274.781 41.7811 261.75 41.7811H258.469L265.312 30.8748C266.062 31.0936 266.844 31.2186 267.687 31.2186C272.344 31.2186 276.125 27.4373 276.125 22.7811C276.125 18.1248 272.344 14.3436 267.687 14.3436C263.031 14.3436 259.25 18.1248 259.25 22.7811C259.25 25.5936 260.625 28.0936 262.75 29.6248L255.125 41.7811H219.219L211.594 29.6248C213.719 28.0936 215.094 25.5936 215.094 22.7811C215.094 18.1248 211.312 14.3436 206.656 14.3436C202 14.3436 198.219 18.1248 198.219 22.7811C198.219 27.4373 202 31.2186 206.656 31.2186C207.469 31.2186 208.281 31.0936 209.031 30.8748L215.875 41.7811H212.594C199.562 41.7811 188.969 52.3748 188.969 65.4061V76.5623H177.844V69.6873C177.844 68.9061 177.219 68.2811 176.438 68.2811C175.656 68.2811 175.031 68.9061 175.031 69.6873V86.6561C175.031 87.4373 175.656 88.0623 176.438 88.0623C177.219 88.0623 177.844 87.4373 177.844 86.6561V79.4061H188.969V101.031C188.969 101.812 189.594 102.437 190.375 102.437H283.906C284.688 102.437 285.313 101.812 285.313 101.031V79.4061H297.125V86.6561C297.125 87.4373 297.75 88.0623 298.531 88.0623C299.313 88.0623 299.938 87.4373 299.938 86.6561V69.6873C299.938 68.9061 299.313 68.2811 298.531 68.2811H298.594ZM267.656 17.2186C270.75 17.2186 273.25 19.7186 273.25 22.8123C273.25 25.9061 270.75 28.4061 267.656 28.4061C264.562 28.4061 262.063 25.9061 262.063 22.8123C262.063 19.7186 264.562 17.2186 267.656 17.2186ZM201.062 22.8123C201.062 19.7186 203.562 17.2186 206.656 17.2186C209.75 17.2186 212.25 19.7186 212.25 22.8123C212.25 25.9061 209.75 28.4061 206.656 28.4061C203.562 28.4061 201.062 25.9061 201.062 22.8123ZM282.5 99.6248H191.812V65.4373C191.812 53.9686 201.125 44.6561 212.594 44.6561H261.719C273.187 44.6561 282.5 53.9686 282.5 65.4373V99.6248Z" fill="#0073AD" fill-opacity="0.15"/>
<path d="M284.438 108.281C283.656 108.281 283.031 108.906 283.031 109.687C283.031 118.219 276.094 125.156 267.594 125.156H207.25C198.719 125.156 191.813 118.219 191.813 109.687C191.813 108.906 191.187 108.281 190.406 108.281C189.625 108.281 189 108.906 189 109.687C189 119.781 197.219 128 207.281 128H209.125V137.781C209.125 138.562 209.75 139.187 210.531 139.187H264.156C264.938 139.187 265.562 138.562 265.562 137.781V128H267.531C277.625 128 285.812 119.781 285.812 109.687C285.812 108.906 285.187 108.281 284.406 108.281H284.438ZM262.719 136.375H211.969V128.031H262.75V136.375H262.719Z" fill="#0073AD" fill-opacity="0.15"/>
<path d="M218.969 60.9998C213.5 60.9998 209.062 65.4373 209.062 70.9061C209.062 76.3748 213.5 80.8123 218.969 80.8123C224.438 80.8123 228.875 76.3748 228.875 70.9061C228.875 65.4373 224.438 60.9998 218.969 60.9998ZM218.969 77.9373C215.063 77.9373 211.906 74.7811 211.906 70.8748C211.906 66.9686 215.063 63.8123 218.969 63.8123C222.875 63.8123 226.031 66.9686 226.031 70.8748C226.031 74.7811 222.875 77.9373 218.969 77.9373Z" fill="#0073AD" fill-opacity="0.15"/>
<path d="M255.906 61.0311C250.469 61.0311 246.031 65.4686 246.031 70.9061C246.031 76.3436 250.469 80.7811 255.906 80.7811C261.344 80.7811 265.781 76.3436 265.781 70.9061C265.781 65.4686 261.344 61.0311 255.906 61.0311ZM255.906 77.9373C252.031 77.9373 248.875 74.7811 248.875 70.9061C248.875 67.0311 252.031 63.8748 255.906 63.8748C259.781 63.8748 262.938 67.0311 262.938 70.9061C262.938 74.7811 259.781 77.9373 255.906 77.9373Z" fill="#0073AD" fill-opacity="0.15"/>
</g>
<defs>
<clipPath id="clip0_280_311">
<rect width="125" height="124.812" fill="white" transform="translate(175 14.3748)"/>
</clipPath>
</defs>
</svg>
