<svg width="324" height="160" viewBox="0 0 324 160" fill="none" xmlns="http://www.w3.org/2000/svg">
<path d="M0 12C0 5.37259 5.37258 0 12 0H312C318.627 0 324 5.37258 324 12V141.562C324 148.19 318.627 153.562 312 153.562H12C5.37258 153.562 0 148.19 0 141.562V12Z" fill="white"/>
<path d="M292.176 74.4675C291.989 74.28 291.77 74.1236 291.582 73.9361C291.582 73.811 291.645 73.7172 291.645 73.5922V33.981C291.676 33.6059 291.551 33.2307 291.27 32.9806C290.988 32.6992 290.644 32.5742 290.269 32.5742H228.805L217.362 18.8182C217.081 18.5055 216.706 18.3179 216.268 18.3179H176.407C175.625 18.3179 175 18.9432 175 19.7248V105.043C175 105.825 175.625 106.45 176.407 106.45H248.657C248.657 106.45 248.845 106.419 248.97 106.388L233.275 122.082C230.868 124.489 230.868 128.397 233.275 130.805L235.902 133.431C237.09 134.619 238.684 135.244 240.247 135.244C241.811 135.244 243.405 134.65 244.593 133.431L260.662 117.361C264.57 119.393 268.853 120.425 273.137 120.425C280.015 120.425 286.924 117.799 292.145 112.547C302.618 102.042 302.618 85.0034 292.145 74.4988L292.176 74.4675ZM177.845 21.0691H215.612L225.116 32.5116H196.228C195.446 32.5116 194.821 33.1369 194.821 33.9185C194.821 34.7001 195.446 35.3254 196.228 35.3254H242.53C242.53 35.3254 242.53 35.3254 242.561 35.3254H288.831V71.5913C278.295 64.0567 263.539 64.9946 254.128 74.405C246.281 82.2522 244.312 93.7885 248.22 103.48H177.845V21.0691ZM242.592 131.367C241.342 132.618 239.153 132.618 237.903 131.367L235.276 128.741C233.995 127.46 233.995 125.334 235.276 124.052L250.846 108.482C251.815 109.889 252.909 111.265 254.16 112.515C255.41 113.766 256.755 114.86 258.193 115.829L242.623 131.399L242.592 131.367ZM290.175 110.483C280.796 119.862 265.54 119.862 256.16 110.483C246.781 101.104 246.781 85.8475 256.16 76.4684C260.85 71.7789 267.009 69.4341 273.168 69.4341C279.327 69.4341 285.486 71.7789 290.175 76.4684C299.554 85.8475 299.554 101.104 290.175 110.483Z" fill="#0073AD" fill-opacity="0.15"/>
<path d="M273.543 74.6239C272.761 74.6239 272.136 75.2491 272.136 76.0307C272.136 76.8123 272.761 77.4376 273.543 77.4376C282.391 77.4376 289.581 84.6282 289.581 93.4759C289.581 94.2575 290.207 94.8827 290.988 94.8827C291.77 94.8827 292.395 94.2575 292.395 93.4759C292.395 83.0651 283.923 74.5926 273.512 74.5926L273.543 74.6239Z" fill="#0073AD" fill-opacity="0.15"/>
</svg>
