<svg width="324" height="160" viewBox="0 0 324 160" fill="none" xmlns="http://www.w3.org/2000/svg">
<path d="M0 12C0 5.37259 5.37258 0 12 0H312C318.627 0 324 5.37258 324 12V141.562C324 148.19 318.627 153.562 312 153.562H12C5.37258 153.562 0 148.19 0 141.562V12Z" fill="white"/>
<path d="M299.906 104.46C299.906 97.7082 296.655 91.7067 291.685 87.8932V29.5349C291.685 28.7534 291.06 28.1595 290.31 28.1595H269.117V22.3456C269.117 21.5641 268.492 20.9702 267.742 20.9702H255.458C254.457 17.1568 250.394 14.2811 245.518 14.2811C240.641 14.2811 236.609 17.1568 235.578 20.9702H223.293C222.512 20.9702 221.918 21.5954 221.918 22.3456V28.1595H201.413C200.631 28.1595 200.037 28.7847 200.037 29.5349V137.906C200.037 138.687 200.663 139.281 201.413 139.281H290.373C291.154 139.281 291.748 138.656 291.748 137.906V121.277C291.748 121.277 291.717 121.12 291.717 121.058C296.749 117.244 300 111.243 300 104.46H299.906ZM245.486 17.063C248.737 17.063 251.457 18.7197 252.457 20.9702H238.516C239.516 18.6884 242.236 17.063 245.486 17.063ZM224.637 23.7209H266.304V34.5674H224.637V23.7209ZM288.903 136.53H202.726V30.9102H221.855V35.9427C221.855 36.7242 222.481 37.3181 223.231 37.3181H267.679C268.461 37.3181 269.055 36.6929 269.055 35.9427V30.9102H288.872V86.049C285.934 84.4549 282.589 83.5796 279.026 83.5796C267.523 83.5796 258.146 92.9257 258.146 104.46C258.146 115.994 267.523 125.34 279.026 125.34C282.589 125.34 285.934 124.434 288.872 122.871V136.562L288.903 136.53ZM279.057 122.558C269.086 122.558 260.959 114.431 260.959 104.46C260.959 94.4886 269.086 86.3616 279.057 86.3616C289.028 86.3616 297.156 94.4886 297.156 104.46C297.156 114.431 289.028 122.558 279.057 122.558Z" fill="#0073AD" fill-opacity="0.15"/>
<path d="M287.372 103.085H280.276V96.1765C280.276 95.3951 279.651 94.8012 278.901 94.8012C278.151 94.8012 277.526 95.4264 277.526 96.1765V103.085H270.649C269.868 103.085 269.274 103.71 269.274 104.46C269.274 105.21 269.899 105.835 270.649 105.835H277.526V112.806C277.526 113.587 278.151 114.181 278.901 114.181C279.651 114.181 280.276 113.556 280.276 112.806V105.835H287.372C288.153 105.835 288.747 105.21 288.747 104.46C288.747 103.71 288.122 103.085 287.372 103.085Z" fill="#0073AD" fill-opacity="0.15"/>
<path d="M215.104 53.166H273.462C274.243 53.166 274.837 52.5408 274.837 51.7906C274.837 51.0404 274.212 50.4153 273.462 50.4153H215.104C214.322 50.4153 213.728 51.0404 213.728 51.7906C213.728 52.5408 214.354 53.166 215.104 53.166Z" fill="#0073AD" fill-opacity="0.15"/>
<path d="M215.041 64.1684H273.4C274.181 64.1684 274.775 63.5433 274.775 62.7931C274.775 62.0429 274.15 61.4177 273.4 61.4177H215.041C214.26 61.4177 213.666 62.0429 213.666 62.7931C213.666 63.5433 214.291 64.1684 215.041 64.1684Z" fill="#0073AD" fill-opacity="0.15"/>
<path d="M215.041 78.0471H273.4C274.181 78.0471 274.775 77.4219 274.775 76.6717C274.775 75.9216 274.15 75.2964 273.4 75.2964H215.041C214.26 75.2964 213.666 75.9216 213.666 76.6717C213.666 77.4219 214.291 78.0471 215.041 78.0471Z" fill="#0073AD" fill-opacity="0.15"/>
<path d="M251.144 89.2685H215.072C214.291 89.2685 213.697 89.8937 213.697 90.6439C213.697 91.3941 214.322 92.0192 215.072 92.0192H251.144C251.925 92.0192 252.519 91.3941 252.519 90.6439C252.519 89.8937 251.894 89.2685 251.144 89.2685Z" fill="#0073AD" fill-opacity="0.15"/>
<path d="M248.268 103.085H215.041C214.26 103.085 213.666 103.71 213.666 104.46C213.666 105.21 214.291 105.835 215.041 105.835H248.268C249.05 105.835 249.644 105.21 249.644 104.46C249.644 103.71 249.018 103.085 248.268 103.085Z" fill="#0073AD" fill-opacity="0.15"/>
<path d="M242.798 116.994H215.823C215.041 116.994 214.447 117.619 214.447 118.37C214.447 119.12 215.072 119.745 215.823 119.745H242.798C243.579 119.745 244.173 119.12 244.173 118.37C244.173 117.619 243.548 116.994 242.798 116.994Z" fill="#0073AD" fill-opacity="0.15"/>
</svg>
