<svg width="324" height="160" viewBox="0 0 324 160" fill="none" xmlns="http://www.w3.org/2000/svg">
<path d="M0 12C0 5.37259 5.37258 0 12 0H312C318.627 0 324 5.37258 324 12V141.562C324 148.19 318.627 153.562 312 153.562H12C5.37258 153.562 0 148.19 0 141.562V12Z" fill="white"/>
<g clip-path="url(#clip0_280_295)">
<path d="M298.5 70.8904C299.313 70.8904 300 70.2342 300 69.3904C300 68.5467 299.344 67.8904 298.5 67.8904H284.938V56.0779H298.5C299.313 56.0779 300 55.4217 300 54.5779C300 53.7342 299.344 53.0779 298.5 53.0779H284.938V44.9842C284.938 36.3279 277.875 29.2654 269.219 29.2654H261.313V15.8279C261.313 15.0154 260.656 14.3279 259.812 14.3279C258.969 14.3279 258.312 14.9842 258.312 15.8279V29.3592H246.406V15.8279C246.406 15.0154 245.75 14.3279 244.906 14.3279C244.063 14.3279 243.406 14.9842 243.406 15.8279V29.3592H231.5V15.8279C231.5 15.0154 230.844 14.3279 230 14.3279C229.156 14.3279 228.5 14.9842 228.5 15.8279V29.3592H216.594V15.8279C216.594 15.0154 215.937 14.3279 215.094 14.3279C214.25 14.3279 213.594 14.9842 213.594 15.8279V29.3592H205.312C196.656 29.3592 189.594 36.4217 189.594 45.0779V53.1404L176.375 53.0779C175.656 53.0779 175 53.7342 175 54.5467C175 55.3592 175.656 56.0467 176.469 56.0467L189.687 56.1092V67.9217L176.469 67.8592C175.656 67.8592 175 68.5467 175 69.3592C175 70.1717 175.656 70.8592 176.469 70.8592L189.687 70.9217V82.7342L176.469 82.6717C175.656 82.6717 175 83.3279 175 84.1404C175 84.9529 175.656 85.6404 176.469 85.6404L189.687 85.7029V97.5154L176.469 97.4529C175.656 97.4842 175 98.1404 175 98.9529C175 99.7654 175.656 100.453 176.469 100.453L189.687 100.515V108.828C189.687 117.484 196.75 124.547 205.406 124.547H213.688V137.797C213.688 138.609 214.344 139.297 215.187 139.297C216.031 139.297 216.688 138.64 216.688 137.797V124.547H228.594V137.797C228.594 138.609 229.25 139.297 230.094 139.297C230.937 139.297 231.594 138.64 231.594 137.797V124.547H243.5V137.797C243.5 138.609 244.156 139.297 245 139.297C245.844 139.297 246.5 138.64 246.5 137.797V124.547H258.406V137.797C258.406 138.609 259.063 139.297 259.906 139.297C260.75 139.297 261.406 138.64 261.406 137.797V124.547H269.313C277.969 124.547 285.031 117.484 285.031 108.828V100.515H298.594C299.406 100.515 300.094 99.8592 300.094 99.0154C300.094 98.1717 299.437 97.5154 298.594 97.5154H285.031V85.7029H298.594C299.406 85.7029 300.094 85.0467 300.094 84.2029C300.094 83.3592 299.437 82.7029 298.594 82.7029H285.031V70.8904H298.594H298.5ZM281.969 108.797C281.969 115.828 276.25 121.547 269.219 121.547H205.437C198.406 121.547 192.687 115.828 192.687 108.797V45.0467C192.687 38.0154 198.406 32.2967 205.437 32.2967H269.219C276.25 32.2967 281.969 38.0154 281.969 45.0467V108.797Z" fill="#0073AD" fill-opacity="0.15"/>
<path d="M265.875 68.5154C266.156 67.5154 266.281 66.5154 266.281 65.4529C266.281 58.9842 261 53.7029 254.437 53.9217C253.281 49.9842 249.656 47.1717 245.469 47.1717C243.875 47.1717 242.344 47.5779 241.031 48.2967C240.969 48.2967 240.906 48.3592 240.875 48.3904C240.687 48.4842 240.531 48.6092 240.344 48.7029C240.219 48.7654 240.125 48.8592 240 48.9529C239.906 49.0154 239.812 49.1092 239.719 49.1717C239.562 49.2967 239.375 49.4529 239.219 49.5779C239.219 49.5779 239.156 49.6404 239.125 49.6404C238.5 50.2029 237.969 50.8592 237.5 51.6092C237.5 51.5467 237.437 51.5154 237.406 51.4529C237.312 51.2967 237.219 51.1717 237.125 51.0467C237.031 50.9217 236.969 50.8279 236.875 50.7029C236.781 50.6092 236.719 50.5154 236.625 50.3904C236.5 50.2654 236.375 50.1092 236.25 49.9842C236.187 49.9217 236.125 49.8592 236.062 49.7967C235.906 49.6404 235.75 49.5154 235.594 49.3592C235.562 49.3279 235.5 49.2654 235.469 49.2342C235.281 49.0779 235.062 48.9217 234.875 48.7654C234.875 48.7654 234.844 48.7342 234.812 48.7029C233.312 47.7029 231.531 47.1092 229.594 47.1092C225.406 47.1092 221.781 49.9217 220.625 53.8592C220.531 53.8592 220.406 53.8592 220.312 53.8592C213.937 53.8592 208.781 59.0467 208.781 65.3904C208.781 66.4217 208.906 67.4529 209.187 68.4529C206.5 70.1717 204.844 73.1404 204.844 76.3592C204.844 79.8279 206.781 82.9842 209.781 84.5779C209.5 85.6404 209.375 86.7029 209.375 87.7654C209.375 95.1092 215.594 101.078 223 100.609C223.812 104.234 227.062 106.953 230.906 106.953C233.656 106.953 236.094 105.515 237.562 103.328C239.031 105.515 241.469 106.953 244.219 106.953C248.062 106.953 251.312 104.234 252.125 100.609C259.531 101.078 265.75 95.1092 265.75 87.7654C265.75 86.7029 265.625 85.6404 265.344 84.5779C268.344 82.9529 270.281 79.7967 270.281 76.3592C270.281 73.1404 268.625 70.1717 265.937 68.4529L265.875 68.5154ZM230.844 104.078C228.063 104.078 225.781 101.797 225.719 99.0154C225.719 98.5779 225.5 98.1717 225.187 97.8904C225 97.7342 224.781 97.6404 224.562 97.6092C224.469 97.6092 224.375 97.5779 224.312 97.5779C224.312 97.5779 224.281 97.5779 224.25 97.5779C224.25 97.5779 224.219 97.5779 224.187 97.5779C224.094 97.5779 224 97.5779 223.875 97.5779C218.5 98.4842 213.406 94.8592 212.5 89.4842C211.594 84.1092 215.219 79.0154 220.594 78.1092C221.406 77.9842 221.937 77.2029 221.812 76.3904C221.687 75.5779 220.906 75.0467 220.094 75.1717C215.969 75.8592 212.656 78.4529 210.875 81.8904C208.969 80.7342 207.75 78.7029 207.75 76.4529C207.75 73.9529 209.25 71.6404 211.531 70.6092C212.25 70.2654 212.594 69.4217 212.312 68.7029C211.906 67.6717 211.687 66.6092 211.687 65.4842C211.687 60.7654 215.531 56.9217 220.25 56.9217C220.625 56.9217 221.031 56.9529 221.5 57.0154C221.906 57.0779 222.281 56.9842 222.625 56.7342C222.937 56.4842 223.156 56.1404 223.219 55.7342C223.656 52.5779 226.344 50.2029 229.5 50.1717C229.531 50.1717 229.594 50.1717 229.625 50.1717C230.469 50.1717 231.312 50.3592 232.062 50.6717C232.094 50.6717 232.156 50.7029 232.187 50.7342C232.5 50.8904 232.812 51.0467 233.094 51.2342C233.156 51.2654 233.219 51.3279 233.281 51.3592C233.531 51.5467 233.781 51.7342 234.031 51.9842C234.094 52.0467 234.125 52.1092 234.187 52.1404C234.406 52.3592 234.625 52.6092 234.812 52.8904C234.844 52.9529 234.875 53.0154 234.937 53.0779C235.125 53.3592 235.281 53.6404 235.406 53.9529C235.406 54.0154 235.469 54.0779 235.5 54.1717C235.625 54.4842 235.719 54.7967 235.781 55.1092C235.781 55.2029 235.812 55.2967 235.844 55.3904C235.906 55.7029 235.937 55.9842 235.937 56.2967V56.6717C235.844 60.0467 233.062 62.7654 229.656 62.7654C228.844 62.7654 228.156 63.4217 228.156 64.2654C228.156 65.1092 228.812 65.7654 229.656 65.7654C232.062 65.7654 234.281 64.8279 235.937 63.2967V92.7654C234.562 91.6404 232.812 90.9529 230.875 90.9529C230.062 90.9529 229.375 91.6092 229.375 92.4529C229.375 93.2967 230.031 93.9529 230.875 93.9529C233.687 93.9529 235.937 96.2342 235.937 99.0154V99.3592C235.719 102.047 233.531 104.078 230.875 104.078H230.844ZM264.156 81.8904C263.875 81.3904 263.594 80.8592 263.25 80.3904C261.25 77.6092 258.312 75.7342 254.906 75.1717C254.094 75.0467 253.312 75.5779 253.187 76.3904C253.062 77.2029 253.594 77.9529 254.406 78.1092C259.781 79.0154 263.406 84.1092 262.5 89.4842C261.594 94.8592 256.5 98.4842 251.125 97.5779C250.906 97.5467 250.687 97.5779 250.469 97.6404C250.219 97.7029 250 97.7654 249.812 97.9529C249.469 98.2342 249.281 98.6404 249.281 99.0779C249.25 101.859 246.969 104.14 244.156 104.14C241.344 104.14 239.312 102.109 239.094 99.5467V99.0467C239.094 96.2654 241.375 93.9842 244.156 93.9842C244.969 93.9842 245.656 93.3279 245.656 92.4842C245.656 91.6404 245 90.9842 244.156 90.9842C242.25 90.9842 240.469 91.6717 239.094 92.7967V63.3279C240.75 64.8592 242.969 65.7967 245.375 65.7967C246.187 65.7967 246.875 65.1404 246.875 64.2967C246.875 63.4529 246.219 62.7967 245.375 62.7967C241.937 62.7967 239.156 60.0467 239.094 56.6404V56.3904C239.094 56.1092 239.125 55.8592 239.187 55.6092C239.219 55.4217 239.25 55.2029 239.312 55.0154C239.344 54.8592 239.406 54.7029 239.469 54.5467C239.562 54.3279 239.625 54.0779 239.75 53.8592C239.812 53.7342 239.875 53.6092 239.969 53.4842C240.094 53.2654 240.219 53.0467 240.344 52.8592C240.437 52.7342 240.562 52.6092 240.656 52.4842C240.781 52.3279 240.937 52.1404 241.094 52.0154C241.25 51.8592 241.437 51.7342 241.594 51.6092C241.719 51.5154 241.844 51.3904 242 51.2967C242.25 51.1404 242.531 50.9842 242.781 50.8592C242.844 50.8279 242.937 50.7654 243 50.7342C243.75 50.4217 244.562 50.2654 245.406 50.2654C245.437 50.2654 245.5 50.2654 245.531 50.2654C248.687 50.2654 251.375 52.6717 251.812 55.8279C251.875 56.2342 252.062 56.5779 252.406 56.8279C252.719 57.0779 253.125 57.1717 253.531 57.1092C254.031 57.0467 254.406 57.0154 254.781 57.0154C259.5 57.0154 263.344 60.8592 263.344 65.5779C263.344 66.6717 263.125 67.7654 262.719 68.7967C262.406 69.5467 262.75 70.3904 263.5 70.7029C265.812 71.7342 267.281 74.0467 267.281 76.5467C267.281 78.7967 266.063 80.8592 264.188 81.9842L264.156 81.8904Z" fill="#0073AD" fill-opacity="0.15"/>
<path d="M248.625 82.2654C248.625 81.4529 247.969 80.7654 247.125 80.7654C246.281 80.7654 245.625 81.4217 245.625 82.2654C245.625 86.5779 249.125 90.0779 253.437 90.0779C254.25 90.0779 254.937 89.4217 254.937 88.5779C254.937 87.7342 254.281 87.0779 253.437 87.0779C250.781 87.0779 248.594 84.9217 248.594 82.2342L248.625 82.2654Z" fill="#0073AD" fill-opacity="0.15"/>
<path d="M255.063 63.7967C254.25 63.7967 253.562 64.4529 253.562 65.2967C253.562 67.9529 251.406 70.1404 248.719 70.1404C247.906 70.1404 247.219 70.7967 247.219 71.6404C247.219 72.4842 247.875 73.1404 248.719 73.1404C253.031 73.1404 256.531 69.6404 256.531 65.3279C256.531 64.5154 255.875 63.8279 255.031 63.8279L255.063 63.7967Z" fill="#0073AD" fill-opacity="0.15"/>
<path d="M227.906 80.7654C227.094 80.7654 226.406 81.4217 226.406 82.2654C226.406 84.9217 224.25 87.1092 221.562 87.1092C220.75 87.1092 220.062 87.7654 220.062 88.6092C220.062 89.4529 220.719 90.1092 221.562 90.1092C225.875 90.1092 229.375 86.6092 229.375 82.2967C229.375 81.4842 228.719 80.7967 227.875 80.7967L227.906 80.7654Z" fill="#0073AD" fill-opacity="0.15"/>
<path d="M227.781 71.6092C227.781 70.7967 227.125 70.1092 226.281 70.1092C223.625 70.1092 221.438 67.9529 221.438 65.2654C221.438 64.4529 220.781 63.7654 219.938 63.7654C219.094 63.7654 218.438 64.4217 218.438 65.2654C218.438 69.5779 221.938 73.0779 226.25 73.0779C227.062 73.0779 227.75 72.4217 227.75 71.5779L227.781 71.6092Z" fill="#0073AD" fill-opacity="0.15"/>
</g>
<defs>
<clipPath id="clip0_280_295">
<rect width="125" height="124.906" fill="white" transform="translate(175 14.3279)"/>
</clipPath>
</defs>
</svg>
