<svg width="324" height="160" viewBox="0 0 324 160" fill="none" xmlns="http://www.w3.org/2000/svg">
<path d="M0 12C0 5.37259 5.37258 0 12 0H312C318.627 0 324 5.37258 324 12V141.562C324 148.19 318.627 153.562 312 153.562H12C5.37258 153.562 0 148.19 0 141.562V12Z" fill="white"/>
<g clip-path="url(#clip0_280_319)">
<path d="M276.656 24.7186H198.344C185.469 24.7186 175 35.1248 175 47.9061V91.5936C175 103.312 183.969 113.125 195.437 114.594L187.844 126.625C187.5 127.156 187.562 127.844 187.937 128.312C188.219 128.656 188.625 128.844 189.062 128.844C189.25 128.844 189.406 128.844 189.594 128.75L226.063 114.781H276.688C289.563 114.781 300.031 104.375 300.031 91.5936V47.9061C300.031 35.1248 289.563 24.7186 276.688 24.7186H276.656ZM297.094 91.5936C297.094 102.781 287.937 111.875 276.656 111.875H225.781C225.594 111.875 225.437 111.906 225.25 111.969L192.594 124.469L199.156 114.062C199.438 113.625 199.469 113.062 199.219 112.594C198.969 112.125 198.5 111.844 197.969 111.844C186.906 111.656 177.906 102.562 177.906 91.5936V47.9061C177.906 36.7186 187.062 27.6248 198.344 27.6248H276.656C287.937 27.6248 297.094 36.7186 297.094 47.9061V91.5936Z" fill="#0073AD" fill-opacity="0.15"/>
<path d="M193.938 59.3436C193.125 59.3436 192.5 59.9998 192.5 60.7811V75.4686C192.5 76.2811 193.156 76.9061 193.938 76.9061C194.719 76.9061 195.375 76.2498 195.375 75.4686V60.7811C195.375 59.9686 194.719 59.3436 193.938 59.3436Z" fill="#0073AD" fill-opacity="0.15"/>
<path d="M263.844 59.4373C263.031 59.4373 262.406 60.0936 262.406 60.8748V75.0936C262.406 75.9061 263.063 76.5311 263.844 76.5311C264.625 76.5311 265.281 75.8748 265.281 75.0936V60.8748C265.281 60.0623 264.625 59.4373 263.844 59.4373Z" fill="#0073AD" fill-opacity="0.15"/>
<path d="M220.156 56.4998C219.344 56.4998 218.719 57.1561 218.719 57.9373V77.9998C218.719 78.8123 219.375 79.4373 220.156 79.4373C220.938 79.4373 221.594 78.7811 221.594 77.9998V57.9373C221.594 57.1248 220.938 56.4998 220.156 56.4998Z" fill="#0073AD" fill-opacity="0.15"/>
<path d="M237.625 53.6248C236.813 53.6248 236.188 54.2811 236.188 55.0623V80.4998C236.188 81.3123 236.844 81.9373 237.625 81.9373C238.406 81.9373 239.063 81.2811 239.063 80.4998V55.0623C239.063 54.2498 238.406 53.6248 237.625 53.6248Z" fill="#0073AD" fill-opacity="0.15"/>
<path d="M228.875 62.6561C228.062 62.6561 227.438 63.3123 227.438 64.0936V72.2186C227.438 73.0311 228.094 73.6561 228.875 73.6561C229.656 73.6561 230.313 72.9998 230.313 72.2186V64.0936C230.313 63.2811 229.656 62.6561 228.875 62.6561Z" fill="#0073AD" fill-opacity="0.15"/>
<path d="M281.312 62.3748C280.5 62.3748 279.875 63.0311 279.875 63.8123V72.1873C279.875 72.9998 280.531 73.6248 281.312 73.6248C282.094 73.6248 282.75 72.9686 282.75 72.1873V63.8123C282.75 62.9998 282.094 62.3748 281.312 62.3748Z" fill="#0073AD" fill-opacity="0.15"/>
<path d="M202.688 53.6248C201.875 53.6248 201.25 54.2811 201.25 55.0623V81.4998C201.25 82.3123 201.906 82.9373 202.688 82.9373C203.469 82.9373 204.125 82.2811 204.125 81.4998V55.0623C204.125 54.2498 203.469 53.6248 202.688 53.6248Z" fill="#0073AD" fill-opacity="0.15"/>
<path d="M272.562 53.6248C271.75 53.6248 271.125 54.2811 271.125 55.0623V80.6248C271.125 81.4373 271.781 82.0623 272.562 82.0623C273.344 82.0623 274 81.4061 274 80.6248V55.0623C274 54.2498 273.344 53.6248 272.562 53.6248Z" fill="#0073AD" fill-opacity="0.15"/>
<path d="M211.406 44.9373C210.594 44.9373 209.969 45.5936 209.969 46.3748V89.6873C209.969 90.4998 210.625 91.1248 211.406 91.1248C212.188 91.1248 212.844 90.4686 212.844 89.6873V46.3748C212.844 45.5623 212.188 44.9373 211.406 44.9373Z" fill="#0073AD" fill-opacity="0.15"/>
<path d="M255.094 44.9373C254.281 44.9373 253.656 45.5936 253.656 46.3748V89.6873C253.656 90.4998 254.312 91.1248 255.094 91.1248C255.875 91.1248 256.531 90.4686 256.531 89.6873V46.3748C256.531 45.5623 255.875 44.9373 255.094 44.9373Z" fill="#0073AD" fill-opacity="0.15"/>
<path d="M246.344 38.9998C245.531 38.9998 244.906 39.6561 244.906 40.4373V98.6873C244.906 99.4998 245.562 100.125 246.344 100.125C247.125 100.125 247.781 99.4686 247.781 98.6873V40.4373C247.781 39.6248 247.125 38.9998 246.344 38.9998Z" fill="#0073AD" fill-opacity="0.15"/>
</g>
<defs>
<clipPath id="clip0_280_319">
<rect width="125" height="104.125" fill="white" transform="translate(175 24.7186)"/>
</clipPath>
</defs>
</svg>
