<svg width="324" height="160" viewBox="0 0 324 160" fill="none" xmlns="http://www.w3.org/2000/svg">
<path d="M0 12C0 5.37259 5.37258 0 12 0H312C318.627 0 324 5.37258 324 12V141.562C324 148.19 318.627 153.562 312 153.562H12C5.37258 153.562 0 148.19 0 141.562V12Z" fill="white"/>
<g clip-path="url(#clip0_280_247)">
<path d="M251.938 102.047H238.844C238.844 102.047 238.906 101.89 238.906 101.797V86.0467C238.906 85.2342 238.25 84.5779 237.437 84.5779C236.625 84.5779 235.969 85.2342 235.969 86.0467V101.797C235.969 101.797 236 101.953 236.031 102.047H222.938C222.125 102.047 221.469 102.703 221.469 103.515V132.765C221.469 133.578 222.125 134.234 222.938 134.234H251.938C252.75 134.234 253.406 133.578 253.406 132.765V103.515C253.406 102.703 252.75 102.047 251.938 102.047ZM250.5 131.297H224.406V104.953H250.5V131.297Z" fill="#0073AD" fill-opacity="0.15"/>
<path d="M298.531 102.047H285.437C285.437 102.047 285.5 101.859 285.5 101.734V80.3592C285.5 79.703 285.062 79.1405 284.469 78.953L263.094 72.6717C262.312 72.453 261.5 72.8905 261.281 73.6717C261.062 74.453 261.5 75.2655 262.281 75.4842L282.625 81.4842V101.765C282.625 101.765 282.656 101.953 282.687 102.078H269.594C268.781 102.078 268.125 102.734 268.125 103.547V132.797C268.125 133.609 268.781 134.265 269.594 134.265H298.594C299.406 134.265 300.062 133.609 300.062 132.797V103.547C300.062 102.734 299.406 102.078 298.594 102.078L298.531 102.047ZM297.094 131.297H271V104.953H297.094V131.297Z" fill="#0073AD" fill-opacity="0.15"/>
<path d="M210.594 72.4842L190.375 78.9842C189.781 79.1717 189.375 79.7342 189.375 80.3592V101.734C189.375 101.734 189.406 101.922 189.438 102.047H176.469C175.656 102.047 175 102.703 175 103.515V132.765C175 133.578 175.656 134.234 176.469 134.234H205.469C206.281 134.234 206.938 133.578 206.938 132.765V103.515C206.938 102.703 206.281 102.047 205.469 102.047H192.25C192.25 102.047 192.313 101.859 192.313 101.734V81.4217L211.5 75.2654C212.281 75.0154 212.688 74.2029 212.438 73.4217C212.188 72.6717 211.375 72.2342 210.594 72.4842ZM204 131.297H177.906V104.953H204V131.297Z" fill="#0073AD" fill-opacity="0.15"/>
<path d="M264.656 66.8279C265.406 65.5467 266.063 64.2029 266.625 62.8904C267.156 61.5779 267.625 60.1717 268.031 58.7342C268.219 58.0154 267.844 57.2967 267.188 57.0154L263.094 55.3279C263.656 52.2029 263.656 48.9529 263.094 45.7967L267.188 44.1092C267.875 43.8279 268.219 43.1092 268.031 42.3904C267.281 39.5467 266.156 36.8279 264.688 34.2967C264.313 33.6717 263.531 33.3904 262.875 33.6717L258.781 35.3592C256.969 32.7342 254.656 30.4529 252.063 28.6404L253.75 24.5467C254.031 23.8592 253.75 23.1092 253.125 22.7342C251.844 21.9842 250.531 21.3279 249.188 20.7654C247.875 20.2342 246.469 19.7654 245.031 19.3592C244.313 19.1717 243.594 19.5467 243.313 20.2029L241.625 24.2967C238.5 23.7342 235.25 23.7342 232.094 24.2967L230.406 20.2029C230.125 19.5154 229.406 19.1717 228.688 19.3592C225.844 20.1092 223.125 21.2342 220.594 22.7029C219.969 23.0779 219.719 23.8592 219.969 24.5154L221.656 28.6092C219.031 30.4217 216.75 32.7342 214.938 35.3279L210.844 33.6404C210.188 33.3592 209.406 33.6404 209.031 34.2654C208.281 35.5467 207.625 36.8904 207.063 38.2029C206.531 39.5154 206.063 40.9217 205.656 42.3592C205.469 43.0779 205.844 43.7967 206.5 44.0779L210.594 45.7654C210.031 48.8904 210.031 52.1404 210.594 55.2967L206.5 56.9842C205.813 57.2654 205.469 57.9842 205.656 58.7029C206.406 61.5467 207.531 64.2654 209 66.7967C209.375 67.4217 210.156 67.6717 210.813 67.4217L214.906 65.7342C216.719 68.3592 219.031 70.6404 221.656 72.4529L219.969 76.5467C219.688 77.2342 219.969 77.9842 220.594 78.3592C221.906 79.1092 223.219 79.7654 224.531 80.2967C225.844 80.8279 227.25 81.2967 228.688 81.7029C228.813 81.7342 228.938 81.7654 229.063 81.7654C229.625 81.7654 230.188 81.4217 230.406 80.8592L232.094 76.7654C235.25 77.3279 238.469 77.3279 241.625 76.7654L243.313 80.8592C243.594 81.5467 244.313 81.8904 245.031 81.7029C247.875 80.9529 250.594 79.8279 253.125 78.3592C253.75 77.9842 254 77.2029 253.75 76.5467L252.063 72.4529C254.688 70.6404 256.969 68.3279 258.781 65.7342L262.875 67.4217C263.563 67.7029 264.313 67.4217 264.688 66.7967L264.656 66.8279ZM258.75 62.5779C258.094 62.2967 257.344 62.5779 256.969 63.1404C255.063 66.2029 252.531 68.7342 249.469 70.6717C248.875 71.0467 248.625 71.7967 248.906 72.4529L250.563 76.4529C248.938 77.2967 247.25 78.0154 245.531 78.5467L243.875 74.5467C243.594 73.8904 242.906 73.5467 242.188 73.6717C238.719 74.4842 235.031 74.4842 231.563 73.6717C230.875 73.5154 230.156 73.8904 229.906 74.5467L228.25 78.5467C227.375 78.2654 226.5 77.9529 225.688 77.6404C224.875 77.2967 224.031 76.9217 223.219 76.4842L224.875 72.4842C225.156 71.8279 224.875 71.0779 224.313 70.7029C221.25 68.7967 218.719 66.2654 216.781 63.2029C216.406 62.6092 215.656 62.3592 215 62.6404L211 64.2967C210.156 62.7029 209.438 61.0154 208.906 59.2654L212.906 57.6092C213.563 57.3279 213.938 56.6404 213.781 55.9217C212.969 52.3904 212.969 48.8279 213.781 45.2967C213.938 44.6092 213.563 43.8904 212.906 43.6092L208.906 41.9529C209.188 41.0779 209.5 40.2029 209.813 39.3904C210.125 38.5779 210.531 37.7342 210.969 36.9217L214.969 38.5779C215.625 38.8592 216.375 38.5779 216.75 38.0154C218.656 34.9842 221.25 32.3904 224.25 30.4842C224.844 30.1092 225.094 29.3592 224.813 28.7029L223.156 24.7029C224.75 23.8592 226.438 23.1404 228.188 22.6092L229.844 26.6092C230.125 27.2654 230.813 27.6404 231.531 27.4842C235.063 26.6717 238.625 26.6717 242.156 27.4842C242.844 27.6404 243.563 27.2654 243.844 26.6092L245.5 22.6092C246.375 22.8904 247.25 23.2029 248.063 23.5154C248.875 23.8592 249.719 24.2342 250.531 24.6717L248.875 28.6717C248.594 29.3279 248.875 30.0779 249.438 30.4529C252.5 32.3592 255.031 34.8904 256.969 37.9529C257.344 38.5467 258.094 38.7967 258.75 38.5154L262.75 36.8592C263.594 38.4842 264.313 40.1404 264.844 41.8904L260.844 43.5467C260.188 43.8279 259.813 44.5154 259.969 45.2342C260.781 48.7029 260.781 52.3904 259.969 55.8592C259.813 56.5467 260.188 57.2654 260.844 57.5467L264.844 59.2029C264.563 60.0779 264.25 60.9529 263.938 61.7654C263.594 62.5779 263.219 63.4217 262.781 64.2342L258.781 62.5779H258.75Z" fill="#0073AD" fill-opacity="0.15"/>
<path d="M239.906 37.8592C236.5 37.0467 233 37.6092 230.031 39.4217C227.063 41.2342 224.969 44.1092 224.156 47.5154C222.469 54.5154 226.813 61.5779 233.813 63.2654C234.844 63.5154 235.844 63.6404 236.844 63.6404C242.75 63.6404 248.125 59.6092 249.563 53.6092C250.375 50.2029 249.813 46.7029 248 43.7342C246.188 40.7654 243.313 38.6717 239.906 37.8592ZM246.719 52.9529C245.406 58.3904 239.906 61.7654 234.469 60.4529C229.031 59.1404 225.656 53.6404 226.969 48.2029C227.594 45.5779 229.219 43.3279 231.531 41.9217C233.156 40.9217 234.969 40.4217 236.813 40.4217C237.594 40.4217 238.406 40.5154 239.188 40.7029C241.813 41.3279 244.063 42.9529 245.469 45.2654C246.875 47.5779 247.313 50.2967 246.688 52.9529H246.719Z" fill="#0073AD" fill-opacity="0.15"/>
</g>
<defs>
<clipPath id="clip0_280_247">
<rect width="125" height="114.844" fill="white" transform="translate(175 19.3592)"/>
</clipPath>
</defs>
</svg>
