<svg width="324" height="160" viewBox="0 0 324 160" fill="none" xmlns="http://www.w3.org/2000/svg">
<path d="M0 12C0 5.37259 5.37258 0 12 0H312C318.627 0 324 5.37258 324 12V141.562C324 148.19 318.627 153.562 312 153.562H12C5.37258 153.562 0 148.19 0 141.562V12Z" fill="white"/>
<g clip-path="url(#clip0_280_255)">
<path d="M206.406 122.594L206.156 111.344C206.156 111.344 206.344 111.25 206.438 111.156L228.438 88.3436C230.969 90.3436 234.156 91.5311 237.625 91.5311C245.844 91.5311 252.531 84.8436 252.531 76.6248C252.531 68.4061 245.844 61.7186 237.625 61.7186C234.063 61.7186 230.75 62.9998 228.188 65.0936L206.938 43.8123L207.625 32.1873C207.625 31.7498 207.5 31.3436 207.188 31.0311L194.406 18.2811C194 17.8748 193.375 17.7186 192.813 17.9373C192.25 18.1561 191.875 18.6873 191.875 19.2498L191.438 29.6873L181 30.1248C180.406 30.1248 179.875 30.5311 179.688 31.0623C179.469 31.6248 179.594 32.2498 180.031 32.6561L192.813 45.4373C193.094 45.7186 193.469 45.8748 193.875 45.8748H193.906L204.594 45.6248L226.125 67.1873C224.031 69.7498 222.75 73.0311 222.75 76.5936C222.75 80.1561 224.094 83.6248 226.313 86.2186L204.313 109.031C204.313 109.031 204.125 109.281 204.063 109.437L192.75 108.781C192.313 108.781 191.906 108.906 191.594 109.219L178.813 122C178.406 122.406 178.25 123.031 178.469 123.594C178.688 124.156 179.219 124.531 179.781 124.531L190.219 124.969L190.656 135.406C190.656 136 191.063 136.531 191.594 136.719C191.781 136.781 191.938 136.812 192.125 136.812C192.5 136.812 192.906 136.656 193.188 136.375L205.969 123.594C206.25 123.312 206.406 122.906 206.406 122.5V122.594ZM237.625 64.7498C244.188 64.7498 249.531 70.0936 249.531 76.6561C249.531 83.2186 244.188 88.5623 237.625 88.5623C234.969 88.5623 232.5 87.6561 230.5 86.1873L238.688 77.6873C239.25 77.0936 239.25 76.1873 238.688 75.5936L230.344 67.2186C232.375 65.6561 234.906 64.6873 237.656 64.6873L237.625 64.7498ZM184.5 32.9998L192.938 32.6561C193.719 32.6248 194.344 31.9998 194.375 31.2186L194.719 22.7811L204.625 32.6873L204.031 42.6873L194.438 42.9061L184.5 32.9686V32.9998ZM225.688 76.6561C225.688 73.9061 226.625 71.3748 228.188 69.3748L235.5 76.6873L228.313 84.1248C226.656 82.0623 225.656 79.4686 225.656 76.6561H225.688ZM193.469 131.969L193.125 123.531C193.094 122.75 192.469 122.125 191.688 122.094L183.25 121.75L193.156 111.844L203.156 112.437L203.375 122.031L193.438 131.969H193.469Z" fill="#0073AD" fill-opacity="0.15"/>
<path d="M207.312 55.1248C206.656 54.4686 205.562 54.5623 205.031 55.3123C200.937 61.4686 198.562 68.8436 198.562 76.7811C198.562 84.7186 201.094 92.5623 205.437 98.8436C205.969 99.5936 207.031 99.6561 207.687 99.0311C208.187 98.4998 208.25 97.7186 207.844 97.1248C203.844 91.3436 201.531 84.3436 201.531 76.7811C201.531 69.2186 203.719 62.6873 207.469 56.9998C207.875 56.4061 207.812 55.6248 207.281 55.1248H207.312Z" fill="#0073AD" fill-opacity="0.15"/>
<path d="M240.781 112.562C232.594 113.281 224.906 111.25 218.563 107.312C217.969 106.937 217.219 107.031 216.719 107.5C216.063 108.187 216.156 109.312 216.969 109.812C223.813 114.062 232.031 116.281 240.813 115.562C259.156 114.031 274.156 99.4998 276.188 81.1873C278.781 57.7498 260.438 37.8436 237.5 37.8436C229.719 37.8436 222.438 40.1561 216.344 44.1248C215.563 44.6248 215.469 45.7498 216.125 46.4061C216.625 46.9061 217.406 46.9686 218 46.5936C223.625 42.9373 230.313 40.8123 237.5 40.8123C258.094 40.8123 274.719 58.2498 273.375 79.1248C272.25 96.6248 258.281 111 240.813 112.562H240.781Z" fill="#0073AD" fill-opacity="0.15"/>
<path d="M242.219 14.4686C229.562 13.5311 217.656 16.4061 207.437 22.0311C206.594 22.4998 206.437 23.6873 207.125 24.3748C207.594 24.8436 208.312 24.9373 208.875 24.6248C218.687 19.2186 230.125 16.4998 242.281 17.4686C271.406 19.7811 294.844 43.4373 296.844 72.5623C299.25 107.281 271.687 136.312 237.469 136.312C227.094 136.312 217.344 133.625 208.844 128.937C208.25 128.625 207.562 128.719 207.094 129.187C206.406 129.906 206.562 131.062 207.406 131.531C216.344 136.469 226.594 139.281 237.469 139.281C273.5 139.281 302.5 108.656 299.781 72.0623C297.562 41.4373 272.844 16.7186 242.219 14.4686Z" fill="#0073AD" fill-opacity="0.15"/>
<path d="M185.781 45.1561C185.094 44.4686 183.937 44.5936 183.437 45.4373C178.062 54.6561 174.969 65.3748 174.969 76.7811C174.969 88.1873 178.062 98.9061 183.406 108.125C183.906 108.969 185.062 109.094 185.75 108.406C186.219 107.937 186.312 107.187 185.969 106.625C180.875 97.8436 177.937 87.6561 177.937 76.7811C177.937 65.9061 180.875 55.7186 185.969 46.9373C186.312 46.3436 186.219 45.6248 185.75 45.1561H185.781Z" fill="#0073AD" fill-opacity="0.15"/>
</g>
<defs>
<clipPath id="clip0_280_255">
<rect width="125" height="125" fill="white" transform="translate(175 14.2811)"/>
</clipPath>
</defs>
</svg>
