<svg width="324" height="160" viewBox="0 0 324 160" fill="none" xmlns="http://www.w3.org/2000/svg">
<path d="M0 12C0 5.37259 5.37258 0 12 0H312C318.627 0 324 5.37258 324 12V141.562C324 148.19 318.627 153.562 312 153.562H12C5.37258 153.562 0 148.19 0 141.562V12Z" fill="white"/>
<g clip-path="url(#clip0_280_207)">
<path d="M275.125 50.3904C273.187 50.3904 271.25 50.6404 269.344 51.0779C263.75 38.2029 251.375 29.9842 237.5 29.9842C220.875 29.9842 206.5 42.2029 203.312 58.6717C201.062 57.8904 198.75 57.4842 196.375 57.4842C184.594 57.4842 175 67.2654 175 79.2654C175 92.8592 182.406 100.953 194.844 100.953H210.75C211.531 100.953 212.156 100.328 212.156 99.5467C212.156 98.7654 211.531 98.1404 210.75 98.1404H194.844C179.5 98.1404 177.844 84.9529 177.844 79.2654C177.844 68.8279 186.156 60.3279 196.375 60.3279C198.969 60.3279 201.469 60.8592 203.844 61.9529C204.25 62.1404 204.719 62.1092 205.125 61.8904C205.531 61.6717 205.781 61.2967 205.844 60.8592C208.094 44.8592 221.719 32.8279 237.5 32.8279C250.625 32.8279 262.281 40.8592 267.187 53.2967C267.469 53.9842 268.219 54.3592 268.906 54.1404C270.937 53.5154 273.031 53.2342 275.094 53.2342C287.25 53.2342 297.125 63.3279 297.125 75.7342C297.125 88.1404 287.375 98.0154 275.406 98.2029C275.344 98.2029 275.281 98.2029 275.219 98.2029H264.625C263.844 98.2029 263.219 98.8279 263.219 99.6092C263.219 100.39 263.844 101.015 264.625 101.015H275.406C275.5 101.015 275.562 101.015 275.656 101.015C289.062 100.703 299.937 89.3904 299.937 75.7029C299.937 62.0154 288.781 50.3904 275.062 50.3904H275.125Z" fill="#0073AD" fill-opacity="0.15"/>
<path d="M267.125 86.4842C267.344 85.9217 267.187 85.2967 266.719 84.9217L238.406 60.1717C237.875 59.7029 237.062 59.7029 236.531 60.1717L208.344 84.9217C207.906 85.2967 207.75 85.9217 207.937 86.4842C208.156 87.0467 208.687 87.3904 209.25 87.3904H223.375V122.172C223.375 122.953 224 123.578 224.781 123.578H250.031C250.812 123.578 251.437 122.953 251.437 122.172V87.3904H265.687C266.281 87.3904 266.812 87.0154 267.031 86.4842H267.125ZM250.125 84.5467C249.344 84.5467 248.719 85.1717 248.719 85.9529V120.734H226.281V85.9529C226.281 85.1717 225.656 84.5467 224.875 84.5467H213.094L237.5 63.1092L262.031 84.5467H250.125Z" fill="#0073AD" fill-opacity="0.15"/>
</g>
<defs>
<clipPath id="clip0_280_207">
<rect width="125" height="93.5938" fill="white" transform="translate(175 29.9842)"/>
</clipPath>
</defs>
</svg>
