<svg width="324" height="160" viewBox="0 0 324 160" fill="none" xmlns="http://www.w3.org/2000/svg">
<path d="M0 12C0 5.37259 5.37258 0 12 0H312C318.627 0 324 5.37258 324 12V141.562C324 148.19 318.627 153.562 312 153.562H12C5.37258 153.562 0 148.19 0 141.562V12Z" fill="white"/>
<g clip-path="url(#clip0_280_215)">
<path d="M236.156 90.9998H199.344C198.567 90.9998 197.938 91.6294 197.938 92.4061V92.4373C197.938 93.214 198.567 93.8436 199.344 93.8436H236.156C236.933 93.8436 237.562 93.214 237.562 92.4373V92.4061C237.562 91.6294 236.933 90.9998 236.156 90.9998Z" fill="#0073AD" fill-opacity="0.15"/>
<path d="M233.281 105.25H199.344C198.567 105.25 197.938 105.879 197.938 106.656V106.687C197.938 107.464 198.567 108.094 199.344 108.094H233.281C234.058 108.094 234.688 107.464 234.688 106.687V106.656C234.688 105.879 234.058 105.25 233.281 105.25Z" fill="#0073AD" fill-opacity="0.15"/>
<path d="M227.656 119.5H199.344C198.567 119.5 197.938 120.129 197.938 120.906V120.937C197.938 121.714 198.567 122.344 199.344 122.344H227.656C228.433 122.344 229.062 121.714 229.062 120.937V120.906C229.062 120.129 228.433 119.5 227.656 119.5Z" fill="#0073AD" fill-opacity="0.15"/>
<path d="M299.625 97.8436C299.5 97.1561 298.844 96.6561 298.187 96.6561L294.406 96.7498C293.75 94.0936 292.625 91.5623 291.094 89.2811L293.687 86.5311C294.156 86.0311 294.219 85.2498 293.781 84.6873C292.156 82.6561 290.25 80.8436 288.125 79.3436C287.562 78.9373 286.781 79.0311 286.281 79.5311L283.687 82.2811C281.344 80.8748 278.75 79.8748 276.062 79.3748L275.969 75.5936C275.969 74.8748 275.406 74.3123 274.687 74.2186C273.656 74.0936 272.625 74.0623 271.625 74.0623V32.3436C271.625 31.8123 271.187 31.3748 270.656 31.3748H251.719V23.6873C251.719 23.1561 251.281 22.7186 250.75 22.7186H240.375C239.625 17.0936 236.281 14.2498 230.469 14.2498C224.656 14.2498 221.312 17.0936 220.562 22.7186H210.281C209.75 22.7186 209.312 23.1561 209.312 23.6873V31.3748H187.594C187.062 31.3748 186.625 31.8123 186.625 32.3436V138.312C186.625 138.844 187.062 139.281 187.594 139.281H270.687C271.219 139.281 271.656 138.844 271.656 138.312V130.812C271.906 130.812 272.125 130.812 272.375 130.812C273.625 130.781 274.937 130.656 276.25 130.437C276.937 130.312 277.437 129.719 277.406 129L277.312 125.219C279.969 124.562 282.5 123.406 284.781 121.906L287.531 124.5C288.031 124.969 288.812 125.031 289.375 124.594C291.406 122.969 293.219 121.062 294.719 118.937C295.125 118.375 295.031 117.594 294.531 117.094L291.781 114.5C293.187 112.156 294.187 109.562 294.687 106.875L298.469 106.781C299.156 106.781 299.75 106.25 299.844 105.562C300 104.25 300.031 102.937 300 101.687C299.969 100.437 299.844 99.1561 299.625 97.8436ZM230.5 17.1248C234.781 17.1248 236.937 18.7811 237.562 22.7498H223.437C224.031 18.8123 226.219 17.1248 230.5 17.1248ZM212.187 25.5623H248.906V36.9998H212.187V25.5623ZM268.812 130.75V136.437H189.469V34.2186H209.375V38.8748C209.375 39.4061 209.812 39.8436 210.344 39.8436H250.812C251.344 39.8436 251.781 39.4061 251.781 38.8748V34.2186H268.844V74.2186C268.25 74.2811 267.656 74.3436 267.062 74.4373C266.344 74.5623 265.844 75.1561 265.875 75.8748L265.969 79.6561C263.312 80.3123 260.781 81.4373 258.5 82.9686L255.75 80.3748C255.25 79.9061 254.469 79.8436 253.906 80.2811C251.875 81.9061 250.062 83.8123 248.562 85.9373C248.156 86.4998 248.25 87.2811 248.75 87.7811L251.5 90.3748C250.094 92.7186 249.094 95.3123 248.594 97.9998L244.812 98.0936C244.125 98.0936 243.531 98.6248 243.437 99.3123C243.281 100.625 243.25 101.937 243.281 103.187C243.312 104.437 243.437 105.75 243.656 107.031C243.781 107.719 244.375 108.187 245.094 108.219L248.875 108.125C249.531 110.781 250.656 113.312 252.187 115.594L249.594 118.344C249.125 118.844 249.062 119.625 249.5 120.187C251.125 122.219 253.031 124.031 255.125 125.531C255.687 125.937 256.469 125.844 256.969 125.344L259.562 122.594C261.906 124 264.5 125 267.187 125.5L267.281 129.281C267.281 129.969 267.844 130.562 268.531 130.656C268.937 130.687 269.312 130.719 269.687 130.75H268.812ZM297.125 104L293.437 104.094C292.75 104.094 292.156 104.625 292.062 105.312C291.625 108.437 290.5 111.344 288.75 113.969C288.375 114.531 288.437 115.312 288.937 115.781L291.594 118.312C290.656 119.5 289.625 120.594 288.5 121.562L285.844 119.031C285.344 118.562 284.562 118.5 284.031 118.937C281.531 120.844 278.687 122.094 275.562 122.719C274.875 122.844 274.406 123.469 274.406 124.156L274.5 127.844C273.75 127.937 273 128 272.25 128C271.5 128 270.75 128 270 127.969L269.906 124.281C269.906 123.594 269.375 123 268.687 122.906C265.562 122.469 262.656 121.344 260.031 119.594C259.469 119.219 258.687 119.281 258.219 119.781L255.687 122.437C254.5 121.5 253.406 120.469 252.437 119.344L254.969 116.687C255.437 116.187 255.5 115.406 255.062 114.875C253.156 112.375 251.906 109.531 251.281 106.406C251.156 105.719 250.531 105.219 249.844 105.25L246.156 105.344C246.062 104.594 246 103.844 246 103.094C246 102.375 246 101.594 246.031 100.844L249.719 100.75C250.406 100.75 251 100.219 251.094 99.5311C251.531 96.4373 252.656 93.4686 254.406 90.8748C254.781 90.3123 254.719 89.5311 254.219 89.0623L251.562 86.5311C252.5 85.3436 253.531 84.2498 254.656 83.2811L257.312 85.8123C257.812 86.2811 258.594 86.3436 259.125 85.9061C261.594 84.0311 264.531 82.7186 267.594 82.1248C268.281 81.9998 268.75 81.3748 268.75 80.6873L268.656 76.9998C269.406 76.9061 270.156 76.8436 270.906 76.8436C271.625 76.8436 272.375 76.8436 273.156 76.8748L273.25 80.5623C273.25 81.2498 273.781 81.8436 274.469 81.9373C277.594 82.3748 280.5 83.4998 283.125 85.2498C283.687 85.6248 284.469 85.5623 284.937 85.0623L287.469 82.4061C288.656 83.3436 289.75 84.3748 290.719 85.4998L288.187 88.1561C287.719 88.6561 287.656 89.4373 288.094 89.9686C289.969 92.4373 291.25 95.3748 291.875 98.4061C292 99.0936 292.656 99.5311 293.312 99.5623L297 99.4686C297.094 100.219 297.156 100.969 297.156 101.719C297.156 102.437 297.156 103.219 297.125 103.969V104Z" fill="#0073AD" fill-opacity="0.15"/>
<path d="M269.5 91.0311C266.469 91.5936 263.812 93.3123 262.062 95.8748C260.312 98.4373 259.656 101.5 260.219 104.562C260.781 107.594 262.5 110.25 265.062 112C267.031 113.344 269.281 114.031 271.594 114.031C272.312 114.031 273.031 113.969 273.75 113.844C280.031 112.687 284.187 106.594 283.031 100.312C281.875 94.0311 275.812 89.8436 269.5 91.0311ZM273.219 111.062C270.906 111.5 268.594 111 266.656 109.687C264.719 108.375 263.437 106.375 263 104.062C262.125 99.3123 265.25 94.7186 270 93.8436C270.531 93.7498 271.062 93.6873 271.594 93.6873C275.719 93.6873 279.437 96.6248 280.219 100.844C281.094 105.594 277.969 110.187 273.219 111.062Z" fill="#0073AD" fill-opacity="0.15"/>
<path d="M211.156 54.3123H198.875C198.344 54.3123 197.906 54.7498 197.906 55.2811V78.7498C197.906 79.2811 198.344 79.7186 198.875 79.7186H211.156C211.687 79.7186 212.125 79.2811 212.125 78.7498V55.2811C212.125 54.7498 211.687 54.3123 211.156 54.3123ZM209.281 76.8748H200.75V57.1248H209.281V76.8748Z" fill="#0073AD" fill-opacity="0.15"/>
<path d="M231 45.7498H218.75C218.219 45.7498 217.781 46.1873 217.781 46.7186V78.7811C217.781 79.3123 218.219 79.7498 218.75 79.7498H231C231.531 79.7498 231.969 79.3123 231.969 78.7811V46.7186C231.969 46.1873 231.531 45.7498 231 45.7498ZM229.125 76.9061H220.594V48.5623H229.125V76.9061Z" fill="#0073AD" fill-opacity="0.15"/>
<path d="M250.781 62.7498H238.563C238.031 62.7498 237.594 63.1873 237.594 63.7186V78.7811C237.594 79.3123 238.031 79.7498 238.563 79.7498H250.781C251.313 79.7498 251.75 79.3123 251.75 78.7811V63.7186C251.75 63.1873 251.313 62.7498 250.781 62.7498ZM248.906 76.9061H240.437V65.5623H248.906V76.9061Z" fill="#0073AD" fill-opacity="0.15"/>
</g>
<defs>
<clipPath id="clip0_280_215">
<rect width="113.375" height="125" fill="white" transform="translate(186.625 14.2811)"/>
</clipPath>
</defs>
</svg>
