<svg width="324" height="160" viewBox="0 0 324 160" fill="none" xmlns="http://www.w3.org/2000/svg">
<path d="M0 12C0 5.37259 5.37258 0 12 0H312C318.627 0 324 5.37258 324 12V141.562C324 148.19 318.627 153.562 312 153.562H12C5.37258 153.562 0 148.19 0 141.562V12Z" fill="white"/>
<g clip-path="url(#clip0_280_231)">
<path d="M299.781 77.4685L289.719 61.7185L295.281 56.156C295.812 55.6248 295.812 54.7498 295.281 54.2185C294.75 53.6873 293.875 53.6873 293.344 54.2185L289.187 58.3748V40.031C289.187 39.281 288.594 38.656 287.812 38.656H264.75C264.75 38.656 264.656 38.656 264.625 38.656V23.8748C264.625 23.1248 264.031 22.4998 263.25 22.4998H211.594C210.844 22.4998 210.219 23.0935 210.219 23.8748V38.6873H187.031C186.656 38.6873 186.312 38.8435 186.062 39.0935C185.812 39.3435 185.656 39.6873 185.656 40.0623L185.875 59.7185C185.875 59.7185 185.906 59.8748 185.937 59.9685C179.844 60.4685 175 65.5935 175 71.8435C175 78.0935 179.781 83.1873 185.875 83.7185V115.812H209.062L205.125 119.75C204.594 120.281 204.594 121.156 205.125 121.687C205.375 121.937 205.75 122.094 206.094 122.094C206.437 122.094 206.781 121.969 207.062 121.687L212.937 115.812C212.937 115.812 213.062 115.812 213.125 115.781V129.719C213.125 130.469 213.719 131.094 214.5 131.094H263.344C264.094 131.094 264.719 130.5 264.719 129.719V116L270.406 121.687C270.656 121.937 271.031 122.094 271.375 122.094C271.719 122.094 272.062 121.969 272.344 121.687C272.875 121.156 272.875 120.281 272.344 119.75L268.344 115.75H287.937C288.687 115.75 289.312 115.156 289.312 114.375V93.906L299.844 78.9998C300.156 78.5623 300.187 77.9373 299.875 77.4685H299.781ZM264.656 53.4685V41.3435C264.656 41.3435 264.75 41.3435 264.781 41.3435H286.469V57.9998L282.656 54.1873C282.125 53.656 281.25 53.656 280.719 54.1873C280.187 54.7185 280.187 55.5935 280.719 56.1248L286.062 61.4685L276.344 76.7185H237.437V59.1873L241.562 63.3123C241.812 63.5623 242.187 63.7185 242.531 63.7185C242.875 63.7185 243.219 63.5935 243.5 63.3123C244.031 62.781 244.031 61.906 243.5 61.3748L237.187 55.0623C237.187 55.0623 236.937 54.8748 236.812 54.8123H263.281C264.031 54.8123 264.656 54.2185 264.656 53.4373V53.4685ZM212.937 25.2185H261.906V52.1248H212.937V25.2185ZM177.719 71.8435C177.719 66.781 181.844 62.6248 186.937 62.6248C192.031 62.6248 196.156 66.7498 196.156 71.8435C196.156 76.9373 192.031 81.0623 186.937 81.0623C181.844 81.0623 177.719 76.9373 177.719 71.8435ZM261.937 128.344H215.812V100.969H261.937V128.344ZM268.312 113L272.281 109.031C272.812 108.5 272.812 107.625 272.281 107.094C271.75 106.562 270.875 106.562 270.344 107.094L264.656 112.781V99.5623C264.656 98.8123 264.062 98.1873 263.281 98.1873H214.437C213.687 98.1873 213.062 98.781 213.062 99.5623V113.094C213.062 113.094 213.031 113.094 213 113.094L207 107.094C206.469 106.562 205.594 106.562 205.062 107.094C204.531 107.625 204.531 108.5 205.062 109.031L209.094 113.062H188.531V83.6248C194.312 82.8123 198.781 77.8435 198.781 71.8123C198.781 65.781 194.281 60.781 188.437 59.9998C188.437 59.8748 188.5 59.781 188.5 59.656L188.312 41.3748H210.156V53.4685C210.156 54.2185 210.75 54.8435 211.531 54.8435H235.594C235.594 54.8435 235.312 54.9998 235.219 55.0935L228.906 61.406C228.375 61.9373 228.375 62.8123 228.906 63.3435C229.437 63.8748 230.312 63.8748 230.844 63.3435L234.687 59.4998V78.1248C234.687 78.8748 235.281 79.4998 236.062 79.4998H276.25L286.437 93.9373V113.062H268.25L268.312 113ZM287.844 91.0935L278.687 78.156L287.844 63.8123L297 78.156L287.844 91.0935Z" fill="#0073AD" fill-opacity="0.15"/>
</g>
<defs>
<clipPath id="clip0_280_231">
<rect width="125" height="108.563" fill="white" transform="translate(175 22.4998)"/>
</clipPath>
</defs>
</svg>
