<svg width="324" height="160" viewBox="0 0 324 160" fill="none" xmlns="http://www.w3.org/2000/svg">
<path d="M0 12C0 5.37259 5.37258 0 12 0H312C318.627 0 324 5.37258 324 12V141.562C324 148.19 318.627 153.562 312 153.562H12C5.37258 153.562 0 148.19 0 141.562V12Z" fill="white"/>
<g clip-path="url(#clip0_280_327)">
<path d="M275.656 33.6873C273.75 33.6873 271.844 33.9061 269.969 34.3748C264.469 22.1248 252.375 14.2811 238.781 14.2811C222.5 14.2811 208.406 25.9061 205.313 41.5936C203.125 40.8436 200.812 40.4373 198.469 40.4373C186.937 40.4373 177.531 49.7498 177.531 61.1873C177.531 72.6248 186.344 81.6561 197.187 82.1248C199.125 82.2186 205.875 82.2186 206.188 82.1873C206.938 82.1873 207.562 81.5623 207.562 80.8123C207.562 80.0623 206.938 79.4373 206.188 79.4373C206.188 79.4373 199.187 79.4373 197.312 79.3748C188.094 78.9686 180.281 70.6561 180.281 61.1561C180.281 51.6561 188.438 43.1561 198.5 43.1561C201.031 43.1561 203.5 43.6873 205.844 44.6873C206.25 44.8436 206.687 44.8436 207.062 44.6248C207.437 44.4061 207.688 44.0623 207.75 43.6248C209.906 28.4686 223.281 16.9998 238.781 16.9998C251.656 16.9998 263.094 24.6561 267.938 36.4998C268.188 37.1561 268.906 37.4998 269.594 37.2811C271.594 36.6873 273.656 36.4061 275.687 36.4061C287.594 36.4061 297.313 45.9998 297.313 57.8123C297.313 69.6248 287.344 79.3436 275.563 79.4686C274.781 79.4686 271.187 79.4686 271.187 79.4686V82.1873C271.187 82.1873 274.781 82.1873 275.563 82.1873C288.813 82.0623 300 70.9061 300 57.8123C300 44.7186 289.094 33.6873 275.656 33.6873Z" fill="#0073AD" fill-opacity="0.15"/>
<path d="M285.031 95.6248C281.656 95.6248 278.844 98.0311 278.219 101.219H261.812V71.4686H268.812C269.562 71.4686 270.188 70.8436 270.188 70.0936C270.188 69.3436 269.562 68.7186 268.812 68.7186H208.719C207.969 68.7186 207.344 69.3436 207.344 70.0936C207.344 70.8436 207.969 71.4686 208.719 71.4686H215.656V95.6248H195.438C194.875 92.3436 192.031 89.8123 188.594 89.8123C184.75 89.8123 181.625 92.9373 181.625 96.7811C181.625 100.625 184.75 103.75 188.594 103.75C191.875 103.75 194.625 101.437 195.344 98.3748H217C217.75 98.3748 218.375 97.7498 218.375 96.9998V71.4998H226.406V109.375H214.375C213.75 106.187 210.937 103.781 207.562 103.781C203.719 103.781 200.594 106.906 200.594 110.75C200.594 114.594 203.719 117.719 207.562 117.719C210.937 117.719 213.75 115.312 214.375 112.125H227.781C228.531 112.125 229.156 111.5 229.156 110.75V71.4998H237.438V125.5C234.25 126.125 231.844 128.937 231.844 132.312C231.844 136.156 234.969 139.281 238.813 139.281C242.656 139.281 245.781 136.156 245.781 132.312C245.781 128.937 243.375 126.125 240.187 125.5V71.4998H248.406V119.031C248.406 119.781 249.031 120.406 249.781 120.406H261.562C262.187 123.594 265 126 268.375 126C272.219 126 275.344 122.875 275.344 119.031C275.344 115.187 272.219 112.062 268.375 112.062C265 112.062 262.187 114.469 261.562 117.656H251.125V71.4998H259.156V102.594C259.156 103.344 259.781 103.969 260.531 103.969H278.281C278.906 107.156 281.719 109.562 285.094 109.562C288.937 109.562 292.063 106.437 292.063 102.594C292.063 98.7498 288.937 95.6248 285.094 95.6248H285.031ZM188.594 101.031C186.25 101.031 184.375 99.1248 184.375 96.8123C184.375 94.4998 186.281 92.5936 188.594 92.5936C190.906 92.5936 192.812 94.4998 192.812 96.8123C192.812 99.1248 190.906 101.031 188.594 101.031ZM207.531 114.969C205.188 114.969 203.313 113.062 203.313 110.75C203.313 108.437 205.219 106.531 207.531 106.531C209.844 106.531 211.75 108.437 211.75 110.75C211.75 113.062 209.844 114.969 207.531 114.969ZM243 132.312C243 134.656 241.094 136.531 238.781 136.531C236.469 136.531 234.563 134.625 234.563 132.312C234.563 130 236.469 128.094 238.781 128.094C241.094 128.094 243 130 243 132.312ZM268.312 114.781C270.656 114.781 272.531 116.687 272.531 119C272.531 121.312 270.625 123.219 268.312 123.219C266 123.219 264.094 121.312 264.094 119C264.094 116.687 266 114.781 268.312 114.781ZM285.031 106.812C282.688 106.812 280.812 104.906 280.812 102.594C280.812 100.281 282.719 98.3748 285.031 98.3748C287.344 98.3748 289.25 100.281 289.25 102.594C289.25 104.906 287.344 106.812 285.031 106.812Z" fill="#0073AD" fill-opacity="0.15"/>
</g>
<defs>
<clipPath id="clip0_280_327">
<rect width="122.469" height="125" fill="white" transform="translate(177.531 14.2811)"/>
</clipPath>
</defs>
</svg>
