<svg width="324" height="160" viewBox="0 0 324 160" fill="none" xmlns="http://www.w3.org/2000/svg">
<path d="M0 12C0 5.37259 5.37258 0 12 0H312C318.627 0 324 5.37258 324 12V141.562C324 148.19 318.627 153.562 312 153.562H12C5.37258 153.562 0 148.19 0 141.562V12Z" fill="white"/>
<g clip-path="url(#clip0_280_191)">
<path d="M209.344 15.4686V67.8123C207.812 67.5623 206.25 67.4373 204.688 67.4373C188.313 67.4373 175 80.7498 175 97.1248C175 113.5 188.313 126.812 204.688 126.812C206.281 126.812 207.844 126.656 209.344 126.406V138.125C209.344 138.75 209.844 139.281 210.5 139.281H298.844C299.469 139.281 300 138.781 300 138.125V15.4686C300 14.8436 299.5 14.3123 298.844 14.3123H210.5C209.875 14.3123 209.344 14.8123 209.344 15.4686ZM178.125 97.1248C178.125 82.4686 190.031 70.5623 204.688 70.5623C212.531 70.5623 219.969 73.9998 225.031 80.0311C229.031 84.8123 231.25 90.8748 231.25 97.1248C231.25 111.781 219.344 123.687 204.688 123.687C190.031 123.687 178.125 111.75 178.125 97.1248ZM228.156 64.2811H237.437V95.5311H234.312C234 89.4998 231.844 83.7186 228.156 78.9686V64.2811ZM296.875 136.125H212.469V125.719C219.156 123.906 224.875 119.812 228.812 114.312H282.781C283.656 114.312 284.344 113.625 284.344 112.75C284.344 111.875 283.656 111.187 282.781 111.187H230.813C232.844 107.437 234.062 103.156 234.312 98.6561H239.438C240.063 98.6561 240.594 98.1561 240.594 97.4998V62.2811C240.594 61.6561 240.063 61.1248 239.438 61.1248H226.219C225.594 61.1248 225.063 61.6248 225.063 62.2811V75.4686C221.5 72.1248 217.188 69.7186 212.5 68.4373V17.4373H296.906V136.125H296.875Z" fill="#0073AD" fill-opacity="0.15"/>
<path d="M246.812 52.9373V97.5311C246.812 98.1561 247.344 98.6873 247.969 98.6873H261.25C261.875 98.6873 262.406 98.1873 262.406 97.5311V52.9373C262.406 52.3123 261.875 51.7811 261.25 51.7811H247.969C247.344 51.7811 246.812 52.2811 246.812 52.9373ZM249.938 95.5623V54.9373H259.25V95.5623H249.938Z" fill="#0073AD" fill-opacity="0.15"/>
<path d="M268.625 59.1873V97.5311C268.625 98.1561 269.156 98.6873 269.781 98.6873H283.094C283.719 98.6873 284.25 98.1873 284.25 97.5311V59.1873C284.25 58.5623 283.719 58.0311 283.094 58.0311H269.781C269.156 58.0311 268.625 58.5311 268.625 59.1873ZM271.781 95.5623V61.1873H281.125V95.5623H271.781Z" fill="#0073AD" fill-opacity="0.15"/>
<path d="M231.875 51.4686C232.156 51.6873 232.469 51.7811 232.812 51.7811C233.156 51.7811 233.437 51.6873 233.719 51.4998L254.812 36.5623L276.031 48.4061C276.656 48.7498 277.406 48.6248 277.906 48.1561L287.562 38.4373V44.0623C287.562 44.9373 288.25 45.6248 289.125 45.6248C290 45.6248 290.687 44.9373 290.687 44.0623V34.6561C290.687 34.4373 290.656 34.2498 290.562 34.0623C290.469 33.8748 290.375 33.6873 290.219 33.5623C290.219 33.5623 290.156 33.5311 290.125 33.4998C290 33.4061 289.875 33.2811 289.719 33.2186C289.594 33.1561 289.437 33.1561 289.281 33.1248C289.219 33.1248 289.187 33.0936 289.125 33.0936H279.656C278.781 33.0936 278.094 33.7811 278.094 34.6561C278.094 35.5311 278.781 36.2186 279.656 36.2186H285.375L276.531 45.0936L255.5 33.3436C254.969 33.0623 254.312 33.0936 253.844 33.4373L232.875 48.2811L221.312 39.6873C220.625 39.1873 219.656 39.3123 219.125 39.9998C218.594 40.6873 218.75 41.6561 219.437 42.1873L231.937 51.4686H231.875Z" fill="#0073AD" fill-opacity="0.15"/>
<path d="M219.281 86.406L201.781 105.312L192 95.781C191.375 95.1873 190.406 95.1873 189.781 95.781C189.188 96.406 189.188 97.3748 189.781 97.9998L200.719 108.656C201 108.937 201.406 109.094 201.812 109.094H201.844C202.25 109.094 202.656 108.906 202.937 108.594L221.531 88.4998C222.125 87.8748 222.094 86.8748 221.437 86.2811C220.812 85.6873 219.812 85.7185 219.219 86.3748L219.281 86.406Z" fill="#0073AD" fill-opacity="0.15"/>
</g>
<defs>
<clipPath id="clip0_280_191">
<rect width="125" height="124.937" fill="white" transform="translate(175 14.3123)"/>
</clipPath>
</defs>
</svg>
