<svg width="324" height="160" viewBox="0 0 324 160" fill="none" xmlns="http://www.w3.org/2000/svg">
<path d="M0 12C0 5.37259 5.37258 0 12 0H312C318.627 0 324 5.37258 324 12V141.562C324 148.19 318.627 153.562 312 153.562H12C5.37258 153.562 0 148.19 0 141.562V12Z" fill="white"/>
<path d="M244.483 105.852C243.639 105.852 242.952 106.539 242.952 107.383V111.882H179.186V41.9616C179.218 41.9616 179.249 41.9616 179.28 41.9616H242.952V46.4918C242.952 47.3353 243.639 48.0226 244.483 48.0226C245.326 48.0226 246.013 47.3353 246.013 46.4918V22.4978C246.013 17.9676 242.358 14.2811 237.859 14.2811H184.279C182.092 14.2811 180.061 15.1558 178.53 16.718C176.999 18.2801 176.156 20.3421 176.156 22.529V113.319C176.156 113.319 176.156 113.381 176.156 113.413C176.156 113.444 176.156 113.475 176.156 113.506V131.064C176.156 133.251 176.999 135.313 178.53 136.875C180.061 138.438 182.123 139.281 184.279 139.281H237.859C240.046 139.281 242.077 138.406 243.608 136.844C245.139 135.282 245.982 133.22 245.982 131.033V107.352C245.982 106.508 245.295 105.821 244.451 105.821L244.483 105.852ZM180.686 18.8737C181.654 17.9052 182.935 17.374 184.279 17.374H237.859C240.671 17.374 242.952 19.686 242.952 22.529V38.9312H179.28C179.249 38.9312 179.218 38.9312 179.186 38.9312V22.4978C179.186 21.1231 179.717 19.8109 180.686 18.8424V18.8737ZM241.483 134.72C240.515 135.688 239.234 136.219 237.89 136.219H184.31C182.967 136.219 181.686 135.688 180.717 134.72C179.749 133.751 179.218 132.439 179.218 131.064V114.912H242.983V131.064C242.983 132.439 242.452 133.751 241.483 134.72Z" fill="#0073AD" fill-opacity="0.15"/>
<path d="M218.489 124.066H203.149C202.306 124.066 201.618 124.753 201.618 125.597C201.618 126.441 202.306 127.128 203.149 127.128H218.489C219.332 127.128 220.02 126.441 220.02 125.597C220.02 124.753 219.332 124.066 218.489 124.066Z" fill="#0073AD" fill-opacity="0.15"/>
<path d="M210.96 29.7146H229.174C230.017 29.7146 230.705 29.0272 230.705 28.1837C230.705 27.3402 230.017 26.6528 229.174 26.6528H210.96C210.116 26.6528 209.429 27.3402 209.429 28.1837C209.429 29.0272 210.116 29.7146 210.96 29.7146Z" fill="#0073AD" fill-opacity="0.15"/>
<path d="M192.714 29.7146H198.744C199.587 29.7146 200.275 29.0272 200.275 28.1837C200.275 27.3402 199.587 26.6528 198.744 26.6528H192.714C191.87 26.6528 191.183 27.3402 191.183 28.1837C191.183 29.0272 191.87 29.7146 192.714 29.7146Z" fill="#0073AD" fill-opacity="0.15"/>
<path d="M293.595 70.9232C290.69 70.9232 288.253 72.8914 287.441 75.547H220.113C219.27 75.547 218.583 76.2343 218.583 77.0779C218.583 77.9214 219.27 78.6087 220.113 78.6087H287.253C287.815 81.5767 290.44 83.7949 293.564 83.7949C297.126 83.7949 300 80.9207 300 77.359C300 73.7974 297.126 70.9232 293.564 70.9232H293.595ZM293.595 80.7332C291.721 80.7332 290.19 79.2023 290.19 77.3278C290.19 75.4533 291.721 73.9224 293.595 73.9224C295.47 73.9224 297 75.4533 297 77.3278C297 79.2023 295.47 80.7332 293.595 80.7332Z" fill="#0073AD" fill-opacity="0.15"/>
<path d="M279.505 55.4896V66.2994H220.145C219.301 66.2994 218.614 66.9867 218.614 67.8302C218.614 68.6738 219.301 69.3611 220.145 69.3611H281.004C281.848 69.3611 282.535 68.6738 282.535 67.8302V55.4896C285.347 54.8022 287.441 52.2716 287.441 49.2411C287.441 45.6795 284.566 42.8052 281.004 42.8052C277.443 42.8052 274.569 45.6795 274.569 49.2411C274.569 52.2716 276.662 54.771 279.474 55.4896H279.505ZM281.004 45.867C282.879 45.867 284.41 47.3978 284.41 49.2724C284.41 51.1469 282.879 52.6778 281.004 52.6778C279.13 52.6778 277.599 51.1469 277.599 49.2724C277.599 47.3978 279.13 45.867 281.004 45.867Z" fill="#0073AD" fill-opacity="0.15"/>
<path d="M264.196 37.3377V54.2709H220.145C219.301 54.2709 218.614 54.9583 218.614 55.8018C218.614 56.6453 219.301 57.3327 220.145 57.3327H265.696C266.54 57.3327 267.227 56.6453 267.227 55.8018V37.3377C270.039 36.6503 272.132 34.1197 272.132 31.1205C272.132 27.5589 269.258 24.6846 265.696 24.6846C262.134 24.6846 259.26 27.5589 259.26 31.1205C259.26 34.151 261.353 36.6503 264.165 37.3377H264.196ZM265.696 27.7151C267.571 27.7151 269.101 29.2459 269.101 31.1205C269.101 32.995 267.571 34.5259 265.696 34.5259C263.822 34.5259 262.29 32.995 262.29 31.1205C262.29 29.2459 263.822 27.7151 265.696 27.7151Z" fill="#0073AD" fill-opacity="0.15"/>
<path d="M276.474 98.635V86.0756C276.474 85.2321 275.787 84.5447 274.944 84.5447H220.145C219.301 84.5447 218.614 85.2321 218.614 86.0756C218.614 86.9192 219.301 87.6065 220.145 87.6065H273.444V98.635C270.632 99.3223 268.539 101.853 268.539 104.883C268.539 108.445 271.413 111.319 274.975 111.319C278.537 111.319 281.411 108.445 281.411 104.883C281.411 101.853 279.318 99.3535 276.506 98.635H276.474ZM274.944 108.258C273.069 108.258 271.538 106.727 271.538 104.852C271.538 102.978 273.069 101.447 274.944 101.447C276.818 101.447 278.349 102.978 278.349 104.852C278.349 106.727 276.818 108.258 274.944 108.258Z" fill="#0073AD" fill-opacity="0.15"/>
<path d="M261.26 118.099V98.1976C261.26 97.354 260.572 96.6667 259.729 96.6667H220.145C219.301 96.6667 218.614 97.354 218.614 98.1976C218.614 99.0411 219.301 99.7284 220.145 99.7284H258.198V118.13C255.386 118.817 253.293 121.348 253.293 124.347C253.293 127.909 256.167 130.783 259.729 130.783C263.29 130.783 266.164 127.909 266.164 124.347C266.164 121.317 264.071 118.817 261.26 118.13V118.099ZM259.729 127.753C257.854 127.753 256.323 126.222 256.323 124.347C256.323 122.473 257.854 120.942 259.729 120.942C261.603 120.942 263.134 122.473 263.134 124.347C263.134 126.222 261.603 127.753 259.729 127.753Z" fill="#0073AD" fill-opacity="0.15"/>
</svg>
