<svg width="324" height="160" viewBox="0 0 324 160" fill="none" xmlns="http://www.w3.org/2000/svg">
<path d="M0 12C0 5.37259 5.37258 0 12 0H312C318.627 0 324 5.37258 324 12V141.562C324 148.19 318.627 153.562 312 153.562H12C5.37258 153.562 0 148.19 0 141.562V12Z" fill="white"/>
<g clip-path="url(#clip0_280_199)">
<path d="M299.5 136.719L266.187 105.969C269.219 103.5 271.969 100.656 274.375 97.5623L297.469 118.25C297.75 118.5 298.094 118.625 298.469 118.625C298.875 118.625 299.281 118.469 299.562 118.125C300.094 117.531 300.063 116.594 299.438 116.031L276.125 95.1248C281.844 86.8123 285.187 76.7498 285.187 65.9373C285.187 37.4686 262 14.2811 233.531 14.2811C205.063 14.2811 181.844 37.4686 181.844 65.9686C181.844 94.4686 205.031 117.656 233.531 117.656C244.844 117.656 255.312 114 263.812 107.812L297.5 138.937C297.781 139.187 298.156 139.344 298.5 139.344C298.906 139.344 299.281 139.187 299.594 138.875C300.156 138.281 300.125 137.344 299.5 136.781V136.719ZM184.812 65.9686C184.812 39.0936 206.656 17.2498 233.531 17.2498C260.406 17.2498 282.25 39.0936 282.25 65.9686C282.25 92.8436 260.406 114.687 233.531 114.687C206.656 114.687 184.812 92.8123 184.812 65.9686Z" fill="#0073AD" fill-opacity="0.15"/>
<path d="M263.219 58.2498L254.812 58.781C254.437 58.781 254.125 58.9686 253.844 59.2186L250.25 62.8123C250 62.4998 249.781 62.2185 249.5 61.9373L245.906 58.3436L253.875 50.3748C254.437 49.8123 254.437 48.8748 253.875 48.2811C253.312 47.6873 252.375 47.7186 251.781 48.2811L243.812 56.2498L239.406 51.8436L242.594 48.6561C242.844 48.4061 243 48.0936 243.031 47.7498L243.875 39.0311C243.969 38.2186 243.344 37.4998 242.531 37.4061C241.719 37.3123 241 37.9373 240.906 38.7498L240.125 46.9373L237.312 49.7498L234.719 47.1561C228.406 40.8436 218.781 40.2186 213.25 45.7498C207.719 51.2811 208.344 60.9061 214.656 67.2186L217.25 69.8123L213.969 73.0935L206.344 73.406C205.531 73.4373 204.906 74.1248 204.937 74.9373C204.969 75.7185 205.625 76.3436 206.406 76.3436C206.406 76.3436 206.437 76.3436 206.469 76.3436L214.687 75.9998C215.062 75.9998 215.406 75.8436 215.687 75.5623L219.406 71.8435L223.812 76.2498L215.844 84.2185C215.281 84.781 215.281 85.7185 215.844 86.3123C216.125 86.5935 216.5 86.7498 216.875 86.7498C217.25 86.7498 217.625 86.5935 217.906 86.3123L225.875 78.3435L229.469 81.9373C229.75 82.2185 230.031 82.4373 230.344 82.6873L226.406 86.6248C226.125 86.906 225.969 87.2498 225.969 87.656L225.812 95.6873C225.812 96.4998 226.437 97.1873 227.25 97.1873H227.281C228.094 97.1873 228.75 96.531 228.75 95.7498L228.906 88.3123L232.969 84.2498C235.687 85.406 238.906 85.781 241.875 85.781C246.687 85.781 250.844 84.8435 251.156 84.781C251.719 84.656 252.156 84.2186 252.281 83.6561C252.406 83.1248 254.75 72.531 251.75 65.4685L255.5 61.7186L263.344 61.2498C264.156 61.1873 264.781 60.4998 264.719 59.6873C264.656 58.8748 263.969 58.2811 263.156 58.3123L263.219 58.2498ZM247.437 64.0311C250.906 67.4998 250.625 75.4061 249.937 80.2811L224.562 54.9061L231.375 48.0936C231.844 48.4686 232.281 48.8436 232.687 49.2498L247.437 63.9998V64.0311ZM215.406 47.8436C217.344 45.9061 219.969 44.9373 222.75 44.9373C224.75 44.9373 226.844 45.4686 228.812 46.4373L221.406 53.8436L214 61.2498C211.625 56.5935 212.031 51.2186 215.406 47.8436ZM231.562 79.8748L226.937 75.2498L220.437 68.7498L216.812 65.1248C216.375 64.6873 216 64.2498 215.656 63.8123L222.469 56.9998L247.844 82.3748C242.969 83.0623 235.062 83.3435 231.594 79.8748H231.562Z" fill="#0073AD" fill-opacity="0.15"/>
<path d="M233.531 21.2811C208.906 21.2811 188.875 41.3123 188.875 65.9373C188.875 90.5623 208.906 110.594 233.531 110.594C258.156 110.594 278.188 90.5623 278.188 65.9373C278.188 41.3123 258.156 21.2811 233.531 21.2811ZM233.531 107.656C210.531 107.656 191.813 88.9373 191.813 65.9373C191.813 42.9373 210.531 24.2498 233.531 24.2498C256.531 24.2498 275.25 42.9686 275.25 65.9686C275.25 88.9686 256.531 107.687 233.531 107.687V107.656Z" fill="#0073AD" fill-opacity="0.15"/>
</g>
<defs>
<clipPath id="clip0_280_199">
<rect width="118.156" height="125" fill="white" transform="translate(181.844 14.2811)"/>
</clipPath>
</defs>
</svg>
