<svg width="324" height="160" viewBox="0 0 324 160" fill="none" xmlns="http://www.w3.org/2000/svg">
<path d="M0 12C0 5.37259 5.37258 0 12 0H312C318.627 0 324 5.37258 324 12V141.562C324 148.19 318.627 153.562 312 153.562H12C5.37258 153.562 0 148.19 0 141.562V12Z" fill="white"/>
<g clip-path="url(#clip0_280_303)">
<path d="M299.813 118.531L277.156 20.2185C276.219 16.1248 272.094 13.531 268 14.4998L218.625 25.8435C214.5 26.8123 211.938 30.906 212.875 35.031L235.531 133.375C236 135.375 237.188 137.062 238.938 138.125C240.156 138.906 241.563 139.281 242.969 139.281C243.531 139.281 244.125 139.219 244.688 139.094L294.063 127.719C298.156 126.781 300.75 122.656 299.781 118.562L299.813 118.531ZM234.469 116.25L219.813 52.6248C219.813 52.6248 220.063 52.6873 220.156 52.6873C220.25 52.6873 220.375 52.6873 220.469 52.656L278.031 39.406C278.25 39.3435 278.469 39.2185 278.625 39.0935L293.281 102.719C293.063 102.656 292.844 102.625 292.594 102.687L235.031 115.937C234.813 116 234.594 116.125 234.438 116.25H234.469ZM219.25 28.5623L268.625 17.1873C269 17.0935 269.344 17.0623 269.719 17.0623C271.938 17.0623 273.938 18.5935 274.438 20.8435L278.094 36.7185C277.875 36.656 277.656 36.6248 277.406 36.7185L219.844 49.9373C219.625 49.9998 219.406 50.1248 219.25 50.2498L215.594 34.406C215 31.8123 216.625 29.1873 219.219 28.5935L219.25 28.5623ZM296.469 122.844C295.781 123.937 294.719 124.719 293.438 125L244.063 136.375C242.813 136.656 241.5 136.437 240.406 135.75C239.313 135.062 238.531 134 238.25 132.719L235 118.625C235 118.625 235.25 118.687 235.344 118.687C235.438 118.687 235.563 118.687 235.656 118.656L293.219 105.406C293.438 105.344 293.656 105.219 293.813 105.094L297.063 119.187C297.344 120.437 297.125 121.75 296.438 122.844H296.469Z" fill="#0073AD" fill-opacity="0.15"/>
<path d="M273.219 117.969L259.188 121.187C258.438 121.375 257.969 122.125 258.156 122.875C258.313 123.531 258.875 123.969 259.5 123.969C259.594 123.969 259.719 123.969 259.813 123.937L273.844 120.719C274.594 120.531 275.063 119.781 274.875 119.031C274.688 118.281 273.969 117.812 273.188 118L273.219 117.969Z" fill="#0073AD" fill-opacity="0.15"/>
<path d="M246.063 35.4685C246.063 35.4685 246.281 35.4685 246.375 35.4373L261.375 31.9685C262.125 31.781 262.594 31.031 262.406 30.281C262.219 29.531 261.5 29.0623 260.719 29.2498L245.719 32.7185C244.969 32.906 244.5 33.656 244.688 34.406C244.844 35.0623 245.406 35.4998 246.031 35.4998L246.063 35.4685Z" fill="#0073AD" fill-opacity="0.15"/>
<path d="M231.906 38.7498C231.906 38.7498 232.125 38.7498 232.219 38.7185L235 38.0935C235.75 37.906 236.219 37.156 236.031 36.406C235.844 35.656 235.125 35.1873 234.344 35.3748L231.563 35.9998C230.813 36.1873 230.344 36.9373 230.531 37.6873C230.688 38.3435 231.25 38.781 231.875 38.781L231.906 38.7498Z" fill="#0073AD" fill-opacity="0.15"/>
</g>
<defs>
<clipPath id="clip0_280_303">
<rect width="87.3125" height="125" fill="white" transform="translate(212.688 14.2811)"/>
</clipPath>
</defs>
</svg>
