<svg width="324" height="160" viewBox="0 0 324 160" fill="none" xmlns="http://www.w3.org/2000/svg">
<path d="M0 12C0 5.37259 5.37258 0 12 0H312C318.627 0 324 5.37258 324 12V141.562C324 148.19 318.627 153.562 312 153.562H12C5.37258 153.562 0 148.19 0 141.562V12Z" fill="white"/>
<g clip-path="url(#clip0_280_335)">
<path d="M220.969 87.9061C220.156 87.9061 219.531 88.5623 219.531 89.3436C219.531 95.0311 214.906 99.6561 209.219 99.6561C208.406 99.6561 207.781 100.312 207.781 101.094C207.781 101.875 208.438 102.531 209.219 102.531C216.5 102.531 222.406 96.5936 222.406 89.3436C222.406 88.5311 221.75 87.9061 220.969 87.9061Z" fill="#0073AD" fill-opacity="0.15"/>
<path d="M219.344 66.4373C219.344 65.6248 218.687 64.9998 217.906 64.9998C210.625 64.9998 204.719 59.0936 204.719 51.8123C204.719 50.9998 204.062 50.3748 203.281 50.3748C202.5 50.3748 201.844 51.0311 201.844 51.8123C201.844 60.6873 209.062 67.9061 217.937 67.9061C218.75 67.9061 219.375 67.2498 219.375 66.4686L219.344 66.4373Z" fill="#0073AD" fill-opacity="0.15"/>
<path d="M292.812 67.7811C289.344 67.7811 286.437 70.2498 285.75 73.5311H266.781L278.25 61.1873C279.25 61.7186 280.375 62.0311 281.562 62.0311C285.531 62.0311 288.75 58.8123 288.75 54.8436C288.75 50.8748 285.531 47.6561 281.562 47.6561C277.594 47.6561 274.375 50.8748 274.375 54.8436C274.375 56.5623 275 58.1248 276 59.3436L262.844 73.4998H242.562C242.562 73.4998 242.469 73.4998 242.406 73.4998V62.0623H261.219C262.031 62.0623 262.656 61.4061 262.656 60.6248V36.3436C266.187 35.6561 268.906 32.5623 268.906 28.8123C268.906 24.5623 265.469 21.1248 261.219 21.1248C256.969 21.1248 253.531 24.5623 253.531 28.8123C253.531 32.5623 256.219 35.6561 259.781 36.3436V59.1873H242.406V34.8748C242.406 34.5623 242.437 34.2811 242.437 33.9686C242.437 33.6561 242.437 33.3436 242.375 33.0311V32.5311C242.375 32.5311 242.375 32.3436 242.344 32.2498C242.344 32.0623 242.281 31.8748 242.281 31.6873C242.25 31.3436 242.187 31.0311 242.125 30.6873C242.031 30.2498 241.937 29.8123 241.812 29.3748C241.812 29.2811 241.781 29.2186 241.75 29.1248C241.625 28.6248 241.437 28.1561 241.281 27.6873C241.281 27.6561 241.281 27.5936 241.25 27.5623C241.062 27.0936 240.875 26.6561 240.656 26.2186C240.625 26.1561 240.594 26.0936 240.562 26.0311C240.375 25.6561 240.156 25.2498 239.937 24.8748C239.875 24.7498 239.812 24.6561 239.719 24.5311C239.531 24.2186 239.312 23.9061 239.094 23.6248C238.969 23.4686 238.844 23.2811 238.719 23.1248C238.531 22.9061 238.344 22.6561 238.156 22.4373C237.969 22.2186 237.781 21.9998 237.562 21.7811C237.406 21.6248 237.25 21.4686 237.094 21.3123C236.844 21.0623 236.562 20.8123 236.281 20.5623C236.156 20.4686 236.031 20.3748 235.937 20.2498C235.594 19.9686 235.25 19.7186 234.875 19.4373C234.812 19.3748 234.75 19.3436 234.656 19.2811C234.219 18.9998 233.781 18.7186 233.312 18.4686C230.781 17.0936 227.875 16.2811 224.781 16.2811C216.406 16.2811 209.188 22.2186 207.438 30.3436C206.781 30.2811 206.156 30.2498 205.562 30.2498C193.281 30.2498 183.281 40.2498 183.281 52.5311C183.281 54.9373 183.656 57.3123 184.438 59.6248C178.719 62.7186 175.125 68.7186 175.125 75.2811C175.125 82.2811 179.313 88.6248 185.656 91.4998C184.875 93.9373 184.5 96.4373 184.5 98.9686C184.5 112.781 195.75 124.031 209.563 124.031C210.531 124.031 211.5 123.969 212.5 123.844C213.406 131.312 219.844 137.156 227.5 137.156C235.156 137.156 241.875 131.187 242.531 123.125V122.094V103.844L261.187 122.875C260.437 124 260 125.375 260 126.844C260 130.812 263.219 134.031 267.187 134.031C271.156 134.031 274.375 130.812 274.375 126.844C274.375 122.875 271.156 119.656 267.187 119.656C265.719 119.656 264.375 120.094 263.219 120.844L242.5 99.7186V90.7811H262.031L275.437 103.25C274.844 104.281 274.5 105.469 274.5 106.75C274.5 110.719 277.719 113.937 281.687 113.937C285.656 113.937 288.875 110.719 288.875 106.75C288.875 102.781 285.656 99.5623 281.687 99.5623C280.031 99.5623 278.531 100.125 277.344 101.062L263.594 88.2811C263.312 88.0311 262.969 87.9061 262.625 87.9061H242.5V76.3748C242.5 76.3748 242.594 76.3748 242.625 76.3748H285.844C286.5 79.6561 289.437 82.1248 292.906 82.1248C296.875 82.1248 300.094 78.9061 300.094 74.9373C300.094 70.9686 296.875 67.7498 292.906 67.7498L292.812 67.7811ZM281.562 50.5311C283.937 50.5311 285.875 52.4686 285.875 54.8436C285.875 57.2186 283.937 59.1561 281.562 59.1561C279.187 59.1561 277.25 57.2186 277.25 54.8436C277.25 52.4686 279.187 50.5311 281.562 50.5311ZM256.406 28.8436C256.406 26.1873 258.562 24.0623 261.187 24.0623C263.812 24.0623 265.969 26.2186 265.969 28.8436C265.969 31.4686 263.812 33.6248 261.187 33.6248C258.562 33.6248 256.406 31.4686 256.406 28.8436ZM271.375 126.875C271.375 129.25 269.437 131.187 267.062 131.187C264.687 131.187 262.75 129.25 262.75 126.875C262.75 124.5 264.687 122.562 267.062 122.562C269.437 122.562 271.375 124.5 271.375 126.875ZM281.625 102.469C284 102.469 285.937 104.406 285.937 106.781C285.937 109.156 284 111.094 281.625 111.094C279.25 111.094 277.313 109.156 277.313 106.781C277.313 104.406 279.25 102.469 281.625 102.469ZM227.375 109.969C234.062 109.969 239.531 115.437 239.531 122.125V123C239 129.406 233.781 134.25 227.375 134.25C220.969 134.25 215.219 128.812 215.156 122.156C215.156 121.719 214.969 121.344 214.625 121.062C214.406 120.906 214.156 120.812 213.906 120.781C213.687 120.719 213.469 120.687 213.219 120.719C207.406 121.719 201.531 120.344 196.719 116.937C191.906 113.531 188.719 108.437 187.75 102.594C185.719 90.5936 193.844 79.1561 205.875 77.1248C206.656 76.9998 207.188 76.2498 207.063 75.4686C206.938 74.6873 206.187 74.1561 205.406 74.2811C196.812 75.7186 190 81.4373 186.719 88.8748C181.406 86.4686 177.906 81.1561 177.906 75.3123C177.906 69.4686 181.375 64.1248 186.75 61.7186C187.469 61.4061 187.781 60.5623 187.5 59.8436C186.563 57.5311 186.094 55.0623 186.094 52.5936C186.094 41.9061 194.781 33.2186 205.469 33.2186C206.344 33.2186 207.25 33.2811 208.312 33.4686C208.687 33.5311 209.094 33.4373 209.406 33.1873C209.719 32.9686 209.906 32.5936 209.969 32.2186C210.969 24.8748 217.219 19.3436 224.594 19.2811C224.687 19.2811 224.781 19.3436 224.875 19.3436C227.906 19.3436 230.719 20.2498 233.062 21.8436C233.062 21.8436 233.094 21.8436 233.125 21.8748C233.5 22.1248 233.844 22.3748 234.156 22.6561C234.187 22.6873 234.25 22.7186 234.281 22.7498C234.594 22.9998 234.875 23.2811 235.187 23.5623C235.25 23.6248 235.281 23.6561 235.344 23.7186C235.625 23.9998 235.875 24.2811 236.125 24.5623C236.187 24.6248 236.25 24.6873 236.312 24.7811C236.531 25.0623 236.75 25.3436 236.969 25.6561C237.031 25.7498 237.094 25.8436 237.156 25.9061C237.344 26.1873 237.531 26.4998 237.719 26.8123C237.781 26.9061 237.844 26.9998 237.875 27.1248C238.031 27.4373 238.187 27.7498 238.344 28.0936C238.375 28.1873 238.437 28.3123 238.469 28.4061C238.625 28.7498 238.75 29.1248 238.875 29.4686C238.875 29.5623 238.937 29.6248 238.969 29.7186C239.094 30.1561 239.219 30.5936 239.312 31.0623C239.469 31.7498 239.531 32.4686 239.562 33.2186V34.8123C239.156 42.5311 232.75 48.6873 224.937 48.6873C224.125 48.6873 223.5 49.3436 223.5 50.1248C223.5 50.9061 224.156 51.5623 224.937 51.5623C231.031 51.5623 236.437 48.4373 239.594 43.6873V113.281C236.875 109.531 232.469 107.062 227.469 107.062C226.656 107.062 226.031 107.719 226.031 108.5C226.031 109.281 226.688 109.937 227.469 109.937L227.375 109.969ZM292.812 79.2811C290.437 79.2811 288.5 77.3436 288.5 74.9686C288.5 72.5936 290.437 70.6561 292.812 70.6561C295.187 70.6561 297.125 72.5936 297.125 74.9686C297.125 77.3436 295.187 79.2811 292.812 79.2811Z" fill="#0073AD" fill-opacity="0.15"/>
</g>
<defs>
<clipPath id="clip0_280_335">
<rect width="125" height="120.812" fill="white" transform="translate(175 16.3748)"/>
</clipPath>
</defs>
</svg>
