<svg width="155" height="155" viewBox="0 0 155 155" fill="none" xmlns="http://www.w3.org/2000/svg">
<g clip-path="url(#clip0_111_2726)">
<path d="M138.594 68.9062C137.812 68.9062 137.188 69.5313 137.188 70.3125V77.1875H125.375V66.0312C125.375 53 114.781 42.4063 101.75 42.4063H98.4688L105.312 31.5C106.062 31.7188 106.844 31.8438 107.688 31.8438C112.344 31.8438 116.125 28.0625 116.125 23.4062C116.125 18.75 112.344 14.9688 107.688 14.9688C103.031 14.9688 99.25 18.75 99.25 23.4062C99.25 26.2188 100.625 28.7188 102.75 30.25L95.125 42.4063H59.2188L51.5938 30.25C53.7188 28.7188 55.0938 26.2188 55.0938 23.4062C55.0938 18.75 51.3125 14.9688 46.6562 14.9688C42 14.9688 38.2187 18.75 38.2187 23.4062C38.2187 28.0625 42 31.8438 46.6562 31.8438C47.4688 31.8438 48.2812 31.7188 49.0312 31.5L55.875 42.4063H52.5938C39.5625 42.4063 28.9687 53 28.9687 66.0312V77.1875H17.8438V70.3125C17.8438 69.5313 17.2188 68.9062 16.4375 68.9062C15.6563 68.9062 15.0312 69.5313 15.0312 70.3125V87.2812C15.0312 88.0625 15.6563 88.6875 16.4375 88.6875C17.2188 88.6875 17.8438 88.0625 17.8438 87.2812V80.0312H28.9687V101.656C28.9687 102.438 29.5938 103.062 30.375 103.062H123.906C124.688 103.062 125.312 102.438 125.312 101.656V80.0312H137.125V87.2812C137.125 88.0625 137.75 88.6875 138.531 88.6875C139.312 88.6875 139.938 88.0625 139.938 87.2812V70.3125C139.938 69.5313 139.312 68.9062 138.531 68.9062H138.594ZM107.656 17.8438C110.75 17.8438 113.25 20.3438 113.25 23.4375C113.25 26.5312 110.75 29.0312 107.656 29.0312C104.562 29.0312 102.062 26.5312 102.062 23.4375C102.062 20.3438 104.562 17.8438 107.656 17.8438ZM41.0625 23.4375C41.0625 20.3438 43.5625 17.8438 46.6562 17.8438C49.75 17.8438 52.25 20.3438 52.25 23.4375C52.25 26.5312 49.75 29.0312 46.6562 29.0312C43.5625 29.0312 41.0625 26.5312 41.0625 23.4375ZM122.5 100.25H31.8125V66.0625C31.8125 54.5938 41.125 45.2812 52.5938 45.2812H101.719C113.188 45.2812 122.5 54.5938 122.5 66.0625V100.25Z" fill="#0073AD" fill-opacity="0.15"/>
<path d="M124.438 108.906C123.656 108.906 123.031 109.531 123.031 110.313C123.031 118.844 116.094 125.781 107.594 125.781H47.25C38.7187 125.781 31.8125 118.844 31.8125 110.313C31.8125 109.531 31.1875 108.906 30.4062 108.906C29.625 108.906 29 109.531 29 110.313C29 120.406 37.2188 128.625 47.2812 128.625H49.125V138.406C49.125 139.188 49.75 139.812 50.5312 139.812H104.156C104.938 139.812 105.562 139.188 105.562 138.406V128.625H107.531C117.625 128.625 125.812 120.406 125.812 110.313C125.812 109.531 125.188 108.906 124.406 108.906H124.438ZM102.719 137H51.9688V128.656H102.75V137H102.719Z" fill="#0073AD" fill-opacity="0.15"/>
<path d="M58.9688 61.625C53.5 61.625 49.0625 66.0625 49.0625 71.5312C49.0625 77 53.5 81.4375 58.9688 81.4375C64.4375 81.4375 68.875 77 68.875 71.5312C68.875 66.0625 64.4375 61.625 58.9688 61.625ZM58.9688 78.5625C55.0625 78.5625 51.9063 75.4062 51.9063 71.5C51.9063 67.5937 55.0625 64.4375 58.9688 64.4375C62.875 64.4375 66.0312 67.5937 66.0312 71.5C66.0312 75.4062 62.875 78.5625 58.9688 78.5625Z" fill="#0073AD" fill-opacity="0.15"/>
<path d="M95.9062 61.6562C90.4688 61.6562 86.0312 66.0937 86.0312 71.5312C86.0312 76.9687 90.4688 81.4062 95.9062 81.4062C101.344 81.4062 105.781 76.9687 105.781 71.5312C105.781 66.0937 101.344 61.6562 95.9062 61.6562ZM95.9062 78.5625C92.0312 78.5625 88.875 75.4062 88.875 71.5312C88.875 67.6562 92.0312 64.5 95.9062 64.5C99.7813 64.5 102.938 67.6562 102.938 71.5312C102.938 75.4062 99.7813 78.5625 95.9062 78.5625Z" fill="#0073AD" fill-opacity="0.15"/>
</g>
<defs>
<clipPath id="clip0_111_2726">
<rect width="125" height="124.812" fill="white" transform="translate(15 15)"/>
</clipPath>
</defs>
</svg>
