<svg width="91" height="91" viewBox="0 0 91 91" fill="none" xmlns="http://www.w3.org/2000/svg">
<g clip-path="url(#clip0_11_4023)">
<path d="M85.8574 27.403C85.8567 25.8938 85.534 24.5602 84.8812 23.4156C84.24 22.2901 83.2798 21.3467 81.9918 20.6009C71.3601 14.4706 60.718 8.35898 50.0897 2.2224C47.2243 0.568194 44.4462 0.628501 41.6021 2.30646C37.3703 4.80215 16.1834 16.9406 9.86996 20.5974C7.2699 22.1026 6.00472 24.4061 6.00409 27.4002C6.00003 39.7287 6.00409 52.0568 6.00003 64.3856C6.00066 65.8617 6.30969 67.1693 6.93369 68.2967C7.57519 69.4563 8.54884 70.4256 9.86652 71.1883C16.1803 74.8451 37.37 86.9827 41.6008 89.479C44.4462 91.1579 47.2243 91.2179 50.0906 89.563C60.7192 83.4262 71.3619 77.3149 81.9952 71.1846C83.3129 70.4221 84.2866 69.4522 84.9281 68.2936C85.5511 67.1662 85.8608 65.8585 85.8614 64.3821C85.8614 64.3821 85.8614 39.7318 85.8574 27.403Z" fill="#1C273B"/>
<path d="M46.0529 45.7727L6.93369 68.2967C7.57518 69.4563 8.54884 70.4256 9.86652 71.1883C16.1803 74.8451 37.37 86.9827 41.6008 89.479C44.4462 91.1579 47.2243 91.2179 50.0906 89.563C60.7192 83.4261 71.3619 77.3149 81.9952 71.1845C83.3129 70.4221 84.2866 69.4522 84.9281 68.2936L46.0529 45.7727Z" fill="#1C273B"/>
<path d="M34.4662 52.4445C36.7426 56.4185 41.0218 59.0989 45.9307 59.0989C50.8699 59.0989 55.1736 56.3845 57.4383 52.368L46.0529 45.7727L34.4662 52.4445Z" fill="#1C273B"/>
<path d="M85.8573 27.4031C85.8567 25.8938 85.5339 24.5602 84.8812 23.4156L46.0529 45.7728L84.9281 68.2937C85.5511 67.1663 85.8608 65.8586 85.8614 64.3822C85.8614 64.3822 85.8614 39.7318 85.8573 27.4031Z" fill="#1C273B"/>
<path d="M83.7198 47.3826H80.6819V50.421H77.6435V47.3826H74.606V44.3451H77.6435V41.3073H80.6819V44.3451H83.7198V47.3826ZM72.6349 47.3826H69.5974V50.421H66.5596V47.3826H63.5218V44.3451H66.5596V41.3073H69.5974V44.3451H72.6349V47.3826Z" fill="white"/>
<path d="M57.4383 52.3681C55.1736 56.3845 50.8699 59.099 45.9307 59.099C41.0218 59.099 36.7426 56.4186 34.4662 52.4446C33.3227 50.4506 32.7222 48.1915 32.7245 45.8928C32.7245 38.5995 38.6374 32.6869 45.9307 32.6869C50.8081 32.6869 55.0648 35.3338 57.3524 39.2672L68.8953 32.6204C64.3073 24.7005 55.7416 19.3723 45.9307 19.3723C31.2834 19.3723 19.4099 31.2461 19.4099 45.8928C19.4099 50.6979 20.6883 55.204 22.9224 59.0908C27.4988 67.0525 36.0889 72.4136 45.9307 72.4136C55.7907 72.4136 64.3942 67.031 68.964 59.0458L57.4383 52.3681Z" fill="white"/>
</g>
<defs>
<clipPath id="clip0_11_4023">
<rect width="79.992" height="90" fill="white" transform="translate(6.00003 0.930664)"/>
</clipPath>
</defs>
</svg>
