<svg width="91" height="91" viewBox="0 0 91 91" fill="none" xmlns="http://www.w3.org/2000/svg">
<g clip-path="url(#clip0_208_178)">
<path d="M85.4742 27.3901C85.4742 25.8768 85.1483 24.5389 84.4966 23.3922C83.8543 22.2642 82.8925 21.318 81.5985 20.5692C70.9394 14.4219 60.2679 8.29349 49.6089 2.13996C46.7358 0.482524 43.9504 0.542054 41.0992 2.22456C36.8569 4.72795 15.611 16.8971 9.28201 20.5661C6.67209 22.0763 5.40316 24.3854 5.40316 27.387C5.40002 39.7504 5.40316 52.1107 5.40002 64.4742C5.40002 65.953 5.71021 67.2658 6.33684 68.3969C6.97914 69.5593 7.95668 70.5306 9.27888 71.2951C15.611 74.9609 36.8569 87.1332 41.0992 89.6366C43.9536 91.3191 46.7389 91.3817 49.612 89.7212C60.2679 83.5676 70.9395 77.4392 81.6016 71.2919C82.9238 70.5274 83.8982 69.5562 84.5436 68.3938C85.1671 67.2627 85.4804 65.953 85.4804 64.471C85.4804 64.471 85.4804 39.7535 85.4773 27.3901" fill="#1C273B"/>
<path d="M45.5609 45.8101L6.33685 68.397C6.97915 69.5594 7.9567 70.5307 9.27889 71.2952C15.611 74.961 36.857 87.1333 41.0993 89.6367C43.9536 91.3192 46.7389 91.3819 49.612 89.7213C60.2679 83.5678 70.9395 77.4393 81.6016 71.292C82.9238 70.5276 83.8982 69.5563 84.5436 68.3939L45.564 45.8132" fill="#1C273B"/>
<path d="M85.4742 27.3902C85.4742 25.8769 85.1483 24.5391 84.4966 23.3923L45.564 45.8101L84.5436 68.3908C85.1671 67.2597 85.4804 65.95 85.4804 64.468C85.4804 64.468 85.4804 39.7506 85.4773 27.3871" fill="#1C273B"/>
<path d="M68.6554 37.3662V41.5866H72.8757V37.3662H74.9875V41.5866H79.2079V43.6983H74.9875V47.9187H79.2079V50.0304H74.9875V54.2508H72.8757V50.0304H68.6554V54.2508H66.5436V50.0304H62.3233V47.9187H66.5436V43.6983H62.3233V41.5866H66.5436V37.3662H68.6554ZM72.8789 43.6983H68.6585V47.9187H72.8789V43.6983Z" fill="white"/>
<path d="M45.6486 16.1672C56.6585 16.1672 66.2742 22.1484 71.422 31.0372L71.3718 30.9526L58.4162 38.4127C55.8627 34.092 51.1849 31.1751 45.8178 31.1155H45.6486C37.4616 31.1155 30.8256 37.7516 30.8256 45.9354C30.8256 48.6111 31.54 51.1208 32.7807 53.2889C35.3342 57.7505 40.1374 60.7584 45.6486 60.7584C51.1598 60.7584 56.0225 57.7129 58.5635 53.2043L58.5008 53.314L71.4376 60.8085C66.3462 69.6221 56.8622 75.5845 45.9807 75.7035H45.6486C34.6042 75.7035 24.9603 69.6879 19.8251 60.7521C17.3186 56.3907 15.8836 51.3338 15.8836 45.9385C15.8836 29.4988 29.2089 16.1735 45.6486 16.1735V16.1672Z" fill="white"/>
</g>
<defs>
<clipPath id="clip0_208_178">
<rect width="80.0773" height="90" fill="white" transform="translate(5.40002 0.930664)"/>
</clipPath>
</defs>
</svg>
