<svg width="91" height="90" viewBox="0 0 91 90" fill="none" xmlns="http://www.w3.org/2000/svg">
<path d="M36.7007 10.6125V14.275H27.3354V2.93066H36.7007V6.94448H31.3492V10.6125H36.7007ZM46.3281 6.94448H50.0694V2.93066H40.7031C40.7031 2.93066 40.7031 4.94539 40.7031 6.94448C41.9561 8.19754 42.6095 8.79736 44.4218 10.6097C43.3624 10.6097 40.7031 10.6131 40.7031 10.6131V14.275H50.0694V10.6125L46.3281 6.94448ZM59.6029 6.94448H63.344V2.93066H53.9779C53.9779 2.93066 53.9779 4.94539 53.9779 6.94448C55.2306 8.19754 55.8844 8.79736 57.6965 10.6097C56.6377 10.6097 53.9779 10.6131 53.9779 10.6131V14.275H63.3441V10.6125L59.6029 6.94448ZM75.6797 19.6664L69.9903 81.2936L45.3397 87.9307L20.6885 81.2936L15 19.6664H75.6797ZM64.2157 32.1973H45.3174H26.085L27.0047 39.6392H45.3174H46.346L45.3174 40.0674L27.674 47.4159L28.2592 54.69L45.3174 54.7454L54.46 54.7745L53.8743 64.474L45.3174 66.8833V66.8757L45.2472 66.895L36.9827 64.8087L36.4811 58.788H36.4539H28.788H28.7611L29.7644 70.4112L45.3174 75.0104V75.0021L45.3453 75.0104L60.8151 70.4949L62.8223 47.416H45.3174H45.2741L45.3174 47.3974L63.4629 39.6394L64.2157 32.1973Z" fill="#1C273B"/>
</svg>
