<svg width="155" height="155" viewBox="0 0 155 155" fill="none" xmlns="http://www.w3.org/2000/svg">
<path d="M129.148 30H25.8923C19.8938 30 15.02 34.8738 15.02 40.8723V113.76C15.02 119.759 19.8938 124.633 25.8923 124.633H129.148C135.146 124.633 140.02 119.759 140.02 113.76V40.8723C140.02 34.8738 135.146 30 129.148 30ZM51.6046 100.17V81.8308H97.3744V100.17H51.6046ZM97.3744 103.232V121.571H51.6046V103.232H97.3744ZM97.3744 60.4611V78.8003H51.6046V60.4611H97.3744ZM136.958 60.4611V78.8003H100.405V60.4611H136.958ZM48.5429 78.8003H18.0818V60.4611H48.5429V78.8003ZM18.0818 81.8308H48.5429V100.17H18.0818V81.8308ZM100.405 81.8308H136.958V100.17H100.405V81.8308ZM25.8923 33.0305H129.148C133.459 33.0305 136.958 36.5296 136.958 40.841V57.3994H18.0818V40.841C18.0818 36.5296 21.5809 33.0305 25.8923 33.0305ZM18.0818 113.729V103.2H48.5429V121.54H25.8923C21.5809 121.54 18.0818 118.04 18.0818 113.729ZM129.148 121.54H100.405V103.2H136.958V113.729C136.958 118.04 133.459 121.54 129.148 121.54Z" fill="#0073AD" fill-opacity="0.15"/>
</svg>
