<svg width="155" height="155" viewBox="0 0 155 155" fill="none" xmlns="http://www.w3.org/2000/svg">
<g clip-path="url(#clip0_8_3763)">
<path d="M56.25 52.3006H98.9688C99.75 52.3006 100.375 51.6764 100.375 50.8963V28.0528C100.375 27.2726 99.75 26.6485 98.9688 26.6485H78.75L72.4063 21.3433C72.1563 21.1248 71.8438 21 71.5 21H56.25C55.4687 21 54.8438 21.6241 54.8438 22.4043V50.865C54.8438 51.6452 55.4687 52.2694 56.25 52.2694V52.3006ZM57.6875 23.8398H71L74.375 26.6485H67.375C66.5938 26.6485 65.9687 27.2726 65.9687 28.0528C65.9687 28.8329 66.5938 29.4571 67.375 29.4571H81.5313H97.5938V49.4607H57.6875V23.8398Z" fill="#0073AD" fill-opacity="0.15"/>
<path d="M140 98.2684V85.3175C140 79.3882 129.656 74.8944 115.906 74.8944C102.156 74.8944 91.8125 79.3882 91.8125 85.3175V124.139C91.8125 130.068 102.156 134.562 115.906 134.562C129.656 134.562 139.094 130.443 139.906 124.888H140V124.139V111.188V98.2372V98.2684ZM115.906 77.7342C128.438 77.7342 137.156 81.7287 137.156 85.3175C137.156 88.9063 128.438 92.9008 115.906 92.9008C103.375 92.9008 94.6562 88.9063 94.6562 85.3175C94.6562 81.7287 103.375 77.7342 115.906 77.7342ZM94.6562 90.373C98.6562 93.6186 106.469 95.7406 115.906 95.7406C125.344 95.7406 133.187 93.6186 137.156 90.373V98.2684C137.156 101.857 128.438 105.852 115.906 105.852C103.375 105.852 94.6562 101.857 94.6562 98.2684V90.373ZM94.6562 103.324C98.6562 106.569 106.469 108.692 115.906 108.692C125.344 108.692 133.187 106.569 137.156 103.324V111.219C137.156 114.808 128.438 118.803 115.906 118.803C103.375 118.803 94.6562 114.808 94.6562 111.219V103.324ZM115.906 131.722C103.375 131.722 94.6562 127.728 94.6562 124.139V116.244C98.6562 119.489 106.469 121.611 115.906 121.611C125.344 121.611 133.187 119.489 137.156 116.244V124.139C137.156 127.728 128.438 131.722 115.906 131.722Z" fill="#0073AD" fill-opacity="0.15"/>
<path d="M39.0937 74.8944C25.3437 74.8944 15 79.3882 15 85.3175V124.139C15 130.068 25.3437 134.562 39.0937 134.562C52.8437 134.562 62.2812 130.443 63.0937 124.888H63.1875V85.3175C63.1875 79.3882 52.8437 74.8944 39.0937 74.8944ZM39.0937 131.722C26.5625 131.722 17.8437 127.728 17.8437 124.139V116.244C21.8437 119.489 29.6562 121.611 39.0937 121.611C48.5312 121.611 56.375 119.489 60.3437 116.244V124.139C60.3437 127.728 51.625 131.722 39.0937 131.722ZM39.0937 118.771C26.5625 118.771 17.8437 114.777 17.8437 111.188V103.293C21.8437 106.538 29.6562 108.66 39.0937 108.66C48.5312 108.66 56.375 106.538 60.3437 103.293V111.188C60.3437 114.777 51.625 118.771 39.0937 118.771ZM39.0937 105.82C26.5625 105.82 17.8437 101.826 17.8437 98.2372V90.3418C21.8437 93.5874 29.6562 95.7094 39.0937 95.7094C48.5312 95.7094 56.375 93.5874 60.3437 90.3418V98.2372C60.3437 101.826 51.625 105.82 39.0937 105.82ZM39.0937 92.9008C26.5625 92.9008 17.8437 88.9063 17.8437 85.3175C17.8437 81.7287 26.5625 77.7342 39.0937 77.7342C51.625 77.7342 60.3437 81.7287 60.3437 85.3175C60.3437 88.9063 51.625 92.9008 39.0937 92.9008Z" fill="#0073AD" fill-opacity="0.15"/>
<path d="M40.6562 38.0702H47.7812C48.5625 38.0702 49.1875 37.4461 49.1875 36.6659C49.1875 35.8857 48.5625 35.2616 47.7812 35.2616H39.25C38.4688 35.2616 37.8438 35.8857 37.8438 36.6659V67.8416C37.8438 68.6218 38.4688 69.246 39.25 69.246C40.0313 69.246 40.6562 68.6218 40.6562 67.8416V38.0702Z" fill="#0073AD" fill-opacity="0.15"/>
<path d="M114.563 64.7209L110.281 60.6952C109.719 60.1647 108.813 60.1959 108.281 60.7577C107.75 61.3194 107.781 62.2244 108.344 62.7549L114.906 68.8715C115.156 69.1211 115.531 69.246 115.875 69.246C115.875 69.246 115.875 69.246 115.906 69.246C116.281 69.246 116.625 69.0587 116.906 68.8091L123.031 62.2556C123.563 61.6939 123.531 60.7889 122.969 60.2584C122.406 59.7278 121.5 59.759 120.969 60.3208L117.406 64.0968V36.6659C117.406 35.8857 116.781 35.2616 116 35.2616H107.469C106.688 35.2616 106.062 35.8857 106.062 36.6659C106.062 37.4461 106.688 38.0702 107.469 38.0702H114.594V64.7209H114.563Z" fill="#0073AD" fill-opacity="0.15"/>
</g>
<defs>
<clipPath id="clip0_8_3763">
<rect width="125" height="113.562" fill="white" transform="translate(15 21)"/>
</clipPath>
</defs>
</svg>
