<svg width="155" height="155" viewBox="0 0 155 155" fill="none" xmlns="http://www.w3.org/2000/svg">
<path d="M127.869 105.179C127.869 98.4271 124.618 92.4256 119.648 88.6122V30.2538C119.648 29.4724 119.023 28.8785 118.273 28.8785H97.0798V23.0645C97.0798 22.2831 96.4546 21.6892 95.7044 21.6892H83.4201C82.4199 17.8757 78.3564 15 73.4802 15C68.604 15 64.5716 17.8757 63.5401 21.6892H51.2558C50.4744 21.6892 49.8805 22.3143 49.8805 23.0645V28.8785H29.3754C28.5939 28.8785 28 29.5036 28 30.2538V138.625C28 139.406 28.6252 140 29.3754 140H118.335C119.117 140 119.71 139.375 119.71 138.625V121.995C119.71 121.995 119.679 121.839 119.679 121.777C124.712 117.963 127.963 111.962 127.963 105.179H127.869ZM73.4489 17.7819C76.6997 17.7819 79.4192 19.4386 80.4194 21.6892H66.4784C67.4786 19.4074 70.1981 17.7819 73.4489 17.7819ZM52.5999 24.4399H94.2666V35.2863H52.5999V24.4399ZM116.866 137.249H30.6882V31.6292H49.818V36.6617C49.818 37.4431 50.4432 38.037 51.1933 38.037H95.642C96.4234 38.037 97.0173 37.4118 97.0173 36.6617V31.6292H116.835V86.7679C113.897 85.1738 110.552 84.2986 106.989 84.2986C95.4857 84.2986 86.1083 93.6447 86.1083 105.179C86.1083 116.713 95.4857 126.059 106.989 126.059C110.552 126.059 113.897 125.153 116.835 123.59V137.281L116.866 137.249ZM107.02 123.277C97.0485 123.277 88.9215 115.15 88.9215 105.179C88.9215 95.2076 97.0485 87.0805 107.02 87.0805C116.991 87.0805 125.118 95.2076 125.118 105.179C125.118 115.15 116.991 123.277 107.02 123.277Z" fill="#0073AD" fill-opacity="0.15"/>
<path d="M115.335 103.803H108.239V96.8955C108.239 96.1141 107.614 95.5202 106.864 95.5202C106.113 95.5202 105.488 96.1453 105.488 96.8955V103.803H98.6116C97.8301 103.803 97.2362 104.429 97.2362 105.179C97.2362 105.929 97.8614 106.554 98.6116 106.554H105.488V113.525C105.488 114.306 106.113 114.9 106.864 114.9C107.614 114.9 108.239 114.275 108.239 113.525V106.554H115.335C116.116 106.554 116.71 105.929 116.71 105.179C116.71 104.429 116.085 103.803 115.335 103.803Z" fill="#0073AD" fill-opacity="0.15"/>
<path d="M43.0663 53.8849H101.425C102.206 53.8849 102.8 53.2597 102.8 52.5096C102.8 51.7594 102.175 51.1342 101.425 51.1342H43.0663C42.2848 51.1342 41.6909 51.7594 41.6909 52.5096C41.6909 53.2597 42.3161 53.8849 43.0663 53.8849Z" fill="#0073AD" fill-opacity="0.15"/>
<path d="M43.0038 64.8873H101.362C102.143 64.8873 102.737 64.2622 102.737 63.512C102.737 62.7618 102.112 62.1367 101.362 62.1367H43.0038C42.2223 62.1367 41.6284 62.7618 41.6284 63.512C41.6284 64.2622 42.2536 64.8873 43.0038 64.8873Z" fill="#0073AD" fill-opacity="0.15"/>
<path d="M43.0038 78.766H101.362C102.143 78.766 102.737 78.1408 102.737 77.3907C102.737 76.6405 102.112 76.0153 101.362 76.0153H43.0038C42.2223 76.0153 41.6284 76.6405 41.6284 77.3907C41.6284 78.1408 42.2536 78.766 43.0038 78.766Z" fill="#0073AD" fill-opacity="0.15"/>
<path d="M79.1066 89.9875H43.035C42.2536 89.9875 41.6597 90.6126 41.6597 91.3628C41.6597 92.113 42.2848 92.7381 43.035 92.7381H79.1066C79.888 92.7381 80.4819 92.113 80.4819 91.3628C80.4819 90.6126 79.8568 89.9875 79.1066 89.9875Z" fill="#0073AD" fill-opacity="0.15"/>
<path d="M76.2307 103.804H43.0038C42.2223 103.804 41.6284 104.429 41.6284 105.179C41.6284 105.929 42.2536 106.554 43.0038 106.554H76.2307C77.0122 106.554 77.6061 105.929 77.6061 105.179C77.6061 104.429 76.9809 103.804 76.2307 103.804Z" fill="#0073AD" fill-opacity="0.15"/>
<path d="M70.7606 117.713H43.7851C43.0037 117.713 42.4098 118.338 42.4098 119.088C42.4098 119.839 43.035 120.464 43.7851 120.464H70.7606C71.542 120.464 72.1359 119.839 72.1359 119.088C72.1359 118.338 71.5107 117.713 70.7606 117.713Z" fill="#0073AD" fill-opacity="0.15"/>
</svg>
