<svg width="155" height="155" viewBox="0 0 155 155" fill="none" xmlns="http://www.w3.org/2000/svg">
<g clip-path="url(#clip0_8_3775)">
<path d="M115.125 51.4062C113.187 51.4062 111.25 51.6562 109.344 52.0938C103.75 39.2188 91.375 31 77.5 31C60.875 31 46.5 43.2188 43.3125 59.6875C41.0625 58.9062 38.75 58.5 36.375 58.5C24.5938 58.5 15 68.2812 15 80.2812C15 93.875 22.4062 101.969 34.8437 101.969H50.75C51.5312 101.969 52.1562 101.344 52.1562 100.562C52.1562 99.7812 51.5312 99.1562 50.75 99.1562H34.8437C19.5 99.1562 17.8437 85.9688 17.8437 80.2812C17.8437 69.8438 26.1562 61.3438 36.375 61.3438C38.9687 61.3438 41.4687 61.875 43.8437 62.9687C44.25 63.1562 44.7187 63.125 45.125 62.9062C45.5312 62.6875 45.7812 62.3125 45.8437 61.875C48.0937 45.875 61.7187 33.8438 77.5 33.8438C90.625 33.8438 102.281 41.875 107.187 54.3125C107.469 55 108.219 55.375 108.906 55.1562C110.937 54.5312 113.031 54.25 115.094 54.25C127.25 54.25 137.125 64.3438 137.125 76.75C137.125 89.1562 127.375 99.0312 115.406 99.2188C115.344 99.2188 115.281 99.2188 115.219 99.2188H104.625C103.844 99.2188 103.219 99.8438 103.219 100.625C103.219 101.406 103.844 102.031 104.625 102.031H115.406C115.5 102.031 115.562 102.031 115.656 102.031C129.062 101.719 139.937 90.4062 139.937 76.7188C139.937 63.0312 128.781 51.4062 115.062 51.4062H115.125Z" fill="#0073AD" fill-opacity="0.15"/>
<path d="M107.125 87.5C107.344 86.9375 107.188 86.3125 106.719 85.9375L78.4063 61.1875C77.875 60.7187 77.0625 60.7187 76.5313 61.1875L48.3438 85.9375C47.9063 86.3125 47.75 86.9375 47.9375 87.5C48.1563 88.0625 48.6875 88.4063 49.25 88.4063H63.375V123.188C63.375 123.969 64 124.594 64.7813 124.594H90.0313C90.8125 124.594 91.4375 123.969 91.4375 123.188V88.4063H105.688C106.281 88.4063 106.813 88.0313 107.031 87.5H107.125ZM90.125 85.5625C89.3438 85.5625 88.7188 86.1875 88.7188 86.9688V121.75H66.2813V86.9688C66.2813 86.1875 65.6563 85.5625 64.875 85.5625H53.0938L77.5 64.125L102.031 85.5625H90.125Z" fill="#0073AD" fill-opacity="0.15"/>
</g>
<defs>
<clipPath id="clip0_8_3775">
<rect width="125" height="93.5938" fill="white" transform="translate(15 31)"/>
</clipPath>
</defs>
</svg>
