<svg width="150" height="60" viewBox="0 0 150 60" fill="none" xmlns="http://www.w3.org/2000/svg">
<g clip-path="url(#clip0_222_309)">
<path fill-rule="evenodd" clip-rule="evenodd" d="M30.1125 31.5025H25.275C24.6075 31.5025 23.1675 31.3375 22.1025 31.015C21.7425 30.91 20.79 30.625 19.8675 30.04C19.0125 29.5 18.2175 28.7575 17.43 27.76C16.32 26.35 15.6375 24.9925 15.2475 23.215C15.06 22.375 15.015 21.625 14.9625 20.545C14.94 20.065 14.7825 19.03 14.7825 19.03C13.995 14.995 10.08 12.355 6.0375 13.1425C2.535 13.8175 0 16.885 0 20.455C0 24.1 2.6175 27.1375 6.0825 27.7825C6.0825 27.7825 7.3275 27.97 7.95 27.985C10.3275 28.015 12.5925 28.705 14.6775 30.3325C16.185 31.51 18.285 33.3025 18.5325 38.1475V43.075C18.5325 44.9125 20.025 46.405 21.8625 46.405H30.1125C31.95 46.405 33.4425 44.9125 33.4425 43.075V34.825C33.4425 32.9875 31.9575 31.495 30.12 31.495L30.1125 31.5025Z" fill="#252F3E"/>
<path fill-rule="evenodd" clip-rule="evenodd" d="M7.5225 46.54C11.64 46.54 14.985 43.2025 14.985 39.0775C14.985 34.9525 11.6475 31.615 7.5225 31.615C3.3975 31.615 0.0599976 34.96 0.0599976 39.085C0.0599976 43.21 3.3975 46.5475 7.5225 46.5475V46.54ZM33.4425 20.5525C33.4425 16.435 30.105 13.09 25.98 13.09C21.8625 13.09 18.5175 16.4275 18.5175 20.5525C18.5175 24.67 21.855 28.015 25.98 28.015C30.0975 28.015 33.4425 24.6775 33.4425 20.5525ZM43.5975 40.75C43.5975 38.305 43.845 37.0525 45.105 37.0525C46.365 37.0525 46.6275 38.305 46.6275 40.75C46.6275 43.195 46.38 44.4475 45.105 44.4475C43.83 44.4475 43.5975 43.195 43.5975 40.75ZM46.7475 46.375H49.5V31.4725H46.62V36.1825H46.5825C45.975 35.29 45.2475 34.855 44.16 34.855C41.805 34.855 40.7175 36.5725 40.7175 40.75C40.7175 44.9275 41.805 46.675 44.16 46.675C45.285 46.675 46.08 46.24 46.71 45.205H46.7475V46.375ZM53.91 40.765C53.91 38.47 54.0375 36.8125 55.455 36.8125C56.625 36.8125 57 37.96 57 40.765C57 43.57 56.625 44.7175 55.455 44.7175C54.0375 44.7175 53.91 43.0675 53.91 40.765ZM51.03 40.765C51.03 44.6725 51.99 46.735 55.455 46.675C58.755 46.675 59.88 44.6125 59.88 40.765C59.88 36.9175 58.92 34.795 55.455 34.855C52.155 34.855 51.03 36.9175 51.03 40.765ZM66.9375 39.1975C66.9375 38.11 66.7275 36.94 65.64 36.94C64.2225 36.94 63.99 38.1925 63.99 40.7875C63.99 43.57 64.2375 44.7175 65.535 44.7175C66.495 44.7175 66.93 43.9 66.93 42.085H69.6825C69.6825 45.0325 68.4525 46.6825 65.4 46.6825C62.52 46.6825 61.1025 45.2875 61.1025 40.7725C61.1025 36.2575 63 34.87 65.655 34.87C68.31 34.87 69.6825 36.5575 69.6825 39.205H66.93L66.9375 39.1975ZM76.9275 45.0775H76.8825C76.275 46.1725 75.2325 46.675 74.0175 46.675C72.225 46.675 71.16 45.7 71.16 43.4725V35.155H74.04V42.8875C74.04 44.0125 74.415 44.4475 75.2775 44.4475C76.26 44.4475 76.8075 43.84 76.8075 42.595V35.155H79.6875V46.375H76.935V45.0775H76.9275ZM81.81 35.1625H84.5625V36.295H84.6075C85.3425 35.2825 86.2425 34.8625 87.465 34.8625C88.7775 34.8625 89.7375 35.5075 90.0525 36.6475H90.0975C90.54 35.4625 91.5825 34.8625 92.9475 34.8625C94.845 34.8625 95.745 36.04 95.745 38.2075V46.3825H92.865V38.5225C92.865 37.5775 92.55 37.06 91.7325 37.06C90.81 37.06 90.225 37.69 90.225 38.98V46.3825H87.345V38.5225C87.345 37.5775 87.03 37.06 86.2125 37.06C85.29 37.06 84.705 37.69 84.705 38.98V46.3825H81.825V35.1625H81.81ZM100.29 39.49V39.055C100.29 38.0125 100.627 36.82 101.775 36.82C102.922 36.82 103.17 37.78 103.23 39.4975H100.29V39.49ZM105.99 41.2075V40.555C105.99 37.105 105.24 34.855 101.88 34.855C97.995 34.855 97.4175 37.6525 97.4175 40.66C97.4175 43.4575 97.5825 46.6675 101.76 46.6675C104.475 46.6675 105.727 45.2125 105.832 42.6025H103.245C103.08 43.9825 102.683 44.71 101.723 44.71C100.658 44.71 100.305 43.4125 100.305 42.1V41.2H106.005L105.99 41.2075ZM107.7 35.1625H110.452V36.46H110.497C111.105 35.365 112.155 34.8625 113.362 34.8625C115.155 34.8625 116.22 35.8375 116.22 38.065V46.3825H113.34V38.65C113.34 37.525 112.965 37.09 112.102 37.09C111.12 37.09 110.572 37.6975 110.572 38.9425V46.3825H107.692V35.1625H107.7ZM118.965 31.945H121.845V35.1625H123.51V37.12H121.845V43.195C121.845 44.0725 122.033 44.425 122.865 44.425C123.098 44.425 123.322 44.4025 123.51 44.38V46.375C122.887 46.435 122.302 46.5025 121.635 46.5025C119.377 46.5025 118.965 45.82 118.965 43.5475V37.12H117.502V35.1625H118.965V31.9525V31.945ZM131.205 45.0775H131.16C130.553 46.1725 129.51 46.675 128.295 46.675C126.502 46.675 125.438 45.7 125.438 43.4725V35.155H128.317V42.8875C128.317 44.0125 128.692 44.4475 129.547 44.4475C130.53 44.4475 131.077 43.84 131.077 42.595V35.155H133.957V46.375H131.205V45.0775ZM136.072 35.1625H138.825V36.295H138.87C139.605 35.2825 140.505 34.8625 141.72 34.8625C143.033 34.8625 143.992 35.5075 144.307 36.6475H144.352C144.795 35.4625 145.837 34.8625 147.202 34.8625C149.1 34.8625 150 36.04 150 38.2075V46.3825H147.12V38.5225C147.12 37.5775 146.805 37.06 145.987 37.06C145.065 37.06 144.48 37.69 144.48 38.98V46.3825H141.6V38.5225C141.6 37.5775 141.285 37.06 140.467 37.06C139.545 37.06 138.96 37.69 138.96 38.98V46.3825H136.08V35.1625H136.072Z" fill="#252F3E"/>
</g>
<defs>
<clipPath id="clip0_222_309">
<rect width="150" height="33.675" fill="white" transform="translate(0 13)"/>
</clipPath>
</defs>
</svg>
