<svg width="155" height="155" viewBox="0 0 155 155" fill="none" xmlns="http://www.w3.org/2000/svg">
<g clip-path="url(#clip0_8_3805)">
<path d="M139.781 77.9687L129.719 62.2187L135.281 56.6562C135.812 56.125 135.812 55.25 135.281 54.7187C134.75 54.1875 133.875 54.1875 133.344 54.7187L129.187 58.875V40.5312C129.187 39.7812 128.594 39.1562 127.812 39.1562H104.75C104.75 39.1562 104.656 39.1562 104.625 39.1562V24.375C104.625 23.625 104.031 23 103.25 23H51.5937C50.8437 23 50.2188 23.5937 50.2188 24.375V39.1875H27.0312C26.6562 39.1875 26.3125 39.3437 26.0625 39.5937C25.8125 39.8437 25.6562 40.1875 25.6562 40.5625L25.875 60.2187C25.875 60.2187 25.9062 60.375 25.9375 60.4687C19.8437 60.9687 15 66.0937 15 72.3437C15 78.5937 19.7812 83.6875 25.875 84.2187V116.312H49.0625L45.125 120.25C44.5937 120.781 44.5937 121.656 45.125 122.187C45.375 122.437 45.75 122.594 46.0937 122.594C46.4375 122.594 46.7812 122.469 47.0625 122.187L52.9375 116.312C52.9375 116.312 53.0625 116.312 53.125 116.281V130.219C53.125 130.969 53.7188 131.594 54.5 131.594H103.344C104.094 131.594 104.719 131 104.719 130.219V116.5L110.406 122.187C110.656 122.437 111.031 122.594 111.375 122.594C111.719 122.594 112.062 122.469 112.344 122.187C112.875 121.656 112.875 120.781 112.344 120.25L108.344 116.25H127.937C128.687 116.25 129.312 115.656 129.312 114.875V94.4062L139.844 79.5C140.156 79.0625 140.187 78.4375 139.875 77.9687H139.781ZM104.656 53.9687V41.8438C104.656 41.8438 104.75 41.8438 104.781 41.8438H126.469V58.5L122.656 54.6875C122.125 54.1562 121.25 54.1562 120.719 54.6875C120.188 55.2188 120.188 56.0938 120.719 56.625L126.062 61.9687L116.344 77.2187H77.4375V59.6875L81.5625 63.8125C81.8125 64.0625 82.1875 64.2187 82.5312 64.2187C82.875 64.2187 83.2187 64.0938 83.5 63.8125C84.0312 63.2812 84.0312 62.4062 83.5 61.875L77.1875 55.5625C77.1875 55.5625 76.9375 55.375 76.8125 55.3125H103.281C104.031 55.3125 104.656 54.7187 104.656 53.9375V53.9687ZM52.9375 25.7187H101.906V52.625H52.9375V25.7187ZM17.7187 72.3437C17.7187 67.2812 21.8437 63.125 26.9375 63.125C32.0312 63.125 36.1562 67.25 36.1562 72.3437C36.1562 77.4375 32.0312 81.5625 26.9375 81.5625C21.8437 81.5625 17.7187 77.4375 17.7187 72.3437ZM101.937 128.844H55.8125V101.469H101.937V128.844ZM108.312 113.5L112.281 109.531C112.812 109 112.812 108.125 112.281 107.594C111.75 107.062 110.875 107.062 110.344 107.594L104.656 113.281V100.062C104.656 99.3125 104.062 98.6875 103.281 98.6875H54.4375C53.6875 98.6875 53.0625 99.2812 53.0625 100.062V113.594C53.0625 113.594 53.0312 113.594 53 113.594L47 107.594C46.4687 107.062 45.5937 107.062 45.0625 107.594C44.5312 108.125 44.5312 109 45.0625 109.531L49.0937 113.562H28.5312V84.125C34.3125 83.3125 38.7812 78.3437 38.7812 72.3125C38.7812 66.2812 34.2812 61.2812 28.4375 60.5C28.4375 60.375 28.5 60.2812 28.5 60.1562L28.3125 41.875H50.1562V53.9687C50.1562 54.7187 50.75 55.3438 51.5312 55.3438H75.5937C75.5937 55.3438 75.3125 55.5 75.2187 55.5938L68.9062 61.9062C68.375 62.4375 68.375 63.3125 68.9062 63.8437C69.4375 64.375 70.3125 64.375 70.8438 63.8437L74.6875 60V78.625C74.6875 79.375 75.2812 80 76.0625 80H116.25L126.437 94.4375V113.562H108.25L108.312 113.5ZM127.844 91.5938L118.687 78.6562L127.844 64.3125L137 78.6562L127.844 91.5938Z" fill="#0073AD" fill-opacity="0.15"/>
</g>
<defs>
<clipPath id="clip0_8_3805">
<rect width="125" height="108.563" fill="white" transform="translate(15 23)"/>
</clipPath>
</defs>
</svg>
