<svg width="152" height="69" viewBox="0 0 152 69" fill="none" xmlns="http://www.w3.org/2000/svg">
<path d="M23.1583 34.3597C23.1583 31.4989 24.2729 28.7553 26.2569 26.7324C28.2409 24.7096 30.9317 23.5731 33.7375 23.5731C36.5432 23.5731 39.2341 24.7096 41.2181 26.7324C43.2021 28.7553 44.3166 31.4989 44.3166 34.3597C44.3166 37.2205 43.2021 39.9641 41.2181 41.987C39.2341 44.0099 36.5432 45.1463 33.7375 45.1463C30.9317 45.1463 28.2409 44.0099 26.2569 41.987C24.2729 39.9641 23.1583 37.2205 23.1583 34.3597V34.3597Z" stroke="#1C273B" stroke-width="3.5"/>
<path d="M2 55.933C2 53.0722 3.11459 50.3286 5.09856 48.3057C7.08254 46.2828 9.77339 45.1464 12.5792 45.1464H23.1583V55.933C23.1583 58.7937 22.0437 61.5373 20.0598 63.5602C18.0758 65.5831 15.3849 66.7195 12.5792 66.7195C9.77339 66.7195 7.08254 65.5831 5.09856 63.5602C3.11459 61.5373 2 58.7937 2 55.933Z" stroke="#1C273B" stroke-width="3.5"/>
<path d="M23.1583 2V23.5732H33.7375C36.5432 23.5732 39.2341 22.4367 41.2181 20.4139C43.2021 18.391 44.3166 15.6474 44.3166 12.7866C44.3166 9.92581 43.2021 7.1822 41.2181 5.15932C39.2341 3.13644 36.5432 2 33.7375 2L23.1583 2Z" stroke="#1C273B" stroke-width="3.5"/>
<path d="M2 12.7866C2 15.6474 3.11459 18.391 5.09856 20.4139C7.08254 22.4367 9.77339 23.5732 12.5792 23.5732H23.1583V2H12.5792C9.77339 2 7.08254 3.13644 5.09856 5.15932C3.11459 7.1822 2 9.92581 2 12.7866Z" stroke="#1C273B" stroke-width="3.5"/>
<path d="M2 34.3597C2 37.2205 3.11459 39.9641 5.09856 41.987C7.08254 44.0099 9.77339 45.1463 12.5792 45.1463H23.1583V23.5731H12.5792C9.77339 23.5731 7.08254 24.7096 5.09856 26.7324C3.11459 28.7553 2 31.4989 2 34.3597Z" stroke="#1C273B" stroke-width="3.5"/>
<path d="M62.3883 18.1799V43.2712L65.6243 43.2836V31.3354H73.4031V28.1741H65.6119V21.3288H75.7554V18.1799H62.3883ZM81.5553 23.2828C82.1164 23.2828 82.6546 23.0599 83.0514 22.6631C83.4482 22.2663 83.6711 21.7281 83.6711 21.167C83.6711 20.6058 83.4482 20.0677 83.0514 19.6709C82.6546 19.2741 82.1164 19.0512 81.5553 19.0512C80.9941 19.0512 80.456 19.2741 80.0592 19.6709C79.6624 20.0677 79.4394 20.6058 79.4394 21.167C79.4394 21.7281 79.6624 22.2663 80.0592 22.6631C80.456 23.0599 80.9941 23.2828 81.5553 23.2828V23.2828ZM79.9248 26.4317V43.2836H83.1608V26.4317H79.9248V26.4317Z" fill="#1C273B"/>
<path fill-rule="evenodd" clip-rule="evenodd" d="M95.1214 25.9462C90.84 25.9462 87.8529 29.568 87.8529 33.8743C87.8529 38.1806 90.84 41.8025 95.1214 41.8025C97.0879 41.8025 98.7059 41.0557 99.8883 39.8111V42.0514C99.8965 42.7208 99.772 43.3851 99.5219 44.0061C99.2718 44.6271 98.9011 45.1923 98.4312 45.6691C97.9613 46.146 97.4016 46.5249 96.7843 46.7841C96.1671 47.0433 95.5046 47.1776 94.8352 47.1792C93.8022 47.1792 92.7816 46.7809 91.9726 46.2084L90.3546 49.0087C91.6057 49.8174 93.0519 50.2735 94.5406 50.3288C96.0293 50.384 97.5053 50.0365 98.8129 49.3228C100.121 48.609 101.211 47.5556 101.97 46.2736C102.729 44.9917 103.128 43.5286 103.124 42.0389V26.444H99.8883V27.95C98.7059 26.7054 97.0879 25.9586 95.1214 25.9586V25.9462ZM91.0765 33.8743C91.0765 31.1984 93.1176 29.095 95.4824 29.095C97.8471 29.095 99.8758 31.2109 99.8758 33.8743C99.8758 36.5502 97.8347 38.6412 95.4824 38.6412C93.1176 38.6412 91.0765 36.5502 91.0765 33.8743V33.8743Z" fill="#1C273B"/>
<path d="M114.749 29.0951C113.823 29.1114 112.942 29.4914 112.294 30.1529C111.647 30.8144 111.285 31.7042 111.289 32.6298V43.2836H108.053V26.4316H111.289V27.9749C111.773 27.3333 112.402 26.8151 113.124 26.4625C113.847 26.11 114.642 25.9331 115.446 25.9462C117.711 25.9462 119.453 27.0664 120.449 28.7839C121.005 27.9229 121.765 27.213 122.662 26.7178C123.559 26.2226 124.565 25.9575 125.589 25.9462C129.261 25.9462 131.564 28.9084 131.564 32.58V43.2836H128.352V32.6173C128.356 31.6917 127.995 30.8019 127.347 30.1405C126.7 29.479 125.818 29.099 124.892 29.0826C123.967 29.099 123.085 29.479 122.438 30.1405C121.79 30.8019 121.429 31.6917 121.432 32.6173V43.2712H118.196V32.6173C118.2 31.6938 117.841 30.8059 117.196 30.1448C116.551 29.4836 115.672 29.1022 114.749 29.0826V29.0951Z" fill="#1C273B"/>
<path fill-rule="evenodd" clip-rule="evenodd" d="M148.776 28.3483C148.042 27.5821 147.158 26.9739 146.18 26.5608C145.202 26.1478 144.15 25.9387 143.089 25.9462C138.284 25.9462 134.874 30.0037 134.874 34.8576C134.874 39.7116 138.284 43.769 143.089 43.769C144.15 43.7744 145.201 43.5643 146.179 43.1514C147.157 42.7385 148.04 42.1314 148.776 41.3669V43.2836H152V26.4316H148.764V28.3483H148.776ZM138.098 34.8576C138.098 31.6465 140.562 29.0951 143.437 29.0951C146.3 29.0951 148.776 31.6465 148.776 34.8576C148.776 38.0687 146.312 40.6077 143.437 40.6077C140.575 40.6077 138.098 38.0687 138.098 34.8576V34.8576Z" fill="#1C273B"/>
</svg>
