<svg width="155" height="155" viewBox="0 0 155 155" fill="none" xmlns="http://www.w3.org/2000/svg">
<path d="M131.706 75.1496C131.519 74.962 131.3 74.8057 131.112 74.6181C131.112 74.4931 131.175 74.3993 131.175 74.2742V34.6631C131.206 34.288 131.081 33.9128 130.8 33.6627C130.518 33.3813 130.174 33.2562 129.799 33.2562H68.3347L56.8923 19.5002C56.6109 19.1876 56.2357 19 55.798 19H15.9367C15.1552 19 14.53 19.6253 14.53 20.4069V105.726C14.53 106.507 15.1552 107.132 15.9367 107.132H88.1873C88.1873 107.132 88.3748 107.101 88.4999 107.07L72.8054 122.764C70.3981 125.172 70.3981 129.08 72.8054 131.487L75.4317 134.113C76.6197 135.301 78.2142 135.926 79.7774 135.926C81.3405 135.926 82.9348 135.332 84.1229 134.113L100.192 118.043C104.1 120.076 108.384 121.107 112.667 121.107C119.545 121.107 126.454 118.481 131.675 113.229C142.148 102.724 142.148 85.6855 131.675 75.1809L131.706 75.1496ZM17.3749 21.7512H55.1415L64.6456 33.1937H35.758C34.9764 33.1937 34.3511 33.819 34.3511 34.6006C34.3511 35.3822 34.9764 36.0075 35.758 36.0075H82.0595C82.0595 36.0075 82.0596 36.0075 82.0908 36.0075H128.361V72.2733C117.825 64.7388 103.069 65.6767 93.6584 75.0871C85.8113 82.9343 83.8416 94.4706 87.7496 104.162H17.3749V21.7512ZM82.1221 132.05C80.8716 133.3 78.6831 133.3 77.4326 132.05L74.8063 129.423C73.5245 128.142 73.5245 126.016 74.8063 124.734L90.3756 109.165C91.3448 110.571 92.439 111.947 93.6896 113.198C94.9401 114.448 96.2846 115.542 97.7227 116.511L82.1532 132.081L82.1221 132.05ZM129.705 111.165C120.326 120.545 105.07 120.545 95.6905 111.165C86.3114 101.786 86.3114 86.5296 95.6905 77.1505C100.38 72.4609 106.539 70.1162 112.698 70.1162C118.857 70.1162 125.016 72.4609 129.705 77.1505C139.085 86.5296 139.085 101.786 129.705 111.165Z" fill="#0073AD" fill-opacity="0.15"/>
<path d="M113.073 75.3059C112.291 75.3059 111.666 75.9312 111.666 76.7128C111.666 77.4944 112.291 78.1197 113.073 78.1197C121.921 78.1197 129.111 85.3103 129.111 94.1579C129.111 94.9395 129.737 95.5648 130.518 95.5648C131.3 95.5648 131.925 94.9395 131.925 94.1579C131.925 83.7471 123.453 75.2747 113.042 75.2747L113.073 75.3059Z" fill="#0073AD" fill-opacity="0.15"/>
</svg>
