<svg width="150" height="60" viewBox="0 0 150 60" fill="none" xmlns="http://www.w3.org/2000/svg">
<g clip-path="url(#clip0_222_304)">
<path d="M18.4725 6H19.8075C24.435 6.0975 28.995 7.965 32.265 11.2575C31.0575 12.4875 29.82 13.6725 28.6425 14.91C26.805 13.2525 24.5925 11.9625 22.1775 11.5125C18.6 10.755 14.7525 11.4375 11.76 13.4775C8.49 15.615 6.27 19.2375 5.7975 23.115C5.2725 26.94 6.3525 30.9675 8.8425 33.9375C11.235 36.8325 14.88 38.6475 18.66 38.7675C22.185 38.97 25.86 37.89 28.425 35.4225C30.435 33.6825 31.3725 31.0425 31.6725 28.4775C27.495 28.4775 23.3175 28.5 19.14 28.4775V23.295H36.735C37.6425 28.86 36.33 35.1225 32.1075 39.0975C29.2875 41.9175 25.3875 43.575 21.4125 43.905C17.565 44.28 13.5825 43.5525 10.1625 41.6925C6.06 39.5025 2.79 35.805 1.1775 31.4475C-0.33 27.4425 -0.36 22.9125 1.05 18.8925C2.3325 15.2175 4.8 11.97 7.9725 9.705C11.0025 7.4625 14.7 6.225 18.4725 6Z" fill="#252F3E"/>
<path d="M119.393 7.30505H124.777V43.2451C122.992 43.2451 121.178 43.2676 119.393 43.2226C119.415 31.2676 119.393 19.2901 119.393 7.30505Z" fill="#252F3E"/>
<path d="M48.6975 19.7701C52.02 19.1401 55.62 19.8451 58.365 21.8326C60.855 23.5951 62.595 26.3626 63.12 29.3851C63.8025 32.8801 62.9475 36.7126 60.675 39.4801C58.23 42.5776 54.2325 44.2351 50.3325 43.9876C46.755 43.7851 43.2825 42.0001 41.175 39.0826C38.7825 35.8576 38.205 31.4326 39.5175 27.6601C40.8225 23.6101 44.5275 20.5126 48.705 19.7851M49.455 24.5476C48.0975 24.9001 46.8375 25.6801 45.93 26.7901C43.485 29.7076 43.6425 34.4626 46.335 37.1851C47.8725 38.7451 50.1825 39.4726 52.3275 39.0451C54.315 38.6926 56.055 37.3576 57.0075 35.5951C58.665 32.6026 58.1925 28.4701 55.65 26.1301C54.015 24.6226 51.6225 23.9926 49.4625 24.5476H49.455Z" fill="#252F3E"/>
<path d="M75.375 19.7699C79.1775 19.0424 83.325 20.0999 86.175 22.7624C90.8025 26.9174 91.3125 34.6949 87.36 39.4724C84.9675 42.4949 81.09 44.1524 77.265 43.9799C73.6125 43.8824 70.02 42.0674 67.8525 39.0749C65.4075 35.7749 64.8825 31.2449 66.27 27.3974C67.6575 23.4749 71.28 20.4749 75.3825 19.7699M76.1325 24.5474C74.775 24.8999 73.515 25.6799 72.6075 26.7599C70.1925 29.6324 70.29 34.3124 72.885 37.0499C74.4225 38.6849 76.8075 39.4949 79.0275 39.0374C80.9925 38.6624 82.755 37.3499 83.7075 35.5874C85.3425 32.5649 84.8625 28.4399 82.2975 26.0999C80.6625 24.5924 78.27 23.9849 76.1325 24.5399V24.5474Z" fill="#252F3E"/>
<path d="M98.0025 21.225C100.897 19.41 104.745 18.9075 107.865 20.4675C108.848 20.895 109.65 21.6225 110.43 22.3575C110.453 21.675 110.43 20.97 110.453 20.265C112.14 20.2875 113.827 20.265 115.538 20.2875V42.4875C115.515 45.8325 114.66 49.38 112.237 51.825C109.597 54.5175 105.54 55.35 101.895 54.795C97.995 54.2175 94.5975 51.375 93.09 47.775C94.5975 47.0475 96.1875 46.47 97.7475 45.7875C98.625 47.85 100.417 49.6125 102.652 50.0175C104.887 50.4225 107.482 49.8675 108.945 48.0075C110.505 46.095 110.505 43.4775 110.43 41.1375C109.275 42.27 107.94 43.275 106.328 43.6575C102.833 44.64 98.9775 43.4325 96.285 41.0625C93.57 38.7 91.9575 35.0475 92.1075 31.425C92.1825 27.3225 94.5 23.37 97.995 21.2325M103.215 24.45C101.677 24.705 100.245 25.56 99.2625 26.7375C96.9 29.5575 96.9 34.065 99.285 36.8325C100.643 38.4675 102.832 39.375 104.947 39.15C106.935 38.9475 108.772 37.6875 109.755 35.955C111.412 33.0075 111.142 29.01 108.9 26.445C107.512 24.8625 105.3 24.0825 103.215 24.4575V24.45Z" fill="#252F3E"/>
<path d="M131.25 22.5075C134.272 19.6875 138.922 18.735 142.8 20.22C146.475 21.6075 148.815 25.1025 150 28.7025C144.54 30.9675 139.102 33.21 133.642 35.475C134.4 36.9075 135.555 38.22 137.115 38.745C139.305 39.525 141.922 39.2475 143.76 37.785C144.487 37.23 145.065 36.5025 145.62 35.7975C147.007 36.7275 148.387 37.635 149.775 38.565C147.81 41.5125 144.517 43.575 140.97 43.8975C137.048 44.3775 132.862 42.8625 130.327 39.795C126.15 34.965 126.555 26.8575 131.257 22.5075M133.942 27.165C133.087 28.395 132.735 29.91 132.757 31.395C136.41 29.8875 140.055 28.3725 143.707 26.8425C143.1 25.4325 141.645 24.5775 140.16 24.3525C137.767 23.925 135.277 25.2075 133.942 27.1725V27.165Z" fill="#252F3E"/>
</g>
<defs>
<clipPath id="clip0_222_304">
<rect width="150" height="48.96" fill="white" transform="translate(0 6)"/>
</clipPath>
</defs>
</svg>
