<svg width="320" height="259" viewBox="0 0 320 259" fill="none" xmlns="http://www.w3.org/2000/svg">
<g clip-path="url(#clip0_11_4624)">
<path d="M209.758 118.37C211.256 116.492 212.524 114.398 213.603 112.142H228.429C233.73 101.66 236.739 89.814 236.739 77.2652C236.739 54.0316 226.486 33.216 210.285 19.0597V69.1875C207.937 66.2022 205.118 63.8653 201.894 62.2309C200.383 61.4745 198.791 60.8801 197.145 60.4614V9.77982C186.016 3.55269 173.214 0.00012207 159.562 0.00012207C116.946 0.00012207 82.3844 34.5938 82.3844 77.2787C82.3844 83.5463 83.1533 89.6384 84.5563 95.4738H108.245C109.581 97.3649 111.064 99.1479 112.683 100.782C114.896 103.025 117.364 104.997 120.049 106.712H88.2121C99.7732 134.782 127.361 154.544 159.575 154.544C160.196 154.544 160.803 154.517 161.41 154.503V145.642H174.225V153.152C194.069 149.33 211.188 137.916 222.48 122.03H206.305C207.546 120.923 208.706 119.72 209.772 118.383L209.758 118.37ZM153.882 106.213C151.184 106.55 148.27 106.712 145.154 106.712C139.61 106.712 134.51 105.753 129.843 103.808C125.175 101.877 121.155 99.2019 117.742 95.7439C114.343 92.3129 111.685 88.2065 109.769 83.4248C107.854 78.6565 106.896 73.4289 106.896 67.7826C106.896 62.1363 107.827 56.8142 109.688 52.0325C111.55 47.2642 114.194 43.1578 117.607 39.6998C121.034 36.2688 125.175 33.5942 130.045 31.6896C134.915 29.7985 140.392 28.8394 146.449 28.8394C152.506 28.8394 158.037 29.7715 162.57 31.6085C167.116 33.4456 170.961 35.85 174.117 38.7947L170.016 45.211C169.207 46.5077 168.141 47.1696 166.806 47.1696C165.956 47.1696 165.106 46.886 164.229 46.3186C163.109 45.6567 161.963 44.9949 160.789 44.3195C159.616 43.6441 158.32 43.0632 156.904 42.5769C155.488 42.0907 153.882 41.6854 152.115 41.3747C150.348 41.0641 148.311 40.8885 145.99 40.8885C142.24 40.8885 138.841 41.5233 135.805 42.7931C132.77 44.0493 130.18 45.8594 128.049 48.2097C125.904 50.5736 124.258 53.3968 123.098 56.6927C121.938 59.9886 121.357 63.6762 121.357 67.7556C121.357 72.1457 121.965 76.0495 123.192 79.4805C124.42 82.8979 126.133 85.7886 128.345 88.1525C130.558 90.5029 133.188 92.2994 136.237 93.5422C139.286 94.7984 142.618 95.4062 146.233 95.4062C149.43 95.4062 152.209 95.1226 154.57 94.5417C156.931 93.9609 159.184 93.1639 161.329 92.1508V78.2918H151.805C150.887 78.2918 150.172 78.0351 149.646 77.5353C149.12 77.022 148.864 76.4007 148.864 75.6577V67.6611H174.158V98.4725C172.229 99.8773 170.219 101.093 168.141 102.133C166.05 103.173 163.824 104.024 161.464 104.686C159.103 105.362 156.567 105.848 153.855 106.186L153.882 106.213ZM196.97 119.774C194.15 121.179 190.994 121.882 187.5 121.882C184.491 121.882 181.942 121.422 179.851 120.504C177.76 119.585 175.885 118.316 174.225 116.681V138.51H161.41V112.102C162.098 111.94 162.772 111.778 163.433 111.589C166.226 110.805 168.883 109.779 171.352 108.563C172.323 108.077 173.281 107.55 174.239 106.996V107.28C175.696 109.076 177.274 110.332 178.987 111.048C180.701 111.764 182.549 112.115 184.518 112.115C186.488 112.115 188.215 111.751 189.78 111.021C191.358 110.292 192.68 109.184 193.773 107.698C194.865 106.213 195.702 104.335 196.295 102.066C196.889 99.7963 197.172 97.1217 197.172 94.0419C197.172 90.9622 196.916 88.2876 196.417 86.1128C195.918 83.9516 195.203 82.1955 194.258 80.8447C193.327 79.494 192.194 78.5079 190.859 77.8865C189.523 77.2652 188.012 76.9545 186.313 76.9545C184.451 76.9545 182.792 77.2517 181.321 77.792V68.9173C184.019 67.526 187.162 66.8236 190.724 66.8236C193.624 66.8236 196.282 67.4314 198.683 68.6471C201.084 69.8628 203.162 71.6189 204.915 73.9152C206.656 76.2251 208.018 79.0617 208.963 82.4387C209.92 85.8156 210.393 89.6924 210.393 94.0554C210.393 98.0403 209.853 101.728 208.787 105.118C207.708 108.509 206.184 111.454 204.201 113.953C202.217 116.452 199.803 118.397 196.983 119.801L196.97 119.774Z" fill="white"/>
<path d="M24.2553 205.536C26.2249 205.536 27.9381 205.36 29.3951 204.996C30.852 204.631 32.2415 204.145 33.5635 203.523V194.986H27.6953C27.1287 194.986 26.6835 194.824 26.3598 194.514C26.036 194.203 25.8741 193.811 25.8741 193.365V188.421H41.4687V207.427C40.2816 208.292 39.0405 209.048 37.7589 209.683C36.4774 210.318 35.1014 210.845 33.6445 211.263C32.1875 211.669 30.6227 211.979 28.9634 212.195C27.3041 212.411 25.5099 212.506 23.5808 212.506C20.1678 212.506 17.0111 211.912 14.1377 210.723C11.2643 209.534 8.7686 207.873 6.67763 205.752C4.58665 203.631 2.94085 201.092 1.76721 198.147C0.593567 195.202 0 191.988 0 188.503C0 185.017 0.566586 181.735 1.71325 178.79C2.85991 175.846 4.49222 173.32 6.59669 171.185C8.70115 169.065 11.2643 167.417 14.2726 166.255C17.2809 165.08 20.6534 164.499 24.3902 164.499C28.127 164.499 31.5265 165.066 34.3324 166.201C37.1384 167.336 39.4992 168.822 41.4552 170.632L38.9191 174.589C38.42 175.386 37.7589 175.792 36.936 175.792C36.4234 175.792 35.8838 175.616 35.3442 175.278C34.6562 174.873 33.9412 174.454 33.2128 174.049C32.4843 173.644 31.6884 173.279 30.8115 172.982C29.9347 172.685 28.9499 172.428 27.8572 172.239C26.7645 172.05 25.5099 171.942 24.0799 171.942C21.7596 171.942 19.6686 172.334 17.807 173.117C15.9454 173.901 14.34 175.008 13.018 176.467C11.696 177.912 10.6842 179.655 9.96922 181.695C9.25425 183.734 8.9035 186.004 8.9035 188.516C8.9035 191.218 9.28123 193.636 10.0367 195.743C10.7921 197.85 11.8578 199.633 13.2204 201.092C14.5829 202.537 16.2017 203.658 18.0903 204.415C19.9654 205.185 22.0294 205.563 24.2553 205.563V205.536Z" fill="white"/>
<path d="M51.1142 211.966V178.642H55.8223C56.6452 178.642 57.2117 178.79 57.5355 179.101C57.8593 179.412 58.0751 179.925 58.183 180.654L58.6687 184.68C59.8558 182.627 61.2588 181.006 62.8506 179.803C64.456 178.615 66.2502 178.02 68.2332 178.02C69.879 178.02 71.2415 178.399 72.3207 179.155L71.282 185.166C71.2145 185.558 71.0796 185.828 70.8638 185.99C70.6479 186.152 70.3512 186.233 69.9869 186.233C69.6632 186.233 69.218 186.152 68.6514 186.004C68.0848 185.855 67.3429 185.774 66.412 185.774C64.7527 185.774 63.3228 186.233 62.1357 187.152C60.9485 188.07 59.9368 189.421 59.1139 191.191V211.939H51.1007L51.1142 211.966Z" fill="white"/>
<path d="M93.7701 178.115C96.2523 178.115 98.5051 178.52 100.529 179.317C102.552 180.114 104.279 181.249 105.695 182.721C107.125 184.194 108.232 185.99 109 188.111C109.769 190.232 110.174 192.609 110.174 195.229C110.174 197.85 109.783 200.254 109 202.375C108.218 204.496 107.125 206.306 105.695 207.805C104.265 209.305 102.539 210.453 100.529 211.25C98.5051 212.047 96.2523 212.452 93.7701 212.452C91.2879 212.452 89.0215 212.047 86.998 211.25C84.961 210.453 83.2343 209.305 81.7908 207.805C80.3474 206.306 79.2412 204.509 78.4453 202.375C77.6493 200.254 77.2581 197.877 77.2581 195.229C77.2581 192.582 77.6493 190.245 78.4453 188.111C79.2277 185.99 80.3474 184.194 81.7908 182.721C83.2343 181.249 84.961 180.114 86.998 179.317C89.035 178.52 91.2879 178.115 93.7701 178.115ZM93.7701 206.279C96.5356 206.279 98.5861 205.347 99.9216 203.483C101.257 201.619 101.918 198.89 101.918 195.297C101.918 191.704 101.257 188.962 99.9216 187.084C98.5861 185.207 96.549 184.261 93.7701 184.261C90.9911 184.261 88.8866 185.207 87.5376 187.098C86.2021 188.989 85.5276 191.731 85.5276 195.297C85.5276 198.863 86.2021 201.592 87.5376 203.469C88.8731 205.347 90.9506 206.279 93.7701 206.279Z" fill="white"/>
<path d="M133.984 211.966H126.713L113.479 178.642H120.13C120.71 178.642 121.209 178.777 121.6 179.06C122.005 179.344 122.275 179.695 122.423 180.128L128.844 197.931C129.209 198.971 129.519 199.984 129.775 200.984C130.018 201.983 130.247 202.983 130.436 203.969C130.625 202.969 130.855 201.983 131.097 200.984C131.34 199.984 131.664 198.971 132.055 197.931L138.638 180.128C138.787 179.695 139.057 179.344 139.448 179.06C139.839 178.777 140.298 178.642 140.837 178.642H147.164L133.957 211.966H133.984Z" fill="white"/>
<path d="M166.549 178.115C168.64 178.115 170.57 178.453 172.337 179.128C174.104 179.803 175.615 180.776 176.896 182.073C178.178 183.356 179.163 184.936 179.878 186.814C180.593 188.692 180.944 190.826 180.944 193.23C180.944 193.838 180.917 194.338 180.863 194.743C180.809 195.148 180.714 195.459 180.566 195.689C180.431 195.918 180.242 196.08 179.999 196.175C179.756 196.27 179.46 196.324 179.095 196.324H158.536C158.779 199.741 159.696 202.254 161.288 203.861C162.894 205.468 165.012 206.265 167.642 206.265C168.937 206.265 170.057 206.117 171.001 205.806C171.946 205.509 172.768 205.171 173.47 204.793C174.171 204.415 174.792 204.091 175.318 203.78C175.844 203.483 176.357 203.321 176.856 203.321C177.18 203.321 177.463 203.388 177.692 203.51C177.935 203.645 178.138 203.82 178.313 204.064L180.647 206.981C179.756 208.021 178.772 208.899 177.665 209.602C176.559 210.304 175.413 210.872 174.212 211.29C173.011 211.709 171.784 212.006 170.543 212.182C169.301 212.357 168.087 212.439 166.927 212.439C164.607 212.439 162.462 212.06 160.479 211.29C158.482 210.52 156.756 209.386 155.285 207.886C153.815 206.387 152.655 204.523 151.818 202.308C150.982 200.092 150.55 197.512 150.55 194.595C150.55 192.325 150.914 190.178 151.656 188.178C152.398 186.179 153.451 184.437 154.813 182.951C156.189 181.465 157.862 180.29 159.845 179.425C161.828 178.561 164.054 178.128 166.549 178.128V178.115ZM166.711 183.869C164.378 183.869 162.543 184.531 161.234 185.855C159.912 187.179 159.076 189.056 158.698 191.474H173.753C173.753 190.434 173.618 189.448 173.335 188.53C173.052 187.611 172.62 186.801 172.04 186.112C171.46 185.423 170.718 184.869 169.841 184.477C168.951 184.072 167.912 183.883 166.725 183.883L166.711 183.869Z" fill="white"/>
<path d="M189.415 222.839V178.642H194.312C194.825 178.642 195.27 178.763 195.648 178.993C196.012 179.236 196.255 179.601 196.363 180.101L197.01 183.18C198.346 181.64 199.897 180.398 201.637 179.439C203.378 178.48 205.415 178.007 207.748 178.007C209.57 178.007 211.229 178.385 212.726 179.141C214.224 179.898 215.532 180.992 216.625 182.437C217.718 183.883 218.554 185.652 219.161 187.76C219.755 189.867 220.051 192.285 220.051 195.013C220.051 197.499 219.714 199.809 219.04 201.929C218.365 204.05 217.407 205.887 216.166 207.454C214.925 209.007 213.414 210.237 211.661 211.115C209.893 211.993 207.924 212.425 205.738 212.425C203.863 212.425 202.258 212.141 200.949 211.56C199.641 210.993 198.467 210.196 197.428 209.17V222.812H189.415V222.839ZM204.983 184.356C203.324 184.356 201.894 184.707 200.72 185.409C199.546 186.112 198.44 187.098 197.428 188.381V203.321C198.332 204.442 199.331 205.239 200.396 205.671C201.462 206.117 202.622 206.333 203.85 206.333C205.077 206.333 206.157 206.103 207.141 205.657C208.126 205.198 208.963 204.509 209.637 203.577C210.312 202.645 210.838 201.47 211.215 200.052C211.593 198.633 211.768 196.958 211.768 195.04C211.768 193.122 211.607 191.434 211.296 190.083C210.986 188.732 210.541 187.638 209.947 186.787C209.367 185.949 208.652 185.328 207.829 184.936C206.993 184.545 206.049 184.356 204.996 184.356H204.983Z" fill="white"/>
<path d="M254.128 211.966H250.526C249.77 211.966 249.177 211.858 248.745 211.628C248.313 211.398 247.99 210.939 247.774 210.25L247.059 207.886C246.222 208.643 245.386 209.305 244.577 209.885C243.767 210.466 242.931 210.939 242.067 211.331C241.204 211.722 240.287 212.006 239.315 212.209C238.344 212.398 237.265 212.506 236.078 212.506C234.675 212.506 233.38 212.317 232.179 211.939C230.992 211.56 229.967 210.993 229.117 210.223C228.267 209.467 227.592 208.521 227.12 207.386C226.648 206.252 226.405 204.942 226.405 203.442C226.405 202.186 226.729 200.943 227.39 199.714C228.051 198.485 229.144 197.377 230.682 196.391C232.22 195.405 234.257 194.581 236.806 193.933C239.356 193.284 242.526 192.96 246.303 192.96V191.001C246.303 188.759 245.831 187.084 244.887 186.017C243.942 184.936 242.58 184.396 240.786 184.396C239.491 184.396 238.412 184.545 237.548 184.855C236.685 185.166 235.929 185.504 235.295 185.882C234.661 186.26 234.068 186.598 233.528 186.909C232.988 187.206 232.395 187.368 231.747 187.368C231.208 187.368 230.736 187.233 230.358 186.949C229.967 186.665 229.656 186.328 229.414 185.909L227.957 183.342C231.788 179.83 236.401 178.088 241.811 178.088C243.754 178.088 245.494 178.412 247.018 179.047C248.543 179.682 249.838 180.573 250.89 181.708C251.956 182.843 252.752 184.207 253.305 185.787C253.858 187.368 254.128 189.097 254.128 190.988V212.033V211.966ZM238.546 206.954C239.369 206.954 240.125 206.873 240.813 206.725C241.501 206.576 242.162 206.346 242.769 206.049C243.389 205.752 243.983 205.387 244.55 204.942C245.116 204.509 245.696 203.983 246.29 203.388V197.809C243.956 197.809 242 197.958 240.435 198.255C238.87 198.552 237.602 198.931 236.658 199.376C235.7 199.836 235.025 200.376 234.634 200.984C234.23 201.592 234.041 202.253 234.041 202.983C234.041 204.401 234.459 205.414 235.295 206.022C236.132 206.63 237.211 206.941 238.56 206.941L238.546 206.954Z" fill="white"/>
<path d="M274.875 212.479C272.002 212.479 269.79 211.669 268.225 210.021C266.673 208.386 265.891 206.13 265.891 203.253V184.639H262.518C262.087 184.639 261.709 184.504 261.399 184.221C261.088 183.937 260.927 183.518 260.927 182.951V179.763L266.282 178.885L267.968 169.794C268.049 169.362 268.252 169.024 268.562 168.781C268.872 168.538 269.264 168.43 269.749 168.43H273.904V178.925H282.659V184.639H273.904V202.699C273.904 203.739 274.16 204.55 274.687 205.131C275.213 205.712 275.901 206.009 276.764 206.009C277.263 206.009 277.681 205.955 278.019 205.833C278.356 205.712 278.639 205.59 278.896 205.455C279.138 205.32 279.368 205.198 279.557 205.077C279.745 204.955 279.948 204.901 280.137 204.901C280.379 204.901 280.568 204.955 280.717 205.077C280.865 205.198 281.027 205.374 281.202 205.617L283.604 209.507C282.43 210.48 281.094 211.223 279.583 211.723C278.073 212.222 276.508 212.465 274.875 212.465V212.479Z" fill="white"/>
<path d="M290.996 211.966V163.702H299.009V182.248C300.304 181.019 301.734 180.02 303.286 179.263C304.837 178.507 306.672 178.128 308.763 178.128C310.584 178.128 312.189 178.439 313.592 179.06C314.995 179.682 316.169 180.546 317.113 181.654C318.057 182.775 318.772 184.099 319.258 185.652C319.744 187.206 319.986 188.908 319.986 190.772V211.979H311.973V190.772C311.973 188.732 311.501 187.165 310.557 186.044C309.613 184.923 308.21 184.369 306.321 184.369C304.931 184.369 303.636 184.68 302.422 185.315C301.208 185.936 300.062 186.8 298.982 187.881V211.979H290.969L290.996 211.966Z" fill="white"/>
<path d="M32.9564 229.377V232.065H25.3345V252.989H22.1373V232.065H14.4884V229.377H32.9564Z" fill="white"/>
<path d="M41.4687 236.037C42.467 236.037 43.3843 236.199 44.2342 236.537C45.0841 236.874 45.8125 237.36 46.4196 237.982C47.0401 238.617 47.5123 239.387 47.863 240.319C48.2138 241.251 48.3757 242.304 48.3757 243.493C48.3757 243.952 48.3217 244.263 48.2273 244.412C48.1328 244.56 47.944 244.641 47.6742 244.641H36.5853C36.6122 245.695 36.7471 246.613 37.0169 247.397C37.2733 248.18 37.6375 248.829 38.1096 249.356C38.5683 249.882 39.1214 250.261 39.7554 250.531C40.3895 250.787 41.1045 250.922 41.9004 250.922C42.6288 250.922 43.2629 250.841 43.8025 250.666C44.3421 250.49 44.7873 250.315 45.1785 250.112C45.5697 249.909 45.88 249.734 46.1363 249.558C46.3926 249.383 46.6219 249.301 46.7973 249.301C47.0401 249.301 47.229 249.396 47.3504 249.585L48.1733 250.652C47.8091 251.098 47.3774 251.476 46.8782 251.8C46.3791 252.125 45.8395 252.395 45.2594 252.597C44.6794 252.814 44.0858 252.962 43.4787 253.07C42.8717 253.178 42.2511 253.232 41.6576 253.232C40.5109 253.232 39.4452 253.043 38.4739 252.651C37.5026 252.26 36.6662 251.692 35.9512 250.936C35.2497 250.179 34.6966 249.247 34.2919 248.14C33.9007 247.032 33.6984 245.762 33.6984 244.317C33.6984 243.155 33.8737 242.061 34.238 241.048C34.5887 240.035 35.1013 239.157 35.7758 238.414C36.4504 237.671 37.2598 237.09 38.2311 236.672C39.2023 236.253 40.2816 236.037 41.4957 236.037H41.4687ZM41.5361 238.198C40.1197 238.198 39.0135 238.603 38.1906 239.427C37.3812 240.251 36.8686 241.386 36.6797 242.831H45.7451C45.7451 242.156 45.6506 241.534 45.4618 240.967C45.2729 240.4 45.0031 239.913 44.6389 239.495C44.2746 239.076 43.8295 238.765 43.3168 238.536C42.7907 238.306 42.1972 238.198 41.5361 238.198Z" fill="white"/>
<path d="M65.9533 239.265C65.8724 239.387 65.7779 239.481 65.6835 239.549C65.6026 239.616 65.4677 239.643 65.3058 239.643C65.1439 239.643 64.9685 239.576 64.7662 239.441C64.5773 239.306 64.3345 239.157 64.0377 238.981C63.7409 238.819 63.3767 238.671 62.9585 238.536C62.5403 238.401 62.0142 238.333 61.4071 238.333C60.5977 238.333 59.8827 238.482 59.2487 238.765C58.6282 239.062 58.102 239.481 57.6704 240.022C57.2387 240.562 56.9284 241.237 56.7126 242.021C56.4967 242.804 56.3888 243.669 56.3888 244.641C56.3888 245.614 56.5102 246.546 56.7395 247.343C56.9689 248.126 57.2926 248.788 57.7108 249.315C58.129 249.842 58.6282 250.261 59.2352 250.531C59.8288 250.814 60.5033 250.949 61.2453 250.949C61.9872 250.949 62.5403 250.868 63.0125 250.693C63.4711 250.517 63.8623 250.328 64.1591 250.125C64.4559 249.923 64.7257 249.734 64.9146 249.558C65.1169 249.383 65.3058 249.301 65.5081 249.301C65.7645 249.301 65.9533 249.396 66.0612 249.585L66.8841 250.652C66.1557 251.544 65.2518 252.192 64.1726 252.611C63.0799 253.03 61.9467 253.232 60.7326 253.232C59.6939 253.232 58.7226 253.043 57.8322 252.651C56.9419 252.26 56.1595 251.706 55.4984 250.976C54.8374 250.247 54.3248 249.342 53.9471 248.288C53.5694 247.221 53.3805 246.006 53.3805 244.641C53.3805 243.399 53.5559 242.25 53.8931 241.197C54.2439 240.143 54.743 239.238 55.404 238.468C56.065 237.698 56.8879 237.104 57.8592 236.685C58.8305 236.253 59.9502 236.037 61.2183 236.037C62.3784 236.037 63.4172 236.226 64.3075 236.604C65.2114 236.982 66.0073 237.523 66.6953 238.212L65.9263 239.265H65.9533Z" fill="white"/>
<path d="M72.4152 252.989V228.715H75.3425V238.536C76.0575 237.779 76.8399 237.171 77.7168 236.712C78.5802 236.253 79.5784 236.023 80.7116 236.023C81.6154 236.023 82.4249 236.172 83.1263 236.482C83.8278 236.78 84.4079 237.212 84.8666 237.766C85.3387 238.32 85.6895 238.981 85.9323 239.765C86.1751 240.548 86.2965 241.413 86.2965 242.358V252.989H83.3692V242.358C83.3692 241.089 83.0859 240.116 82.5058 239.414C81.9257 238.711 81.0489 238.374 79.8617 238.374C78.9984 238.374 78.1889 238.576 77.4335 238.995C76.6781 239.414 75.9901 239.981 75.356 240.697V252.989H72.4286H72.4152Z" fill="white"/>
<path d="M93.1765 252.989V236.293H94.9167C95.3349 236.293 95.5912 236.496 95.7127 236.901L95.942 238.711C96.6705 237.914 97.4799 237.266 98.3702 236.766C99.2606 236.266 100.299 236.023 101.473 236.023C102.377 236.023 103.186 236.172 103.888 236.482C104.589 236.78 105.169 237.212 105.628 237.766C106.1 238.32 106.451 238.981 106.694 239.765C106.936 240.548 107.058 241.413 107.058 242.358V252.989H104.131V242.358C104.131 241.089 103.847 240.116 103.267 239.414C102.687 238.711 101.81 238.374 100.623 238.374C99.7597 238.374 98.9503 238.576 98.1949 238.995C97.4394 239.414 96.7514 239.981 96.1174 240.697V252.989H93.19H93.1765Z" fill="white"/>
<path d="M120.696 236.037C121.91 236.037 123.017 236.239 124.001 236.645C124.986 237.05 125.823 237.631 126.497 238.374C127.172 239.117 127.711 240.022 128.075 241.089C128.44 242.142 128.629 243.331 128.629 244.641C128.629 245.952 128.44 247.14 128.075 248.194C127.711 249.247 127.185 250.152 126.497 250.895C125.809 251.638 124.973 252.219 124.001 252.611C123.03 253.003 121.924 253.219 120.696 253.219C119.469 253.219 118.376 253.016 117.391 252.611C116.407 252.206 115.57 251.638 114.882 250.895C114.194 250.152 113.655 249.247 113.29 248.194C112.913 247.14 112.737 245.952 112.737 244.641C112.737 243.331 112.926 242.156 113.29 241.089C113.668 240.022 114.194 239.13 114.882 238.374C115.57 237.617 116.407 237.05 117.391 236.645C118.376 236.239 119.469 236.037 120.696 236.037ZM120.696 250.936C122.342 250.936 123.57 250.382 124.379 249.274C125.189 248.167 125.593 246.627 125.593 244.655C125.593 242.683 125.189 241.116 124.379 240.008C123.57 238.9 122.342 238.347 120.696 238.347C119.86 238.347 119.145 238.495 118.524 238.779C117.904 239.063 117.391 239.481 116.987 240.008C116.582 240.548 116.272 241.21 116.069 241.994C115.867 242.777 115.759 243.669 115.759 244.655C115.759 245.641 115.867 246.532 116.069 247.302C116.272 248.072 116.582 248.734 116.987 249.274C117.405 249.801 117.917 250.22 118.524 250.504C119.145 250.787 119.86 250.936 120.696 250.936Z" fill="white"/>
<path d="M137.977 228.715V252.989H135.05V228.715H137.977Z" fill="white"/>
<path d="M152.358 236.037C153.572 236.037 154.678 236.239 155.663 236.645C156.648 237.05 157.484 237.631 158.159 238.374C158.833 239.117 159.373 240.022 159.737 241.089C160.101 242.142 160.29 243.331 160.29 244.641C160.29 245.952 160.101 247.14 159.737 248.194C159.373 249.247 158.847 250.152 158.159 250.895C157.471 251.638 156.634 252.219 155.663 252.611C154.692 253.003 153.585 253.219 152.358 253.219C151.13 253.219 150.038 253.016 149.053 252.611C148.068 252.206 147.232 251.638 146.544 250.895C145.856 250.152 145.316 249.247 144.952 248.194C144.574 247.14 144.399 245.952 144.399 244.641C144.399 243.331 144.587 242.156 144.952 241.089C145.329 240.022 145.856 239.13 146.544 238.374C147.232 237.617 148.068 237.05 149.053 236.645C150.038 236.239 151.13 236.037 152.358 236.037ZM152.358 250.936C154.004 250.936 155.231 250.382 156.041 249.274C156.85 248.167 157.255 246.627 157.255 244.655C157.255 242.683 156.85 241.116 156.041 240.008C155.231 238.9 154.004 238.347 152.358 238.347C151.521 238.347 150.806 238.495 150.186 238.779C149.565 239.063 149.053 239.481 148.648 240.008C148.243 240.548 147.933 241.21 147.731 241.994C147.528 242.777 147.42 243.669 147.42 244.655C147.42 245.641 147.528 246.532 147.731 247.302C147.933 248.072 148.243 248.734 148.648 249.274C149.066 249.801 149.579 250.22 150.186 250.504C150.806 250.787 151.521 250.936 152.358 250.936Z" fill="white"/>
<path d="M171.986 236.023C172.714 236.023 173.389 236.104 174.023 236.266C174.657 236.428 175.224 236.658 175.736 236.969H180.255V238.049C180.255 238.414 180.026 238.644 179.567 238.738L177.679 239.008C178.057 239.724 178.245 240.521 178.245 241.399C178.245 242.21 178.084 242.953 177.773 243.615C177.463 244.277 177.031 244.844 176.478 245.317C175.925 245.789 175.264 246.154 174.509 246.411C173.753 246.667 172.903 246.789 171.999 246.789C171.217 246.789 170.489 246.694 169.801 246.505C169.45 246.735 169.18 246.978 169.005 247.235C168.829 247.491 168.735 247.748 168.735 248.005C168.735 248.41 168.897 248.721 169.207 248.937C169.517 249.153 169.949 249.301 170.475 249.382C171.001 249.477 171.595 249.518 172.269 249.518H174.32C175.021 249.518 175.696 249.585 176.37 249.707C177.045 249.828 177.638 250.031 178.164 250.301C178.691 250.585 179.109 250.963 179.433 251.449C179.756 251.935 179.905 252.57 179.905 253.354C179.905 254.07 179.729 254.772 179.365 255.461C179.014 256.136 178.502 256.744 177.827 257.271C177.153 257.798 176.343 258.217 175.372 258.541C174.401 258.851 173.321 259.014 172.094 259.014C170.866 259.014 169.814 258.892 168.897 258.649C167.979 258.406 167.224 258.082 166.617 257.676C166.01 257.271 165.565 256.798 165.254 256.272C164.944 255.745 164.796 255.177 164.796 254.597C164.796 253.773 165.052 253.07 165.578 252.489C166.104 251.908 166.819 251.449 167.723 251.111C167.251 250.895 166.873 250.598 166.59 250.233C166.307 249.869 166.172 249.369 166.172 248.761C166.172 248.518 166.212 248.275 166.307 248.018C166.388 247.762 166.536 247.505 166.711 247.248C166.887 246.992 167.116 246.748 167.372 246.519C167.642 246.289 167.939 246.087 168.29 245.911C167.467 245.452 166.819 244.844 166.361 244.074C165.888 243.317 165.659 242.412 165.659 241.399C165.659 240.589 165.821 239.846 166.131 239.184C166.442 238.522 166.887 237.955 167.44 237.482C167.993 237.009 168.667 236.658 169.436 236.401C170.205 236.145 171.055 236.023 171.972 236.023H171.986ZM177.18 253.84C177.18 253.408 177.058 253.07 176.829 252.813C176.6 252.557 176.289 252.354 175.885 252.219C175.493 252.084 175.035 251.976 174.522 251.908C174.009 251.841 173.456 251.814 172.89 251.814H171.15C170.556 251.814 169.989 251.733 169.45 251.584C168.829 251.881 168.317 252.246 167.925 252.678C167.534 253.111 167.345 253.624 167.345 254.218C167.345 254.597 167.44 254.948 167.629 255.272C167.818 255.596 168.114 255.88 168.506 256.109C168.897 256.353 169.396 256.528 169.989 256.677C170.583 256.812 171.298 256.879 172.107 256.879C172.917 256.879 173.605 256.812 174.225 256.663C174.846 256.515 175.385 256.312 175.817 256.042C176.249 255.772 176.586 255.448 176.815 255.083C177.045 254.718 177.166 254.299 177.166 253.854L177.18 253.84ZM171.986 244.83C172.58 244.83 173.106 244.749 173.551 244.587C173.996 244.425 174.387 244.195 174.697 243.898C175.008 243.601 175.237 243.25 175.385 242.831C175.534 242.412 175.615 241.967 175.615 241.467C175.615 240.44 175.305 239.63 174.684 239.035C174.063 238.441 173.16 238.13 171.972 238.13C170.785 238.13 169.895 238.428 169.288 239.035C168.681 239.643 168.357 240.454 168.357 241.467C168.357 241.967 168.438 242.412 168.6 242.831C168.762 243.236 168.991 243.601 169.301 243.898C169.612 244.195 169.989 244.425 170.435 244.587C170.88 244.749 171.406 244.83 171.986 244.83Z" fill="white"/>
<path d="M189.577 231.066C189.577 231.35 189.523 231.62 189.402 231.863C189.294 232.106 189.132 232.336 188.943 232.525C188.754 232.714 188.525 232.862 188.282 232.97C188.039 233.079 187.756 233.133 187.473 233.133C187.189 233.133 186.92 233.079 186.677 232.97C186.434 232.862 186.205 232.714 186.016 232.525C185.827 232.336 185.679 232.106 185.557 231.863C185.449 231.62 185.395 231.35 185.395 231.066C185.395 230.782 185.449 230.512 185.557 230.255C185.665 229.999 185.813 229.769 186.016 229.58C186.205 229.391 186.434 229.242 186.677 229.121C186.92 229.013 187.189 228.959 187.473 228.959C187.756 228.959 188.026 229.013 188.282 229.121C188.538 229.229 188.754 229.377 188.943 229.58C189.132 229.769 189.294 229.999 189.402 230.255C189.523 230.512 189.577 230.782 189.577 231.066ZM188.916 236.307V253.003H185.989V236.307H188.916Z" fill="white"/>
<path d="M203.148 236.037C204.146 236.037 205.064 236.199 205.914 236.537C206.764 236.874 207.492 237.36 208.099 237.982C208.72 238.617 209.192 239.387 209.543 240.319C209.893 241.251 210.055 242.304 210.055 243.493C210.055 243.952 210.001 244.263 209.907 244.412C209.812 244.56 209.624 244.641 209.354 244.641H198.265C198.292 245.695 198.427 246.613 198.696 247.397C198.953 248.18 199.317 248.829 199.789 249.356C200.248 249.882 200.801 250.261 201.435 250.531C202.069 250.787 202.784 250.922 203.58 250.922C204.308 250.922 204.942 250.841 205.482 250.666C206.022 250.49 206.467 250.315 206.858 250.112C207.249 249.909 207.56 249.734 207.816 249.558C208.072 249.383 208.301 249.301 208.477 249.301C208.72 249.301 208.909 249.396 209.03 249.585L209.853 250.652C209.489 251.098 209.057 251.476 208.558 251.8C208.059 252.125 207.519 252.395 206.939 252.597C206.359 252.814 205.765 252.962 205.158 253.07C204.551 253.178 203.931 253.232 203.337 253.232C202.19 253.232 201.125 253.043 200.153 252.651C199.182 252.26 198.346 251.692 197.631 250.936C196.929 250.179 196.376 249.247 195.971 248.14C195.58 247.032 195.378 245.762 195.378 244.317C195.378 243.155 195.553 242.061 195.917 241.048C196.268 240.035 196.781 239.157 197.455 238.414C198.13 237.671 198.939 237.09 199.911 236.672C200.882 236.253 201.961 236.037 203.175 236.037H203.148ZM203.216 238.198C201.799 238.198 200.693 238.603 199.87 239.427C199.061 240.251 198.548 241.386 198.359 242.831H207.425C207.425 242.156 207.33 241.534 207.141 240.967C206.952 240.4 206.683 239.913 206.318 239.495C205.954 239.076 205.509 238.765 204.996 238.536C204.47 238.306 203.877 238.198 203.216 238.198Z" fill="white"/>
<path d="M225.812 239.049C225.677 239.292 225.474 239.414 225.205 239.414C225.043 239.414 224.854 239.36 224.652 239.238C224.449 239.116 224.193 238.981 223.883 238.833C223.586 238.684 223.222 238.549 222.803 238.428C222.385 238.306 221.886 238.238 221.319 238.238C220.82 238.238 220.389 238.306 219.984 238.428C219.579 238.549 219.255 238.725 218.972 238.941C218.689 239.157 218.473 239.414 218.325 239.711C218.176 240.008 218.109 240.319 218.109 240.656C218.109 241.089 218.23 241.44 218.473 241.723C218.716 242.007 219.04 242.25 219.458 242.466C219.863 242.669 220.321 242.858 220.834 243.02C221.346 243.182 221.873 243.344 222.426 243.534C222.965 243.709 223.491 243.912 224.018 244.141C224.53 244.358 224.989 244.641 225.394 244.965C225.798 245.29 226.122 245.695 226.378 246.181C226.621 246.654 226.743 247.235 226.743 247.897C226.743 248.667 226.608 249.382 226.338 250.031C226.068 250.679 225.663 251.247 225.124 251.733C224.584 252.219 223.923 252.584 223.154 252.867C222.372 253.138 221.481 253.273 220.456 253.273C219.296 253.273 218.244 253.084 217.299 252.705C216.355 252.327 215.559 251.841 214.898 251.247L215.586 250.125C215.667 249.977 215.775 249.869 215.896 249.801C216.018 249.72 216.18 249.693 216.369 249.693C216.557 249.693 216.773 249.774 216.989 249.923C217.205 250.071 217.475 250.247 217.785 250.436C218.095 250.625 218.473 250.787 218.918 250.949C219.363 251.098 219.917 251.179 220.591 251.179C221.158 251.179 221.657 251.111 222.088 250.949C222.52 250.801 222.871 250.598 223.154 250.355C223.437 250.098 223.653 249.815 223.788 249.477C223.923 249.153 223.991 248.802 223.991 248.423C223.991 247.964 223.869 247.586 223.626 247.275C223.383 246.978 223.06 246.708 222.641 246.505C222.223 246.303 221.778 246.1 221.252 245.938C220.726 245.776 220.2 245.614 219.66 245.438C219.121 245.263 218.581 245.06 218.068 244.83C217.542 244.601 217.084 244.317 216.679 243.979C216.274 243.642 215.95 243.223 215.694 242.723C215.451 242.223 215.33 241.615 215.33 240.899C215.33 240.265 215.465 239.657 215.721 239.062C215.991 238.468 216.369 237.955 216.868 237.509C217.367 237.063 217.987 236.712 218.729 236.442C219.471 236.172 220.308 236.05 221.252 236.05C222.345 236.05 223.33 236.226 224.206 236.563C225.083 236.915 225.839 237.387 226.473 237.982L225.812 239.049Z" fill="white"/>
<path d="M232.166 250.963C232.166 250.706 232.206 250.477 232.3 250.247C232.395 250.017 232.53 249.828 232.692 249.653C232.854 249.477 233.069 249.342 233.312 249.247C233.555 249.153 233.811 249.099 234.108 249.099C234.432 249.099 234.729 249.153 234.985 249.274C235.241 249.396 235.457 249.558 235.633 249.774C235.808 249.99 235.929 250.234 236.024 250.517C236.105 250.801 236.159 251.098 236.159 251.436C236.159 251.936 236.091 252.449 235.943 252.976C235.794 253.502 235.592 254.029 235.336 254.556C235.066 255.083 234.742 255.583 234.351 256.082C233.96 256.582 233.515 257.028 233.029 257.447L232.53 256.974C232.381 256.839 232.314 256.69 232.314 256.515C232.314 256.366 232.395 256.218 232.543 256.069C232.651 255.947 232.786 255.785 232.961 255.583C233.137 255.38 233.299 255.15 233.474 254.88C233.649 254.624 233.811 254.326 233.96 254.002C234.108 253.678 234.216 253.34 234.284 252.976H234.068C233.784 252.976 233.528 252.922 233.299 252.827C233.069 252.732 232.867 252.584 232.692 252.408C232.516 252.233 232.395 252.017 232.3 251.76C232.206 251.517 232.166 251.247 232.166 250.949V250.963Z" fill="white"/>
<path d="M255.531 252.989H252.333V229.377H255.531V252.989Z" fill="white"/>
<path d="M263.854 252.989V236.293H265.594C266.012 236.293 266.269 236.496 266.39 236.901L266.619 238.711C267.348 237.914 268.157 237.266 269.048 236.766C269.938 236.266 270.977 236.023 272.15 236.023C273.054 236.023 273.864 236.172 274.565 236.482C275.267 236.78 275.847 237.212 276.305 237.766C276.778 238.32 277.128 238.981 277.371 239.765C277.614 240.548 277.735 241.413 277.735 242.358V252.989H274.808V242.358C274.808 241.089 274.525 240.116 273.945 239.414C273.365 238.711 272.488 238.374 271.301 238.374C270.437 238.374 269.628 238.576 268.872 238.995C268.117 239.414 267.429 239.981 266.795 240.697V252.989H263.867H263.854Z" fill="white"/>
<path d="M295.987 239.265C295.907 239.387 295.812 239.481 295.718 239.549C295.637 239.616 295.502 239.643 295.34 239.643C295.178 239.643 295.003 239.576 294.8 239.441C294.611 239.306 294.369 239.157 294.072 238.981C293.775 238.819 293.411 238.671 292.993 238.536C292.574 238.401 292.048 238.333 291.441 238.333C290.632 238.333 289.917 238.482 289.283 238.765C288.662 239.062 288.136 239.481 287.705 240.022C287.273 240.562 286.963 241.237 286.747 242.021C286.531 242.804 286.423 243.669 286.423 244.641C286.423 245.614 286.544 246.546 286.774 247.343C287.003 248.126 287.327 248.788 287.745 249.315C288.163 249.842 288.662 250.261 289.269 250.531C289.863 250.814 290.537 250.949 291.279 250.949C292.021 250.949 292.574 250.868 293.047 250.693C293.505 250.517 293.897 250.328 294.193 250.125C294.49 249.923 294.76 249.734 294.949 249.558C295.151 249.383 295.34 249.301 295.542 249.301C295.799 249.301 295.987 249.396 296.095 249.585L296.918 250.652C296.19 251.544 295.286 252.192 294.207 252.611C293.114 253.03 291.981 253.232 290.767 253.232C289.728 253.232 288.757 253.043 287.866 252.651C286.976 252.26 286.194 251.706 285.533 250.976C284.872 250.247 284.359 249.342 283.981 248.288C283.604 247.221 283.415 246.006 283.415 244.641C283.415 243.399 283.59 242.25 283.927 241.197C284.278 240.143 284.777 239.238 285.438 238.468C286.099 237.698 286.922 237.104 287.893 236.685C288.865 236.253 289.984 236.037 291.252 236.037C292.413 236.037 293.451 236.226 294.342 236.604C295.246 236.982 296.041 237.523 296.729 238.212L295.96 239.265H295.987Z" fill="white"/>
<path d="M301.505 251.179C301.505 250.895 301.559 250.625 301.667 250.369C301.775 250.112 301.91 249.896 302.099 249.707C302.274 249.518 302.49 249.369 302.746 249.261C303.002 249.153 303.272 249.099 303.555 249.099C303.839 249.099 304.109 249.153 304.365 249.261C304.621 249.369 304.837 249.518 305.026 249.707C305.215 249.896 305.363 250.112 305.458 250.369C305.565 250.625 305.619 250.895 305.619 251.179C305.619 251.463 305.565 251.746 305.458 251.99C305.35 252.233 305.201 252.449 305.026 252.638C304.837 252.827 304.621 252.976 304.365 253.07C304.109 253.165 303.839 253.232 303.555 253.232C303.272 253.232 303.002 253.178 302.746 253.07C302.49 252.962 302.274 252.814 302.099 252.638C301.923 252.449 301.775 252.233 301.667 251.99C301.559 251.746 301.505 251.476 301.505 251.179Z" fill="white"/>
</g>
<defs>
<clipPath id="clip0_11_4624">
<rect width="320" height="259" fill="white"/>
</clipPath>
</defs>
</svg>
