<svg width="91" height="90" viewBox="0 0 91 90" fill="none" xmlns="http://www.w3.org/2000/svg">
<path d="M21.6027 2.93066H25.4338V6.71592H28.9385V2.93066H32.77V14.3931H28.9388V10.5546H25.4342V14.3931H21.603V2.93066H21.6027ZM37.808 6.73189H34.4354V2.93066H45.0137V6.73189H41.6395V14.3931H37.8083V6.73189H37.808ZM46.6924 2.93066H50.6879L53.1449 6.95828L55.6 2.93066H59.596V14.3931H55.7805V8.71185L53.1448 12.7872H53.0791L50.4416 8.71185V14.3931H46.6924V2.93066ZM61.5031 2.93066H65.3353V10.6045H70.7232V14.3931H61.5031V2.93066ZM16 19.6355L21.4802 81.104L46.0728 87.9307L70.7335 81.0942L76.2196 19.6353L16 19.6355ZM64.7882 34.2226L64.445 38.0446L64.2943 39.7393H64.2695H46.1099H46.0836H35.4451L36.1341 47.4587H46.0836H46.1099H61.5763H63.608L63.424 49.4834L61.6525 69.3312L61.539 70.6041L46.1099 74.8805V74.8819L46.0753 74.8917L30.6323 70.6044L29.5759 58.7674H33.0641H37.1439L37.6807 64.78L46.0766 67.0475L46.0836 67.0454V67.0447L54.4923 64.7758L55.3668 54.9981H46.1099H46.0836H29.2392L27.3864 34.2226L27.2059 32.2004H46.0836H46.1099H64.9686L64.7882 34.2226Z" fill="#1C273B"/>
</svg>
