<svg width="75" height="75" viewBox="0 0 75 75" fill="none" xmlns="http://www.w3.org/2000/svg">
<path d="M61.8 57.37C62.52 56.46 63.14 55.45 63.67 54.35H70.86C73.43 49.27 74.89 43.53 74.89 37.45C74.89 26.19 69.92 16.1 62.05 9.24V33.53C60.91 32.08 59.54 30.95 57.98 30.16C57.25 29.79 56.48 29.51 55.68 29.3V4.74C50.29 1.73 44.07 0 37.45 0C16.77 0 0 16.77 0 37.45C0 40.49 0.37 43.44 1.05 46.27H12.54C13.19 47.19 13.91 48.05 14.69 48.84C15.77 49.93 16.96 50.89 18.26 51.72H2.82C8.43 65.32 21.82 74.9 37.45 74.9C37.75 74.9 38.04 74.88 38.34 74.88V70.58H44.56V74.22C54.19 72.37 62.5 66.83 67.97 59.14H60.12C60.73 58.61 61.29 58.02 61.8 57.38V57.37ZM34.69 51.48C33.38 51.64 31.97 51.72 30.45 51.72C27.76 51.72 25.29 51.25 23.02 50.32C20.76 49.39 18.8 48.08 17.15 46.41C15.5 44.74 14.21 42.75 13.28 40.44C12.35 38.13 11.89 35.6 11.89 32.86C11.89 30.12 12.34 27.54 13.24 25.23C14.14 22.92 15.42 20.93 17.08 19.26C18.74 17.59 20.75 16.3 23.12 15.38C25.48 14.46 28.14 14 31.08 14C34.02 14 36.7 14.45 38.9 15.34C41.1 16.23 42.97 17.4 44.5 18.83L42.51 21.94C42.12 22.57 41.6 22.89 40.95 22.89C40.54 22.89 40.12 22.75 39.7 22.48C39.16 22.16 38.6 21.84 38.03 21.51C37.46 21.19 36.83 20.9 36.14 20.67C35.45 20.43 34.68 20.24 33.82 20.08C32.96 19.93 31.97 19.85 30.85 19.85C29.03 19.85 27.38 20.16 25.91 20.77C24.44 21.38 23.18 22.26 22.15 23.4C21.11 24.54 20.31 25.91 19.75 27.51C19.19 29.11 18.91 30.9 18.91 32.87C18.91 35 19.21 36.89 19.8 38.55C20.4 40.21 21.23 41.61 22.3 42.75C23.37 43.89 24.65 44.76 26.13 45.36C27.61 45.97 29.23 46.27 30.98 46.27C32.53 46.27 33.88 46.13 35.03 45.85C36.18 45.57 37.27 45.18 38.31 44.69V37.98H33.69C33.25 37.98 32.9 37.86 32.64 37.61C32.38 37.36 32.26 37.06 32.26 36.7V32.82H44.54V47.75C43.61 48.43 42.63 49.02 41.62 49.52C40.61 50.02 39.53 50.43 38.38 50.76C37.23 51.08 36 51.32 34.69 51.49V51.48ZM55.6 58.04C54.23 58.72 52.7 59.06 51 59.06C49.54 59.06 48.3 58.84 47.29 58.39C46.27 57.95 45.36 57.33 44.56 56.54V67.12H38.34V54.32C38.67 54.24 39 54.16 39.32 54.07C40.68 53.69 41.97 53.19 43.16 52.6C43.63 52.37 44.1 52.11 44.56 51.84V51.98C45.27 52.85 46.03 53.46 46.86 53.81C47.69 54.15 48.59 54.33 49.54 54.33C50.49 54.33 51.33 54.15 52.1 53.8C52.86 53.45 53.51 52.91 54.04 52.19C54.57 51.47 54.98 50.56 55.26 49.46C55.55 48.36 55.69 47.06 55.69 45.57C55.69 44.08 55.57 42.78 55.32 41.73C55.08 40.68 54.73 39.83 54.28 39.17C53.83 38.52 53.28 38.04 52.63 37.73C51.98 37.43 51.25 37.28 50.43 37.28C49.53 37.28 48.72 37.42 48 37.69V33.39C49.31 32.71 50.83 32.37 52.57 32.37C53.98 32.37 55.27 32.66 56.44 33.25C57.61 33.84 58.61 34.69 59.46 35.81C60.31 36.93 60.96 38.3 61.42 39.94C61.88 41.58 62.11 43.45 62.11 45.57C62.11 47.5 61.85 49.29 61.33 50.93C60.81 52.58 60.07 54 59.1 55.21C58.13 56.42 56.97 57.36 55.6 58.04Z" fill="#1C273B"/>
</svg>
