<svg width="155" height="155" viewBox="0 0 155 155" fill="none" xmlns="http://www.w3.org/2000/svg">
<g clip-path="url(#clip0_8_3813)">
<path d="M91.9375 102.687H78.8438C78.8438 102.687 78.9063 102.531 78.9063 102.437V86.6875C78.9063 85.875 78.25 85.2188 77.4375 85.2188C76.625 85.2188 75.9688 85.875 75.9688 86.6875V102.437C75.9688 102.437 76 102.594 76.0313 102.687H62.9375C62.125 102.687 61.4688 103.344 61.4688 104.156V133.406C61.4688 134.219 62.125 134.875 62.9375 134.875H91.9375C92.75 134.875 93.4062 134.219 93.4062 133.406V104.156C93.4062 103.344 92.75 102.687 91.9375 102.687ZM90.5 131.938H64.4063V105.594H90.5V131.938Z" fill="#0073AD" fill-opacity="0.15"/>
<path d="M138.531 102.687H125.438C125.438 102.687 125.5 102.5 125.5 102.375V81C125.5 80.3438 125.063 79.7812 124.469 79.5938L103.094 73.3125C102.313 73.0937 101.5 73.5312 101.281 74.3125C101.063 75.0937 101.5 75.9062 102.281 76.125L122.625 82.125V102.406C122.625 102.406 122.656 102.594 122.688 102.719H109.594C108.781 102.719 108.125 103.375 108.125 104.188V133.437C108.125 134.25 108.781 134.906 109.594 134.906H138.594C139.406 134.906 140.063 134.25 140.063 133.437V104.188C140.063 103.375 139.406 102.719 138.594 102.719L138.531 102.687ZM137.094 131.937H111V105.594H137.094V131.937Z" fill="#0073AD" fill-opacity="0.15"/>
<path d="M50.5938 73.125L30.375 79.625C29.7813 79.8125 29.375 80.375 29.375 81V102.375C29.375 102.375 29.4063 102.563 29.4375 102.688H16.4688C15.6563 102.688 15 103.344 15 104.156V133.406C15 134.219 15.6563 134.875 16.4688 134.875H45.4688C46.2813 134.875 46.9375 134.219 46.9375 133.406V104.156C46.9375 103.344 46.2813 102.688 45.4688 102.688H32.25C32.25 102.688 32.3125 102.5 32.3125 102.375V82.0625L51.5 75.9063C52.2813 75.6563 52.6875 74.8438 52.4375 74.0625C52.1875 73.3125 51.375 72.875 50.5938 73.125ZM44 131.938H17.9063V105.594H44V131.938Z" fill="#0073AD" fill-opacity="0.15"/>
<path d="M104.656 67.4687C105.406 66.1875 106.062 64.8438 106.625 63.5312C107.156 62.2188 107.625 60.8125 108.031 59.375C108.219 58.6562 107.844 57.9375 107.187 57.6562L103.094 55.9687C103.656 52.8437 103.656 49.5937 103.094 46.4375L107.187 44.75C107.875 44.4687 108.219 43.75 108.031 43.0312C107.281 40.1875 106.156 37.4687 104.687 34.9375C104.312 34.3125 103.531 34.0312 102.875 34.3125L98.7812 36C96.9687 33.375 94.6562 31.0937 92.0625 29.2812L93.75 25.1875C94.0312 24.5 93.75 23.75 93.125 23.375C91.8437 22.625 90.5312 21.9687 89.1875 21.4062C87.875 20.875 86.4687 20.4062 85.0312 20C84.3125 19.8125 83.5937 20.1875 83.3125 20.8437L81.625 24.9375C78.5 24.375 75.25 24.375 72.0937 24.9375L70.4062 20.8437C70.125 20.1562 69.4062 19.8125 68.6875 20C65.8437 20.75 63.125 21.875 60.5937 23.3437C59.9687 23.7187 59.7187 24.5 59.9687 25.1562L61.6562 29.25C59.0312 31.0625 56.75 33.375 54.9375 35.9687L50.8437 34.2812C50.1875 34 49.4062 34.2812 49.0312 34.9062C48.2812 36.1875 47.625 37.5312 47.0625 38.8437C46.5312 40.1562 46.0625 41.5625 45.6562 43C45.4687 43.7187 45.8437 44.4375 46.5 44.7187L50.5937 46.4062C50.0312 49.5312 50.0312 52.7812 50.5937 55.9375L46.5 57.625C45.8125 57.9062 45.4687 58.625 45.6562 59.3437C46.4062 62.1875 47.5312 64.9062 49 67.4375C49.375 68.0625 50.1562 68.3125 50.8125 68.0625L54.9062 66.375C56.7187 69 59.0312 71.2812 61.6562 73.0937L59.9687 77.1875C59.6875 77.875 59.9687 78.625 60.5937 79C61.9062 79.75 63.2187 80.4062 64.5312 80.9375C65.8437 81.4687 67.25 81.9375 68.6875 82.3438C68.8125 82.375 68.9375 82.4062 69.0625 82.4062C69.625 82.4062 70.1875 82.0625 70.4062 81.5L72.0937 77.4062C75.25 77.9688 78.4687 77.9688 81.625 77.4062L83.3125 81.5C83.5937 82.1875 84.3125 82.5312 85.0312 82.3438C87.875 81.5938 90.5937 80.4687 93.125 79C93.75 78.625 94 77.8437 93.75 77.1875L92.0625 73.0937C94.6875 71.2812 96.9687 68.9688 98.7812 66.375L102.875 68.0625C103.562 68.3438 104.312 68.0625 104.687 67.4375L104.656 67.4687ZM98.75 63.2187C98.0937 62.9375 97.3437 63.2188 96.9687 63.7812C95.0625 66.8438 92.5312 69.375 89.4687 71.3125C88.875 71.6875 88.625 72.4375 88.9062 73.0937L90.5625 77.0937C88.9375 77.9375 87.25 78.6562 85.5312 79.1875L83.875 75.1875C83.5937 74.5312 82.9062 74.1875 82.1875 74.3125C78.7187 75.125 75.0312 75.125 71.5625 74.3125C70.875 74.1562 70.1562 74.5312 69.9062 75.1875L68.25 79.1875C67.375 78.9062 66.5 78.5937 65.6875 78.2812C64.875 77.9375 64.0312 77.5625 63.2187 77.125L64.875 73.125C65.1562 72.4687 64.875 71.7187 64.3125 71.3437C61.25 69.4375 58.7187 66.9062 56.7812 63.8437C56.4062 63.25 55.6562 63 55 63.2812L51 64.9375C50.1562 63.3438 49.4375 61.6562 48.9062 59.9062L52.9062 58.25C53.5625 57.9687 53.9375 57.2812 53.7812 56.5625C52.9687 53.0312 52.9687 49.4687 53.7812 45.9375C53.9375 45.25 53.5625 44.5312 52.9062 44.25L48.9062 42.5937C49.1875 41.7187 49.5 40.8437 49.8125 40.0312C50.125 39.2187 50.5312 38.375 50.9687 37.5625L54.9687 39.2187C55.625 39.5 56.375 39.2187 56.75 38.6562C58.6562 35.625 61.25 33.0312 64.25 31.125C64.8437 30.75 65.0937 30 64.8125 29.3437L63.1562 25.3437C64.75 24.5 66.4375 23.7812 68.1875 23.25L69.8437 27.25C70.125 27.9062 70.8125 28.2812 71.5312 28.125C75.0625 27.3125 78.625 27.3125 82.1562 28.125C82.8437 28.2812 83.5625 27.9062 83.8437 27.25L85.5 23.25C86.375 23.5312 87.25 23.8437 88.0625 24.1562C88.875 24.5 89.7187 24.875 90.5312 25.3125L88.875 29.3125C88.5937 29.9687 88.875 30.7187 89.4375 31.0937C92.5 33 95.0312 35.5312 96.9687 38.5937C97.3437 39.1875 98.0937 39.4375 98.75 39.1562L102.75 37.5C103.594 39.125 104.312 40.7812 104.844 42.5312L100.844 44.1875C100.187 44.4687 99.8125 45.1562 99.9687 45.875C100.781 49.3437 100.781 53.0312 99.9687 56.5C99.8125 57.1875 100.187 57.9062 100.844 58.1875L104.844 59.8437C104.562 60.7187 104.25 61.5937 103.937 62.4062C103.594 63.2187 103.219 64.0625 102.781 64.875L98.7812 63.2187H98.75Z" fill="#0073AD" fill-opacity="0.15"/>
<path d="M79.9062 38.5C76.5 37.6875 73 38.25 70.0312 40.0625C67.0625 41.875 64.9687 44.75 64.1562 48.1563C62.4687 55.1563 66.8125 62.2188 73.8125 63.9063C74.8437 64.1563 75.8437 64.2813 76.8437 64.2813C82.75 64.2813 88.125 60.25 89.5625 54.25C90.375 50.8438 89.8125 47.3438 88 44.375C86.1875 41.4063 83.3125 39.3125 79.9062 38.5ZM86.7187 53.5938C85.4062 59.0312 79.9062 62.4062 74.4687 61.0938C69.0312 59.7812 65.6562 54.2812 66.9687 48.8438C67.5937 46.2188 69.2187 43.9688 71.5312 42.5625C73.1562 41.5625 74.9687 41.0625 76.8125 41.0625C77.5937 41.0625 78.4062 41.1563 79.1875 41.3438C81.8125 41.9688 84.0625 43.5938 85.4687 45.9063C86.875 48.2188 87.3125 50.9375 86.6875 53.5938H86.7187Z" fill="#0073AD" fill-opacity="0.15"/>
</g>
<defs>
<clipPath id="clip0_8_3813">
<rect width="125" height="114.844" fill="white" transform="translate(15 20)"/>
</clipPath>
</defs>
</svg>
