<svg width="155" height="155" viewBox="0 0 155 155" fill="none" xmlns="http://www.w3.org/2000/svg">
<g clip-path="url(#clip0_111_2732)">
<path d="M114.125 34.4062C112.219 34.4062 110.312 34.625 108.438 35.0938C102.938 22.8437 90.8438 15 77.25 15C60.9688 15 46.875 26.625 43.7813 42.3125C41.5938 41.5625 39.2812 41.1562 36.9375 41.1562C25.4062 41.1562 16 50.4688 16 61.9062C16 73.3438 24.8125 82.375 35.6562 82.8438C37.5938 82.9375 44.3438 82.9375 44.6562 82.9062C45.4062 82.9062 46.0312 82.2812 46.0312 81.5312C46.0312 80.7812 45.4062 80.1562 44.6562 80.1562C44.6562 80.1562 37.6562 80.1562 35.7812 80.0938C26.5625 79.6875 18.75 71.375 18.75 61.875C18.75 52.375 26.9062 43.875 36.9688 43.875C39.5 43.875 41.9688 44.4062 44.3125 45.4062C44.7188 45.5625 45.1562 45.5625 45.5312 45.3438C45.9062 45.125 46.1562 44.7813 46.2188 44.3438C48.375 29.1875 61.75 17.7188 77.25 17.7188C90.125 17.7188 101.562 25.375 106.406 37.2188C106.656 37.875 107.375 38.2188 108.062 38C110.062 37.4062 112.125 37.125 114.156 37.125C126.062 37.125 135.781 46.7188 135.781 58.5312C135.781 70.3438 125.812 80.0625 114.031 80.1875C113.25 80.1875 109.656 80.1875 109.656 80.1875V82.9062C109.656 82.9062 113.25 82.9062 114.031 82.9062C127.281 82.7812 138.469 71.625 138.469 58.5312C138.469 45.4375 127.562 34.4062 114.125 34.4062Z" fill="#0073AD" fill-opacity="0.15"/>
<path d="M123.5 96.3438C120.125 96.3438 117.313 98.75 116.688 101.938H100.281V72.1875H107.281C108.031 72.1875 108.656 71.5625 108.656 70.8125C108.656 70.0625 108.031 69.4375 107.281 69.4375H47.1875C46.4375 69.4375 45.8125 70.0625 45.8125 70.8125C45.8125 71.5625 46.4375 72.1875 47.1875 72.1875H54.125V96.3438H33.9062C33.3438 93.0625 30.5 90.5312 27.0625 90.5312C23.2188 90.5312 20.0938 93.6562 20.0938 97.5C20.0938 101.344 23.2188 104.469 27.0625 104.469C30.3438 104.469 33.0938 102.156 33.8125 99.0938H55.4688C56.2188 99.0938 56.8438 98.4687 56.8438 97.7187V72.2187H64.875V110.094H52.8438C52.2188 106.906 49.4062 104.5 46.0312 104.5C42.1875 104.5 39.0625 107.625 39.0625 111.469C39.0625 115.313 42.1875 118.437 46.0312 118.437C49.4062 118.437 52.2188 116.031 52.8438 112.844H66.25C67 112.844 67.625 112.219 67.625 111.469V72.2187H75.9062V126.219C72.7188 126.844 70.3125 129.656 70.3125 133.031C70.3125 136.875 73.4375 140 77.2813 140C81.125 140 84.25 136.875 84.25 133.031C84.25 129.656 81.8438 126.844 78.6562 126.219V72.2187H86.875V119.75C86.875 120.5 87.5 121.125 88.25 121.125H100.031C100.656 124.312 103.469 126.719 106.844 126.719C110.688 126.719 113.812 123.594 113.812 119.75C113.812 115.906 110.688 112.781 106.844 112.781C103.469 112.781 100.656 115.188 100.031 118.375H89.5938V72.2187H97.625V103.312C97.625 104.062 98.25 104.688 99 104.688H116.75C117.375 107.875 120.187 110.281 123.562 110.281C127.406 110.281 130.531 107.156 130.531 103.312C130.531 99.4688 127.406 96.3438 123.562 96.3438H123.5ZM27.0625 101.75C24.7188 101.75 22.8438 99.8438 22.8438 97.5312C22.8438 95.2188 24.75 93.3125 27.0625 93.3125C29.375 93.3125 31.2812 95.2188 31.2812 97.5312C31.2812 99.8438 29.375 101.75 27.0625 101.75ZM46 115.688C43.6563 115.688 41.7812 113.781 41.7812 111.469C41.7812 109.156 43.6875 107.25 46 107.25C48.3125 107.25 50.2187 109.156 50.2187 111.469C50.2187 113.781 48.3125 115.688 46 115.688ZM81.4688 133.031C81.4688 135.375 79.5625 137.25 77.25 137.25C74.9375 137.25 73.0312 135.344 73.0312 133.031C73.0312 130.719 74.9375 128.812 77.25 128.812C79.5625 128.812 81.4688 130.719 81.4688 133.031ZM106.781 115.5C109.125 115.5 111 117.406 111 119.719C111 122.031 109.094 123.938 106.781 123.938C104.469 123.938 102.563 122.031 102.563 119.719C102.563 117.406 104.469 115.5 106.781 115.5ZM123.5 107.531C121.156 107.531 119.281 105.625 119.281 103.312C119.281 101 121.188 99.0938 123.5 99.0938C125.812 99.0938 127.719 101 127.719 103.312C127.719 105.625 125.812 107.531 123.5 107.531Z" fill="#0073AD" fill-opacity="0.15"/>
</g>
<defs>
<clipPath id="clip0_111_2732">
<rect width="122.469" height="125" fill="white" transform="translate(16 15)"/>
</clipPath>
</defs>
</svg>
