<svg width="91" height="91" viewBox="0 0 91 91" fill="none" xmlns="http://www.w3.org/2000/svg">
<g clip-path="url(#clip0_11_4022)">
<path d="M67.3457 71.8993H67.0069V71.7096H67.9195V71.8993H67.5826V72.8455H67.3457V71.8993ZM69.1661 71.9487H69.1608L68.8247 72.8459H68.671L68.3373 71.9487H68.3333V72.8459H68.1099V71.7099H68.4386L68.748 72.5143L69.0565 71.7099H69.3841V72.8459H69.166L69.1661 71.9487Z" fill="#1C273B"/>
<path d="M36.9968 48.671C36.9968 48.671 34.6381 50.0427 38.6754 50.5068C43.5666 51.0648 46.0664 50.9848 51.4565 49.9646C51.4565 49.9646 52.8736 50.8532 54.8527 51.6228C42.7695 56.8014 27.5061 51.3229 36.9968 48.671ZM35.5203 41.9132C35.5203 41.9132 32.8748 43.8715 36.9151 44.2894C42.14 44.8284 46.2662 44.8725 53.4061 43.4977C53.4061 43.4977 54.3938 44.4989 55.9467 45.0464C41.3373 49.3183 25.0652 45.3833 35.5203 41.9132Z" fill="#1C273B"/>
<path d="M47.9676 30.4498C50.9449 33.8776 47.1855 36.9624 47.1855 36.9624C47.1855 36.9624 54.745 33.0598 51.2733 28.1728C48.0307 23.6152 45.544 21.351 59.0058 13.5436C59.006 13.5434 37.8752 18.8209 47.9676 30.4498Z" fill="#1C273B"/>
<path d="M63.9486 53.6695C63.9486 53.6695 65.6941 55.1079 62.0262 56.2203C55.0517 58.3332 32.9974 58.9712 26.8708 56.3047C24.6684 55.3464 28.7985 54.0168 30.0976 53.7378C31.4525 53.444 32.2268 53.4988 32.2268 53.4988C29.7775 51.7734 16.3959 56.8865 25.4296 58.351C50.0657 62.3463 70.339 56.5519 63.9486 53.6695ZM38.1311 34.9114C38.1311 34.9114 26.9129 37.5759 34.1584 38.5435C37.2177 38.9531 43.3164 38.8604 48.9969 38.3844C53.6395 37.9928 58.3014 37.1603 58.3014 37.1603C58.3014 37.1603 56.6644 37.8614 55.48 38.6699C44.0881 41.6662 22.0811 40.2722 28.4167 37.2076C33.7746 34.6176 38.1311 34.9114 38.1311 34.9114ZM58.2552 46.16C69.8356 40.1424 64.4814 34.3594 60.744 35.1386C59.828 35.3293 59.4196 35.4945 59.4196 35.4945C59.4196 35.4945 59.7598 34.9618 60.409 34.7312C67.8024 32.1319 73.4885 42.3975 58.0223 46.4635C58.0223 46.4635 58.2018 46.3034 58.2552 46.16Z" fill="#1C273B"/>
<path d="M51.2733 0.936523C51.2733 0.936523 57.6867 7.35192 45.1905 17.2174C35.1698 25.1309 42.9054 29.6431 45.1863 34.7986C39.3372 29.521 35.0447 24.8754 37.9245 20.5515C42.1511 14.2045 53.861 11.1273 51.2733 0.936523Z" fill="#1C273B"/>
<path d="M39.269 62.4664C50.3847 63.178 67.4542 62.0716 67.8583 56.8121C67.8583 56.8121 67.0814 58.8059 58.6718 60.3895C49.1844 62.1748 37.4827 61.9665 30.5425 60.8222C30.5428 60.8219 31.9634 61.9979 39.269 62.4664Z" fill="#1C273B"/>
<path d="M37.4473 82.5639C36.3987 83.4735 35.2912 83.984 34.2973 83.984C32.8787 83.984 32.1123 83.1334 32.1123 81.769C32.1123 80.2932 32.9336 79.2142 36.228 79.2142H37.4471L37.4473 82.5639ZM40.3407 85.8285V75.7231C40.3407 73.1415 38.8684 71.4382 35.3185 71.4382C33.2461 71.4382 31.4307 71.95 29.9552 72.6026L30.3811 74.3914C31.5428 73.965 33.0466 73.568 34.5226 73.568C36.5676 73.568 37.4473 74.3914 37.4473 76.0936V77.371H36.4267C31.4581 77.371 29.2169 79.2997 29.2169 82.1944C29.2169 84.6929 30.6939 86.113 33.4748 86.113C35.2624 86.113 36.5969 85.3749 37.8443 84.2948L38.0707 85.8289L40.3407 85.8285ZM49.9971 85.8285H46.3885L42.0453 71.6941H45.197L47.8918 80.3782L48.4908 82.99C49.8542 79.2138 50.8186 75.3828 51.3009 71.6941H54.3666C53.545 76.3484 52.067 81.4571 49.9971 85.8285ZM63.8411 82.5639C62.7905 83.4735 61.6812 83.984 60.6871 83.984C59.271 83.984 58.5026 83.1334 58.5026 81.769C58.5026 80.2932 59.3256 79.2142 62.6198 79.2142H63.8411V82.5639ZM66.7342 85.8285V75.7231C66.7342 73.1415 65.2584 71.4382 61.7123 71.4382C59.6385 71.4382 57.8225 71.95 56.3476 72.6026L56.773 74.3914C57.9351 73.965 59.4417 73.568 60.9165 73.568C62.96 73.568 63.8411 74.3914 63.8411 76.0936V77.371H62.8186C57.8488 77.371 55.6083 79.2997 55.6083 82.1944C55.6083 84.6929 57.0841 86.113 59.8646 86.113C61.6534 86.113 62.9873 85.3749 64.2367 84.2948L64.464 85.8289L66.7342 85.8285ZM26.0443 88.2287C25.2194 89.433 23.8872 90.3858 22.4286 90.9248L21.0001 89.2437C22.1102 88.6741 23.0623 87.7541 23.5047 86.8973C23.8873 86.1352 24.0457 85.1529 24.0457 82.804V66.6674H27.1198V82.5829C27.1197 85.7231 26.8686 86.9916 26.0443 88.2287Z" fill="#1C273B"/>
</g>
<defs>
<clipPath id="clip0_11_4022">
<rect width="48.384" height="90" fill="white" transform="translate(21.0001 0.930664)"/>
</clipPath>
</defs>
</svg>
