<svg width="91" height="90" viewBox="0 0 91 90" fill="none" xmlns="http://www.w3.org/2000/svg">
<g clip-path="url(#clip0_11_4025)">
<path d="M14.2148 79.0269L7.99994 3.07263L82.2219 3.22527L75.6503 79.0269L45.3911 87.7887L14.2148 79.0269Z" fill="#1C273B"/>
<path d="M45.3911 80.4532V10.3063L75.9561 10.408L70.5056 73.1681L45.3911 80.4532Z" fill="#1C273B"/>
<path d="M42.1181 18.6354H34.0375V65.3234L27.7526 64.1263V57.8414L20.2705 56.6442V70.7105L42.1181 76.3969V18.6354ZM48.1798 18.6354H70.5499L69.0535 27.5839H56.7195V42.2685H69.0535L67.5571 71.9076L48.1798 76.3969V67.1191L61.2722 62.6299L62.0282 50.3593L48.1798 52.3645V18.6354Z" fill="white"/>
</g>
<defs>
<clipPath id="clip0_11_4025">
<rect width="74.222" height="85" fill="white" transform="translate(7.99994 2.93066)"/>
</clipPath>
</defs>
</svg>
