<svg width="242" height="242" viewBox="0 0 242 242" fill="none" xmlns="http://www.w3.org/2000/svg">
<g filter="url(#filter0_d_11_4657)">
<path d="M116.999 222.997C175.54 222.997 222.997 175.54 222.997 116.999C222.997 58.4572 175.54 11 116.999 11C58.4572 11 11 58.4572 11 116.999C11 175.54 58.4572 222.997 116.999 222.997Z" fill="#1EBBE6"/>
</g>
<path d="M177.375 102.596C176.871 102.353 176.27 102.421 175.832 102.772L154.92 118.312V103.907C154.92 103.103 154.275 102.449 153.47 102.446C153.134 102.446 152.808 102.559 152.548 102.772L131.636 118.312V103.907C131.628 103.103 130.971 102.457 130.167 102.466C129.858 102.469 129.555 102.571 129.309 102.757L105.444 119.915H99.3458L97.8028 95.1783C97.8113 95.1047 97.8113 95.0339 97.8028 94.9603C97.7971 94.8555 97.7716 94.7508 97.7291 94.6545C97.6952 94.5979 97.6555 94.5441 97.6131 94.4931C97.548 94.3827 97.4715 94.278 97.3809 94.1874H97.3073C97.1884 94.0854 97.0497 94.0062 96.8996 93.9552H96.7977C96.6674 93.941 96.5344 93.941 96.4041 93.9552H87.7009C86.9308 93.9552 86.291 94.5526 86.2457 95.3227L84.7904 120.059H76.4241L74.8811 89.0798C74.8868 88.992 74.8868 88.9043 74.8811 88.8165C74.8952 88.7287 74.8952 88.641 74.8811 88.5532C74.8358 88.4456 74.7707 88.3465 74.6914 88.2616C74.6574 88.205 74.6178 88.1512 74.5753 88.1002C74.4592 87.9926 74.3262 87.9048 74.1818 87.8369C74.0487 87.7973 73.9128 87.7718 73.7741 87.7633H61.5516C61.4695 87.7576 61.3874 87.7576 61.3053 87.7633H61.042C60.9174 87.8142 60.7985 87.8822 60.6938 87.9671L60.5777 88.0407C60.4814 88.1427 60.3993 88.2559 60.3314 88.3748C60.2974 88.4145 60.2691 88.4598 60.2436 88.5051C60.1983 88.6126 60.17 88.7259 60.1558 88.8391C60.1473 88.9071 60.1473 88.975 60.1558 89.043L55.7901 176.426C55.7674 176.823 55.909 177.213 56.1836 177.502C56.4611 177.794 56.8461 177.955 57.2453 177.952H176.743C177.547 177.952 178.198 177.301 178.198 176.497V103.898C178.198 103.338 177.876 102.828 177.369 102.588L177.375 102.596ZM89.0033 96.7751H94.9998L96.4551 119.94H87.5933L89.0061 96.7751H89.0033ZM62.9418 90.6653H72.0668L73.5221 119.943H69.0686C68.2645 119.943 67.6133 120.594 67.6133 121.398V175.079H58.7657L62.9418 90.6653ZM85.0735 175.079V154.838H108.355V175.064L85.0735 175.079ZM175.294 175.079H111.268V153.383C111.268 152.579 110.617 151.928 109.813 151.928H83.6211C82.817 151.928 82.1659 152.579 82.1659 153.383V175.064H70.5238V122.825H105.928C106.246 122.828 106.554 122.721 106.8 122.52L128.728 106.817V121.37C128.723 121.427 128.723 121.486 128.728 121.546C128.723 121.648 128.723 121.749 128.728 121.851C128.765 121.942 128.81 122.03 128.859 122.115C128.859 122.115 128.859 122.231 128.946 122.276C129.048 122.389 129.167 122.486 129.295 122.568C129.295 122.568 129.382 122.568 129.439 122.655C129.668 122.774 129.923 122.834 130.181 122.831C130.359 122.831 130.537 122.794 130.705 122.729L130.88 122.627L131.098 122.511L152.01 106.956V121.333C152.001 121.396 152.001 121.461 152.01 121.523C152.001 121.619 152.001 121.718 152.01 121.815C152.044 121.905 152.089 121.993 152.14 122.078C152.162 122.14 152.194 122.197 152.228 122.253C152.327 122.367 152.446 122.46 152.576 122.531C152.621 122.562 152.666 122.596 152.706 122.633C152.896 122.715 153.097 122.757 153.303 122.763C153.482 122.757 153.66 122.723 153.827 122.661L154.003 122.559C154.079 122.525 154.153 122.488 154.221 122.443L175.291 106.931V175.09L175.294 175.079Z" fill="white"/>
<path d="M83.6183 131.554H89.4676C90.2717 131.554 90.9229 132.205 90.9229 133.009C90.9229 133.813 90.2717 134.464 89.4676 134.464H83.6183C82.8142 134.464 82.163 133.813 82.163 133.009C82.163 132.205 82.8142 131.554 83.6183 131.554Z" fill="white"/>
<path d="M98.1991 131.554H103.992C104.796 131.554 105.447 132.205 105.447 133.009C105.447 133.813 104.796 134.464 103.992 134.464H98.1991C97.3951 134.464 96.7439 133.813 96.7439 133.009C96.7439 132.205 97.3951 131.554 98.1991 131.554Z" fill="white"/>
<path d="M112.723 131.554H118.544C119.348 131.554 120 132.205 120 133.009C120 133.813 119.348 134.464 118.544 134.464H112.723C111.919 134.464 111.268 133.813 111.268 133.009C111.268 132.205 111.919 131.554 112.723 131.554Z" fill="white"/>
<path d="M127.273 131.554H133.094C133.898 131.554 134.549 132.205 134.549 133.009C134.549 133.813 133.898 134.464 133.094 134.464H127.273C126.469 134.464 125.818 133.813 125.818 133.009C125.818 132.205 126.469 131.554 127.273 131.554Z" fill="white"/>
<path d="M141.826 131.554H147.647C148.451 131.554 149.102 132.205 149.102 133.009C149.102 133.813 148.451 134.464 147.647 134.464H141.826C141.022 134.464 140.37 133.813 140.37 133.009C140.37 132.205 141.022 131.554 141.826 131.554Z" fill="white"/>
<path d="M83.6183 140.314H89.4676C90.2717 140.314 90.9229 140.965 90.9229 141.769C90.9229 142.573 90.2717 143.224 89.4676 143.224H83.6183C82.8142 143.224 82.163 142.573 82.163 141.769C82.163 140.965 82.8142 140.314 83.6183 140.314Z" fill="white"/>
<path d="M98.1991 140.314H103.992C104.796 140.314 105.447 140.965 105.447 141.769C105.447 142.573 104.796 143.224 103.992 143.224H98.1991C97.3951 143.224 96.7439 142.573 96.7439 141.769C96.7439 140.965 97.3951 140.314 98.1991 140.314Z" fill="white"/>
<path d="M112.723 140.314H118.544C119.348 140.314 120 140.965 120 141.769C120 142.573 119.348 143.224 118.544 143.224H112.723C111.919 143.224 111.268 142.573 111.268 141.769C111.268 140.965 111.919 140.314 112.723 140.314Z" fill="white"/>
<path d="M127.273 140.314H133.094C133.898 140.314 134.549 140.965 134.549 141.769C134.549 142.573 133.898 143.224 133.094 143.224H127.273C126.469 143.224 125.818 142.573 125.818 141.769C125.818 140.965 126.469 140.314 127.273 140.314Z" fill="white"/>
<path d="M141.826 140.314H147.647C148.451 140.314 149.102 140.965 149.102 141.769C149.102 142.573 148.451 143.224 147.647 143.224H141.826C141.022 143.224 140.37 142.573 140.37 141.769C140.37 140.965 141.022 140.314 141.826 140.314Z" fill="white"/>
<path d="M156.378 131.554H162.199C163.003 131.554 163.654 132.205 163.654 133.009C163.654 133.813 163.003 134.464 162.199 134.464H156.378C155.574 134.464 154.923 133.813 154.923 133.009C154.923 132.205 155.574 131.554 156.378 131.554Z" fill="white"/>
<path d="M156.378 140.314H162.199C163.003 140.314 163.654 140.965 163.654 141.769C163.654 142.573 163.003 143.224 162.199 143.224H156.378C155.574 143.224 154.923 142.573 154.923 141.769C154.923 140.965 155.574 140.314 156.378 140.314Z" fill="white"/>
<path d="M66.0108 84.9887C66.1496 85.0113 66.294 85.0113 66.4327 84.9887C67.0131 84.8131 67.4236 84.2979 67.4661 83.6948C67.7719 79.329 70.5068 77.8738 73.4173 76.4185C75.8465 75.153 78.6127 73.7119 79.2384 70.3937C80.3454 63.7289 71.0759 57.0642 70.0114 56.3366C69.4904 55.9402 68.7713 55.9402 68.2503 56.3366C67.7492 56.7556 67.5878 57.4578 67.8568 58.0523C69.3998 61.8886 68.3296 66.2827 65.1926 68.9809C59.3716 73.944 62.4265 81.2175 64.8585 84.363C65.1218 84.7424 65.5465 84.9745 66.008 84.9887H66.0108ZM67.0754 71.2657C70.0652 68.8053 71.6903 65.0596 71.4411 61.195C74.0176 63.5959 76.7667 67.016 76.2882 69.7963C75.9966 71.5856 74.4989 72.4605 72.0697 73.726C69.6405 74.9916 66.9197 76.4327 65.4786 79.547C64.5329 77.1886 64.0658 73.8279 67.0782 71.2685L67.0754 71.2657Z" fill="white"/>
<defs>
<filter id="filter0_d_11_4657" x="0" y="0" width="241.997" height="241.997" filterUnits="userSpaceOnUse" color-interpolation-filters="sRGB">
<feFlood flood-opacity="0" result="BackgroundImageFix"/>
<feColorMatrix in="SourceAlpha" type="matrix" values="0 0 0 0 0 0 0 0 0 0 0 0 0 0 0 0 0 0 127 0" result="hardAlpha"/>
<feOffset dx="4" dy="4"/>
<feGaussianBlur stdDeviation="7.5"/>
<feComposite in2="hardAlpha" operator="out"/>
<feColorMatrix type="matrix" values="0 0 0 0 0 0 0 0 0 0 0 0 0 0 0 0 0 0 0.15 0"/>
<feBlend mode="normal" in2="BackgroundImageFix" result="effect1_dropShadow_11_4657"/>
<feBlend mode="normal" in="SourceGraphic" in2="effect1_dropShadow_11_4657" result="shape"/>
</filter>
</defs>
</svg>
