<svg width="1512" height="359" viewBox="0 0 1512 359" fill="none" xmlns="http://www.w3.org/2000/svg">
<path d="M1512 0H0V359H1512V0Z" fill="url(#paint0_linear_222_605)"/>
<rect width="1512" height="236" transform="translate(0 122)" fill="#1C273B" fill-opacity="0.6"/>
<mask id="mask0_222_605" style="mask-type:alpha" maskUnits="userSpaceOnUse" x="0" y="0" width="1512" height="359">
<path d="M1512 0H0V359H1512V0Z" fill="url(#paint1_linear_222_605)"/>
</mask>
<g mask="url(#mask0_222_605)">
<mask id="mask1_222_605" style="mask-type:luminance" maskUnits="userSpaceOnUse" x="-1" y="197" width="1513" height="198">
<path d="M1512 197.099H-0.000244141V394.934H1512V197.099Z" fill="white"/>
</mask>
<g mask="url(#mask1_222_605)">
<path d="M1548.89 320.983L1500.78 304.939L1484.92 307.581L1429.01 285.681L1414.51 287.288L1355.9 270.407L1330.52 254.744L1289.29 244.929L1218.56 272.296L1194.64 268.709L1116.92 300.599L1089.68 297.907L992.922 333.714L960.985 335.155L884.962 378.864L1083.45 384.05H1161.46L1254.38 376.554L1365.65 372.379L1427.55 348.723L1499.2 339.943L1548.89 320.983Z" fill="#E5E6E6"/>
<mask id="mask2_222_605" style="mask-type:luminance" maskUnits="userSpaceOnUse" x="884" y="244" width="665" height="141">
<path d="M1548.89 320.983L1500.78 304.939L1484.92 307.581L1429.01 285.681L1414.51 287.288L1355.9 270.407L1330.52 254.744L1289.29 244.929L1218.56 272.296L1194.64 268.709L1116.92 300.599L1089.68 297.907L992.922 333.714L960.985 335.155L884.962 378.864L1083.45 384.05H1161.46L1254.38 376.554L1365.65 372.379L1427.55 348.723L1499.2 339.943L1548.89 320.983Z" fill="white"/>
</mask>
<g mask="url(#mask2_222_605)">
<path d="M1415.27 328.852L1397.03 322.913L1371.73 312.261L1293.53 322.342L1351.21 306.861L1333.76 289.872L1288.95 293.094L1343.81 278.931L1320.02 260.625L1291.99 267.227L1317.9 257.229L1269.87 236.431L962.851 332.944L814.664 381.73L1022.56 417.289L1264.35 425.862L1286.87 385.002L1419.32 362.075L1426.37 348.665L1456.51 336.497L1415.27 328.852Z" fill="url(#paint2_linear_222_605)"/>
</g>
<path d="M1455.31 382.062L1606 339.04L1599.65 335.081L1548.1 345.55L1589.34 330.832L1561.58 316.394C1559.2 316.394 1399.79 378.666 1399.79 378.666" fill="#E5E6E6"/>
<path d="M1116.92 300.599L1149.17 316.171L1089.68 297.907L1116.92 300.599Z" fill="#E4E5E5"/>
<path d="M1194.64 268.709L1220.54 288.05L1218.56 272.296L1194.64 268.709Z" fill="#E4E5E5"/>
<path d="M1500.78 304.939L1484.92 307.581L1464.82 323.336L1500.78 304.939Z" fill="#F5F6F6"/>
<path d="M1429.01 285.681L1408.31 285.797L1365.65 299.58L1429.01 285.681Z" fill="#F5F6F6"/>
<path d="M1559.37 315.649L1527.65 319.898C1527.65 319.898 1475.18 320.287 1472.8 320.287C1470.42 320.287 1348.8 335.893 1348.8 335.893L1277.03 344.805L1187.06 341.376L1082.64 359.317L991.522 341.732L964.376 346.197L884.699 322.275L809.182 309.793L746.416 324.918L714.217 324.131L614.927 340.796L523.704 327.245L479.54 313.065L464.981 315.401L413.655 296.043L400.34 297.468L346.554 282.542L323.258 268.693L285.402 260.021L220.488 284.207L198.523 281.035L127.176 309.23L102.178 306.853L-9.85364 340.622L-11.0005 394.072H526.736L1556.6 394.478C1556.6 394.478 1555.01 315.649 1559.38 315.649H1559.37Z" fill="url(#paint3_linear_222_605)"/>
<path d="M479.521 313.081L464.962 315.417L446.515 329.349L479.521 313.081Z" fill="#F5F6F6"/>
<path d="M413.636 296.06L394.645 296.159L355.477 308.344L413.636 296.06Z" fill="#F5F6F6"/>
<path opacity="0.47" d="M406.123 335.503L280.513 350.007L389.386 330.243L366.158 320.826L294.373 329.747L347.322 316.055L331.305 301.046L249.597 313.984L340.529 291.372L318.69 275.187L292.963 281.026L316.746 272.18L284.702 260.112L220.683 284.182L198.202 281.059L128.089 308.94L101.789 307.167L-9.47461 340.349L-2.39913 394.122H107.339L181.651 394.933L290.252 393.708L610.884 394.892L496.568 354.09L392.545 361.023L457.702 351.638L406.123 335.503Z" fill="url(#paint4_linear_222_605)"/>
<path d="M127.156 309.246L156.76 323.004L102.159 306.869L127.156 309.246Z" fill="#CFD1D2"/>
<path d="M198.504 281.051L222.286 298.155L220.469 284.223L198.504 281.051Z" fill="#CFD1D2"/>
<path d="M864.805 385.267L911.33 371.874L875.35 361.669L766.312 366.564L859.081 358L846.737 340.44L793.836 346.776L837.3 335.967L810.077 310.025L747.311 325.15L715.102 324.363L550.354 350.537" fill="url(#paint5_linear_222_605)"/>
</g>
</g>
<g clip-path="url(#clip0_222_605)">
<path d="M1456.62 287.372H1227.74V303.375H1456.62V287.372Z" fill="#A6A7AA"/>
<path d="M1259.79 271.369L1273.52 257.337L1287.26 271.369" stroke="#A6A7AA" stroke-width="1.55" stroke-miterlimit="10"/>
<path d="M1287.26 271.369L1300.99 257.337L1314.72 271.369" stroke="#A6A7AA" stroke-width="1.55" stroke-miterlimit="10"/>
<path d="M1314.72 271.369L1328.45 257.337L1342.18 271.369" stroke="#A6A7AA" stroke-width="1.55" stroke-miterlimit="10"/>
<path d="M1342.18 271.369L1355.91 257.337L1369.64 271.369" stroke="#A6A7AA" stroke-width="1.55" stroke-miterlimit="10"/>
<path d="M1369.64 271.369L1383.37 257.337L1397.1 271.369" stroke="#A6A7AA" stroke-width="1.55" stroke-miterlimit="10"/>
<path d="M1397.1 271.369L1410.84 257.337L1424.57 271.369" stroke="#A6A7AA" stroke-width="1.55" stroke-miterlimit="10"/>
<path d="M1259.79 271.369V257.337" stroke="#A6A7AA" stroke-width="1.55" stroke-miterlimit="10"/>
<path d="M1424.57 271.369V257.337" stroke="#A6A7AA" stroke-width="1.55" stroke-miterlimit="10"/>
<path d="M1238.9 303.375H1235.52V351.843H1238.9V303.375Z" fill="url(#paint6_linear_222_605)"/>
<path d="M1255.12 303.375H1251.74V351.843H1255.12V303.375Z" fill="url(#paint7_linear_222_605)"/>
<path d="M1271.34 303.375H1267.96V351.843H1271.34V303.375Z" fill="url(#paint8_linear_222_605)"/>
<path d="M1287.56 303.375H1284.18V351.843H1287.56V303.375Z" fill="url(#paint9_linear_222_605)"/>
<path d="M1303.78 303.375H1300.4V351.843H1303.78V303.375Z" fill="url(#paint10_linear_222_605)"/>
<path d="M1320 303.375H1316.62V351.843H1320V303.375Z" fill="url(#paint11_linear_222_605)"/>
<path d="M1336.22 303.375H1332.84V351.843H1336.22V303.375Z" fill="url(#paint12_linear_222_605)"/>
<path d="M1352.43 303.375H1349.05V351.843H1352.43V303.375Z" fill="url(#paint13_linear_222_605)"/>
<path d="M1368.65 303.375H1365.27V351.843H1368.65V303.375Z" fill="url(#paint14_linear_222_605)"/>
<path d="M1384.87 303.375H1381.49V351.843H1384.87V303.375Z" fill="url(#paint15_linear_222_605)"/>
<path d="M1401.09 303.375H1397.71V351.843H1401.09V303.375Z" fill="url(#paint16_linear_222_605)"/>
<path d="M1417.31 303.375H1413.93V351.843H1417.31V303.375Z" fill="url(#paint17_linear_222_605)"/>
<path d="M1433.53 303.375H1430.15V351.843H1433.53V303.375Z" fill="url(#paint18_linear_222_605)"/>
<path d="M1449.75 303.375H1446.37V351.843H1449.75V303.375Z" fill="url(#paint19_linear_222_605)"/>
<path d="M1251.31 254.172H1433.05" stroke="#A6A7AA" stroke-width="7.76" stroke-miterlimit="10"/>
<path d="M1433.05 271.369H1251.31V287.372H1433.05V271.369Z" fill="#808083"/>
<path opacity="0.8" d="M1441.85 177.374C1456.79 177.374 1468.91 163.292 1468.91 145.92C1468.91 128.549 1456.79 114.466 1441.85 114.466C1426.9 114.466 1414.79 128.549 1414.79 145.92C1414.79 163.292 1426.9 177.374 1441.85 177.374Z" fill="url(#paint20_radial_222_605)"/>
<path d="M1441.85 157.133C1443.28 157.133 1444.44 152.529 1444.44 146.85C1444.44 141.17 1443.28 136.566 1441.85 136.566C1440.42 136.566 1439.26 141.17 1439.26 146.85C1439.26 152.529 1440.42 157.133 1441.85 157.133Z" fill="#1DCCFD"/>
<path d="M1443.54 154.631H1440.16V287.648H1443.54V154.631Z" fill="#808083"/>
<path d="M1419.3 248.974C1420.73 248.974 1421.89 247.606 1421.89 245.92C1421.89 244.234 1420.73 242.867 1419.3 242.867C1417.87 242.867 1416.71 244.234 1416.71 245.92C1416.71 247.606 1417.87 248.974 1419.3 248.974Z" fill="#1DCCFD"/>
<path d="M1421.74 246.931H1416.87V250.23H1421.74V246.931Z" fill="#808083"/>
<path d="M1388.38 248.974C1389.81 248.974 1390.97 247.606 1390.97 245.92C1390.97 244.234 1389.81 242.867 1388.38 242.867C1386.95 242.867 1385.79 244.234 1385.79 245.92C1385.79 247.606 1386.95 248.974 1388.38 248.974Z" fill="#1DCCFD"/>
<path d="M1390.81 246.931H1385.94V250.23H1390.81V246.931Z" fill="#808083"/>
<path d="M1357.45 248.974C1358.88 248.974 1360.04 247.606 1360.04 245.92C1360.04 244.234 1358.88 242.867 1357.45 242.867C1356.02 242.867 1354.86 244.234 1354.86 245.92C1354.86 247.606 1356.02 248.974 1357.45 248.974Z" fill="#1DCCFD"/>
<path d="M1359.89 246.931H1355.02V250.23H1359.89V246.931Z" fill="#808083"/>
<path d="M1326.53 248.974C1327.96 248.974 1329.12 247.606 1329.12 245.92C1329.12 244.234 1327.96 242.867 1326.53 242.867C1325.1 242.867 1323.94 244.234 1323.94 245.92C1323.94 247.606 1325.1 248.974 1326.53 248.974Z" fill="#1DCCFD"/>
<path d="M1328.96 246.931H1324.09V250.23H1328.96V246.931Z" fill="#808083"/>
<path d="M1295.6 248.974C1297.03 248.974 1298.19 247.606 1298.19 245.92C1298.19 244.234 1297.03 242.867 1295.6 242.867C1294.17 242.867 1293.01 244.234 1293.01 245.92C1293.01 247.606 1294.17 248.974 1295.6 248.974Z" fill="#1DCCFD"/>
<path d="M1298.04 246.931H1293.17V250.23H1298.04V246.931Z" fill="#808083"/>
<path d="M1264.68 248.974C1266.11 248.974 1267.27 247.606 1267.27 245.92C1267.27 244.234 1266.11 242.867 1264.68 242.867C1263.25 242.867 1262.09 244.234 1262.09 245.92C1262.09 247.606 1263.25 248.974 1264.68 248.974Z" fill="#1DCCFD"/>
<path d="M1267.11 246.931H1262.24V250.23H1267.11V246.931Z" fill="#808083"/>
</g>
<path d="M298.371 196.153L261.374 189.396L247.823 190.592L245.024 206.583C244.767 208.09 245.739 209.525 247.214 209.788L248.866 210.087C251.513 210.566 253.398 213.006 253.234 215.756L252.356 230.767C252.239 232.704 253.562 234.415 255.436 234.75L288.557 240.802C290.419 241.149 292.246 240 292.796 238.146L297.059 223.758C297.844 221.127 300.432 219.5 303.079 219.99L304.731 220.289C306.206 220.553 307.612 219.56 307.869 218.053L310.668 202.062L298.359 196.153H298.371Z" fill="#CFD1D2"/>
<path d="M296.556 217.204L255.916 209.788L254.487 230.695C254.417 231.76 255.143 232.704 256.162 232.896L288.475 238.792C289.505 238.984 290.501 238.35 290.794 237.321L296.556 217.204Z" fill="#231F20"/>
<path d="M286.765 234.845L258.457 229.678C257.649 229.535 257.111 228.769 257.216 227.944L258.891 215.589L291.121 221.474L288.51 233.661C288.334 234.475 287.561 235.001 286.765 234.857V234.845Z" fill="#808083"/>
<path d="M264.009 216.486L262.018 227.848" stroke="black" stroke-width="0.94" stroke-miterlimit="10"/>
<path d="M285.922 220.481L283.931 231.855" stroke="black" stroke-width="0.94" stroke-miterlimit="10"/>
<path d="M277.892 221.258L271.609 220.112C269.501 219.727 267.487 221.16 267.109 223.313L267.064 223.572C266.687 225.724 268.089 227.78 270.197 228.165L276.48 229.311C278.588 229.696 280.602 228.263 280.98 226.11L281.025 225.851C281.403 223.699 280 221.643 277.892 221.258Z" fill="#565656"/>
<mask id="mask3_222_605" style="mask-type:luminance" maskUnits="userSpaceOnUse" x="267" y="220" width="15" height="10">
<path d="M277.892 221.258L271.609 220.112C269.501 219.727 267.487 221.16 267.109 223.313L267.064 223.572C266.687 225.724 268.089 227.78 270.197 228.165L276.48 229.311C278.588 229.696 280.602 228.263 280.98 226.11L281.025 225.851C281.403 223.699 280 221.643 277.892 221.258Z" fill="white"/>
</mask>
<g mask="url(#mask3_222_605)">
<path d="M274.011 229.655C276.546 229.655 278.602 227.555 278.602 224.966C278.602 222.377 276.546 220.278 274.011 220.278C271.475 220.278 269.42 222.377 269.42 224.966C269.42 227.555 271.475 229.655 274.011 229.655Z" fill="black"/>
<path d="M275.287 225.552C276.135 225.552 276.822 224.851 276.822 223.985C276.822 223.12 276.135 222.418 275.287 222.418C274.44 222.418 273.753 223.12 273.753 223.985C273.753 224.851 274.44 225.552 275.287 225.552Z" fill="#BABCBE"/>
</g>
<path d="M367.142 260.118L363.535 259.46C361.954 259.173 360.9 257.63 361.181 256.015L368.196 215.948L372.084 216.654L372.026 216.677L364.975 256.924C364.718 258.419 365.678 259.843 367.142 260.106V260.118Z" fill="#BABCBE"/>
<path d="M356.777 213.867L310.106 205.351L308.443 214.847L355.231 223.387C361.462 224.524 365.936 228.674 364.823 235.037L368.161 215.948C368.161 215.948 356.59 213.604 356.766 213.867H356.777Z" fill="#A6A7AA"/>
<path d="M377.823 220.397L371.136 258.575C370.925 259.795 369.789 260.596 368.595 260.381L366.44 259.986C365.362 259.795 364.648 258.742 364.847 257.654L372.014 216.689L372.073 216.665L375.727 217.335C377.132 217.598 378.069 218.962 377.823 220.409V220.397Z" fill="#A6A7AA"/>
<path d="M366.146 203.535L371.149 204.448C373.893 204.95 375.732 207.63 375.239 210.444L360.286 207.713C360.777 204.911 363.402 203.033 366.157 203.537L366.146 203.535Z" fill="#808083"/>
<path d="M324.664 201.225L360.209 207.719L357.691 204.466C356.754 203.258 355.419 202.444 353.931 202.169L311.722 194.467L318.691 198.892C320.518 200.052 322.544 200.842 324.664 201.236V201.225Z" fill="#CFD1D2"/>
<path d="M410.756 216.941L375.211 210.446L378.678 208.293C379.966 207.492 381.501 207.205 382.976 207.468L425.185 215.17L417.151 216.857C415.043 217.299 412.865 217.323 410.756 216.941Z" fill="#CFD1D2"/>
<path d="M355.126 223.495L355.911 219.01" stroke="#808083" stroke-width="0.94" stroke-miterlimit="10"/>
<path d="M364.167 238.78C365.28 232.417 360.794 228.267 354.575 227.131L317.496 220.361L308.209 216.199L308.443 214.859L355.231 223.399C361.462 224.535 365.936 228.686 364.823 235.049L364.167 238.78Z" fill="#0073AC"/>
<path d="M175.211 225.074L178.818 225.731C180.399 226.019 181.91 224.942 182.191 223.339L189.206 183.272L185.318 182.566L185.365 182.614L178.314 222.861C178.057 224.356 176.663 225.349 175.199 225.074H175.211Z" fill="#BABCBE"/>
<path d="M200.59 185.353L247.261 193.869L245.598 203.365L198.81 194.826C192.579 193.689 186.969 195.998 185.857 202.361L189.195 183.272C189.195 183.272 200.848 185.174 200.59 185.353Z" fill="#A6A7AA"/>
<path d="M178.654 184.097L171.99 222.143C171.768 223.399 172.587 224.595 173.817 224.822L175.843 225.193C176.944 225.397 178.01 224.643 178.209 223.507L185.365 182.602L185.318 182.554L181.734 181.896C180.294 181.633 178.912 182.614 178.654 184.085V184.097Z" fill="#A6A7AA"/>
<path d="M199.497 178.406L184.544 175.675C185.034 172.872 187.659 170.995 190.415 171.498L195.418 172.412C198.162 172.913 200.001 175.594 199.508 178.408L199.497 178.406Z" fill="#808083"/>
<path d="M235.011 184.851L199.466 178.356L202.932 176.203C204.221 175.402 205.755 175.115 207.23 175.378L249.439 183.08L241.405 184.767C239.297 185.209 237.119 185.233 235.011 184.851Z" fill="#CFD1D2"/>
<path d="M148.941 169.135L184.486 175.629L181.968 172.376C181.031 171.168 179.696 170.355 178.209 170.079L136 162.377L142.968 166.802C144.795 167.962 146.821 168.752 148.941 169.147V169.135Z" fill="#CFD1D2"/>
<path d="M198.915 194.969L199.7 190.484" stroke="#808083" stroke-width="0.94" stroke-miterlimit="10"/>
<path d="M185.212 206.092C186.325 199.729 191.935 197.421 198.166 198.557L235.245 205.327L245.375 204.705L245.61 203.365L198.821 194.826C192.591 193.689 186.981 195.998 185.868 202.361L185.212 206.092Z" fill="#0073AC"/>
<path d="M181.635 181.897L200.335 185.313L201.485 178.743L182.786 175.328L181.635 181.897Z" fill="#0073AC"/>
<path d="M200.695 183.26L200.332 185.305L247.273 193.881L238.091 190.089L200.695 183.26Z" fill="#808083"/>
<path d="M296.579 217.252L292.339 212.766L261.409 207.121H261.421L255.928 209.836L296.579 217.252Z" fill="#444141"/>
<path d="M376.908 210.783L358.208 207.368L357.057 213.937L375.757 217.353L376.908 210.783Z" fill="#0073AC"/>
<path d="M357.398 211.881L357.035 213.915L310.094 205.351L319.991 205.052L357.398 211.881Z" fill="#808083"/>
<path d="M293.675 206.033L297.2 199.586L310.704 202.05L308.619 213.938L298.945 213.891L293.675 206.033Z" fill="#BABCBE"/>
<path d="M300.468 204.191L299.402 206.702C299.191 207.193 299.25 207.743 299.542 208.185L300.842 210.087C301.123 210.494 301.568 210.733 302.049 210.745L304.649 210.781C305.375 210.781 306.007 210.255 306.136 209.525L306.804 205.722C306.944 204.896 306.405 204.095 305.597 203.951L302.107 203.318C301.428 203.198 300.749 203.557 300.479 204.215L300.468 204.191Z" fill="black"/>
<path d="M262.451 200.327L261.327 193.032L247.823 190.568L245.75 202.456L254.839 205.841L262.451 200.327Z" fill="#BABCBE"/>
<path d="M256.782 196.213L256.935 198.94C256.97 199.466 256.724 199.981 256.302 200.28L254.44 201.607C254.042 201.894 253.538 201.954 253.082 201.787L250.634 200.902C249.943 200.65 249.533 199.933 249.662 199.191L250.329 195.388C250.47 194.563 251.255 194.012 252.063 194.156L255.553 194.79C256.232 194.909 256.736 195.495 256.782 196.201V196.213Z" fill="black"/>
<path d="M261.362 189.396V193.127L297.188 199.67L298.383 196.153L261.362 189.396Z" fill="#0EB2E5"/>
<path d="M261.292 193.032L262.334 200.399L293.686 206.08L297.212 199.586L261.292 193.032Z" fill="#0EB2E5"/>
<g style="mix-blend-mode:multiply" opacity="0.37">
<path d="M261.292 193.032L262.334 200.399L293.686 206.08L297.212 199.586L261.292 193.032Z" fill="#0073AC"/>
</g>
<defs>
<linearGradient id="paint0_linear_222_605" x1="687" y1="1.19014e-05" x2="687" y2="359" gradientUnits="userSpaceOnUse">
<stop offset="0.342618" stop-color="#1C273B"/>
<stop offset="1" stop-color="#03699E"/>
</linearGradient>
<linearGradient id="paint1_linear_222_605" x1="687" y1="1.19014e-05" x2="687" y2="359" gradientUnits="userSpaceOnUse">
<stop offset="0.342618" stop-color="#1C273B"/>
<stop offset="1" stop-color="#03699E"/>
</linearGradient>
<linearGradient id="paint2_linear_222_605" x1="1137.37" y1="261.255" x2="1135.52" y2="401.428" gradientUnits="userSpaceOnUse">
<stop offset="0.29" stop-color="#F6F6F6"/>
<stop offset="0.45" stop-color="#FAFAFA"/>
<stop offset="0.84" stop-color="white"/>
</linearGradient>
<linearGradient id="paint3_linear_222_605" x1="774.184" y1="269.256" x2="774.184" y2="392.896" gradientUnits="userSpaceOnUse">
<stop stop-color="#CFD1D2"/>
<stop offset="0.47" stop-color="#E8E9E9"/>
<stop offset="0.84" stop-color="white"/>
</linearGradient>
<linearGradient id="paint4_linear_222_605" x1="302.303" y1="279.659" x2="300.962" y2="381.588" gradientUnits="userSpaceOnUse">
<stop offset="0.29" stop-color="#F6F6F6"/>
<stop offset="0.45" stop-color="#FAFAFA"/>
<stop offset="0.84" stop-color="white"/>
</linearGradient>
<linearGradient id="paint5_linear_222_605" x1="734.638" y1="285.988" x2="730.188" y2="407.543" gradientUnits="userSpaceOnUse">
<stop stop-color="#F5F6F6"/>
<stop offset="0.84" stop-color="white" stop-opacity="0"/>
</linearGradient>
<linearGradient id="paint6_linear_222_605" x1="1237.21" y1="345.532" x2="1237.21" y2="298.565" gradientUnits="userSpaceOnUse">
<stop stop-color="white"/>
<stop offset="1" stop-color="#808083"/>
</linearGradient>
<linearGradient id="paint7_linear_222_605" x1="1253.43" y1="345.532" x2="1253.43" y2="298.565" gradientUnits="userSpaceOnUse">
<stop stop-color="white"/>
<stop offset="1" stop-color="#808083"/>
</linearGradient>
<linearGradient id="paint8_linear_222_605" x1="1269.65" y1="345.532" x2="1269.65" y2="298.565" gradientUnits="userSpaceOnUse">
<stop stop-color="white"/>
<stop offset="1" stop-color="#808083"/>
</linearGradient>
<linearGradient id="paint9_linear_222_605" x1="1285.87" y1="345.532" x2="1285.87" y2="298.565" gradientUnits="userSpaceOnUse">
<stop stop-color="white"/>
<stop offset="1" stop-color="#808083"/>
</linearGradient>
<linearGradient id="paint10_linear_222_605" x1="1302.08" y1="345.532" x2="1302.08" y2="298.565" gradientUnits="userSpaceOnUse">
<stop stop-color="white"/>
<stop offset="1" stop-color="#808083"/>
</linearGradient>
<linearGradient id="paint11_linear_222_605" x1="1318.3" y1="345.532" x2="1318.3" y2="298.565" gradientUnits="userSpaceOnUse">
<stop stop-color="white"/>
<stop offset="1" stop-color="#808083"/>
</linearGradient>
<linearGradient id="paint12_linear_222_605" x1="1334.52" y1="345.532" x2="1334.52" y2="298.565" gradientUnits="userSpaceOnUse">
<stop stop-color="white"/>
<stop offset="1" stop-color="#808083"/>
</linearGradient>
<linearGradient id="paint13_linear_222_605" x1="1350.74" y1="345.532" x2="1350.74" y2="298.565" gradientUnits="userSpaceOnUse">
<stop stop-color="white"/>
<stop offset="1" stop-color="#808083"/>
</linearGradient>
<linearGradient id="paint14_linear_222_605" x1="1366.96" y1="345.532" x2="1366.96" y2="298.565" gradientUnits="userSpaceOnUse">
<stop stop-color="white"/>
<stop offset="1" stop-color="#808083"/>
</linearGradient>
<linearGradient id="paint15_linear_222_605" x1="1383.18" y1="345.532" x2="1383.18" y2="298.565" gradientUnits="userSpaceOnUse">
<stop stop-color="white"/>
<stop offset="1" stop-color="#808083"/>
</linearGradient>
<linearGradient id="paint16_linear_222_605" x1="1399.4" y1="345.532" x2="1399.4" y2="298.565" gradientUnits="userSpaceOnUse">
<stop stop-color="white"/>
<stop offset="1" stop-color="#808083"/>
</linearGradient>
<linearGradient id="paint17_linear_222_605" x1="1415.62" y1="345.532" x2="1415.62" y2="298.565" gradientUnits="userSpaceOnUse">
<stop stop-color="white"/>
<stop offset="1" stop-color="#808083"/>
</linearGradient>
<linearGradient id="paint18_linear_222_605" x1="1431.84" y1="345.532" x2="1431.84" y2="298.565" gradientUnits="userSpaceOnUse">
<stop stop-color="white"/>
<stop offset="1" stop-color="#808083"/>
</linearGradient>
<linearGradient id="paint19_linear_222_605" x1="1448.06" y1="345.532" x2="1448.06" y2="298.565" gradientUnits="userSpaceOnUse">
<stop stop-color="white"/>
<stop offset="1" stop-color="#808083"/>
</linearGradient>
<radialGradient id="paint20_radial_222_605" cx="0" cy="0" r="1" gradientUnits="userSpaceOnUse" gradientTransform="translate(1441.88 145.92) rotate(-90) scale(25.5514 30.2742)">
<stop stop-color="#1DCCFD"/>
<stop offset="0.08" stop-color="#1DCCFD" stop-opacity="0.64"/>
<stop offset="0.17" stop-color="#1DCCFD" stop-opacity="0.3721"/>
<stop offset="0.26" stop-color="#1DCCFD" stop-opacity="0.2025"/>
<stop offset="0.35" stop-color="#1DCCFD" stop-opacity="0.0961"/>
<stop offset="0.45" stop-color="#1DCCFD" stop-opacity="0.04"/>
<stop offset="0.56" stop-color="#1DCCFD" stop-opacity="0.0121"/>
<stop offset="0.68" stop-color="#1DCCFD" stop-opacity="0.01"/>
<stop offset="0.81" stop-color="#1DCCFD" stop-opacity="0.01"/>
<stop offset="1" stop-color="#1DCCFD" stop-opacity="0"/>
</radialGradient>
<clipPath id="clip0_222_605">
<rect width="528.92" height="237.377" fill="white" transform="translate(940 114.466)"/>
</clipPath>
</defs>
</svg>
