<svg width="456" height="94" viewBox="0 0 456 94" fill="none" xmlns="http://www.w3.org/2000/svg">
<g clip-path="url(#clip0_111_180)">
<g clip-path="url(#clip1_111_180)">
<path d="M78.5201 17.63C79.0501 17.63 79.5901 17.43 79.9901 17.02C80.8001 16.21 80.8001 14.89 79.9901 14.08C79.1801 13.27 77.8601 13.27 77.0501 14.08C76.2401 14.89 76.2401 16.21 77.0501 17.02C77.4601 17.43 77.9901 17.63 78.5201 17.63Z" fill="white"/>
<path d="M14.1502 76.98C13.3402 77.79 13.3402 79.11 14.1502 79.92C14.5602 80.33 15.0902 80.53 15.6202 80.53C16.1502 80.53 16.6902 80.33 17.0902 79.92C17.9002 79.11 17.9002 77.79 17.0902 76.98C16.2802 76.17 14.9602 76.17 14.1502 76.98Z" fill="white"/>
<path d="M14.1602 14.08C13.3502 14.89 13.3502 16.21 14.1602 17.02C14.5502 17.41 15.0802 17.63 15.6302 17.63C16.1802 17.63 16.7102 17.41 17.1002 17.02C17.9102 16.21 17.9102 14.89 17.1002 14.08C16.3102 13.29 14.9402 13.29 14.1602 14.08Z" fill="white"/>
<path d="M78.5202 80.53C79.0502 80.53 79.5902 80.33 79.9902 79.92C80.3802 79.53 80.6002 79 80.6002 78.45C80.6002 77.9 80.3802 77.37 79.9902 76.98C79.1802 76.17 77.8602 76.17 77.0502 76.98C76.6602 77.37 76.4402 77.9 76.4402 78.45C76.4402 79 76.6602 79.53 77.0502 79.92C77.4602 80.33 77.9902 80.53 78.5202 80.53Z" fill="white"/>
<path d="M84.8001 64.55C80.8501 62.76 76.4201 62.75 72.4701 64.47L65.4901 55.5C66.6901 52.91 67.3601 50.04 67.3601 47.01C67.3601 43.98 66.6901 41.1 65.4901 38.52L76.4401 24.45C76.8401 23.97 77.4101 23.7 77.9601 23.74C80.2901 23.89 82.5801 23.02 84.2301 21.37C85.8601 19.74 86.7301 17.47 86.6001 15.17C86.4701 12.86 85.3601 10.7 83.5401 9.24999C80.5401 6.84999 76.2101 6.88999 73.2601 9.36999C71.2401 11.06 70.1501 13.64 70.3601 16.25C70.4001 16.72 70.1701 17.21 69.8001 17.52L66.9901 19.71C65.9101 16.72 66.0101 13.46 67.3401 10.52C68.6901 7.52999 71.1201 5.24999 74.1901 4.08999C77.2601 2.92999 80.5901 3.03999 83.5801 4.38999C86.5701 5.73999 88.8501 8.16999 90.0101 11.24C91.1701 14.31 91.0601 17.64 89.7101 20.63C88.1401 24.11 85.0901 26.62 81.3501 27.51C80.5501 27.7 80.0501 28.5 80.2401 29.31C80.4001 30 81.0101 30.46 81.6901 30.46C81.8001 30.46 81.9201 30.45 82.0401 30.42C86.6901 29.32 90.4801 26.2 92.4401 21.87C94.1201 18.16 94.2501 14.01 92.8101 10.2C91.3701 6.38999 88.5301 3.35999 84.8201 1.68999C81.1101 0.00999475 76.9601 -0.120005 73.1501 1.31999C69.3401 2.75999 66.3101 5.59999 64.6401 9.30999C62.8501 13.26 62.8401 17.69 64.5601 21.64L55.5901 28.62C53.0001 27.42 50.1301 26.75 47.1001 26.75C44.0701 26.75 41.1901 27.42 38.6101 28.62L24.5401 17.67C24.0601 17.27 23.7901 16.7 23.8301 16.15C23.9801 13.82 23.1101 11.53 21.4601 9.87999C19.8301 8.24999 17.5701 7.37999 15.2601 7.50999C12.9501 7.63999 10.8001 8.74999 9.34008 10.57C6.93008 13.57 6.98008 17.9 9.46008 20.85C11.1501 22.87 13.7301 23.95 16.3401 23.75C16.8101 23.71 17.3001 23.94 17.6101 24.31L19.8001 27.12C16.8101 28.2 13.5501 28.1 10.6101 26.77C4.44008 23.98 1.69008 16.7 4.48008 10.53C7.27008 4.35999 14.5101 1.57999 20.6801 4.36999C24.1601 5.93999 26.6701 8.98999 27.5601 12.73C27.7501 13.53 28.5501 14.03 29.3601 13.84C30.1601 13.65 30.6601 12.85 30.4701 12.04C29.3701 7.38999 26.2501 3.59999 21.9201 1.63999C14.2501 -1.82001 5.20008 1.59999 1.74008 9.26999C-1.71992 16.94 1.70008 25.99 9.37008 29.45C11.3801 30.36 13.5101 30.81 15.6301 30.81C17.7501 30.81 19.7501 30.38 21.7001 29.53L28.6901 38.5C27.4901 41.08 26.8201 43.96 26.8201 46.99C26.8201 50.02 27.4901 52.89 28.6901 55.48L17.7401 69.55C17.3401 70.03 16.7701 70.3 16.2201 70.26C13.8801 70.12 11.6001 70.98 9.95008 72.63C8.32008 74.26 7.45008 76.53 7.58008 78.84C7.71008 81.15 8.82008 83.3 10.6401 84.76C12.1201 85.94 13.9101 86.53 15.7001 86.53C17.4901 86.53 19.4101 85.9 20.9101 84.64C22.9301 82.95 24.0201 80.37 23.8101 77.76C23.7701 77.29 24.0001 76.8 24.3701 76.49L27.1801 74.3C28.2601 77.29 28.1601 80.55 26.8301 83.49C25.4801 86.48 23.0501 88.76 19.9801 89.92C16.9101 91.08 13.5801 90.97 10.5901 89.62C4.42008 86.83 1.67008 79.55 4.46008 73.38C6.03008 69.9 9.08008 67.39 12.8201 66.5C13.6201 66.31 14.1201 65.51 13.9301 64.7C13.7401 63.9 12.9401 63.4 12.1301 63.59C7.48008 64.69 3.69008 67.81 1.73008 72.14C-1.72992 79.81 1.69008 88.86 9.36008 92.32C11.3701 93.23 13.5001 93.68 15.6301 93.68C17.4501 93.68 19.2701 93.35 21.0301 92.69C24.8401 91.25 27.8701 88.41 29.5401 84.7C31.3301 80.75 31.3401 76.32 29.6201 72.37L38.5901 65.39C41.1801 66.59 44.0501 67.26 47.0801 67.26C50.1101 67.26 52.9801 66.59 55.5701 65.39L69.6401 76.34C70.1201 76.74 70.3901 77.31 70.3501 77.86C70.2001 80.19 71.0601 82.48 72.7201 84.13C74.2501 85.66 76.3301 86.51 78.4801 86.51C78.6301 86.51 78.7801 86.51 78.9301 86.5C81.2401 86.37 83.3901 85.26 84.8501 83.44C87.2601 80.44 87.2101 76.11 84.7301 73.16C83.0401 71.14 80.4701 70.06 77.8501 70.26C77.3701 70.3 76.8901 70.07 76.5801 69.7L74.3901 66.89C77.3801 65.81 80.6401 65.91 83.5801 67.24C86.5701 68.59 88.8501 71.02 90.0101 74.09C91.1701 77.16 91.0601 80.49 89.7101 83.48C88.3601 86.47 85.9301 88.75 82.8601 89.91C79.7901 91.07 76.4601 90.96 73.4701 89.61C69.9901 88.04 67.4801 84.99 66.5901 81.25C66.4001 80.45 65.6001 79.95 64.7901 80.14C63.9901 80.33 63.4901 81.13 63.6801 81.94C64.7801 86.59 67.9001 90.38 72.2301 92.34C74.2401 93.25 76.3701 93.7 78.5001 93.7C80.3201 93.7 82.1401 93.37 83.9001 92.71C87.7101 91.27 90.7401 88.43 92.4101 84.72C95.8701 77.05 92.4501 68 84.7801 64.54L84.8001 64.55ZM71.6701 19.83C72.8201 18.86 73.4401 17.44 73.3301 16.01C73.2001 14.33 73.8701 12.73 75.1701 11.64C77.0101 10.1 79.8001 10.07 81.6701 11.56C82.8401 12.5 83.5301 13.83 83.6101 15.32C83.6901 16.78 83.1401 18.22 82.1101 19.25C81.0601 20.3 79.6201 20.84 78.1401 20.75C76.6401 20.66 75.1501 21.32 74.1101 22.57L63.9001 35.69C62.4301 33.52 60.5601 31.64 58.3801 30.17L71.6601 19.83H71.6701ZM19.9001 22.4C18.9401 21.25 17.5001 20.62 16.0701 20.74C14.3801 20.87 12.8001 20.2 11.7001 18.9C10.1601 17.06 10.1301 14.27 11.6201 12.4C12.5601 11.23 13.8901 10.54 15.3801 10.46C16.8401 10.38 18.2801 10.93 19.3101 11.96C20.3601 13.01 20.9001 14.45 20.8101 15.93C20.7201 17.42 21.3801 18.92 22.6301 19.96L35.7601 30.17C33.5901 31.64 31.7101 33.51 30.2401 35.69L19.9001 22.4ZM22.4801 74.17C21.3301 75.13 20.7101 76.56 20.8201 77.99C20.9501 79.67 20.2801 81.27 18.9801 82.36C17.1401 83.9 14.3501 83.93 12.4801 82.44C11.3101 81.5 10.6201 80.17 10.5401 78.68C10.4601 77.22 11.0101 75.78 12.0401 74.75C13.0901 73.7 14.5301 73.16 16.0101 73.25C17.5101 73.35 19.0001 72.68 20.0401 71.43L30.2501 58.3C31.7201 60.47 33.5901 62.35 35.7701 63.82L22.4801 74.16V74.17ZM29.7801 47C29.7801 37.46 37.5401 29.7 47.0801 29.7C56.6201 29.7 64.3801 37.46 64.3801 47C64.3801 56.54 56.6201 64.3 47.0801 64.3C37.5401 64.3 29.7801 56.54 29.7801 47ZM78.0701 73.26C79.7601 73.13 81.3501 73.8 82.4401 75.1C83.9801 76.94 84.0101 79.73 82.5201 81.6C81.5801 82.77 80.2501 83.46 78.7601 83.54C77.3001 83.62 75.8601 83.07 74.8301 82.04C73.7801 80.99 73.2401 79.55 73.3301 78.07C73.4201 76.58 72.7601 75.08 71.5101 74.04L58.3901 63.83C60.5601 62.36 62.4401 60.49 63.9101 58.31L74.2501 71.59C75.2101 72.74 76.6501 73.36 78.0701 73.25V73.26Z" fill="white"/>
<path d="M56.4901 42.71C55.7501 41.59 54.6101 40.83 53.2901 40.56C51.9701 40.29 50.6301 40.56 49.5101 41.3L46.1201 43.55C45.5001 43.96 45.2801 44.76 45.6001 45.43L46.3101 46.93L42.2601 50.61L38.2101 41.96C37.8601 41.21 36.9701 40.89 36.2301 41.24C35.4801 41.59 35.1601 42.48 35.5101 43.22L40.4201 53.7C40.6201 54.13 41.0101 54.44 41.4801 54.53C41.5801 54.55 41.6801 54.56 41.7701 54.56C42.1401 54.56 42.5001 54.42 42.7701 54.17L47.6501 49.74L50.5401 55.82C50.7301 56.21 51.0701 56.5 51.4901 56.62C51.6201 56.66 51.7601 56.67 51.8901 56.67C52.1801 56.67 52.4701 56.59 52.7101 56.42L54.9501 54.93C58.7001 52.44 59.6301 47.45 57.0701 43.58L56.4901 42.7V42.71ZM53.3101 52.46L52.5001 53L48.8501 45.33L51.1601 43.8C52.1001 43.17 53.3801 43.43 54.0001 44.38L54.5801 45.26C56.2501 47.78 55.7001 50.88 53.3001 52.47L53.3101 52.46Z" fill="white"/>
</g>
<g clip-path="url(#clip2_111_180)">
<path d="M144.54 60.41H128.69C127.44 60.41 126.69 60.32 126.47 60.13C126.24 59.94 126.13 59.39 126.13 58.47V31.71C126.13 30.33 126.28 29.35 126.57 28.76C126.86 28.18 127.15 27.88 127.45 27.88H117.79C118.08 27.92 118.38 28.22 118.67 28.79C118.96 29.35 119.11 30.3 119.11 31.64V61.72C119.11 63.06 118.96 64.02 118.67 64.6C118.38 65.19 118.08 65.48 117.79 65.48H152.06V64.16L153.31 57.89C152.85 58.43 151.88 58.99 150.4 59.55C148.92 60.11 146.96 60.4 144.54 60.4V60.41Z" fill="white"/>
<path d="M183.27 37.57C180.93 36.21 177.69 35.53 173.56 35.53C169.43 35.53 166.19 36.21 163.85 37.57C161.51 38.93 159.85 40.76 158.87 43.05C157.89 45.35 157.4 47.96 157.4 50.88C157.4 53.8 157.87 56.35 158.81 58.65C159.75 60.95 161.4 62.76 163.76 64.1C166.12 65.44 169.39 66.1 173.57 66.1C177.75 66.1 181.07 65.43 183.41 64.1C185.75 62.76 187.39 60.95 188.33 58.65C189.27 56.35 189.74 53.76 189.74 50.88C189.74 48 189.25 45.35 188.27 43.05C187.29 40.75 185.63 38.93 183.29 37.57H183.27ZM182.51 56.74C181.97 58.35 180.98 59.57 179.56 60.41C178.14 61.25 176.13 61.66 173.55 61.66C170.97 61.66 168.95 61.23 167.54 60.38C166.12 59.52 165.14 58.29 164.59 56.68C164.05 55.07 163.78 53.16 163.78 50.95C163.78 48.74 164.06 46.74 164.63 45.09C165.19 43.44 166.19 42.17 167.61 41.27C169.03 40.37 171.01 39.92 173.56 39.92C176.11 39.92 178.14 40.36 179.54 41.24C180.94 42.12 181.92 43.37 182.49 45C183.05 46.63 183.34 48.59 183.34 50.89C183.34 53.19 183.07 55.14 182.53 56.75L182.51 56.74Z" fill="white"/>
<path d="M242.54 37.04C242.67 37.63 242.43 38.59 241.85 39.92C241.56 40.59 241.11 41.64 240.5 43.08C239.89 44.52 239.19 46.18 238.4 48.06C237.61 49.94 236.81 51.85 236.02 53.79C235.23 55.73 234.47 57.56 233.76 59.27H233.7C233.11 57.6 232.47 55.8 231.76 53.88C231.05 51.96 230.35 50.07 229.66 48.21C228.97 46.35 228.34 44.7 227.78 43.26C227.22 41.82 226.77 40.74 226.43 40.03C225.8 38.61 225.55 37.61 225.68 37.02C225.8 36.44 226.06 36.14 226.43 36.14H216.4C216.73 36.14 216.96 36.43 217.09 37.02C217.22 37.61 216.99 38.57 216.4 39.9C216.11 40.57 215.69 41.62 215.15 43.06C214.61 44.5 213.99 46.16 213.3 48.04C212.61 49.92 211.91 51.83 211.2 53.77C210.49 55.71 209.82 57.54 209.2 59.25H209.14C208.51 57.58 207.82 55.78 207.07 53.86C206.32 51.94 205.58 50.05 204.85 48.19C204.12 46.33 203.46 44.68 202.88 43.24C202.29 41.8 201.84 40.72 201.5 40.01C200.87 38.59 200.62 37.59 200.75 37C200.88 36.42 201.13 36.12 201.5 36.12H191.29C191.54 36.16 191.96 36.49 192.54 37.09C193.12 37.7 193.77 38.67 194.48 40C194.9 40.75 195.46 41.89 196.17 43.42C196.88 44.95 197.65 46.64 198.49 48.49C199.32 50.35 200.13 52.19 200.9 54C201.67 55.82 202.35 57.42 202.94 58.79C203.52 60.17 203.92 61.13 204.13 61.67C204.63 63.05 204.83 64.02 204.73 64.58C204.62 65.14 204.43 65.43 204.13 65.43H214.16C213.95 65.43 213.8 65.15 213.72 64.58C213.64 64.02 213.78 63.04 214.16 61.67C214.28 61.13 214.6 60.16 215.1 58.76C215.6 57.36 216.21 55.73 216.92 53.87C217.63 52.01 218.38 50.09 219.18 48.11C219.97 46.13 220.7 44.26 221.37 42.5H221.56C222.27 44.34 223 46.28 223.75 48.33C224.5 50.38 225.23 52.35 225.94 54.25C226.65 56.15 227.26 57.77 227.76 59.11C228.26 60.45 228.57 61.3 228.7 61.68C229.2 63.06 229.4 64.03 229.29 64.59C229.18 65.15 228.99 65.44 228.7 65.44H238.72C238.51 65.44 238.37 65.16 238.28 64.59C238.2 64.03 238.34 63.05 238.72 61.68C238.93 60.93 239.35 59.81 239.97 58.33C240.6 56.85 241.33 55.21 242.16 53.41C243 51.61 243.85 49.81 244.73 47.99C245.61 46.17 246.4 44.53 247.11 43.07C247.82 41.61 248.36 40.52 248.74 39.81C249.41 38.47 250 37.52 250.53 36.96C251.05 36.4 251.44 36.11 251.69 36.11H241.85C242.18 36.11 242.41 36.4 242.54 36.99V37.04Z" fill="white"/>
<path d="M311.46 36.19C310.67 34.58 309.51 33.15 307.98 31.9C306.45 30.65 304.45 29.67 301.96 28.95C299.47 28.24 296.37 27.89 292.66 27.89H272.99C273.28 27.93 273.58 28.23 273.87 28.8C274.16 29.36 274.31 30.31 274.31 31.65V61.73C274.31 63.07 274.16 64.03 273.87 64.61C273.58 65.2 273.28 65.49 272.99 65.49H292.66C296.33 65.49 299.42 65.11 301.9 64.36C304.38 63.61 306.39 62.6 307.91 61.32C309.43 60.05 310.6 58.61 311.42 57C312.23 55.39 312.78 53.7 313.05 51.92C313.32 50.15 313.46 48.42 313.46 46.75C313.46 44.91 313.32 43.1 313.05 41.3C312.78 39.51 312.25 37.8 311.45 36.19H311.46ZM306.45 47.19C306.45 50.28 305.95 52.8 304.95 54.74C303.95 56.68 302.36 58.11 300.19 59.03C298.02 59.95 295.14 60.41 291.54 60.41H283.83C282.62 60.41 281.9 60.33 281.67 60.16C281.44 59.99 281.33 59.45 281.33 58.53V34.78C281.33 33.9 281.44 33.39 281.67 33.25C281.9 33.1 282.62 33.03 283.83 33.03H291.54C295.3 33.03 298.26 33.44 300.44 34.25C302.61 35.06 304.16 36.42 305.08 38.32C306 40.22 306.46 42.8 306.46 46.06V47.19H306.45Z" fill="white"/>
<path d="M337.46 35.53C335.96 35.53 334.62 35.72 333.45 36.09C332.28 36.47 331.25 36.98 330.35 37.62C329.45 38.26 328.69 39.01 328.06 39.84L327.93 39.71L328.06 38.65V35.52C327.52 35.81 326.57 36.09 325.21 36.37C323.85 36.64 322.25 36.78 320.42 36.78C320.71 36.82 320.99 37.12 321.27 37.69C321.54 38.25 321.68 39.2 321.68 40.54V61.72C321.68 63.06 321.54 64.02 321.27 64.6C321 65.19 320.72 65.48 320.42 65.48H329.32C329.03 65.48 328.74 65.19 328.47 64.6C328.2 64.02 328.06 63.06 328.06 61.72V49.19C328.06 46.1 328.71 43.89 330 42.55C331.29 41.21 332.78 40.55 334.45 40.55C335.91 40.55 337.29 40.8 338.59 41.3C339.88 41.8 341.04 42.42 342.07 43.15C343.09 43.88 343.88 44.58 344.42 45.25V43.37L345.67 38.11C345.04 37.53 344.01 36.95 342.57 36.39C341.13 35.83 339.43 35.54 337.46 35.54V35.53Z" fill="white"/>
<path d="M374.37 37.57C372.03 36.21 368.79 35.53 364.66 35.53C360.53 35.53 357.29 36.21 354.95 37.57C352.61 38.93 350.95 40.76 349.97 43.05C348.99 45.35 348.5 47.96 348.5 50.88C348.5 53.8 348.97 56.35 349.91 58.65C350.85 60.95 352.5 62.76 354.86 64.1C357.22 65.44 360.49 66.1 364.67 66.1C368.85 66.1 372.17 65.43 374.51 64.1C376.85 62.76 378.49 60.95 379.43 58.65C380.37 56.35 380.84 53.76 380.84 50.88C380.84 48 380.35 45.35 379.37 43.05C378.39 40.75 376.73 38.93 374.39 37.57H374.37ZM373.61 56.74C373.07 58.35 372.08 59.57 370.66 60.41C369.24 61.25 367.23 61.66 364.65 61.66C362.07 61.66 360.05 61.23 358.64 60.38C357.22 59.52 356.24 58.29 355.69 56.68C355.15 55.07 354.88 53.16 354.88 50.95C354.88 48.74 355.16 46.74 355.73 45.09C356.29 43.44 357.29 42.17 358.71 41.27C360.13 40.37 362.11 39.92 364.66 39.92C367.21 39.92 369.24 40.36 370.64 41.24C372.04 42.12 373.02 43.37 373.59 45C374.15 46.63 374.44 48.59 374.44 50.89C374.44 53.19 374.17 55.14 373.63 56.75L373.61 56.74Z" fill="white"/>
<path d="M418.44 64.61C418.17 64.03 418.03 63.07 418.03 61.73V49.26C418.03 44.54 417 41.07 414.93 38.86C412.86 36.65 409.89 35.54 406 35.54C404.04 35.54 402.32 35.78 400.86 36.26C399.4 36.74 398.17 37.34 397.19 38.05C396.21 38.76 395.4 39.51 394.78 40.31L394.65 40.18L394.78 39.37V35.55C394.24 35.84 393.29 36.12 391.93 36.4C390.57 36.67 388.97 36.81 387.14 36.81C387.43 36.85 387.71 37.15 387.99 37.72C388.26 38.28 388.4 39.23 388.4 40.57V61.75C388.4 63.09 388.26 64.05 387.99 64.63C387.72 65.22 387.44 65.51 387.14 65.51H396.04C395.75 65.51 395.46 65.22 395.19 64.63C394.92 64.05 394.78 63.09 394.78 61.75V50.03C394.78 47.57 395.24 45.6 396.16 44.14C397.08 42.68 398.27 41.61 399.73 40.94C401.19 40.27 402.7 39.94 404.24 39.94C405.7 39.94 406.99 40.22 408.09 40.79C409.2 41.35 410.06 42.32 410.69 43.7C411.32 45.08 411.63 47 411.63 49.46V61.74C411.63 63.08 411.49 64.04 411.22 64.62C410.95 65.21 410.67 65.5 410.37 65.5H419.27C418.98 65.5 418.69 65.21 418.42 64.62L418.44 64.61Z" fill="white"/>
<path d="M453.91 51.86C455.06 52.01 455.63 52.14 455.63 52.27V49.32C455.63 47.78 455.45 46.2 455.1 44.59C454.74 42.98 454.08 41.49 453.09 40.11C452.11 38.73 450.67 37.62 448.77 36.79C446.87 35.96 444.37 35.54 441.28 35.54C435.98 35.54 431.98 36.92 429.28 39.68C426.59 42.44 425.24 46.18 425.24 50.89C425.24 53.06 425.48 55.07 425.96 56.91C426.44 58.75 427.29 60.36 428.5 61.73C429.71 63.11 431.38 64.18 433.51 64.96C435.64 65.73 438.36 66.12 441.66 66.12C444.96 66.12 447.83 65.84 450.15 65.27C452.47 64.7 454.09 64.15 455.01 63.61L454.38 59.47V58.22C453.71 58.97 452.36 59.73 450.34 60.51C448.31 61.28 445.73 61.67 442.6 61.67C438.97 61.67 436.23 60.77 434.39 58.98C432.55 57.19 431.63 54.74 431.63 51.65H448.11C450.82 51.65 452.76 51.72 453.91 51.87V51.86ZM432.76 47.19C432.51 46.98 432.38 46.67 432.38 46.25C432.38 45.16 432.75 44.14 433.48 43.18C434.21 42.22 435.24 41.44 436.58 40.83C437.92 40.23 439.48 39.92 441.28 39.92C443.41 39.92 445.06 40.33 446.23 41.14C447.4 41.95 448.21 42.95 448.67 44.12C449.13 45.29 449.36 46.42 449.36 47.5H434.13C433.46 47.5 433 47.4 432.75 47.19H432.76Z" fill="white"/>
</g>
</g>
<defs>
<clipPath id="clip0_111_180">
<rect width="455.26" height="93.42" fill="white" transform="translate(0.370117 0.290009)"/>
</clipPath>
<clipPath id="clip1_111_180">
<rect width="93.42" height="93.42" fill="white" transform="translate(0.370117 0.290009)"/>
</clipPath>
<clipPath id="clip2_111_180">
<rect width="337.84" height="38.22" fill="white" transform="translate(117.79 27.89)"/>
</clipPath>
</defs>
</svg>
