<svg width="116" height="116" viewBox="0 0 116 116" fill="none" xmlns="http://www.w3.org/2000/svg">
<g clip-path="url(#clip0_111_2305)">
<path d="M94.417 0H21.583C9.66305 0 0 9.66305 0 21.583V94.417C0 106.337 9.66305 116 21.583 116H94.417C106.337 116 116 106.337 116 94.417V21.583C116 9.66305 106.337 0 94.417 0Z" fill="#1C273B"/>
<path d="M88.8981 98.02C93.2856 98.02 96.8423 94.4633 96.8423 90.0758C96.8423 85.6883 93.2856 82.1315 88.8981 82.1315C84.5106 82.1315 80.9539 85.6883 80.9539 90.0758C80.9539 94.4633 84.5106 98.02 88.8981 98.02Z" fill="#BABCBE"/>
<path d="M88.8982 95.1551C91.7035 95.1551 93.9776 92.881 93.9776 90.0757C93.9776 87.2705 91.7035 84.9963 88.8982 84.9963C86.093 84.9963 83.8188 87.2705 83.8188 90.0757C83.8188 92.881 86.093 95.1551 88.8982 95.1551Z" fill="#E1E1E0"/>
<path d="M66.7527 77.5091L85.8048 92.3606L92.7121 89.0212L76.3139 67.9479" fill="#E1E1E0"/>
<path d="M88.8982 92.097C89.4079 92.097 89.9176 91.9037 90.3218 91.517C90.7085 91.1303 90.9018 90.6382 90.9018 90.0934C90.9018 89.5485 90.6909 89.0564 90.3218 88.6697C89.5309 87.8788 88.2654 87.8788 87.4745 88.6697C87.0879 89.0564 86.8945 89.5485 86.8945 90.0934C86.8945 90.6382 87.1054 91.1303 87.4745 91.517C87.8612 91.9037 88.3885 92.097 88.8982 92.097Z" fill="#808083"/>
<path d="M88.8982 75.3649C88.4939 75.3649 88.1073 75.4 87.7206 75.4176L90.0933 78.4758C95.9812 79.0734 100.568 84.0473 100.568 90.0933C100.568 96.5437 95.3485 101.764 88.8982 101.764C82.8697 101.764 77.8957 97.1764 77.2806 91.3061L74.2224 88.9158C74.1873 89.3024 74.1697 89.6891 74.1697 90.0758C74.1697 98.2134 80.7606 104.804 88.8982 104.804C97.0357 104.804 103.627 98.2134 103.627 90.0758C103.627 81.9382 97.0357 75.3473 88.8982 75.3473V75.3649Z" fill="#F5B834"/>
<path d="M28.2267 98.02C32.6142 98.02 36.171 94.4633 36.171 90.0758C36.171 85.6883 32.6142 82.1315 28.2267 82.1315C23.8392 82.1315 20.2825 85.6883 20.2825 90.0758C20.2825 94.4633 23.8392 98.02 28.2267 98.02Z" fill="#BABCBE"/>
<path d="M28.2269 95.1551C31.0321 95.1551 33.3062 92.881 33.3062 90.0757C33.3062 87.2705 31.0321 84.9963 28.2269 84.9963C25.4216 84.9963 23.1475 87.2705 23.1475 90.0757C23.1475 92.881 25.4216 95.1551 28.2269 95.1551Z" fill="#E1E1E0"/>
<path d="M50.3722 77.5091L31.3201 92.3606L24.3953 89.0212L40.7934 67.9479" fill="#E1E1E0"/>
<path d="M28.2268 92.097C27.7171 92.097 27.2074 91.9037 26.8031 91.517C26.4165 91.1303 26.2231 90.6382 26.2231 90.0934C26.2231 89.5485 26.4341 89.0564 26.8031 88.6697C27.5941 87.8788 28.8595 87.8788 29.6504 88.6697C30.0371 89.0564 30.2304 89.5485 30.2304 90.0934C30.2304 90.6382 30.0195 91.1303 29.6504 91.517C29.2638 91.9037 28.7365 92.097 28.2268 92.097Z" fill="#808083"/>
<path d="M28.2268 75.3649C28.631 75.3649 29.0177 75.4 29.4044 75.4176L27.0316 78.4758C21.1437 79.0734 16.5565 84.0473 16.5565 90.0933C16.5565 96.5437 21.7765 101.764 28.2268 101.764C34.2553 101.764 39.2292 97.1764 39.8444 91.3061L42.9025 88.9158C42.9377 89.3024 42.9553 89.6891 42.9553 90.0758C42.9553 98.2134 36.3643 104.804 28.2268 104.804C20.0892 104.804 13.4983 98.2134 13.4983 90.0758C13.4983 81.9382 20.0892 75.3473 28.2268 75.3473V75.3649Z" fill="#F5B834"/>
<path d="M88.8981 37.3485C93.2856 37.3485 96.8423 33.7917 96.8423 29.4043C96.8423 25.0168 93.2856 21.46 88.8981 21.46C84.5106 21.46 80.9539 25.0168 80.9539 29.4043C80.9539 33.7917 84.5106 37.3485 88.8981 37.3485Z" fill="#BABCBE"/>
<path d="M88.8982 34.4836C91.7035 34.4836 93.9776 32.2095 93.9776 29.4042C93.9776 26.5989 91.7035 24.3248 88.8982 24.3248C86.093 24.3248 83.8188 26.5989 83.8188 29.4042C83.8188 32.2095 86.093 34.4836 88.8982 34.4836Z" fill="#E1E1E0"/>
<path d="M66.7527 41.9709L85.8048 27.137L92.7121 30.4588L76.3139 51.5497" fill="#E1E1E0"/>
<path d="M88.8982 27.4006C89.4079 27.4006 89.9176 27.5939 90.3218 27.9806C90.7085 28.3672 90.9018 28.8594 90.9018 29.4042C90.9018 29.9491 90.6909 30.4412 90.3218 30.8278C89.5309 31.6188 88.2654 31.6188 87.4745 30.8278C87.0879 30.4412 86.8945 29.9491 86.8945 29.4042C86.8945 28.8594 87.1054 28.3672 87.4745 27.9806C87.8612 27.5939 88.3885 27.4006 88.8982 27.4006Z" fill="#808083"/>
<path d="M88.8982 44.1327C88.4939 44.1327 88.1073 44.0976 87.7206 44.08L90.0933 41.0218C95.9812 40.4242 100.568 35.4503 100.568 29.4042C100.568 22.9539 95.3485 17.7339 88.8982 17.7339C82.8697 17.7339 77.8957 22.3212 77.2806 28.1915L74.2224 30.5818C74.1873 30.1951 74.1697 29.8085 74.1697 29.4218C74.1697 21.2842 80.7606 14.6933 88.8982 14.6933C97.0357 14.6933 103.627 21.2842 103.627 29.4218C103.627 37.5594 97.0357 44.1503 88.8982 44.1503V44.1327Z" fill="#F5B834"/>
<path d="M28.2267 37.3485C32.6142 37.3485 36.171 33.7917 36.171 29.4043C36.171 25.0168 32.6142 21.46 28.2267 21.46C23.8392 21.46 20.2825 25.0168 20.2825 29.4043C20.2825 33.7917 23.8392 37.3485 28.2267 37.3485Z" fill="#BABCBE"/>
<path d="M28.2269 34.4836C31.0321 34.4836 33.3062 32.2095 33.3062 29.4042C33.3062 26.5989 31.0321 24.3248 28.2269 24.3248C25.4216 24.3248 23.1475 26.5989 23.1475 29.4042C23.1475 32.2095 25.4216 34.4836 28.2269 34.4836Z" fill="#E1E1E0"/>
<path d="M50.3722 41.9709L31.3201 27.137L24.3953 30.4588L40.7934 51.5497" fill="#E1E1E0"/>
<path d="M28.2268 27.4006C27.7171 27.4006 27.2074 27.5939 26.8031 27.9806C26.4165 28.3672 26.2231 28.8594 26.2231 29.4042C26.2231 29.9491 26.4341 30.4412 26.8031 30.8278C27.5941 31.6188 28.8595 31.6188 29.6504 30.8278C30.0371 30.4412 30.2304 29.9491 30.2304 29.4042C30.2304 28.8594 30.0195 28.3672 29.6504 27.9806C29.2638 27.5939 28.7365 27.4006 28.2268 27.4006Z" fill="#808083"/>
<path d="M28.2268 44.1327C28.631 44.1327 29.0177 44.0976 29.4044 44.08L27.0316 41.0218C21.1437 40.4242 16.5565 35.4503 16.5565 29.4042C16.5565 22.9539 21.7765 17.7339 28.2268 17.7339C34.2553 17.7339 39.2292 22.3212 39.8444 28.1915L42.9025 30.5818C42.9377 30.1951 42.9553 29.8085 42.9553 29.4218C42.9553 21.2842 36.3643 14.6933 28.2268 14.6933C20.0892 14.6933 13.4983 21.2842 13.4983 29.4218C13.4983 37.5594 20.0892 44.1503 28.2268 44.1503V44.1327Z" fill="#F5B834"/>
<path d="M58.5625 79.3545C69.3954 79.3545 78.1771 70.5728 78.1771 59.74C78.1771 48.9072 69.3954 40.1254 58.5625 40.1254C47.7297 40.1254 38.948 48.9072 38.948 59.74C38.948 70.5728 47.7297 79.3545 58.5625 79.3545Z" fill="#0073AE"/>
<path d="M58.5624 76.437C67.7839 76.437 75.2594 68.9615 75.2594 59.74C75.2594 50.5185 67.7839 43.043 58.5624 43.043C49.341 43.043 41.8655 50.5185 41.8655 59.74C41.8655 68.9615 49.341 76.437 58.5624 76.437Z" fill="#1BB9E5"/>
<path opacity="0.5" d="M67.6315 55.6097C66.9109 54.5376 65.8212 53.7994 64.5557 53.5358C63.2903 53.2721 61.9897 53.5358 60.9 54.2564L57.6309 56.4182C57.0333 56.8224 56.8224 57.5958 57.1212 58.2285L57.8066 59.6697L53.9048 63.22L49.9854 54.8715C49.6515 54.1509 48.7903 53.8346 48.0697 54.1861C47.3491 54.52 47.0327 55.3812 47.3842 56.1018L52.1297 66.2079C52.323 66.6297 52.7097 66.9109 53.1491 67.0164C53.2369 67.034 53.3424 67.0515 53.4303 67.0515C53.7818 67.0515 54.1333 66.9285 54.3969 66.6824L59.1072 62.4115L61.9018 68.2818C62.0775 68.6509 62.4115 68.9321 62.8157 69.0552C62.9388 69.0903 63.0794 69.1079 63.2024 69.1079C63.4836 69.1079 63.7648 69.02 63.9933 68.8618L66.1551 67.4206C69.7757 65.0128 70.6721 60.2146 68.1939 56.4709L67.6315 55.6273V55.6097ZM64.5733 65.0128L63.8 65.5224L60.2848 58.1231L62.5169 56.6467C63.4309 56.0491 64.6612 56.2952 65.2588 57.2091L65.8212 58.0528C67.4382 60.4782 66.9109 63.4837 64.5909 65.0128H64.5733Z" fill="#0073AE"/>
</g>
<defs>
<clipPath id="clip0_111_2305">
<rect width="116" height="116" fill="white"/>
</clipPath>
</defs>
</svg>
