<svg width="135" height="135" viewBox="0 0 135 135" fill="none" xmlns="http://www.w3.org/2000/svg">
<g clip-path="url(#clip0_11_4616)">
<path d="M75.0273 57.0549C79.0496 54.5049 81.5199 50.1259 81.5199 45.3091C81.5199 37.6073 75.2342 31.348 67.5 31.348C59.7658 31.348 53.4801 37.6073 53.4801 45.3091C53.4801 50.1259 55.9504 54.5049 59.9727 57.0549L29.2039 132.991C28.9065 133.738 29.2686 134.588 30.0188 134.897C30.1998 134.974 30.3809 135 30.562 135C31.144 135 31.6872 134.652 31.92 134.086L34.6619 127.311L92.5392 108.108L103.067 134.098C103.3 134.665 103.843 135.013 104.425 135.013C104.606 135.013 104.787 134.974 104.968 134.91C105.718 134.614 106.081 133.751 105.783 133.004L75.0144 57.0678L75.0273 57.0549ZM67.5 59.2702C69.2072 59.2702 70.8498 58.974 72.4018 58.3944L78.2219 72.7676C77.9761 72.7676 77.7304 72.8062 77.5105 72.935L50.5183 88.184L62.5853 58.3944C64.1502 58.974 65.7928 59.2702 67.4871 59.2702H67.5ZM78.9591 75.4722C79.0625 75.4078 79.1401 75.3177 79.2307 75.2404L91.1295 104.605L52.5748 90.3864L78.9591 75.4722ZM56.416 45.3091C56.416 39.2172 61.3954 34.2716 67.5 34.2716C73.6046 34.2716 78.584 39.2301 78.584 45.3091C78.584 49.482 76.2689 53.2556 72.5311 55.1488C69.4012 56.7458 65.5988 56.7458 62.4559 55.1488C58.7182 53.2427 56.4031 49.482 56.4031 45.3091H56.416ZM48.9146 92.1508L87.9478 106.55L36.1234 123.756L48.9275 92.1637L48.9146 92.1508Z" fill="white"/>
<path d="M40.9346 82.0793C41.1933 82.2596 41.4908 82.3497 41.7882 82.3497C42.2409 82.3497 42.6936 82.1437 42.9781 81.7444C43.4566 81.0876 43.3014 80.1732 42.6418 79.7095C31.5449 71.7373 24.923 58.8838 24.923 45.3091C24.9359 21.9333 44.0257 2.92358 67.5 2.92358C90.9743 2.92358 110.064 21.9333 110.064 45.3091C110.064 58.8452 103.468 71.6858 92.4099 79.658C91.7503 80.1345 91.608 81.049 92.0865 81.6929C92.5651 82.3497 93.4834 82.4914 94.13 82.0149C105.951 73.4888 113 59.7725 113 45.2962C113 20.3234 92.591 0 67.5 0C42.409 0 22 20.3234 22 45.3091C22 59.8111 29.0746 73.5661 40.9346 82.0793Z" fill="white"/>
<path d="M85.4517 63.7263C85.7362 63.9839 86.0854 64.1127 86.4475 64.1127C86.8485 64.1127 87.2365 63.9582 87.534 63.6362C92.1641 58.6133 94.725 52.1093 94.725 45.3091C94.725 30.3692 82.5158 18.2112 67.5129 18.2112C52.5101 18.2112 40.3009 30.3692 40.3009 45.3091C40.3009 51.8131 42.6548 58.0981 46.9358 63.018C47.466 63.6233 48.3972 63.7006 49.0051 63.1725C49.613 62.6445 49.6906 61.7172 49.1603 61.1119C45.3449 56.7201 43.2497 51.1176 43.2497 45.3219C43.2497 31.9919 54.1397 21.1476 67.5259 21.1476C80.912 21.1476 91.802 31.9919 91.802 45.3219C91.802 51.3881 89.5257 57.1966 85.387 61.6657C84.8438 62.2581 84.8826 63.1854 85.4775 63.7263H85.4517Z" fill="white"/>
</g>
<defs>
<clipPath id="clip0_11_4616">
<rect width="91" height="135" fill="white" transform="translate(22)"/>
</clipPath>
</defs>
</svg>
