<svg width="338" height="75" viewBox="0 0 338 75" fill="none" xmlns="http://www.w3.org/2000/svg">
<g clip-path="url(#clip0_208_76)">
<path d="M108.45 49.58C109.97 49.58 111.3 49.44 112.43 49.17C113.56 48.9 114.64 48.51 115.66 48.03V41.43H111.12C110.68 41.43 110.34 41.31 110.09 41.07C109.84 40.83 109.71 40.53 109.71 40.18V36.36H121.79V51.05C120.87 51.72 119.91 52.3 118.91 52.8C117.91 53.29 116.85 53.7 115.72 54.02C114.59 54.34 113.38 54.58 112.09 54.74C110.8 54.9 109.41 54.98 107.92 54.98C105.28 54.98 102.84 54.52 100.61 53.6C98.38 52.68 96.46 51.4 94.84 49.76C93.22 48.12 91.95 46.16 91.04 43.88C90.13 41.6 89.67 39.12 89.67 36.42C89.67 33.72 90.11 31.19 91 28.91C91.89 26.63 93.15 24.67 94.78 23.03C96.41 21.39 98.39 20.12 100.72 19.21C103.05 18.3 105.66 17.85 108.55 17.85C111.44 17.85 114.08 18.29 116.25 19.17C118.42 20.05 120.25 21.19 121.76 22.6L119.8 25.66C119.41 26.28 118.9 26.59 118.27 26.59C117.87 26.59 117.46 26.46 117.04 26.19C116.5 25.87 115.96 25.55 115.4 25.24C114.84 24.92 114.22 24.65 113.54 24.41C112.86 24.18 112.1 23.98 111.25 23.83C110.4 23.68 109.43 23.6 108.33 23.6C106.54 23.6 104.92 23.9 103.47 24.5C102.02 25.1 100.79 25.96 99.77 27.09C98.75 28.21 97.96 29.56 97.41 31.13C96.86 32.7 96.58 34.46 96.58 36.4C96.58 38.49 96.87 40.35 97.46 41.99C98.05 43.62 98.87 45 99.92 46.12C100.97 47.24 102.23 48.1 103.69 48.69C105.15 49.28 106.74 49.58 108.46 49.58H108.45Z" fill="white"/>
<path d="M129.24 54.55V28.79H132.88C133.52 28.79 133.96 28.91 134.21 29.14C134.46 29.37 134.63 29.78 134.71 30.35L135.09 33.46C136.01 31.87 137.09 30.61 138.33 29.69C139.57 28.77 140.96 28.31 142.5 28.31C143.77 28.31 144.83 28.6 145.66 29.19L144.86 33.84C144.81 34.14 144.7 34.35 144.53 34.48C144.36 34.6 144.14 34.67 143.85 34.67C143.6 34.67 143.26 34.61 142.82 34.49C142.38 34.37 141.81 34.31 141.09 34.31C139.8 34.31 138.7 34.67 137.78 35.38C136.86 36.09 136.08 37.13 135.45 38.51V54.55H129.25H129.24Z" fill="white"/>
<path d="M162.26 28.38C164.18 28.38 165.93 28.69 167.49 29.31C169.05 29.93 170.39 30.81 171.49 31.95C172.6 33.09 173.45 34.48 174.05 36.12C174.65 37.76 174.95 39.59 174.95 41.62C174.95 43.65 174.65 45.5 174.05 47.14C173.45 48.78 172.59 50.18 171.49 51.33C170.39 52.49 169.05 53.37 167.49 53.99C165.93 54.61 164.18 54.92 162.26 54.92C160.34 54.92 158.59 54.61 157.01 53.99C155.44 53.37 154.09 52.48 152.98 51.33C151.87 50.18 151 48.78 150.39 47.14C149.78 45.5 149.47 43.66 149.47 41.62C149.47 39.58 149.78 37.76 150.39 36.12C151 34.48 151.86 33.09 152.98 31.95C154.09 30.81 155.44 29.93 157.01 29.31C158.58 28.69 160.33 28.38 162.26 28.38ZM162.26 50.15C164.4 50.15 165.99 49.43 167.02 47.99C168.05 46.55 168.56 44.44 168.56 41.66C168.56 38.88 168.05 36.76 167.02 35.31C165.99 33.86 164.4 33.13 162.26 33.13C160.12 33.13 158.48 33.86 157.44 35.33C156.4 36.8 155.88 38.91 155.88 41.67C155.88 44.43 156.4 46.54 157.44 47.98C158.48 49.43 160.08 50.15 162.26 50.15Z" fill="white"/>
<path d="M193.39 54.55H187.77L177.53 28.79H182.68C183.13 28.79 183.51 28.9 183.82 29.12C184.13 29.34 184.34 29.61 184.46 29.95L189.43 43.71C189.72 44.51 189.95 45.3 190.15 46.07C190.34 46.84 190.51 47.61 190.66 48.38C190.81 47.61 190.98 46.84 191.17 46.07C191.36 45.3 191.61 44.51 191.91 43.71L197.01 29.95C197.13 29.62 197.34 29.34 197.64 29.12C197.94 28.9 198.3 28.79 198.72 28.79H203.62L193.4 54.55H193.39Z" fill="white"/>
<path d="M218.6 28.38C220.22 28.38 221.72 28.64 223.08 29.16C224.44 29.68 225.62 30.44 226.61 31.43C227.6 32.43 228.37 33.65 228.92 35.1C229.47 36.55 229.75 38.2 229.75 40.06C229.75 40.53 229.73 40.92 229.69 41.23C229.65 41.54 229.57 41.78 229.46 41.96C229.35 42.14 229.2 42.26 229.02 42.34C228.84 42.42 228.6 42.45 228.32 42.45H212.4C212.58 45.1 213.3 47.04 214.53 48.28C215.76 49.52 217.41 50.14 219.45 50.14C220.45 50.14 221.32 50.02 222.05 49.79C222.78 49.56 223.41 49.3 223.96 49.01C224.5 48.72 224.98 48.47 225.39 48.23C225.8 48 226.2 47.88 226.58 47.88C226.83 47.88 227.05 47.93 227.23 48.03C227.41 48.13 227.57 48.27 227.71 48.46L229.52 50.72C228.83 51.52 228.06 52.2 227.21 52.74C226.36 53.28 225.46 53.72 224.54 54.05C223.61 54.38 222.66 54.61 221.7 54.74C220.74 54.87 219.8 54.94 218.9 54.94C217.11 54.94 215.44 54.64 213.9 54.05C212.36 53.46 211.02 52.58 209.88 51.41C208.74 50.25 207.85 48.81 207.19 47.09C206.54 45.37 206.21 43.39 206.21 41.13C206.21 39.37 206.49 37.72 207.06 36.17C207.63 34.62 208.44 33.27 209.51 32.13C210.57 30.98 211.87 30.08 213.4 29.41C214.93 28.74 216.66 28.41 218.59 28.41L218.6 28.38ZM218.73 32.83C216.92 32.83 215.51 33.34 214.49 34.36C213.47 35.38 212.82 36.83 212.53 38.7H224.18C224.18 37.9 224.07 37.14 223.85 36.43C223.63 35.72 223.3 35.1 222.85 34.56C222.4 34.02 221.83 33.6 221.14 33.29C220.45 32.98 219.65 32.83 218.73 32.83Z" fill="white"/>
<path d="M236.3 62.96V28.79H240.09C240.49 28.79 240.84 28.88 241.12 29.07C241.4 29.25 241.59 29.54 241.67 29.92L242.17 32.31C243.21 31.12 244.4 30.16 245.75 29.42C247.1 28.68 248.68 28.31 250.48 28.31C251.89 28.31 253.17 28.6 254.33 29.19C255.49 29.78 256.5 30.63 257.34 31.74C258.18 32.85 258.84 34.23 259.3 35.86C259.76 37.49 259.99 39.36 259.99 41.47C259.99 43.4 259.73 45.18 259.21 46.82C258.69 48.46 257.95 49.88 256.99 51.09C256.03 52.3 254.86 53.24 253.5 53.91C252.14 54.59 250.61 54.93 248.92 54.93C247.46 54.93 246.23 54.71 245.22 54.26C244.21 53.81 243.3 53.2 242.5 52.42V62.96H236.3ZM248.35 33.2C247.06 33.2 245.96 33.47 245.05 34.02C244.14 34.57 243.29 35.33 242.5 36.32V47.87C243.2 48.74 243.97 49.35 244.8 49.69C245.63 50.03 246.52 50.2 247.47 50.2C248.42 50.2 249.26 50.02 250.02 49.67C250.78 49.32 251.43 48.78 251.95 48.06C252.48 47.34 252.88 46.43 253.17 45.34C253.45 44.24 253.6 42.95 253.6 41.46C253.6 39.97 253.48 38.68 253.24 37.63C253 36.58 252.65 35.73 252.2 35.08C251.75 34.43 251.2 33.95 250.56 33.65C249.92 33.35 249.18 33.2 248.36 33.2H248.35Z" fill="white"/>
<path d="M286.39 54.55H283.6C283.01 54.55 282.55 54.46 282.22 54.29C281.89 54.12 281.63 53.76 281.47 53.22L280.92 51.39C280.27 51.98 279.63 52.49 279 52.93C278.37 53.37 277.72 53.75 277.05 54.05C276.38 54.35 275.67 54.58 274.92 54.73C274.17 54.88 273.33 54.96 272.41 54.96C271.32 54.96 270.32 54.81 269.4 54.52C268.48 54.23 267.69 53.79 267.03 53.2C266.37 52.61 265.85 51.88 265.49 51.01C265.12 50.14 264.94 49.12 264.94 47.96C264.94 46.99 265.19 46.02 265.71 45.08C266.23 44.14 267.07 43.27 268.26 42.51C269.45 41.75 271.03 41.11 273.01 40.61C274.98 40.11 277.44 39.85 280.37 39.85V38.33C280.37 36.59 280.01 35.31 279.28 34.47C278.55 33.64 277.49 33.22 276.1 33.22C275.1 33.22 274.26 33.34 273.59 33.57C272.92 33.8 272.34 34.07 271.84 34.36C271.35 34.65 270.89 34.92 270.47 35.15C270.05 35.38 269.59 35.5 269.09 35.5C268.67 35.5 268.31 35.39 268.01 35.17C267.71 34.95 267.47 34.68 267.28 34.37L266.15 32.39C269.11 29.68 272.69 28.32 276.87 28.32C278.38 28.32 279.72 28.57 280.9 29.06C282.08 29.55 283.08 30.24 283.9 31.12C284.72 32 285.34 33.05 285.77 34.27C286.2 35.49 286.41 36.83 286.41 38.29V54.56L286.39 54.55ZM274.34 50.68C274.98 50.68 275.56 50.62 276.1 50.51C276.64 50.39 277.14 50.22 277.62 49.99C278.1 49.76 278.56 49.48 279 49.14C279.44 48.8 279.89 48.4 280.34 47.94V43.63C278.53 43.63 277.02 43.74 275.81 43.97C274.6 44.2 273.62 44.49 272.88 44.84C272.14 45.19 271.62 45.61 271.31 46.08C271 46.55 270.85 47.07 270.85 47.62C270.85 48.72 271.17 49.5 271.82 49.97C272.46 50.44 273.31 50.68 274.34 50.68Z" fill="white"/>
<path d="M302.46 54.95C300.23 54.95 298.52 54.32 297.31 53.05C296.1 51.79 295.5 50.04 295.5 47.81V33.42H292.89C292.56 33.42 292.27 33.31 292.02 33.09C291.78 32.87 291.66 32.55 291.66 32.11V29.65L295.8 28.97L297.11 21.94C297.18 21.61 297.33 21.35 297.57 21.16C297.81 20.98 298.12 20.88 298.49 20.88H301.7V28.99H308.48V33.41H301.7V47.37C301.7 48.17 301.9 48.8 302.3 49.25C302.7 49.7 303.24 49.93 303.91 49.93C304.29 49.93 304.62 49.88 304.88 49.79C305.14 49.7 305.37 49.6 305.56 49.5C305.75 49.4 305.92 49.3 306.07 49.21C306.22 49.12 306.37 49.07 306.52 49.07C306.7 49.07 306.85 49.12 306.97 49.21C307.09 49.3 307.21 49.44 307.35 49.62L309.21 52.63C308.31 53.38 307.27 53.95 306.1 54.34C304.93 54.73 303.71 54.92 302.46 54.92V54.95Z" fill="white"/>
<path d="M314.94 54.55V17.24H321.14V31.58C322.14 30.63 323.25 29.86 324.45 29.27C325.66 28.69 327.07 28.39 328.69 28.39C330.1 28.39 331.34 28.63 332.43 29.1C333.52 29.58 334.43 30.25 335.15 31.11C335.88 31.97 336.43 33 336.81 34.2C337.19 35.4 337.37 36.71 337.37 38.15V54.55H331.17V38.15C331.17 36.58 330.81 35.36 330.08 34.5C329.35 33.64 328.26 33.21 326.8 33.21C325.73 33.21 324.72 33.45 323.79 33.94C322.86 34.43 321.97 35.09 321.13 35.92V54.55H314.93H314.94Z" fill="white"/>
<path d="M61.8 57.37C62.52 56.46 63.14 55.45 63.67 54.35H70.86C73.43 49.27 74.89 43.53 74.89 37.45C74.89 26.19 69.92 16.1 62.05 9.24V33.53C60.91 32.08 59.54 30.95 57.98 30.16C57.25 29.79 56.48 29.51 55.68 29.3V4.74C50.29 1.73 44.07 0 37.45 0C16.77 0 0 16.77 0 37.45C0 40.49 0.37 43.44 1.05 46.27H12.54C13.19 47.19 13.91 48.05 14.69 48.84C15.77 49.93 16.96 50.89 18.26 51.72H2.82C8.43 65.32 21.82 74.9 37.45 74.9C37.75 74.9 38.04 74.88 38.34 74.88V70.58H44.56V74.22C54.19 72.37 62.5 66.83 67.97 59.14H60.12C60.73 58.61 61.29 58.02 61.8 57.38V57.37ZM34.69 51.48C33.38 51.64 31.97 51.72 30.45 51.72C27.76 51.72 25.29 51.25 23.02 50.32C20.76 49.39 18.8 48.08 17.15 46.41C15.5 44.74 14.21 42.75 13.28 40.44C12.35 38.13 11.89 35.6 11.89 32.86C11.89 30.12 12.34 27.54 13.24 25.23C14.14 22.92 15.42 20.93 17.08 19.26C18.74 17.59 20.75 16.3 23.12 15.38C25.48 14.46 28.14 14 31.08 14C34.02 14 36.7 14.45 38.9 15.34C41.1 16.23 42.97 17.4 44.5 18.83L42.51 21.94C42.12 22.57 41.6 22.89 40.95 22.89C40.54 22.89 40.12 22.75 39.7 22.48C39.16 22.16 38.6 21.84 38.03 21.51C37.46 21.19 36.83 20.9 36.14 20.67C35.45 20.43 34.68 20.24 33.82 20.08C32.96 19.93 31.97 19.85 30.85 19.85C29.03 19.85 27.38 20.16 25.91 20.77C24.44 21.38 23.18 22.26 22.15 23.4C21.11 24.54 20.31 25.91 19.75 27.51C19.19 29.11 18.91 30.9 18.91 32.87C18.91 35 19.21 36.89 19.8 38.55C20.4 40.21 21.23 41.61 22.3 42.75C23.37 43.89 24.65 44.76 26.13 45.36C27.61 45.97 29.23 46.27 30.98 46.27C32.53 46.27 33.88 46.13 35.03 45.85C36.18 45.57 37.27 45.18 38.31 44.69V37.98H33.69C33.25 37.98 32.9 37.86 32.64 37.61C32.38 37.36 32.26 37.06 32.26 36.7V32.82H44.54V47.75C43.61 48.43 42.63 49.02 41.62 49.52C40.61 50.02 39.53 50.43 38.38 50.76C37.23 51.08 36 51.32 34.69 51.49V51.48ZM55.6 58.04C54.23 58.72 52.7 59.06 51 59.06C49.54 59.06 48.3 58.84 47.29 58.39C46.27 57.95 45.36 57.33 44.56 56.54V67.12H38.34V54.32C38.67 54.24 39 54.16 39.32 54.07C40.68 53.69 41.97 53.19 43.16 52.6C43.63 52.37 44.1 52.11 44.56 51.84V51.98C45.27 52.85 46.03 53.46 46.86 53.81C47.69 54.15 48.59 54.33 49.54 54.33C50.49 54.33 51.33 54.15 52.1 53.8C52.86 53.45 53.51 52.91 54.04 52.19C54.57 51.47 54.98 50.56 55.26 49.46C55.55 48.36 55.69 47.06 55.69 45.57C55.69 44.08 55.57 42.78 55.32 41.73C55.08 40.68 54.73 39.83 54.28 39.17C53.83 38.52 53.28 38.04 52.63 37.73C51.98 37.43 51.25 37.28 50.43 37.28C49.53 37.28 48.72 37.42 48 37.69V33.39C49.31 32.71 50.83 32.37 52.57 32.37C53.98 32.37 55.27 32.66 56.44 33.25C57.61 33.84 58.61 34.69 59.46 35.81C60.31 36.93 60.96 38.3 61.42 39.94C61.88 41.58 62.11 43.45 62.11 45.57C62.11 47.5 61.85 49.29 61.33 50.93C60.81 52.58 60.07 54 59.1 55.21C58.13 56.42 56.97 57.36 55.6 58.04Z" fill="white"/>
</g>
<defs>
<clipPath id="clip0_208_76">
<rect width="337.39" height="74.9" fill="white"/>
</clipPath>
</defs>
</svg>
