<svg width="155" height="155" viewBox="0 0 155 155" fill="none" xmlns="http://www.w3.org/2000/svg">
<g clip-path="url(#clip0_111_2736)">
<path d="M60.9688 88.5312C60.1563 88.5312 59.5313 89.1875 59.5313 89.9688C59.5313 95.6563 54.9063 100.281 49.2188 100.281C48.4063 100.281 47.7812 100.938 47.7812 101.719C47.7812 102.5 48.4375 103.156 49.2188 103.156C56.5 103.156 62.4063 97.2188 62.4063 89.9688C62.4063 89.1563 61.75 88.5312 60.9688 88.5312Z" fill="#0073AD" fill-opacity="0.15"/>
<path d="M59.3437 67.0625C59.3437 66.25 58.6875 65.625 57.9062 65.625C50.625 65.625 44.7188 59.7187 44.7188 52.4375C44.7188 51.625 44.0625 51 43.2812 51C42.5 51 41.8438 51.6563 41.8438 52.4375C41.8438 61.3125 49.0625 68.5312 57.9375 68.5312C58.75 68.5312 59.375 67.875 59.375 67.0938L59.3437 67.0625Z" fill="#0073AD" fill-opacity="0.15"/>
<path d="M132.812 68.4063C129.344 68.4063 126.437 70.875 125.75 74.1563H106.781L118.25 61.8125C119.25 62.3438 120.375 62.6562 121.562 62.6562C125.531 62.6562 128.75 59.4375 128.75 55.4688C128.75 51.5 125.531 48.2812 121.562 48.2812C117.594 48.2812 114.375 51.5 114.375 55.4688C114.375 57.1875 115 58.75 116 59.9688L102.844 74.125H82.5625C82.5625 74.125 82.4687 74.125 82.4062 74.125V62.6875H101.219C102.031 62.6875 102.656 62.0312 102.656 61.25V36.9688C106.187 36.2812 108.906 33.1875 108.906 29.4375C108.906 25.1875 105.469 21.75 101.219 21.75C96.9688 21.75 93.5312 25.1875 93.5312 29.4375C93.5312 33.1875 96.2187 36.2812 99.7812 36.9688V59.8125H82.4062V35.5C82.4062 35.1875 82.4375 34.9063 82.4375 34.5938C82.4375 34.2813 82.4375 33.9688 82.375 33.6562V33.1562C82.375 33.1562 82.375 32.9688 82.3437 32.875C82.3437 32.6875 82.2812 32.5 82.2812 32.3125C82.25 31.9688 82.1875 31.6562 82.125 31.3125C82.0312 30.875 81.9375 30.4375 81.8125 30C81.8125 29.9062 81.7812 29.8438 81.75 29.75C81.625 29.25 81.4375 28.7812 81.2812 28.3125C81.2812 28.2812 81.2812 28.2188 81.25 28.1875C81.0625 27.7188 80.875 27.2812 80.6562 26.8438C80.625 26.7812 80.5937 26.7188 80.5625 26.6562C80.375 26.2812 80.1562 25.875 79.9375 25.5C79.875 25.375 79.8125 25.2812 79.7187 25.1562C79.5312 24.8437 79.3125 24.5312 79.0937 24.25C78.9687 24.0937 78.8437 23.9062 78.7187 23.75C78.5312 23.5312 78.3437 23.2812 78.1562 23.0625C77.9687 22.8438 77.7812 22.625 77.5625 22.4062C77.4062 22.25 77.25 22.0938 77.0938 21.9375C76.8438 21.6875 76.5625 21.4375 76.2812 21.1875C76.1562 21.0938 76.0312 21 75.9375 20.875C75.5937 20.5938 75.25 20.3438 74.875 20.0625C74.8125 20 74.75 19.9688 74.6562 19.9062C74.2187 19.625 73.7812 19.3438 73.3125 19.0938C70.7812 17.7188 67.875 16.9062 64.7812 16.9062C56.4062 16.9062 49.1875 22.8438 47.4375 30.9688C46.7812 30.9062 46.1562 30.875 45.5625 30.875C33.2812 30.875 23.2812 40.875 23.2812 53.1562C23.2812 55.5625 23.6562 57.9375 24.4375 60.25C18.7188 63.3438 15.125 69.3438 15.125 75.9063C15.125 82.9062 19.3125 89.25 25.6562 92.125C24.875 94.5625 24.5 97.0625 24.5 99.5938C24.5 113.406 35.75 124.656 49.5625 124.656C50.5312 124.656 51.5 124.594 52.5 124.469C53.4062 131.937 59.8437 137.781 67.5 137.781C75.1562 137.781 81.875 131.812 82.5312 123.75V122.719V104.469L101.188 123.5C100.438 124.625 100 126 100 127.469C100 131.437 103.219 134.656 107.188 134.656C111.156 134.656 114.375 131.437 114.375 127.469C114.375 123.5 111.156 120.281 107.188 120.281C105.719 120.281 104.375 120.719 103.219 121.469L82.5 100.344V91.4062H102.031L115.437 103.875C114.844 104.906 114.5 106.094 114.5 107.375C114.5 111.344 117.719 114.562 121.687 114.562C125.656 114.562 128.875 111.344 128.875 107.375C128.875 103.406 125.656 100.188 121.687 100.188C120.031 100.188 118.531 100.75 117.344 101.688L103.594 88.9062C103.312 88.6562 102.969 88.5312 102.625 88.5312H82.5V77C82.5 77 82.5937 77 82.625 77H125.844C126.5 80.2813 129.437 82.75 132.906 82.75C136.875 82.75 140.094 79.5312 140.094 75.5625C140.094 71.5938 136.875 68.375 132.906 68.375L132.812 68.4063ZM121.562 51.1562C123.937 51.1562 125.875 53.0938 125.875 55.4688C125.875 57.8438 123.937 59.7812 121.562 59.7812C119.187 59.7812 117.25 57.8438 117.25 55.4688C117.25 53.0938 119.187 51.1562 121.562 51.1562ZM96.4062 29.4688C96.4062 26.8125 98.5625 24.6875 101.188 24.6875C103.812 24.6875 105.969 26.8438 105.969 29.4688C105.969 32.0938 103.812 34.25 101.188 34.25C98.5625 34.25 96.4062 32.0938 96.4062 29.4688ZM111.375 127.5C111.375 129.875 109.437 131.812 107.062 131.812C104.687 131.812 102.75 129.875 102.75 127.5C102.75 125.125 104.687 123.187 107.062 123.187C109.437 123.187 111.375 125.125 111.375 127.5ZM121.625 103.094C124 103.094 125.938 105.031 125.938 107.406C125.938 109.781 124 111.719 121.625 111.719C119.25 111.719 117.312 109.781 117.312 107.406C117.312 105.031 119.25 103.094 121.625 103.094ZM67.375 110.594C74.0625 110.594 79.5312 116.062 79.5312 122.75V123.625C79 130.031 73.7812 134.875 67.375 134.875C60.9687 134.875 55.2188 129.437 55.1562 122.781C55.1562 122.344 54.9688 121.969 54.625 121.688C54.4062 121.531 54.1562 121.437 53.9062 121.406C53.6875 121.344 53.4688 121.312 53.2188 121.344C47.4062 122.344 41.5312 120.969 36.7188 117.562C31.9062 114.156 28.7188 109.062 27.75 103.219C25.7188 91.2188 33.8438 79.7813 45.875 77.75C46.6562 77.625 47.1875 76.875 47.0625 76.0938C46.9375 75.3125 46.1875 74.7813 45.4062 74.9063C36.8125 76.3438 30 82.0625 26.7188 89.5C21.4062 87.0938 17.9062 81.7813 17.9062 75.9375C17.9062 70.0938 21.375 64.75 26.75 62.3438C27.4688 62.0312 27.7812 61.1875 27.5 60.4688C26.5625 58.1562 26.0938 55.6875 26.0938 53.2188C26.0938 42.5312 34.7812 33.8438 45.4688 33.8438C46.3438 33.8438 47.25 33.9062 48.3125 34.0938C48.6875 34.1562 49.0938 34.0625 49.4062 33.8125C49.7188 33.5938 49.9062 33.2188 49.9688 32.8438C50.9688 25.5 57.2188 19.9688 64.5938 19.9062C64.6875 19.9062 64.7812 19.9687 64.875 19.9687C67.9062 19.9687 70.7187 20.875 73.0625 22.4688C73.0625 22.4688 73.0938 22.4688 73.125 22.5C73.5 22.75 73.8437 23 74.1562 23.2812C74.1875 23.3125 74.25 23.3438 74.2812 23.375C74.5937 23.625 74.875 23.9062 75.1875 24.1875C75.25 24.25 75.2812 24.2812 75.3437 24.3437C75.625 24.625 75.875 24.9062 76.125 25.1875C76.1875 25.25 76.25 25.3125 76.3125 25.4062C76.5312 25.6875 76.75 25.9688 76.9687 26.2812C77.0312 26.375 77.0937 26.4688 77.1562 26.5312C77.3437 26.8125 77.5312 27.125 77.7187 27.4375C77.7812 27.5312 77.8438 27.625 77.875 27.75C78.0312 28.0625 78.1875 28.375 78.3438 28.7188C78.375 28.8125 78.4375 28.9375 78.4687 29.0312C78.625 29.375 78.75 29.75 78.875 30.0938C78.875 30.1875 78.9375 30.25 78.9687 30.3438C79.0937 30.7813 79.2188 31.2188 79.3125 31.6875C79.4688 32.375 79.5312 33.0938 79.5625 33.8438V35.4375C79.1562 43.1563 72.75 49.3125 64.9375 49.3125C64.125 49.3125 63.5 49.9688 63.5 50.75C63.5 51.5312 64.1562 52.1875 64.9375 52.1875C71.0312 52.1875 76.4375 49.0625 79.5938 44.3125V113.906C76.875 110.156 72.4688 107.688 67.4688 107.688C66.6562 107.688 66.0312 108.344 66.0312 109.125C66.0312 109.906 66.6875 110.562 67.4688 110.562L67.375 110.594ZM132.812 79.9062C130.438 79.9062 128.5 77.9688 128.5 75.5938C128.5 73.2188 130.438 71.2813 132.812 71.2813C135.188 71.2813 137.125 73.2188 137.125 75.5938C137.125 77.9688 135.188 79.9062 132.812 79.9062Z" fill="#0073AD" fill-opacity="0.15"/>
</g>
<defs>
<clipPath id="clip0_111_2736">
<rect width="125" height="120.812" fill="white" transform="translate(15 17)"/>
</clipPath>
</defs>
</svg>
