<svg width="155" height="155" viewBox="0 0 155 155" fill="none" xmlns="http://www.w3.org/2000/svg">
<g clip-path="url(#clip0_8_3756)">
<path d="M49.3438 16.1562V68.5C47.8125 68.25 46.25 68.125 44.6875 68.125C28.3125 68.125 15 81.4375 15 97.8125C15 114.187 28.3125 127.5 44.6875 127.5C46.2812 127.5 47.8438 127.344 49.3438 127.094V138.812C49.3438 139.437 49.8438 139.969 50.5 139.969H138.844C139.469 139.969 140 139.469 140 138.812V16.1562C140 15.5312 139.5 15 138.844 15H50.5C49.875 15 49.3438 15.5 49.3438 16.1562ZM18.125 97.8125C18.125 83.1562 30.0312 71.25 44.6875 71.25C52.5312 71.25 59.9688 74.6875 65.0312 80.7187C69.0312 85.5 71.25 91.5625 71.25 97.8125C71.25 112.469 59.3438 124.375 44.6875 124.375C30.0312 124.375 18.125 112.437 18.125 97.8125ZM68.1562 64.9687H77.4375V96.2187H74.3125C74 90.1875 71.8438 84.4062 68.1562 79.6562V64.9687ZM136.875 136.812H52.4688V126.406C59.1562 124.594 64.875 120.5 68.8125 115H122.781C123.656 115 124.344 114.312 124.344 113.437C124.344 112.562 123.656 111.875 122.781 111.875H70.8125C72.8438 108.125 74.0625 103.844 74.3125 99.3437H79.4375C80.0625 99.3437 80.5938 98.8437 80.5938 98.1875V62.9687C80.5938 62.3437 80.0625 61.8125 79.4375 61.8125H66.2188C65.5937 61.8125 65.0625 62.3125 65.0625 62.9687V76.1562C61.5 72.8125 57.1875 70.4062 52.5 69.125V18.125H136.906V136.812H136.875Z" fill="#0073AD" fill-opacity="0.15"/>
<path d="M86.8125 53.625V98.2188C86.8125 98.8438 87.3438 99.375 87.9688 99.375H101.25C101.875 99.375 102.406 98.875 102.406 98.2188V53.625C102.406 53 101.875 52.4688 101.25 52.4688H87.9688C87.3438 52.4688 86.8125 52.9687 86.8125 53.625ZM89.9375 96.25V55.625H99.25V96.25H89.9375Z" fill="#0073AD" fill-opacity="0.15"/>
<path d="M108.625 59.875V98.2188C108.625 98.8438 109.156 99.375 109.781 99.375H123.094C123.719 99.375 124.25 98.875 124.25 98.2188V59.875C124.25 59.25 123.719 58.7188 123.094 58.7188H109.781C109.156 58.7188 108.625 59.2187 108.625 59.875ZM111.781 96.25V61.875H121.125V96.25H111.781Z" fill="#0073AD" fill-opacity="0.15"/>
<path d="M71.875 52.1563C72.1563 52.375 72.4688 52.4688 72.8125 52.4688C73.1563 52.4688 73.4375 52.375 73.7188 52.1875L94.8125 37.25L116.031 49.0938C116.656 49.4375 117.406 49.3125 117.906 48.8438L127.563 39.125V44.75C127.563 45.625 128.25 46.3125 129.125 46.3125C130 46.3125 130.688 45.625 130.688 44.75V35.3438C130.688 35.125 130.656 34.9375 130.563 34.75C130.469 34.5625 130.375 34.375 130.219 34.25C130.219 34.25 130.156 34.2187 130.125 34.1875C130 34.0937 129.875 33.9687 129.719 33.9062C129.594 33.8437 129.438 33.8437 129.281 33.8125C129.219 33.8125 129.188 33.7812 129.125 33.7812H119.656C118.781 33.7812 118.094 34.4688 118.094 35.3438C118.094 36.2188 118.781 36.9063 119.656 36.9063H125.375L116.531 45.7813L95.5 34.0312C94.9688 33.75 94.3125 33.7812 93.8438 34.125L72.875 48.9688L61.3125 40.375C60.625 39.875 59.6563 40 59.125 40.6875C58.5938 41.375 58.75 42.3438 59.4375 42.875L71.9375 52.1563H71.875Z" fill="#0073AD" fill-opacity="0.15"/>
<path d="M59.2812 87.0937L41.7812 106L32 96.4687C31.375 95.875 30.4062 95.875 29.7812 96.4687C29.1875 97.0937 29.1875 98.0625 29.7812 98.6875L40.7187 109.344C41 109.625 41.4062 109.781 41.8125 109.781H41.8437C42.25 109.781 42.6562 109.594 42.9375 109.281L61.5312 89.1875C62.125 88.5625 62.0937 87.5625 61.4375 86.9687C60.8125 86.375 59.8125 86.4062 59.2187 87.0625L59.2812 87.0937Z" fill="#0073AD" fill-opacity="0.15"/>
</g>
<defs>
<clipPath id="clip0_8_3756">
<rect width="125" height="124.937" fill="white" transform="translate(15 15)"/>
</clipPath>
</defs>
</svg>
