<svg width="151" height="60" viewBox="0 0 151 60" fill="none" xmlns="http://www.w3.org/2000/svg">
<g clip-path="url(#clip0_222_302)">
<path d="M150.5 28.4899V25.8499H147.223V21.7474L147.11 21.7849L144.035 22.7299L143.975 22.7449V25.8499H139.115V24.1174C139.115 23.3149 139.295 22.6924 139.647 22.2799C140 21.8749 140.502 21.6649 141.147 21.6649C141.612 21.6649 142.092 21.7774 142.572 21.9874L142.692 22.0399V19.2649L142.632 19.2424C142.182 19.0774 141.568 19.0024 140.81 19.0024C139.858 19.0024 138.987 19.2124 138.23 19.6249C137.472 20.0374 136.88 20.6299 136.46 21.3724C136.047 22.1224 135.83 22.9849 135.83 23.9374V25.8424H133.55V28.4824H135.83V39.5974H139.107V28.4824H143.967V35.5474C143.967 38.4574 145.34 39.9274 148.047 39.9274C148.49 39.9274 148.963 39.8749 149.435 39.7699C149.923 39.6649 150.252 39.5599 150.447 39.4474L150.493 39.4249V36.7624L150.357 36.8524C150.177 36.9724 149.96 37.0699 149.697 37.1374C149.435 37.2124 149.218 37.2499 149.053 37.2499C148.415 37.2499 147.95 37.0774 147.658 36.7399C147.365 36.4024 147.215 35.8024 147.215 34.9699V28.4749H150.493L150.5 28.4899ZM126.252 37.2574C125.067 37.2574 124.13 36.8599 123.47 36.0874C122.803 35.3074 122.473 34.1974 122.473 32.7799C122.473 31.3624 122.81 30.1774 123.478 29.3899C124.138 28.6024 125.067 28.1974 126.237 28.1974C127.407 28.1974 128.277 28.5799 128.922 29.3374C129.575 30.0949 129.905 31.2274 129.905 32.7049C129.905 34.1824 129.597 35.3449 128.982 36.1099C128.375 36.8749 127.46 37.2574 126.268 37.2574M126.395 25.5199C124.13 25.5199 122.33 26.1874 121.04 27.4924C119.758 28.8049 119.105 30.6199 119.105 32.8849C119.105 35.1499 119.743 36.7699 120.995 38.0299C122.248 39.2899 123.95 39.9349 126.065 39.9349C128.18 39.9349 130.025 39.2599 131.315 37.9324C132.597 36.6049 133.25 34.8124 133.25 32.5924C133.25 30.3724 132.643 28.6624 131.435 27.4099C130.228 26.1574 128.54 25.5199 126.402 25.5199M113.833 25.5199C112.288 25.5199 111.013 25.9174 110.038 26.6899C109.055 27.4699 108.56 28.4974 108.56 29.7424C108.56 30.3874 108.665 30.9649 108.875 31.4449C109.085 31.9324 109.415 32.3599 109.85 32.7199C110.285 33.0799 110.952 33.4549 111.837 33.8299C112.58 34.1374 113.143 34.3999 113.495 34.6024C113.84 34.8049 114.088 35.0074 114.223 35.2024C114.358 35.3974 114.425 35.6599 114.425 35.9824C114.425 36.9049 113.735 37.3549 112.31 37.3549C111.785 37.3549 111.178 37.2424 110.518 37.0249C109.865 36.8074 109.243 36.4999 108.688 36.0949L108.553 35.9974V39.1474L108.605 39.1699C109.07 39.3874 109.655 39.5674 110.337 39.7024C111.027 39.8449 111.65 39.9199 112.19 39.9199C113.862 39.9199 115.212 39.5224 116.195 38.7424C117.185 37.9549 117.688 36.9049 117.688 35.6224C117.688 34.6924 117.417 33.8974 116.885 33.2599C116.36 32.6224 115.438 32.0374 114.163 31.5274C113.143 31.1149 112.49 30.7774 112.22 30.5149C111.958 30.2599 111.83 29.9074 111.83 29.4574C111.83 29.0599 111.995 28.7374 112.325 28.4749C112.663 28.2124 113.128 28.0849 113.72 28.0849C114.268 28.0849 114.822 28.1674 115.377 28.3399C115.932 28.5124 116.42 28.7374 116.825 29.0149L116.96 29.1049V26.1124L116.908 26.0899C116.533 25.9324 116.038 25.7899 115.438 25.6774C114.837 25.5649 114.298 25.5124 113.825 25.5124M100.025 37.2574C98.84 37.2574 97.9025 36.8599 97.2425 36.0874C96.575 35.3074 96.245 34.1974 96.245 32.7799C96.245 31.3624 96.5825 30.1774 97.25 29.3899C97.91 28.6024 98.84 28.1974 100.01 28.1974C101.18 28.1974 102.05 28.5799 102.695 29.3374C103.347 30.0949 103.678 31.2274 103.678 32.7049C103.678 34.1824 103.37 35.3449 102.755 36.1099C102.147 36.8749 101.233 37.2574 100.04 37.2574M100.167 25.5199C97.9025 25.5199 96.095 26.1874 94.8125 27.4924C93.53 28.8049 92.8775 30.6199 92.8775 32.8849C92.8775 35.1499 93.515 36.7699 94.7675 38.0299C96.02 39.2899 97.7225 39.9349 99.8375 39.9349C101.952 39.9349 103.797 39.2599 105.087 37.9324C106.37 36.6049 107.022 34.8124 107.022 32.5924C107.022 30.3724 106.415 28.6624 105.208 27.4099C104 26.1574 102.312 25.5199 100.175 25.5199M87.9125 28.2274V25.8424H84.68V39.5899H87.9125V32.5549C87.9125 31.3624 88.1825 30.3799 88.7225 29.6374C89.2475 28.9024 89.9525 28.5349 90.815 28.5349C91.1075 28.5349 91.43 28.5799 91.79 28.6774C92.1425 28.7749 92.3975 28.8724 92.5475 28.9849L92.6825 29.0824V25.8199L92.63 25.7974C92.33 25.6699 91.9025 25.6024 91.3625 25.6024C90.5525 25.6024 89.825 25.8649 89.2025 26.3749C88.655 26.8249 88.2575 27.4474 87.9575 28.2199H87.92L87.9125 28.2274ZM78.8825 25.5199C77.3975 25.5199 76.0775 25.8349 74.9525 26.4649C73.8275 27.0949 72.95 27.9949 72.3575 29.1349C71.765 30.2749 71.465 31.6024 71.465 33.0874C71.465 34.3849 71.7575 35.5774 72.3275 36.6274C72.905 37.6774 73.715 38.5024 74.75 39.0724C75.7775 39.6424 76.97 39.9349 78.29 39.9349C79.8275 39.9349 81.14 39.6274 82.19 39.0199L82.235 38.9974V36.0349L82.1 36.1324C81.62 36.4774 81.0875 36.7549 80.5175 36.9574C79.9475 37.1599 79.4225 37.2574 78.965 37.2574C77.6975 37.2574 76.6775 36.8599 75.935 36.0799C75.1925 35.2924 74.8175 34.1974 74.8175 32.8099C74.8175 31.4224 75.2075 30.2899 75.98 29.4499C76.7525 28.6174 77.7725 28.1974 79.0175 28.1974C80.0825 28.1974 81.1175 28.5574 82.1 29.2699L82.235 29.3674V26.2474L82.19 26.2249C81.8225 26.0149 81.32 25.8499 80.69 25.7149C80.0675 25.5874 79.46 25.5199 78.8825 25.5199ZM69.2375 25.8499H66.005V39.5974H69.2375V25.8499ZM67.655 19.9924C67.1225 19.9924 66.6575 20.1724 66.275 20.5324C65.8925 20.8924 65.6975 21.3424 65.6975 21.8824C65.6975 22.4224 65.8925 22.8574 66.2675 23.2024C66.6425 23.5549 67.1075 23.7274 67.655 23.7274C68.2025 23.7274 68.6675 23.5474 69.0425 23.2024C69.425 22.8499 69.62 22.4074 69.62 21.8824C69.62 21.3574 69.4325 20.9149 69.0575 20.5474C68.6825 20.1799 68.21 19.9924 67.6475 19.9924M59.585 24.8374V39.6049H62.885V20.4124H58.3175L52.5125 34.6624L46.88 20.4124H42.125V39.5974H45.23V24.8299H45.335L51.2825 39.5974H53.6225L59.48 24.8299H59.585V24.8374Z" fill="#19273D"/>
<path d="M15.7175 29.2175H0.5V14H15.7175V29.2175Z" fill="#19273D"/>
<path d="M32.5175 29.2175H17.3V14H32.5175V29.2175Z" fill="#19273D"/>
<path d="M15.7175 46.025H0.5V30.8075H15.7175V46.025Z" fill="#19273D"/>
<path d="M32.5175 46.025H17.3V30.8075H32.5175V46.025Z" fill="#19273D"/>
</g>
<defs>
<clipPath id="clip0_222_302">
<rect width="150" height="32.025" fill="white" transform="translate(0.5 14)"/>
</clipPath>
</defs>
</svg>
