<svg width="155" height="155" viewBox="0 0 155 155" fill="none" xmlns="http://www.w3.org/2000/svg">
<g clip-path="url(#clip0_111_2741)">
<path d="M121.125 119.25L98.4687 20.9375C97.5312 16.8437 93.4062 14.25 89.3124 15.2187L39.9374 26.5625C35.8124 27.5312 33.2499 31.625 34.1874 35.75L56.8437 134.094C57.3124 136.094 58.4999 137.781 60.2499 138.844C61.4687 139.625 62.8749 140 64.2812 140C64.8437 140 65.4374 139.937 65.9999 139.812L115.375 128.437C119.469 127.5 122.062 123.375 121.094 119.281L121.125 119.25ZM55.7812 116.969L41.1249 53.3438C41.1249 53.3438 41.3749 53.4062 41.4687 53.4062C41.5624 53.4062 41.6874 53.4062 41.7812 53.375L99.3437 40.125C99.5624 40.0625 99.7812 39.9375 99.9374 39.8125L114.594 103.437C114.375 103.375 114.156 103.344 113.906 103.406L56.3437 116.656C56.1249 116.719 55.9062 116.844 55.7499 116.969H55.7812ZM40.5624 29.2812L89.9374 17.9062C90.3124 17.8125 90.6562 17.7812 91.0312 17.7812C93.2499 17.7812 95.2499 19.3125 95.7499 21.5625L99.4062 37.4375C99.1874 37.375 98.9687 37.3437 98.7187 37.4375L41.1562 50.6562C40.9374 50.7187 40.7187 50.8438 40.5624 50.9688L36.9062 35.125C36.3124 32.5312 37.9374 29.9062 40.5312 29.3125L40.5624 29.2812ZM117.781 123.562C117.094 124.656 116.031 125.437 114.75 125.719L65.3749 137.094C64.1249 137.375 62.8124 137.156 61.7187 136.469C60.6249 135.781 59.8437 134.719 59.5624 133.438L56.3124 119.344C56.3124 119.344 56.5624 119.406 56.6562 119.406C56.7499 119.406 56.8749 119.406 56.9687 119.375L114.531 106.125C114.75 106.062 114.969 105.937 115.125 105.812L118.375 119.906C118.656 121.156 118.437 122.469 117.75 123.562H117.781Z" fill="#0073AD" fill-opacity="0.15"/>
<path d="M94.5313 118.687L80.5001 121.906C79.7501 122.094 79.2813 122.844 79.4688 123.594C79.6251 124.25 80.1876 124.687 80.8126 124.687C80.9063 124.687 81.0313 124.687 81.1251 124.656L95.1563 121.438C95.9063 121.25 96.3751 120.5 96.1876 119.75C96.0001 119 95.2813 118.531 94.5001 118.719L94.5313 118.687Z" fill="#0073AD" fill-opacity="0.15"/>
<path d="M67.3751 36.1875C67.3751 36.1875 67.5938 36.1875 67.6876 36.1562L82.6876 32.6875C83.4376 32.5 83.9063 31.75 83.7188 31C83.5313 30.25 82.8126 29.7812 82.0313 29.9687L67.0313 33.4375C66.2813 33.625 65.8126 34.375 66.0001 35.125C66.1563 35.7812 66.7188 36.2187 67.3438 36.2187L67.3751 36.1875Z" fill="#0073AD" fill-opacity="0.15"/>
<path d="M53.2188 39.4687C53.2188 39.4687 53.4376 39.4687 53.5313 39.4375L56.3126 38.8125C57.0626 38.625 57.5313 37.875 57.3438 37.125C57.1563 36.375 56.4376 35.9062 55.6563 36.0937L52.8751 36.7187C52.1251 36.9062 51.6563 37.6562 51.8438 38.4062C52.0001 39.0625 52.5626 39.5 53.1876 39.5L53.2188 39.4687Z" fill="#0073AD" fill-opacity="0.15"/>
</g>
<defs>
<clipPath id="clip0_111_2741">
<rect width="87.3125" height="125" fill="white" transform="translate(34 15)"/>
</clipPath>
</defs>
</svg>
