<svg width="1512" height="359" viewBox="0 0 1512 359" fill="none" xmlns="http://www.w3.org/2000/svg">
<path d="M1512 0H0V359H1512V0Z" fill="url(#paint0_linear_222_606)"/>
<rect width="1512" height="236" transform="translate(0 122)" fill="#1C273B" fill-opacity="0.6"/>
<mask id="mask0_222_606" style="mask-type:alpha" maskUnits="userSpaceOnUse" x="0" y="0" width="1512" height="359">
<path d="M1512 0H0V359H1512V0Z" fill="url(#paint1_linear_222_606)"/>
</mask>
<g mask="url(#mask0_222_606)">
<ellipse cx="1527" cy="259.5" rx="45" ry="34.5" fill="#A6A7AA"/>
<ellipse cx="1424" cy="360" rx="45" ry="34" fill="#A6A7AA"/>
<ellipse cx="1073" cy="350.5" rx="45" ry="34.5" fill="#A6A7AA"/>
<ellipse cx="658" cy="351.5" rx="45" ry="34.5" fill="#A6A7AA"/>
<ellipse cx="1233" cy="319.5" rx="45" ry="34.5" fill="#A6A7AA"/>
<ellipse cx="369" cy="344.5" rx="45" ry="34.5" fill="#A6A7AA"/>
<ellipse cx="816" cy="347.5" rx="45" ry="34.5" fill="#A6A7AA"/>
<ellipse cx="882" cy="333" rx="45" ry="34" fill="#A6A7AA"/>
<ellipse cx="1156" cy="360" rx="71" ry="54" fill="#A6A7AA"/>
<ellipse cx="1427" cy="341" rx="71" ry="54" fill="#A6A7AA"/>
<ellipse cx="307" cy="370" rx="71" ry="54" fill="#A6A7AA"/>
<ellipse cx="428" cy="350" rx="71" ry="54" fill="#A6A7AA"/>
<ellipse cx="170" cy="342" rx="55" ry="42" fill="#A6A7AA"/>
<ellipse cx="77" cy="333" rx="55" ry="42" fill="#A6A7AA"/>
<ellipse cx="1.5" cy="269.5" rx="45.5" ry="34.5" fill="#A6A7AA"/>
<ellipse cx="53.5" cy="293" rx="28.5" ry="22" fill="#A6A7AA"/>
<ellipse cx="133.5" cy="307" rx="18.5" ry="14" fill="#A6A7AA"/>
<ellipse cx="511.5" cy="330" rx="28.5" ry="22" fill="#A6A7AA"/>
<ellipse cx="225.5" cy="346.5" rx="28.5" ry="21.5" fill="#A6A7AA"/>
<ellipse cx="256.5" cy="330.5" rx="20.5" ry="15.5" fill="#A6A7AA"/>
<ellipse cx="1481" cy="272.5" rx="32" ry="24.5" fill="#A6A7AA"/>
<ellipse cx="1300" cy="332.5" rx="32" ry="24.5" fill="#A6A7AA"/>
<ellipse cx="980" cy="332.5" rx="32" ry="24.5" fill="#A6A7AA"/>
<ellipse cx="930" cy="344" rx="32" ry="25" fill="#A6A7AA"/>
<ellipse cx="563" cy="344.5" rx="32" ry="24.5" fill="#A6A7AA"/>
<ellipse cx="525" cy="362.5" rx="32" ry="24.5" fill="#A6A7AA"/>
<ellipse cx="1443.5" cy="283.5" rx="20.5" ry="15.5" fill="#A6A7AA"/>
<ellipse cx="1336.5" cy="320.5" rx="20.5" ry="15.5" fill="#A6A7AA"/>
<ellipse cx="1334.5" cy="333.5" rx="20.5" ry="15.5" fill="#A6A7AA"/>
<ellipse cx="1015.5" cy="336.5" rx="20.5" ry="15.5" fill="#A6A7AA"/>
<ellipse cx="604.5" cy="333.5" rx="20.5" ry="15.5" fill="#A6A7AA"/>
<ellipse cx="603.5" cy="349.5" rx="20.5" ry="15.5" fill="#A6A7AA"/>
<ellipse cx="709.5" cy="334.5" rx="20.5" ry="15.5" fill="#A6A7AA"/>
<ellipse cx="717.5" cy="349.5" rx="20.5" ry="15.5" fill="#A6A7AA"/>
<ellipse cx="772.5" cy="338.5" rx="20.5" ry="15.5" fill="#A6A7AA"/>
<ellipse cx="745.5" cy="340.5" rx="20.5" ry="15.5" fill="#A6A7AA"/>
<path d="M1335.5 324.67C1344.15 322.263 1361.88 289.22 1361.71 273H1369V324.67C1359.53 325.674 1326.85 327.078 1335.5 324.67Z" fill="#A6A7AA"/>
<path d="M1401.5 324.67C1392.85 322.263 1375.12 289.22 1375.29 273H1368V324.67C1377.47 325.674 1410.15 327.078 1401.5 324.67Z" fill="#A6A7AA"/>
<ellipse cx="1532.5" cy="267" rx="45.5" ry="36" fill="#CFD1D2"/>
<ellipse cx="1388.5" cy="346" rx="45.5" ry="36" fill="#CFD1D2"/>
<ellipse cx="1073" cy="364.5" rx="46" ry="36.5" fill="#CFD1D2"/>
<ellipse cx="651.5" cy="363" rx="45.5" ry="36" fill="#CFD1D2"/>
<ellipse cx="1242" cy="331" rx="46" ry="36" fill="#CFD1D2"/>
<ellipse cx="361" cy="359" rx="46" ry="36" fill="#CFD1D2"/>
<ellipse cx="815" cy="364.5" rx="46" ry="36.5" fill="#CFD1D2"/>
<ellipse cx="875.5" cy="349" rx="45.5" ry="36" fill="#CFD1D2"/>
<ellipse cx="1162" cy="375.5" rx="72" ry="57.5" fill="#CFD1D2"/>
<ellipse cx="1461" cy="342.5" rx="72" ry="57.5" fill="#CFD1D2"/>
<ellipse cx="315" cy="386" rx="72" ry="57" fill="#CFD1D2"/>
<ellipse cx="423" cy="361" rx="72" ry="57" fill="#CFD1D2"/>
<ellipse cx="163.5" cy="358" rx="55.5" ry="44" fill="#CFD1D2"/>
<ellipse cx="78.5" cy="342" rx="55.5" ry="44" fill="#CFD1D2"/>
<ellipse cy="284.5" rx="46" ry="36.5" fill="#CFD1D2"/>
<ellipse cx="46" cy="310" rx="29" ry="23" fill="#CFD1D2"/>
<ellipse cx="126.5" cy="319" rx="18.5" ry="15" fill="#CFD1D2"/>
<ellipse cx="512" cy="338.5" rx="29" ry="22.5" fill="#CFD1D2"/>
<ellipse cx="225" cy="352.5" rx="29" ry="22.5" fill="#CFD1D2"/>
<ellipse cx="260" cy="339.5" rx="21" ry="16.5" fill="#CFD1D2"/>
<ellipse cx="1487" cy="281" rx="33" ry="26" fill="#CFD1D2"/>
<ellipse cx="1304" cy="345.5" rx="33" ry="25.5" fill="#CFD1D2"/>
<ellipse cx="979" cy="348" rx="33" ry="26" fill="#CFD1D2"/>
<ellipse cx="937.5" cy="363.5" rx="32.5" ry="25.5" fill="#CFD1D2"/>
<ellipse cx="561.5" cy="356.5" rx="32.5" ry="25.5" fill="#CFD1D2"/>
<ellipse cx="532.5" cy="373" rx="32.5" ry="26" fill="#CFD1D2"/>
<ellipse cx="1451.5" cy="290" rx="20.5" ry="16" fill="#CFD1D2"/>
<ellipse cx="1342" cy="328.5" rx="21" ry="16.5" fill="#CFD1D2"/>
<ellipse cx="1364.5" cy="362.5" rx="20.5" ry="16.5" fill="#CFD1D2"/>
<ellipse cx="1019" cy="359.5" rx="21" ry="16.5" fill="#CFD1D2"/>
<ellipse cx="601.5" cy="340.5" rx="20.5" ry="16.5" fill="#CFD1D2"/>
<ellipse cx="612" cy="359.5" rx="21" ry="16.5" fill="#CFD1D2"/>
<ellipse cx="700.5" cy="347" rx="20.5" ry="16" fill="#CFD1D2"/>
<ellipse cx="728.5" cy="359.5" rx="20.5" ry="16.5" fill="#CFD1D2"/>
<ellipse cx="762.5" cy="350" rx="20.5" ry="16" fill="#CFD1D2"/>
<ellipse cx="750.5" cy="362.5" rx="20.5" ry="16.5" fill="#CFD1D2"/>
<path d="M1344 324.67C1352.65 322.263 1361.88 289.22 1361.71 273H1369V324.67C1359.53 325.674 1335.35 327.078 1344 324.67Z" fill="#CFD1D2"/>
<path d="M1392 324.67C1383.35 322.263 1375.12 289.22 1375.29 273H1368V324.67C1377.47 325.674 1400.65 327.078 1392 324.67Z" fill="#CFD1D2"/>
<ellipse cx="1544.5" cy="275.5" rx="47.5" ry="37.5" fill="white"/>
<ellipse cx="1396.5" cy="357.5" rx="47.5" ry="37.5" fill="white"/>
<ellipse cx="1072.5" cy="376.5" rx="47.5" ry="37.5" fill="white"/>
<ellipse cx="640.5" cy="380" rx="47.5" ry="38" fill="white"/>
<ellipse cx="1243.5" cy="342.5" rx="47.5" ry="37.5" fill="white"/>
<ellipse cx="327.5" cy="371.5" rx="47.5" ry="37.5" fill="white"/>
<ellipse cx="799.5" cy="376.5" rx="47.5" ry="37.5" fill="white"/>
<ellipse cx="873.5" cy="361.5" rx="47.5" ry="37.5" fill="white"/>
<ellipse cx="1160" cy="388.5" rx="75" ry="59.5" fill="white"/>
<ellipse cx="1472" cy="354" rx="75" ry="59" fill="white"/>
<ellipse cx="267" cy="401.5" rx="75" ry="59.5" fill="white"/>
<ellipse cx="417" cy="374" rx="75" ry="59" fill="white"/>
<ellipse cx="122" cy="360.5" rx="58" ry="45.5" fill="white"/>
<ellipse cx="34" cy="360.5" rx="58" ry="45.5" fill="white"/>
<ellipse cx="-6" cy="293" rx="48" ry="38" fill="white"/>
<ellipse cx="42" cy="320.5" rx="30" ry="23.5" fill="white"/>
<ellipse cx="83.5" cy="319.5" rx="19.5" ry="15.5" fill="white"/>
<ellipse cx="506" cy="350.5" rx="30" ry="23.5" fill="white"/>
<ellipse cx="190" cy="367.5" rx="30" ry="23.5" fill="white"/>
<ellipse cx="222.5" cy="351" rx="21.5" ry="17" fill="white"/>
<ellipse cx="1497" cy="290" rx="34" ry="27" fill="white"/>
<ellipse cx="1309" cy="360" rx="34" ry="27" fill="white"/>
<ellipse cx="977" cy="357" rx="34" ry="27" fill="white"/>
<ellipse cx="932" cy="377.5" rx="34" ry="26.5" fill="white"/>
<ellipse cx="547" cy="374" rx="34" ry="27" fill="white"/>
<ellipse cx="1460.5" cy="300" rx="21.5" ry="17" fill="white"/>
<ellipse cx="1347.5" cy="340" rx="21.5" ry="17" fill="white"/>
<ellipse cx="1360.5" cy="355" rx="21.5" ry="17" fill="white"/>
<ellipse cx="1011.5" cy="371" rx="21.5" ry="17" fill="white"/>
<ellipse cx="593.5" cy="357" rx="21.5" ry="17" fill="white"/>
<ellipse cx="588.5" cy="371" rx="21.5" ry="17" fill="white"/>
<ellipse cx="687.5" cy="359" rx="21.5" ry="17" fill="white"/>
<ellipse cx="709.5" cy="371" rx="21.5" ry="17" fill="white"/>
<ellipse cx="744.5" cy="362" rx="21.5" ry="17" fill="white"/>
<ellipse cx="732.5" cy="374" rx="21.5" ry="17" fill="white"/>
<path d="M1351.4 329.67C1360.05 327.263 1361.88 294.22 1361.71 278H1369V329.67C1359.53 330.674 1342.75 332.078 1351.4 329.67Z" fill="white"/>
<path d="M1385.6 329.67C1376.95 327.263 1375.12 294.22 1375.29 278H1368V329.67C1377.47 330.674 1394.25 332.078 1385.6 329.67Z" fill="white"/>
<path d="M1344.66 261.44V165.04C1344.66 156.39 1349.95 146.91 1353.11 142.03C1358.91 133.07 1364.03 125.01 1368.35 125.01C1372.67 125.01 1377.79 133.06 1383.59 142.01C1386.75 146.89 1392.04 156.36 1392.04 165.05V261.45H1344.66V261.44Z" fill="#0EB2E5"/>
<g style="mix-blend-mode:multiply" opacity="0.37">
<path d="M1368.35 125C1372.67 125 1377.79 133.05 1383.59 142C1386.75 146.88 1392.04 156.35 1392.04 165.04V261.44H1368.44C1368.44 261.44 1368.35 139.06 1368.35 125.01V125Z" fill="#0073AC"/>
</g>
<path d="M1398.62 270.05V165.98C1398.62 165.92 1398.62 165.87 1398.62 165.81C1398.62 163.59 1396.11 160.26 1394.23 158.08C1393.15 156.83 1391.22 156.83 1390.14 158.08C1388.25 160.27 1385.74 163.59 1385.74 165.81C1385.74 165.87 1385.74 165.92 1385.75 165.98H1385.74V270.05L1384.76 276.01H1400.14L1398.63 270.05H1398.62Z" fill="#808083"/>
<mask id="mask1_222_606" style="mask-type:luminance" maskUnits="userSpaceOnUse" x="1384" y="157" width="17" height="120">
<path d="M1398.62 270.05V165.98C1398.62 165.92 1398.62 165.87 1398.62 165.81C1398.62 163.59 1396.11 160.26 1394.23 158.08C1393.15 156.83 1391.22 156.83 1390.14 158.08C1388.25 160.27 1385.74 163.59 1385.74 165.81C1385.74 165.87 1385.74 165.92 1385.75 165.98H1385.74V270.05L1384.76 276.01H1400.14L1398.63 270.05H1398.62Z" fill="white"/>
</mask>
<g mask="url(#mask1_222_606)">
<path d="M1400.46 267.86H1383.89V270.07H1400.46V267.86Z" fill="#E5E6E6"/>
<g style="mix-blend-mode:multiply" opacity="0.3">
<path d="M1402.66 156.94H1392.17V279.78H1402.66V156.94Z" fill="#808083"/>
</g>
</g>
<g opacity="0.5">
<path d="M1398.53 169.12H1384.66V171.33H1398.53V169.12Z" fill="white"/>
</g>
<g opacity="0.5">
<path d="M1398.53 174.5H1384.66V176.71H1398.53V174.5Z" fill="white"/>
</g>
<g opacity="0.5">
<path d="M1398.53 193.1H1384.66V195.31H1398.53V193.1Z" fill="white"/>
</g>
<path d="M1350.36 270.05V165.98C1350.36 165.92 1350.36 165.87 1350.36 165.81C1350.36 163.59 1347.85 160.26 1345.97 158.08C1344.89 156.83 1342.96 156.83 1341.88 158.08C1339.99 160.27 1337.48 163.59 1337.48 165.81C1337.48 165.87 1337.48 165.92 1337.49 165.98H1337.48V270.05L1336.5 276.01H1351.88L1350.37 270.05H1350.36Z" fill="#808083"/>
<mask id="mask2_222_606" style="mask-type:luminance" maskUnits="userSpaceOnUse" x="1336" y="157" width="16" height="120">
<path d="M1350.36 270.05V165.98C1350.36 165.92 1350.36 165.87 1350.36 165.81C1350.36 163.59 1347.85 160.26 1345.97 158.08C1344.89 156.83 1342.96 156.83 1341.88 158.08C1339.99 160.27 1337.48 163.59 1337.48 165.81C1337.48 165.87 1337.48 165.92 1337.49 165.98H1337.48V270.05L1336.5 276.01H1351.88L1350.37 270.05H1350.36Z" fill="white"/>
</mask>
<g mask="url(#mask2_222_606)">
<path d="M1352.21 267.86H1335.64V270.07H1352.21V267.86Z" fill="#E5E6E6"/>
<g style="mix-blend-mode:multiply" opacity="0.3">
<path d="M1354.41 156.94H1343.92V279.78H1354.41V156.94Z" fill="#808083"/>
</g>
</g>
<g opacity="0.5">
<path d="M1351.33 169.12H1337.46V171.33H1351.33V169.12Z" fill="white"/>
</g>
<g opacity="0.5">
<path d="M1351.33 174.5H1337.46V176.71H1351.33V174.5Z" fill="white"/>
</g>
<g opacity="0.5">
<path d="M1351.33 193.1H1337.46V195.31H1351.33V193.1Z" fill="white"/>
</g>
<path d="M1386.72 193.32H1349.97C1348.68 213.36 1337.81 233.56 1322.49 241.79C1314.68 245.99 1310 250.52 1310 258.73V263.65H1426.68V258.73C1426.68 250.52 1422 245.99 1414.19 241.79C1398.87 233.56 1388 213.36 1386.71 193.32H1386.72Z" fill="#0EB2E5"/>
<mask id="mask3_222_606" style="mask-type:luminance" maskUnits="userSpaceOnUse" x="1310" y="193" width="117" height="71">
<path d="M1386.72 193.32H1349.97C1348.68 213.36 1337.81 233.56 1322.49 241.79C1314.68 245.99 1310 250.52 1310 258.73V263.65H1426.68V258.73C1426.68 250.52 1422 245.99 1414.19 241.79C1398.87 233.56 1388 213.36 1386.71 193.32H1386.72Z" fill="white"/>
</mask>
<g mask="url(#mask3_222_606)">
<path d="M1296.78 256.386L1296.77 263.976L1428.61 264.183L1428.62 256.593L1296.78 256.386Z" fill="#0073AC"/>
</g>
<path d="M1346.36 279.75H1390.35L1386.93 267.3V256.95H1349.78V267.3L1346.36 279.75Z" fill="#0EB2E5"/>
<mask id="mask4_222_606" style="mask-type:luminance" maskUnits="userSpaceOnUse" x="1346" y="256" width="45" height="24">
<path d="M1346.36 279.75H1390.35L1386.93 267.3V256.95H1349.78V267.3L1346.36 279.75Z" fill="white"/>
</mask>
<g mask="url(#mask4_222_606)">
<path d="M1368.85 267.39H1348.17V271.44H1368.85V267.39Z" fill="#F1F1F1"/>
</g>
<path d="M1368.48 279.75H1390.35L1386.93 267.3V256.95H1368.44L1368.48 279.75Z" fill="#0073AC"/>
<mask id="mask5_222_606" style="mask-type:luminance" maskUnits="userSpaceOnUse" x="1368" y="256" width="23" height="24">
<path d="M1368.48 279.75H1390.35L1386.93 267.3V256.95H1368.44L1368.48 279.75Z" fill="white"/>
</mask>
<g mask="url(#mask5_222_606)">
<path d="M1388.52 267.39H1367.84V271.44H1388.52V267.39Z" fill="#F1F1F1"/>
</g>
<path d="M1386.85 170.93C1386.85 159.16 1372.36 140.55 1368.35 140.55C1364.34 140.55 1349.85 159.21 1349.85 170.93V263.64H1386.85V170.93Z" fill="#DBDBDB"/>
<path d="M1386.85 170.93C1386.85 159.16 1372.36 140.55 1368.35 140.55C1368.35 153.46 1368.44 263.64 1368.44 263.64H1386.85V170.93Z" fill="#BABCBE"/>
<path d="M1377.96 173.48H1380.82C1380.82 168.43 1375.24 161.12 1368.35 161.12C1361.46 161.12 1355.88 168.43 1355.88 173.48H1358.74" fill="#221F1F"/>
<path d="M1369.44 164.58C1372.21 164.58 1374.71 165.85 1376.48 167.52C1374.76 165.29 1371.76 163.38 1368.36 163.38C1363.02 163.38 1359.16 167.88 1358.27 171.33H1359.95C1360.81 168.24 1364.73 164.58 1369.45 164.58H1369.44Z" fill="#BABCBE"/>
<path d="M1381.81 186.65H1355.01V187.18H1381.81V186.65Z" fill="#808083"/>
<path d="M1381.81 201H1355.01V201.53H1381.81V201Z" fill="#808083"/>
<path d="M1372.44 258.57H1364.77L1367.46 215.77H1369.75L1372.44 258.57Z" fill="#0073AC"/>
<path d="M1380.45 224.15H1377.6V237.17H1380.45V224.15Z" fill="#0073AC"/>
<path d="M1380.45 239.33H1377.6V243.6H1380.45V239.33Z" fill="#0073AC"/>
<path d="M1250.69 215.728L1094.01 133.119L1089.93 140.848L1246.62 223.457C1248.75 224.584 1251.4 223.759 1252.52 221.63C1253.65 219.493 1252.82 216.85 1250.69 215.728Z" fill="url(#paint2_linear_222_606)"/>
<path d="M1293 278C1294.66 278 1296 276.657 1296 275C1296 273.343 1294.66 272 1293 272C1291.34 272 1290 273.343 1290 275C1290 276.657 1291.34 278 1293 278Z" fill="white"/>
<path d="M741.5 280C743.433 280 745 278.657 745 277C745 275.343 743.433 274 741.5 274C739.567 274 738 275.343 738 277C738 278.657 739.567 280 741.5 280Z" fill="white"/>
<path d="M219 201C220.657 201 222 199.657 222 198C222 196.343 220.657 195 219 195C217.343 195 216 196.343 216 198C216 199.657 217.343 201 219 201Z" fill="white"/>
<path d="M1153.5 234C1155.43 234 1157 232.657 1157 231C1157 229.343 1155.43 228 1153.5 228C1151.57 228 1150 229.343 1150 231C1150 232.657 1151.57 234 1153.5 234Z" fill="white"/>
<path d="M70.5 165C72.433 165 74 163.433 74 161.5C74 159.567 72.433 158 70.5 158C68.567 158 67 159.567 67 161.5C67 163.433 68.567 165 70.5 165Z" fill="white"/>
<path d="M377.5 189C379.433 189 381 187.433 381 185.5C381 183.567 379.433 182 377.5 182C375.567 182 374 183.567 374 185.5C374 187.433 375.567 189 377.5 189Z" fill="white"/>
<path d="M637 164C639.209 164 641 162.433 641 160.5C641 158.567 639.209 157 637 157C634.791 157 633 158.567 633 160.5C633 162.433 634.791 164 637 164Z" fill="white"/>
<path d="M1488.5 150C1490.43 150 1492 148.433 1492 146.5C1492 144.567 1490.43 143 1488.5 143C1486.57 143 1485 144.567 1485 146.5C1485 148.433 1486.57 150 1488.5 150Z" fill="white"/>
<path d="M1463.5 211C1464.33 211 1465 210.552 1465 210C1465 209.448 1464.33 209 1463.5 209C1462.67 209 1462 209.448 1462 210C1462 210.552 1462.67 211 1463.5 211Z" fill="white"/>
<path d="M1025.5 178C1026.33 178 1027 177.552 1027 177C1027 176.448 1026.33 176 1025.5 176C1024.67 176 1024 176.448 1024 177C1024 177.552 1024.67 178 1025.5 178Z" fill="white"/>
<path d="M1253.5 158C1254.33 158 1255 157.552 1255 157C1255 156.448 1254.33 156 1253.5 156C1252.67 156 1252 156.448 1252 157C1252 157.552 1252.67 158 1253.5 158Z" fill="white"/>
<path d="M1062 263C1062.55 263 1063 262.328 1063 261.5C1063 260.672 1062.55 260 1062 260C1061.45 260 1061 260.672 1061 261.5C1061 262.328 1061.45 263 1062 263Z" fill="white"/>
<path d="M556.5 169C557.328 169 558 168.552 558 168C558 167.448 557.328 167 556.5 167C555.672 167 555 167.448 555 168C555 168.552 555.672 169 556.5 169Z" fill="white"/>
<path d="M297.5 213C298.328 213 299 212.552 299 212C299 211.448 298.328 211 297.5 211C296.672 211 296 211.448 296 212C296 212.552 296.672 213 297.5 213Z" fill="white"/>
<path d="M146 252C146.552 252 147 251.552 147 251C147 250.448 146.552 250 146 250C145.448 250 145 250.448 145 251C145 251.552 145.448 252 146 252Z" fill="white"/>
<path d="M28.5 199C29.3284 199 30 198.552 30 198C30 197.448 29.3284 197 28.5 197C27.6716 197 27 197.448 27 198C27 198.552 27.6716 199 28.5 199Z" fill="white"/>
<path d="M696.5 292C697.328 292 698 291.552 698 291C698 290.448 697.328 290 696.5 290C695.672 290 695 290.448 695 291C695 291.552 695.672 292 696.5 292Z" fill="white"/>
<path d="M441.5 257C442.328 257 443 256.328 443 255.5C443 254.672 442.328 254 441.5 254C440.672 254 440 254.672 440 255.5C440 256.328 440.672 257 441.5 257Z" fill="white"/>
<path d="M851.5 172C852.328 172 853 171.328 853 170.5C853 169.672 852.328 169 851.5 169C850.672 169 850 169.672 850 170.5C850 171.328 850.672 172 851.5 172Z" fill="white"/>
</g>
<defs>
<linearGradient id="paint0_linear_222_606" x1="687" y1="1.19014e-05" x2="687" y2="359" gradientUnits="userSpaceOnUse">
<stop offset="0.342618" stop-color="#1C273B"/>
<stop offset="1" stop-color="#03699E"/>
</linearGradient>
<linearGradient id="paint1_linear_222_606" x1="687" y1="1.19014e-05" x2="687" y2="359" gradientUnits="userSpaceOnUse">
<stop offset="0.342618" stop-color="#1C273B"/>
<stop offset="1" stop-color="#03699E"/>
</linearGradient>
<linearGradient id="paint2_linear_222_606" x1="1252.52" y1="221.63" x2="1091.98" y2="136.988" gradientUnits="userSpaceOnUse">
<stop stop-color="white"/>
<stop offset="1" stop-color="#19273D" stop-opacity="0"/>
</linearGradient>
</defs>
</svg>
