<svg width="1512" height="359" viewBox="0 0 1512 359" fill="none" xmlns="http://www.w3.org/2000/svg">
<path d="M1512 0H0V359H1512V0Z" fill="url(#paint0_linear_301_161)"/>
<rect width="1512" height="236" transform="translate(0 122)" fill="#1C273B" fill-opacity="0.6"/>
<g clip-path="url(#clip0_301_161)">
<path d="M623.2 215.904C619.3 212.604 608.6 213.504 605.3 213.804C601.1 208.304 595.1 204.204 588.4 202.304C581.5 200.304 574.2 200.604 567.5 203.204C555.6 207.704 547.5 218.504 546.4 231.104C546.4 231.904 546.9 232.604 547.7 232.704C548.1 232.704 548.5 232.704 548.7 232.404C549 232.204 549.2 231.804 549.2 231.404C550.2 219.804 557.6 210.004 568.4 205.904C582.8 200.404 598.8 206.504 605.9 220.204L575.5 225.004C573.5 225.304 572.1 226.804 571.8 228.804C571.5 230.804 572.5 232.604 574.3 233.504L582.9 237.704C583.7 238.104 583.7 238.904 583.7 239.204C583.7 239.404 583.5 240.204 582.5 240.404L550.2 245.604C549.8 245.604 549.4 245.904 549.2 246.304C549 246.704 549 247.204 549.2 247.604C549.8 249.004 550.6 250.404 551.4 251.704C542.3 252.504 538.1 250.804 537.3 250.104C536 249.004 535.3 247.304 535.6 245.804C535.9 244.204 537.2 242.904 539.2 242.304C541.3 241.704 553.1 239.604 568.6 237.404C569 237.404 569.3 237.104 569.5 236.804C569.7 236.504 569.8 236.104 569.8 235.704C569.8 235.304 569.5 235.004 569.2 234.804C568.9 234.604 568.5 234.504 568.1 234.504C553.7 236.604 540.9 238.704 538.3 239.504C535.3 240.404 533.2 242.504 532.7 245.204C532.2 247.804 533.2 250.504 535.4 252.304C537.8 254.304 542.9 254.704 546.7 254.704C550.5 254.704 552 254.504 553.3 254.304C559.5 262.304 569.2 267.004 579.3 267.004C583.3 267.004 587.3 266.304 591.1 264.804C602.8 260.304 610.9 249.804 612.1 237.204C612.1 236.804 612.1 236.404 611.8 236.104C611.6 235.804 611.2 235.604 610.8 235.604C610.4 235.604 610 235.604 609.7 235.904C609.4 236.104 609.2 236.504 609.2 236.904C608.1 248.304 600.7 258.004 590 262.004C575.7 267.504 559.7 261.404 552.6 247.904L583 243.004C584.9 242.704 586.3 241.304 586.5 239.404C586.8 237.504 585.9 235.804 584.2 234.904L575.6 230.704C574.8 230.304 574.6 229.604 574.7 229.004C574.7 228.404 575.2 227.804 576 227.704L608.3 222.604C608.7 222.604 609.1 222.304 609.3 221.904C609.5 221.504 609.5 221.004 609.3 220.604C608.7 219.204 607.9 217.804 607.1 216.404C616.2 215.604 620.4 217.304 621.3 218.004C622.6 219.104 623.3 220.804 623 222.304C622.7 223.904 621.4 225.204 619.4 225.804C617.3 226.404 605.4 228.504 589.8 230.804C589 230.904 588.5 231.604 588.6 232.404C588.7 233.204 589.4 233.704 590.2 233.604C604.5 231.604 617.7 229.304 620.2 228.504C623.2 227.604 625.3 225.504 625.8 222.804C626.3 220.204 625.3 217.504 623.1 215.704L623.2 215.904Z" fill="white"/>
<path d="M683.227 208.1C680.327 206.6 676.527 205.8 671.927 205.8H670.027C665.327 205.8 661.427 206.6 658.527 208.1C655.627 209.6 653.427 211.8 652.027 214.6C650.627 217.4 649.927 220.8 649.927 224.7C649.927 230.8 651.527 235.5 654.627 238.9C657.727 242.3 662.827 244 669.927 244H671.827C678.727 244 683.727 242.3 686.827 238.9C689.927 235.5 691.527 230.8 691.527 224.7C691.527 218.6 690.827 217.4 689.527 214.6C688.127 211.8 686.027 209.6 683.127 208.1H683.227ZM683.227 233.2C682.227 235.3 680.827 236.8 678.827 237.7C676.827 238.6 674.327 239.1 671.227 239.1H670.527C667.527 239.1 664.927 238.6 662.927 237.7C660.827 236.8 659.327 235.3 658.327 233.2C657.327 231.1 656.827 228.3 656.827 224.8C656.827 221.3 657.327 218.7 658.327 216.6C659.327 214.5 660.827 213.1 662.927 212.2C664.927 211.3 667.527 210.8 670.627 210.8H671.327C674.327 210.8 676.827 211.2 678.827 212.1C680.827 213 682.327 214.4 683.227 216.5C684.227 218.5 684.727 221.3 684.727 224.8C684.727 228.3 684.227 231.2 683.327 233.3L683.227 233.2Z" fill="white"/>
<path d="M715.226 214C713.726 214 712.426 214.2 711.326 214.6C710.126 215 709.126 215.5 708.226 216.1C707.326 216.7 706.626 217.5 706.026 218.3H705.926C705.926 218.2 706.026 217.1 706.026 217.1V214C705.526 214.3 704.526 214.6 703.226 214.8C701.926 215.1 700.326 215.2 698.526 215.2C698.826 215.2 699.126 215.5 699.326 216.1C699.626 216.7 699.726 217.6 699.726 218.9V239.7C699.726 241 699.626 242 699.326 242.5C699.026 243.1 698.826 243.4 698.526 243.4H707.326C707.026 243.4 706.726 243.1 706.526 242.5C706.226 241.9 706.126 241 706.126 239.7V227.4C706.126 224.4 706.726 222.2 708.026 220.9C709.326 219.6 710.726 218.9 712.426 218.9C714.126 218.9 715.226 219.1 716.526 219.6C717.826 220.1 718.926 220.7 719.926 221.4C720.926 222.1 721.726 222.8 722.226 223.5V221.7L723.426 216.5C722.826 215.9 721.826 215.4 720.326 214.8C718.826 214.2 717.226 214 715.326 214H715.226Z" fill="white"/>
<path d="M754.826 216C752.626 214.7 749.626 214 745.726 214C741.826 214 742.826 214.2 741.626 214.5C740.326 214.8 739.226 215.2 738.326 215.7C737.426 216.2 736.626 216.7 736.126 217.2H736.026C736.026 217.1 736.126 215.9 736.126 215.9V201H728.626C728.926 201 729.226 201.3 729.426 201.9C729.726 202.5 729.826 203.4 729.826 204.7V239.8C729.826 241.1 729.726 242.1 729.426 242.6C729.126 243.2 728.926 243.5 728.626 243.5H736.126V241.2C737.226 242.1 738.526 242.9 740.026 243.4C741.526 243.9 743.426 244.2 745.726 244.2C749.626 244.2 752.626 243.5 754.826 242.2C757.026 240.9 758.626 239.1 759.526 236.8C760.426 234.5 760.926 232 760.926 229.2C760.926 226.4 760.426 223.8 759.526 221.5C758.526 219.2 756.926 217.4 754.726 216.1L754.826 216ZM753.926 234.8C753.426 236.4 752.426 237.6 751.026 238.4C749.626 239.2 747.626 239.6 745.126 239.6C742.626 239.6 739.326 238.6 738.026 236.7C736.726 234.8 736.126 232.2 736.126 229C736.126 225.8 736.326 225.2 736.826 223.6C737.326 222 738.226 220.7 739.526 219.7C740.826 218.7 742.726 218.3 745.126 218.3C747.526 218.3 749.626 218.7 751.026 219.6C752.426 220.5 753.326 221.7 753.926 223.3C754.526 224.9 754.726 226.8 754.726 229.1C754.726 231.4 754.426 233.3 753.926 234.9V234.8Z" fill="white"/>
<path d="M775.127 242.6C774.827 242 774.727 241.1 774.727 239.8V214.6H767.227C767.527 214.6 767.827 214.9 768.027 215.5C768.327 216.1 768.427 217 768.427 218.3V239.8C768.427 241.1 768.327 242.1 768.027 242.6C767.727 243.2 767.527 243.5 767.227 243.5H776.027C775.727 243.5 775.427 243.2 775.227 242.6H775.127Z" fill="white"/>
<path d="M771.027 208.7C772.227 208.7 773.127 208.4 773.827 207.7C774.527 207 774.827 206.2 774.827 205.3C774.827 204.4 774.527 203.6 773.827 202.9C773.227 202.2 772.227 201.9 771.027 201.9C769.827 201.9 768.827 202.2 768.227 202.9C767.627 203.6 767.227 204.4 767.227 205.3C767.227 206.2 767.527 207 768.227 207.7C768.927 208.4 769.827 208.7 771.027 208.7Z" fill="white"/>
<path d="M803.327 218.9C803.327 218 803.427 217.2 803.727 216.4C804.027 215.6 804.227 215 804.527 214.6H792.727V206.4H788.327C788.327 208.5 788.127 210.2 787.627 211.4C787.127 212.6 786.427 213.4 785.327 213.9C784.227 214.4 782.827 214.6 780.927 214.6V218.9H786.427V236.3C786.427 239.1 787.027 241 788.327 242.2C789.627 243.4 791.627 244 794.527 244C797.427 244 797.527 243.8 798.827 243.5C800.027 243.2 801.127 242.8 801.927 242.3C802.827 241.8 803.427 241.4 803.827 241L803.227 237.5V235.6C802.827 236.2 802.327 236.8 801.627 237.4C800.927 238 800.127 238.5 799.327 239C798.427 239.4 797.527 239.6 796.427 239.6C795.327 239.6 794.427 239.4 793.727 238.9C793.027 238.4 792.727 237.2 792.727 235.3V218.8H803.227L803.327 218.9Z" fill="white"/>
<path d="M856.126 224C853.526 223.1 849.926 222.4 845.526 221.9C842.726 221.6 840.327 221.2 838.427 220.7C836.427 220.2 835.026 219.6 834.026 218.8C833.026 218 832.526 216.9 832.526 215.5C832.526 214.1 832.826 213.6 833.526 212.9C834.126 212.2 835.227 211.6 836.727 211.3C838.227 210.9 840.227 210.7 842.827 210.7C845.427 210.7 848.727 210.9 851.227 211.3C853.727 211.7 855.926 212.2 857.626 212.7C859.426 213.3 860.726 213.8 861.626 214.4L859.727 208.9V207.7C858.427 207.3 856.126 206.9 853.026 206.5C849.826 206.1 846.127 205.9 841.827 205.9C837.527 205.9 835.127 206.3 832.727 207.2C830.327 208.1 828.527 209.3 827.427 210.8C826.227 212.3 825.626 214 825.626 216C825.626 218 826.227 220.1 827.327 221.6C828.427 223.1 830.227 224.3 832.727 225.1C835.227 226 838.426 226.7 842.526 227.2C845.626 227.6 848.227 228 850.427 228.5C852.527 229 854.127 229.6 855.227 230.4C856.327 231.2 856.827 232.2 856.827 233.5C856.827 234.8 856.527 235.6 855.827 236.4C855.227 237.2 854.027 237.9 852.227 238.4C850.527 238.9 847.926 239.1 844.526 239.1C841.126 239.1 837.527 238.8 834.827 238.3C832.127 237.8 829.927 237.2 828.327 236.4C826.727 235.7 825.626 235 825.026 234.3L826.227 240.9V242.1C827.727 242.5 830.227 242.9 833.727 243.3C837.227 243.7 841.126 243.9 845.626 243.9C850.126 243.9 851.227 243.7 853.427 243.2C855.627 242.7 857.526 242 859.026 241.1C860.526 240.2 861.727 239.1 862.427 237.8C863.127 236.5 863.526 235.1 863.526 233.5C863.526 231.1 862.927 229.1 861.827 227.6C860.627 226.1 858.826 224.9 856.126 224Z" fill="white"/>
<path d="M900.827 242.6C900.527 242 900.427 241.1 900.427 239.8V214.6H892.927C893.227 214.6 893.527 214.9 893.727 215.5C894.027 216.1 894.126 217 894.126 218.3V228.3C894.126 230.5 893.727 232.4 892.827 234.2C892.027 235.9 890.827 237.3 889.327 238.3C887.827 239.3 886.126 239.8 884.126 239.8C882.126 239.8 880.527 239.2 879.227 237.9C878.027 236.6 877.327 234.2 877.327 230.7V218.4C877.327 217.1 877.527 216.1 877.827 215.6C878.127 215 878.427 214.7 878.727 214.7H869.927C870.227 214.7 870.527 215 870.727 215.6C871.027 216.2 871.126 217.1 871.126 218.4V229.9C871.126 233.6 871.626 236.5 872.526 238.6C873.526 240.7 874.826 242.1 876.626 243C878.426 243.8 880.527 244.3 882.927 244.3C885.327 244.3 885.927 244.1 887.227 243.7C888.527 243.3 889.626 242.8 890.526 242.2C891.426 241.6 892.227 241 892.827 240.3C893.427 239.7 893.826 239.1 894.026 238.6H894.126C894.126 238.7 894.026 240 894.026 240V243.7H901.526C901.226 243.7 900.927 243.4 900.727 242.8L900.827 242.6Z" fill="white"/>
<path d="M912.027 208.7C913.227 208.7 914.127 208.4 914.827 207.7C915.527 207 915.827 206.2 915.827 205.3C915.827 204.4 915.527 203.6 914.827 202.9C914.227 202.2 913.227 201.9 912.027 201.9C910.827 201.9 909.827 202.2 909.227 202.9C908.627 203.6 908.227 204.4 908.227 205.3C908.227 206.2 908.527 207 909.227 207.7C909.927 208.4 910.827 208.7 912.027 208.7Z" fill="white"/>
<path d="M916.127 242.6C915.827 242 915.727 241.1 915.727 239.8V214.6H908.227C908.527 214.6 908.827 214.9 909.027 215.5C909.327 216.1 909.427 217 909.427 218.3V239.8C909.427 241.1 909.327 242.1 909.027 242.6C908.727 243.2 908.527 243.5 908.227 243.5H917.027C916.727 243.5 916.427 243.2 916.227 242.6H916.127Z" fill="white"/>
<path d="M944.327 218.9C944.327 218 944.427 217.2 944.727 216.4C945.027 215.6 945.226 215 945.526 214.6H933.727V206.4H929.327C929.327 208.5 929.126 210.2 928.626 211.4C928.126 212.6 927.427 213.4 926.327 213.9C925.227 214.4 923.827 214.6 921.927 214.6V218.9H927.427V236.3C927.427 239.1 928.027 241 929.327 242.2C930.627 243.4 932.626 244 935.526 244C938.426 244 938.527 243.8 939.827 243.5C941.027 243.2 942.127 242.8 942.927 242.3C943.827 241.8 944.427 241.4 944.827 241L944.227 237.5V235.6C943.827 236.2 943.326 236.8 942.626 237.4C941.926 238 941.127 238.5 940.327 239C939.427 239.4 938.527 239.6 937.427 239.6C936.327 239.6 935.427 239.4 934.727 238.9C934.027 238.4 933.727 237.2 933.727 235.3V218.8H944.227L944.327 218.9Z" fill="white"/>
<path d="M977.727 230C978.827 230.1 979.427 230.3 979.427 230.4V227.5C979.427 226 979.227 224.4 978.927 222.8C978.527 221.2 977.927 219.7 976.927 218.4C975.927 217 974.526 216 972.626 215.1C970.726 214.3 968.327 213.9 965.227 213.9C960.027 213.9 956.027 215.3 953.427 218C950.727 220.7 949.427 224.4 949.427 229C949.427 233.6 949.626 233.1 950.126 234.9C950.626 236.7 951.426 238.3 952.626 239.6C953.826 241 955.426 242 957.526 242.8C959.626 243.6 962.326 243.9 965.526 243.9C968.726 243.9 971.627 243.6 973.927 243.1C976.227 242.6 977.827 242 978.727 241.5L978.126 237.4V236.2C977.426 236.9 976.126 237.7 974.126 238.5C972.126 239.3 969.626 239.6 966.526 239.6C963.426 239.6 960.227 238.7 958.427 236.9C956.627 235.1 955.727 232.7 955.727 229.7H971.927C974.627 229.7 976.526 229.7 977.626 229.9L977.727 230ZM956.927 225.4C956.727 225.2 956.526 224.9 956.526 224.5C956.526 223.4 956.926 222.4 957.626 221.5C958.326 220.6 959.327 219.8 960.727 219.2C962.027 218.6 963.627 218.3 965.327 218.3C967.027 218.3 969.027 218.7 970.227 219.5C971.327 220.3 972.226 221.3 972.626 222.4C973.126 223.6 973.327 224.7 973.327 225.7H958.327C957.627 225.7 957.227 225.6 956.927 225.4Z" fill="white"/>
</g>
<mask id="mask0_301_161" style="mask-type:alpha" maskUnits="userSpaceOnUse" x="0" y="0" width="1512" height="359">
<path d="M1512 0H0V359H1512V0Z" fill="url(#paint1_linear_301_161)"/>
</mask>
<g mask="url(#mask0_301_161)">
<ellipse cx="1527" cy="259.5" rx="45" ry="34.5" fill="#A6A7AA"/>
<ellipse cx="1424" cy="360" rx="45" ry="34" fill="#A6A7AA"/>
<ellipse cx="1073" cy="350.5" rx="45" ry="34.5" fill="#A6A7AA"/>
<ellipse cx="658" cy="351.5" rx="45" ry="34.5" fill="#A6A7AA"/>
<ellipse cx="1233" cy="319.5" rx="45" ry="34.5" fill="#A6A7AA"/>
<ellipse cx="369" cy="344.5" rx="45" ry="34.5" fill="#A6A7AA"/>
<ellipse cx="816" cy="347.5" rx="45" ry="34.5" fill="#A6A7AA"/>
<ellipse cx="882" cy="333" rx="45" ry="34" fill="#A6A7AA"/>
<ellipse cx="1156" cy="360" rx="71" ry="54" fill="#A6A7AA"/>
<ellipse cx="1427" cy="341" rx="71" ry="54" fill="#A6A7AA"/>
<ellipse cx="307" cy="370" rx="71" ry="54" fill="#A6A7AA"/>
<ellipse cx="428" cy="350" rx="71" ry="54" fill="#A6A7AA"/>
<ellipse cx="170" cy="342" rx="55" ry="42" fill="#A6A7AA"/>
<ellipse cx="77" cy="333" rx="55" ry="42" fill="#A6A7AA"/>
<ellipse cx="1.5" cy="269.5" rx="45.5" ry="34.5" fill="#A6A7AA"/>
<ellipse cx="53.5" cy="293" rx="28.5" ry="22" fill="#A6A7AA"/>
<ellipse cx="133.5" cy="307" rx="18.5" ry="14" fill="#A6A7AA"/>
<ellipse cx="511.5" cy="330" rx="28.5" ry="22" fill="#A6A7AA"/>
<ellipse cx="225.5" cy="346.5" rx="28.5" ry="21.5" fill="#A6A7AA"/>
<ellipse cx="256.5" cy="330.5" rx="20.5" ry="15.5" fill="#A6A7AA"/>
<ellipse cx="1481" cy="272.5" rx="32" ry="24.5" fill="#A6A7AA"/>
<ellipse cx="1300" cy="332.5" rx="32" ry="24.5" fill="#A6A7AA"/>
<ellipse cx="980" cy="332.5" rx="32" ry="24.5" fill="#A6A7AA"/>
<ellipse cx="930" cy="344" rx="32" ry="25" fill="#A6A7AA"/>
<ellipse cx="563" cy="344.5" rx="32" ry="24.5" fill="#A6A7AA"/>
<ellipse cx="525" cy="362.5" rx="32" ry="24.5" fill="#A6A7AA"/>
<ellipse cx="1443.5" cy="283.5" rx="20.5" ry="15.5" fill="#A6A7AA"/>
<ellipse cx="1336.5" cy="320.5" rx="20.5" ry="15.5" fill="#A6A7AA"/>
<ellipse cx="1334.5" cy="333.5" rx="20.5" ry="15.5" fill="#A6A7AA"/>
<ellipse cx="1015.5" cy="336.5" rx="20.5" ry="15.5" fill="#A6A7AA"/>
<ellipse cx="604.5" cy="333.5" rx="20.5" ry="15.5" fill="#A6A7AA"/>
<ellipse cx="603.5" cy="349.5" rx="20.5" ry="15.5" fill="#A6A7AA"/>
<ellipse cx="709.5" cy="334.5" rx="20.5" ry="15.5" fill="#A6A7AA"/>
<ellipse cx="717.5" cy="349.5" rx="20.5" ry="15.5" fill="#A6A7AA"/>
<ellipse cx="772.5" cy="338.5" rx="20.5" ry="15.5" fill="#A6A7AA"/>
<ellipse cx="745.5" cy="340.5" rx="20.5" ry="15.5" fill="#A6A7AA"/>
<path d="M1335.5 324.67C1344.15 322.263 1361.88 289.22 1361.71 273H1369V324.67C1359.53 325.674 1326.85 327.078 1335.5 324.67Z" fill="#A6A7AA"/>
<path d="M1401.5 324.67C1392.85 322.263 1375.12 289.22 1375.29 273H1368V324.67C1377.47 325.674 1410.15 327.078 1401.5 324.67Z" fill="#A6A7AA"/>
<ellipse cx="1532.5" cy="267" rx="45.5" ry="36" fill="#CFD1D2"/>
<ellipse cx="1388.5" cy="346" rx="45.5" ry="36" fill="#CFD1D2"/>
<ellipse cx="1073" cy="364.5" rx="46" ry="36.5" fill="#CFD1D2"/>
<ellipse cx="651.5" cy="363" rx="45.5" ry="36" fill="#CFD1D2"/>
<ellipse cx="1242" cy="331" rx="46" ry="36" fill="#CFD1D2"/>
<ellipse cx="361" cy="359" rx="46" ry="36" fill="#CFD1D2"/>
<ellipse cx="815" cy="364.5" rx="46" ry="36.5" fill="#CFD1D2"/>
<ellipse cx="875.5" cy="349" rx="45.5" ry="36" fill="#CFD1D2"/>
<ellipse cx="1162" cy="375.5" rx="72" ry="57.5" fill="#CFD1D2"/>
<ellipse cx="1461" cy="342.5" rx="72" ry="57.5" fill="#CFD1D2"/>
<ellipse cx="315" cy="386" rx="72" ry="57" fill="#CFD1D2"/>
<ellipse cx="423" cy="361" rx="72" ry="57" fill="#CFD1D2"/>
<ellipse cx="163.5" cy="358" rx="55.5" ry="44" fill="#CFD1D2"/>
<ellipse cx="78.5" cy="342" rx="55.5" ry="44" fill="#CFD1D2"/>
<ellipse cy="284.5" rx="46" ry="36.5" fill="#CFD1D2"/>
<ellipse cx="46" cy="310" rx="29" ry="23" fill="#CFD1D2"/>
<ellipse cx="126.5" cy="319" rx="18.5" ry="15" fill="#CFD1D2"/>
<ellipse cx="512" cy="338.5" rx="29" ry="22.5" fill="#CFD1D2"/>
<ellipse cx="225" cy="352.5" rx="29" ry="22.5" fill="#CFD1D2"/>
<ellipse cx="260" cy="339.5" rx="21" ry="16.5" fill="#CFD1D2"/>
<ellipse cx="1487" cy="281" rx="33" ry="26" fill="#CFD1D2"/>
<ellipse cx="1304" cy="345.5" rx="33" ry="25.5" fill="#CFD1D2"/>
<ellipse cx="979" cy="348" rx="33" ry="26" fill="#CFD1D2"/>
<ellipse cx="937.5" cy="363.5" rx="32.5" ry="25.5" fill="#CFD1D2"/>
<ellipse cx="561.5" cy="356.5" rx="32.5" ry="25.5" fill="#CFD1D2"/>
<ellipse cx="532.5" cy="373" rx="32.5" ry="26" fill="#CFD1D2"/>
<ellipse cx="1451.5" cy="290" rx="20.5" ry="16" fill="#CFD1D2"/>
<ellipse cx="1342" cy="328.5" rx="21" ry="16.5" fill="#CFD1D2"/>
<ellipse cx="1364.5" cy="362.5" rx="20.5" ry="16.5" fill="#CFD1D2"/>
<ellipse cx="1019" cy="359.5" rx="21" ry="16.5" fill="#CFD1D2"/>
<ellipse cx="601.5" cy="340.5" rx="20.5" ry="16.5" fill="#CFD1D2"/>
<ellipse cx="612" cy="359.5" rx="21" ry="16.5" fill="#CFD1D2"/>
<ellipse cx="700.5" cy="347" rx="20.5" ry="16" fill="#CFD1D2"/>
<ellipse cx="728.5" cy="359.5" rx="20.5" ry="16.5" fill="#CFD1D2"/>
<ellipse cx="762.5" cy="350" rx="20.5" ry="16" fill="#CFD1D2"/>
<ellipse cx="750.5" cy="362.5" rx="20.5" ry="16.5" fill="#CFD1D2"/>
<path d="M1344 324.67C1352.65 322.263 1361.88 289.22 1361.71 273H1369V324.67C1359.53 325.674 1335.35 327.078 1344 324.67Z" fill="#CFD1D2"/>
<path d="M1392 324.67C1383.35 322.263 1375.12 289.22 1375.29 273H1368V324.67C1377.47 325.674 1400.65 327.078 1392 324.67Z" fill="#CFD1D2"/>
<ellipse cx="1544.5" cy="275.5" rx="47.5" ry="37.5" fill="white"/>
<ellipse cx="1396.5" cy="357.5" rx="47.5" ry="37.5" fill="white"/>
<ellipse cx="1072.5" cy="376.5" rx="47.5" ry="37.5" fill="white"/>
<ellipse cx="640.5" cy="380" rx="47.5" ry="38" fill="white"/>
<ellipse cx="1243.5" cy="342.5" rx="47.5" ry="37.5" fill="white"/>
<ellipse cx="327.5" cy="371.5" rx="47.5" ry="37.5" fill="white"/>
<ellipse cx="799.5" cy="376.5" rx="47.5" ry="37.5" fill="white"/>
<ellipse cx="873.5" cy="361.5" rx="47.5" ry="37.5" fill="white"/>
<ellipse cx="1160" cy="388.5" rx="75" ry="59.5" fill="white"/>
<ellipse cx="1472" cy="354" rx="75" ry="59" fill="white"/>
<ellipse cx="267" cy="401.5" rx="75" ry="59.5" fill="white"/>
<ellipse cx="417" cy="374" rx="75" ry="59" fill="white"/>
<ellipse cx="122" cy="360.5" rx="58" ry="45.5" fill="white"/>
<ellipse cx="34" cy="360.5" rx="58" ry="45.5" fill="white"/>
<ellipse cx="-6" cy="293" rx="48" ry="38" fill="white"/>
<ellipse cx="42" cy="320.5" rx="30" ry="23.5" fill="white"/>
<ellipse cx="83.5" cy="319.5" rx="19.5" ry="15.5" fill="white"/>
<ellipse cx="506" cy="350.5" rx="30" ry="23.5" fill="white"/>
<ellipse cx="190" cy="367.5" rx="30" ry="23.5" fill="white"/>
<ellipse cx="222.5" cy="351" rx="21.5" ry="17" fill="white"/>
<ellipse cx="1497" cy="290" rx="34" ry="27" fill="white"/>
<ellipse cx="1309" cy="360" rx="34" ry="27" fill="white"/>
<ellipse cx="977" cy="357" rx="34" ry="27" fill="white"/>
<ellipse cx="932" cy="377.5" rx="34" ry="26.5" fill="white"/>
<ellipse cx="547" cy="374" rx="34" ry="27" fill="white"/>
<ellipse cx="1460.5" cy="300" rx="21.5" ry="17" fill="white"/>
<ellipse cx="1347.5" cy="340" rx="21.5" ry="17" fill="white"/>
<ellipse cx="1360.5" cy="355" rx="21.5" ry="17" fill="white"/>
<ellipse cx="1011.5" cy="371" rx="21.5" ry="17" fill="white"/>
<ellipse cx="593.5" cy="357" rx="21.5" ry="17" fill="white"/>
<ellipse cx="588.5" cy="371" rx="21.5" ry="17" fill="white"/>
<ellipse cx="687.5" cy="359" rx="21.5" ry="17" fill="white"/>
<ellipse cx="709.5" cy="371" rx="21.5" ry="17" fill="white"/>
<ellipse cx="744.5" cy="362" rx="21.5" ry="17" fill="white"/>
<ellipse cx="732.5" cy="374" rx="21.5" ry="17" fill="white"/>
<path d="M1351.4 329.67C1360.05 327.263 1361.88 294.22 1361.71 278H1369V329.67C1359.53 330.674 1342.75 332.078 1351.4 329.67Z" fill="white"/>
<path d="M1385.6 329.67C1376.95 327.263 1375.12 294.22 1375.29 278H1368V329.67C1377.47 330.674 1394.25 332.078 1385.6 329.67Z" fill="white"/>
<path d="M1344.66 261.44V165.04C1344.66 156.39 1349.95 146.91 1353.11 142.03C1358.91 133.07 1364.03 125.01 1368.35 125.01C1372.67 125.01 1377.79 133.06 1383.59 142.01C1386.75 146.89 1392.04 156.36 1392.04 165.05V261.45H1344.66V261.44Z" fill="#0EB2E5"/>
<g style="mix-blend-mode:multiply" opacity="0.37">
<path d="M1368.35 125C1372.67 125 1377.79 133.05 1383.59 142C1386.75 146.88 1392.04 156.35 1392.04 165.04V261.44H1368.44C1368.44 261.44 1368.35 139.06 1368.35 125.01V125Z" fill="#0073AC"/>
</g>
<path d="M1398.62 270.05V165.98C1398.62 165.92 1398.62 165.87 1398.62 165.81C1398.62 163.59 1396.11 160.26 1394.23 158.08C1393.15 156.83 1391.22 156.83 1390.14 158.08C1388.25 160.27 1385.74 163.59 1385.74 165.81C1385.74 165.87 1385.74 165.92 1385.75 165.98H1385.74V270.05L1384.76 276.01H1400.14L1398.63 270.05H1398.62Z" fill="#808083"/>
<mask id="mask1_301_161" style="mask-type:luminance" maskUnits="userSpaceOnUse" x="1384" y="157" width="17" height="120">
<path d="M1398.62 270.05V165.98C1398.62 165.92 1398.62 165.87 1398.62 165.81C1398.62 163.59 1396.11 160.26 1394.23 158.08C1393.15 156.83 1391.22 156.83 1390.14 158.08C1388.25 160.27 1385.74 163.59 1385.74 165.81C1385.74 165.87 1385.74 165.92 1385.75 165.98H1385.74V270.05L1384.76 276.01H1400.14L1398.63 270.05H1398.62Z" fill="white"/>
</mask>
<g mask="url(#mask1_301_161)">
<path d="M1400.46 267.86H1383.89V270.07H1400.46V267.86Z" fill="#E5E6E6"/>
<g style="mix-blend-mode:multiply" opacity="0.3">
<path d="M1402.66 156.94H1392.17V279.78H1402.66V156.94Z" fill="#808083"/>
</g>
</g>
<g opacity="0.5">
<path d="M1398.53 169.12H1384.66V171.33H1398.53V169.12Z" fill="white"/>
</g>
<g opacity="0.5">
<path d="M1398.53 174.5H1384.66V176.71H1398.53V174.5Z" fill="white"/>
</g>
<g opacity="0.5">
<path d="M1398.53 193.1H1384.66V195.31H1398.53V193.1Z" fill="white"/>
</g>
<path d="M1350.36 270.05V165.98C1350.36 165.92 1350.36 165.87 1350.36 165.81C1350.36 163.59 1347.85 160.26 1345.97 158.08C1344.89 156.83 1342.96 156.83 1341.88 158.08C1339.99 160.27 1337.48 163.59 1337.48 165.81C1337.48 165.87 1337.48 165.92 1337.49 165.98H1337.48V270.05L1336.5 276.01H1351.88L1350.37 270.05H1350.36Z" fill="#808083"/>
<mask id="mask2_301_161" style="mask-type:luminance" maskUnits="userSpaceOnUse" x="1336" y="157" width="16" height="120">
<path d="M1350.36 270.05V165.98C1350.36 165.92 1350.36 165.87 1350.36 165.81C1350.36 163.59 1347.85 160.26 1345.97 158.08C1344.89 156.83 1342.96 156.83 1341.88 158.08C1339.99 160.27 1337.48 163.59 1337.48 165.81C1337.48 165.87 1337.48 165.92 1337.49 165.98H1337.48V270.05L1336.5 276.01H1351.88L1350.37 270.05H1350.36Z" fill="white"/>
</mask>
<g mask="url(#mask2_301_161)">
<path d="M1352.21 267.86H1335.64V270.07H1352.21V267.86Z" fill="#E5E6E6"/>
<g style="mix-blend-mode:multiply" opacity="0.3">
<path d="M1354.41 156.94H1343.92V279.78H1354.41V156.94Z" fill="#808083"/>
</g>
</g>
<g opacity="0.5">
<path d="M1351.33 169.12H1337.46V171.33H1351.33V169.12Z" fill="white"/>
</g>
<g opacity="0.5">
<path d="M1351.33 174.5H1337.46V176.71H1351.33V174.5Z" fill="white"/>
</g>
<g opacity="0.5">
<path d="M1351.33 193.1H1337.46V195.31H1351.33V193.1Z" fill="white"/>
</g>
<path d="M1386.72 193.32H1349.97C1348.68 213.36 1337.81 233.56 1322.49 241.79C1314.68 245.99 1310 250.52 1310 258.73V263.65H1426.68V258.73C1426.68 250.52 1422 245.99 1414.19 241.79C1398.87 233.56 1388 213.36 1386.71 193.32H1386.72Z" fill="#0EB2E5"/>
<mask id="mask3_301_161" style="mask-type:luminance" maskUnits="userSpaceOnUse" x="1310" y="193" width="117" height="71">
<path d="M1386.72 193.32H1349.97C1348.68 213.36 1337.81 233.56 1322.49 241.79C1314.68 245.99 1310 250.52 1310 258.73V263.65H1426.68V258.73C1426.68 250.52 1422 245.99 1414.19 241.79C1398.87 233.56 1388 213.36 1386.71 193.32H1386.72Z" fill="white"/>
</mask>
<g mask="url(#mask3_301_161)">
<path d="M1296.78 256.386L1296.77 263.976L1428.61 264.183L1428.62 256.593L1296.78 256.386Z" fill="#0073AC"/>
</g>
<path d="M1346.36 279.75H1390.35L1386.93 267.3V256.95H1349.78V267.3L1346.36 279.75Z" fill="#0EB2E5"/>
<mask id="mask4_301_161" style="mask-type:luminance" maskUnits="userSpaceOnUse" x="1346" y="256" width="45" height="24">
<path d="M1346.36 279.75H1390.35L1386.93 267.3V256.95H1349.78V267.3L1346.36 279.75Z" fill="white"/>
</mask>
<g mask="url(#mask4_301_161)">
<path d="M1368.85 267.39H1348.17V271.44H1368.85V267.39Z" fill="#F1F1F1"/>
</g>
<path d="M1368.48 279.75H1390.35L1386.93 267.3V256.95H1368.44L1368.48 279.75Z" fill="#0073AC"/>
<mask id="mask5_301_161" style="mask-type:luminance" maskUnits="userSpaceOnUse" x="1368" y="256" width="23" height="24">
<path d="M1368.48 279.75H1390.35L1386.93 267.3V256.95H1368.44L1368.48 279.75Z" fill="white"/>
</mask>
<g mask="url(#mask5_301_161)">
<path d="M1388.52 267.39H1367.84V271.44H1388.52V267.39Z" fill="#F1F1F1"/>
</g>
<path d="M1386.85 170.93C1386.85 159.16 1372.36 140.55 1368.35 140.55C1364.34 140.55 1349.85 159.21 1349.85 170.93V263.64H1386.85V170.93Z" fill="#DBDBDB"/>
<path d="M1386.85 170.93C1386.85 159.16 1372.36 140.55 1368.35 140.55C1368.35 153.46 1368.44 263.64 1368.44 263.64H1386.85V170.93Z" fill="#BABCBE"/>
<path d="M1377.96 173.48H1380.82C1380.82 168.43 1375.24 161.12 1368.35 161.12C1361.46 161.12 1355.88 168.43 1355.88 173.48H1358.74" fill="#221F1F"/>
<path d="M1369.44 164.58C1372.21 164.58 1374.71 165.85 1376.48 167.52C1374.76 165.29 1371.76 163.38 1368.36 163.38C1363.02 163.38 1359.16 167.88 1358.27 171.33H1359.95C1360.81 168.24 1364.73 164.58 1369.45 164.58H1369.44Z" fill="#BABCBE"/>
<path d="M1381.81 186.65H1355.01V187.18H1381.81V186.65Z" fill="#808083"/>
<path d="M1381.81 201H1355.01V201.53H1381.81V201Z" fill="#808083"/>
<path d="M1372.44 258.57H1364.77L1367.46 215.77H1369.75L1372.44 258.57Z" fill="#0073AC"/>
<path d="M1380.45 224.15H1377.6V237.17H1380.45V224.15Z" fill="#0073AC"/>
<path d="M1380.45 239.33H1377.6V243.6H1380.45V239.33Z" fill="#0073AC"/>
<path d="M1250.69 215.728L1094.01 133.119L1089.93 140.849L1246.62 223.457C1248.75 224.584 1251.4 223.759 1252.52 221.63C1253.65 219.493 1252.82 216.85 1250.69 215.728Z" fill="url(#paint2_linear_301_161)"/>
<path d="M1293 278C1294.66 278 1296 276.657 1296 275C1296 273.343 1294.66 272 1293 272C1291.34 272 1290 273.343 1290 275C1290 276.657 1291.34 278 1293 278Z" fill="white"/>
<path d="M741.5 280C743.433 280 745 278.657 745 277C745 275.343 743.433 274 741.5 274C739.567 274 738 275.343 738 277C738 278.657 739.567 280 741.5 280Z" fill="white"/>
<path d="M219 201C220.657 201 222 199.657 222 198C222 196.343 220.657 195 219 195C217.343 195 216 196.343 216 198C216 199.657 217.343 201 219 201Z" fill="white"/>
<path d="M1153.5 234C1155.43 234 1157 232.657 1157 231C1157 229.343 1155.43 228 1153.5 228C1151.57 228 1150 229.343 1150 231C1150 232.657 1151.57 234 1153.5 234Z" fill="white"/>
<path d="M70.5 165C72.433 165 74 163.433 74 161.5C74 159.567 72.433 158 70.5 158C68.567 158 67 159.567 67 161.5C67 163.433 68.567 165 70.5 165Z" fill="white"/>
<path d="M377.5 189C379.433 189 381 187.433 381 185.5C381 183.567 379.433 182 377.5 182C375.567 182 374 183.567 374 185.5C374 187.433 375.567 189 377.5 189Z" fill="white"/>
<path d="M637 164C639.209 164 641 162.433 641 160.5C641 158.567 639.209 157 637 157C634.791 157 633 158.567 633 160.5C633 162.433 634.791 164 637 164Z" fill="white"/>
<path d="M1488.5 150C1490.43 150 1492 148.433 1492 146.5C1492 144.567 1490.43 143 1488.5 143C1486.57 143 1485 144.567 1485 146.5C1485 148.433 1486.57 150 1488.5 150Z" fill="white"/>
<path d="M1463.5 211C1464.33 211 1465 210.552 1465 210C1465 209.448 1464.33 209 1463.5 209C1462.67 209 1462 209.448 1462 210C1462 210.552 1462.67 211 1463.5 211Z" fill="white"/>
<path d="M1025.5 178C1026.33 178 1027 177.552 1027 177C1027 176.448 1026.33 176 1025.5 176C1024.67 176 1024 176.448 1024 177C1024 177.552 1024.67 178 1025.5 178Z" fill="white"/>
<path d="M1253.5 158C1254.33 158 1255 157.552 1255 157C1255 156.448 1254.33 156 1253.5 156C1252.67 156 1252 156.448 1252 157C1252 157.552 1252.67 158 1253.5 158Z" fill="white"/>
<path d="M1062 263C1062.55 263 1063 262.328 1063 261.5C1063 260.672 1062.55 260 1062 260C1061.45 260 1061 260.672 1061 261.5C1061 262.328 1061.45 263 1062 263Z" fill="white"/>
<path d="M556.5 169C557.328 169 558 168.552 558 168C558 167.448 557.328 167 556.5 167C555.672 167 555 167.448 555 168C555 168.552 555.672 169 556.5 169Z" fill="white"/>
<path d="M297.5 213C298.328 213 299 212.552 299 212C299 211.448 298.328 211 297.5 211C296.672 211 296 211.448 296 212C296 212.552 296.672 213 297.5 213Z" fill="white"/>
<path d="M146 252C146.552 252 147 251.552 147 251C147 250.448 146.552 250 146 250C145.448 250 145 250.448 145 251C145 251.552 145.448 252 146 252Z" fill="white"/>
<path d="M28.5 199C29.3284 199 30 198.552 30 198C30 197.448 29.3284 197 28.5 197C27.6716 197 27 197.448 27 198C27 198.552 27.6716 199 28.5 199Z" fill="white"/>
<path d="M696.5 292C697.328 292 698 291.552 698 291C698 290.448 697.328 290 696.5 290C695.672 290 695 290.448 695 291C695 291.552 695.672 292 696.5 292Z" fill="white"/>
<path d="M441.5 257C442.328 257 443 256.328 443 255.5C443 254.672 442.328 254 441.5 254C440.672 254 440 254.672 440 255.5C440 256.328 440.672 257 441.5 257Z" fill="white"/>
<path d="M851.5 172C852.328 172 853 171.328 853 170.5C853 169.672 852.328 169 851.5 169C850.672 169 850 169.672 850 170.5C850 171.328 850.672 172 851.5 172Z" fill="white"/>
</g>
<defs>
<linearGradient id="paint0_linear_301_161" x1="687" y1="1.19014e-05" x2="687" y2="359" gradientUnits="userSpaceOnUse">
<stop offset="0.342618" stop-color="#1C273B"/>
<stop offset="1" stop-color="#03699E"/>
</linearGradient>
<linearGradient id="paint1_linear_301_161" x1="687" y1="1.19014e-05" x2="687" y2="359" gradientUnits="userSpaceOnUse">
<stop offset="0.342618" stop-color="#1C273B"/>
<stop offset="1" stop-color="#03699E"/>
</linearGradient>
<linearGradient id="paint2_linear_301_161" x1="1252.52" y1="221.63" x2="1091.98" y2="136.988" gradientUnits="userSpaceOnUse">
<stop stop-color="white"/>
<stop offset="1" stop-color="#19273D" stop-opacity="0"/>
</linearGradient>
<clipPath id="clip0_301_161">
<rect width="446.853" height="78" fill="white" transform="translate(532.574 201)"/>
</clipPath>
</defs>
</svg>
