<svg width="448" height="78" viewBox="0 0 448 78" fill="none" xmlns="http://www.w3.org/2000/svg">
<g clip-path="url(#clip0_34_1546)">
<path d="M91.2 20.9022C87.3 17.6022 76.6 18.5022 73.3 18.8022C69.1 13.3022 63.1 9.20218 56.4 7.30218C49.5 5.30218 42.2 5.60218 35.5 8.20218C23.6 12.7022 15.5 23.5022 14.4 36.1022C14.4 36.9022 14.9 37.6022 15.7 37.7022C16.1 37.7022 16.5 37.7022 16.7 37.4022C17 37.2022 17.2 36.8022 17.2 36.4022C18.2 24.8022 25.6 15.0022 36.4 10.9022C50.8 5.40218 66.8 11.5022 73.9 25.2022L43.5 30.0022C41.5 30.3022 40.1 31.8022 39.8 33.8022C39.5 35.8022 40.5 37.6022 42.3 38.5022L50.9 42.7022C51.7 43.1022 51.7 43.9022 51.7 44.2022C51.7 44.4022 51.5 45.2022 50.5 45.4022L18.2 50.6022C17.8 50.6022 17.4 50.9022 17.2 51.3022C17 51.7022 17 52.2022 17.2 52.6022C17.8 54.0022 18.6 55.4022 19.4 56.7022C10.3 57.5022 6.10003 55.8022 5.30003 55.1022C4.00003 54.0022 3.30003 52.3022 3.60003 50.8022C3.90003 49.2022 5.20003 47.9022 7.20003 47.3022C9.30003 46.7022 21.1 44.6022 36.6 42.4022C37 42.4022 37.3 42.1022 37.5 41.8022C37.7 41.5022 37.8 41.1022 37.8 40.7022C37.8 40.3022 37.5 40.0022 37.2 39.8022C36.9 39.6022 36.5 39.5022 36.1 39.5022C21.7 41.6022 8.90003 43.7022 6.30003 44.5022C3.30003 45.4022 1.20003 47.5022 0.700033 50.2022C0.200033 52.8022 1.20003 55.5022 3.40003 57.3022C5.80003 59.3022 10.9 59.7022 14.7 59.7022C18.5 59.7022 20 59.5022 21.3 59.3022C27.5 67.3022 37.2 72.0022 47.3 72.0022C51.3 72.0022 55.3 71.3022 59.1 69.8022C70.8 65.3022 78.9 54.8022 80.1 42.2022C80.1 41.8022 80.1 41.4022 79.8 41.1022C79.6 40.8022 79.2 40.6022 78.8 40.6022C78.4 40.6022 78 40.6022 77.7 40.9022C77.4 41.1022 77.2 41.5022 77.2 41.9022C76.1 53.3022 68.7 63.0022 58 67.0022C43.7 72.5022 27.7 66.4022 20.6 52.9022L51 48.0022C52.9 47.7022 54.3 46.3022 54.5 44.4022C54.8 42.5022 53.9 40.8022 52.2 39.9022L43.6 35.7022C42.8 35.3022 42.6 34.6022 42.7 34.0022C42.7 33.4022 43.2 32.8022 44 32.7022L76.3 27.6022C76.7 27.6022 77.1 27.3022 77.3 26.9022C77.5 26.5022 77.5 26.0022 77.3 25.6022C76.7 24.2022 75.9 22.8022 75.1 21.4022C84.2 20.6022 88.4 22.3022 89.3 23.0022C90.6 24.1022 91.3 25.8022 91 27.3022C90.7 28.9022 89.4 30.2022 87.4 30.8022C85.3 31.4022 73.4 33.5022 57.8 35.8022C57 35.9022 56.5 36.6022 56.6 37.4022C56.7 38.2022 57.4 38.7022 58.2 38.6022C72.5 36.6022 85.7 34.3022 88.2 33.5022C91.2 32.6022 93.3 30.5022 93.8 27.8022C94.3 25.2022 93.3 22.5022 91.1 20.7022L91.2 20.9022Z" fill="white"/>
<path d="M151.227 24.45C148.327 22.95 144.527 22.15 139.927 22.15H138.027C133.327 22.15 129.427 22.95 126.527 24.45C123.627 25.95 121.427 28.15 120.027 30.95C118.627 33.75 117.927 37.15 117.927 41.05C117.927 47.15 119.527 51.85 122.627 55.25C125.727 58.65 130.827 60.35 137.927 60.35H139.827C146.727 60.35 151.727 58.65 154.827 55.25C157.927 51.85 159.527 47.15 159.527 41.05C159.527 34.95 158.827 33.75 157.527 30.95C156.127 28.15 154.027 25.95 151.127 24.45H151.227ZM151.227 49.55C150.227 51.65 148.827 53.15 146.827 54.05C144.827 54.95 142.327 55.45 139.227 55.45H138.527C135.527 55.45 132.927 54.95 130.927 54.05C128.827 53.15 127.327 51.65 126.327 49.55C125.327 47.45 124.827 44.65 124.827 41.15C124.827 37.65 125.327 35.05 126.327 32.95C127.327 30.85 128.827 29.45 130.927 28.55C132.927 27.65 135.527 27.15 138.627 27.15H139.327C142.327 27.15 144.827 27.55 146.827 28.45C148.827 29.35 150.327 30.75 151.227 32.85C152.227 34.85 152.727 37.65 152.727 41.15C152.727 44.65 152.227 47.55 151.327 49.65L151.227 49.55Z" fill="white"/>
<path d="M183.226 30.35C181.726 30.35 180.426 30.55 179.326 30.95C178.126 31.35 177.126 31.85 176.226 32.45C175.326 33.05 174.626 33.85 174.026 34.65H173.926C173.926 34.55 174.026 33.45 174.026 33.45V30.35C173.526 30.65 172.526 30.95 171.226 31.15C169.926 31.45 168.326 31.55 166.526 31.55C166.826 31.55 167.126 31.85 167.326 32.45C167.626 33.05 167.726 33.95 167.726 35.25V56.05C167.726 57.35 167.626 58.35 167.326 58.85C167.026 59.45 166.826 59.75 166.526 59.75H175.326C175.026 59.75 174.726 59.45 174.526 58.85C174.226 58.25 174.126 57.35 174.126 56.05V43.75C174.126 40.75 174.726 38.55 176.026 37.25C177.326 35.95 178.726 35.25 180.426 35.25C182.126 35.25 183.226 35.45 184.526 35.95C185.826 36.45 186.926 37.05 187.926 37.75C188.926 38.45 189.726 39.15 190.226 39.85V38.05L191.426 32.85C190.826 32.25 189.826 31.75 188.326 31.15C186.826 30.55 185.226 30.35 183.326 30.35H183.226Z" fill="white"/>
<path d="M222.826 32.35C220.626 31.05 217.626 30.35 213.726 30.35C209.826 30.35 210.826 30.55 209.626 30.85C208.326 31.15 207.226 31.55 206.326 32.05C205.426 32.55 204.626 33.05 204.126 33.55H204.026C204.026 33.45 204.126 32.25 204.126 32.25V17.35H196.626C196.926 17.35 197.226 17.65 197.426 18.25C197.726 18.85 197.826 19.75 197.826 21.05V56.15C197.826 57.45 197.726 58.45 197.426 58.95C197.126 59.55 196.926 59.85 196.626 59.85H204.126V57.55C205.226 58.45 206.526 59.25 208.026 59.75C209.526 60.25 211.426 60.55 213.726 60.55C217.626 60.55 220.626 59.85 222.826 58.55C225.026 57.25 226.626 55.45 227.526 53.15C228.426 50.85 228.926 48.35 228.926 45.55C228.926 42.75 228.426 40.15 227.526 37.85C226.526 35.55 224.926 33.75 222.726 32.45L222.826 32.35ZM221.926 51.15C221.426 52.75 220.426 53.95 219.026 54.75C217.626 55.55 215.626 55.95 213.126 55.95C210.626 55.95 207.326 54.95 206.026 53.05C204.726 51.15 204.126 48.55 204.126 45.35C204.126 42.15 204.326 41.55 204.826 39.95C205.326 38.35 206.226 37.05 207.526 36.05C208.826 35.05 210.726 34.65 213.126 34.65C215.526 34.65 217.626 35.05 219.026 35.95C220.426 36.85 221.326 38.05 221.926 39.65C222.526 41.25 222.726 43.15 222.726 45.45C222.726 47.75 222.426 49.65 221.926 51.25V51.15Z" fill="white"/>
<path d="M243.127 58.95C242.827 58.35 242.727 57.45 242.727 56.15V30.95H235.227C235.527 30.95 235.827 31.25 236.027 31.85C236.327 32.45 236.427 33.35 236.427 34.65V56.15C236.427 57.45 236.327 58.45 236.027 58.95C235.727 59.55 235.527 59.85 235.227 59.85H244.027C243.727 59.85 243.427 59.55 243.227 58.95H243.127Z" fill="white"/>
<path d="M239.027 25.05C240.227 25.05 241.127 24.75 241.827 24.05C242.527 23.35 242.827 22.55 242.827 21.65C242.827 20.75 242.527 19.95 241.827 19.25C241.227 18.55 240.227 18.25 239.027 18.25C237.827 18.25 236.827 18.55 236.227 19.25C235.627 19.95 235.227 20.75 235.227 21.65C235.227 22.55 235.527 23.35 236.227 24.05C236.927 24.75 237.827 25.05 239.027 25.05Z" fill="white"/>
<path d="M271.327 35.25C271.327 34.35 271.427 33.55 271.727 32.75C272.027 31.95 272.227 31.35 272.527 30.95H260.727V22.75H256.327C256.327 24.85 256.127 26.55 255.627 27.75C255.127 28.95 254.427 29.75 253.327 30.25C252.227 30.75 250.827 30.95 248.927 30.95V35.25H254.427V52.65C254.427 55.45 255.027 57.35 256.327 58.55C257.627 59.75 259.627 60.35 262.527 60.35C265.427 60.35 265.527 60.15 266.827 59.85C268.027 59.55 269.127 59.15 269.927 58.65C270.827 58.15 271.427 57.75 271.827 57.35L271.227 53.85V51.95C270.827 52.55 270.327 53.15 269.627 53.75C268.927 54.35 268.127 54.85 267.327 55.35C266.427 55.75 265.527 55.95 264.427 55.95C263.327 55.95 262.427 55.75 261.727 55.25C261.027 54.75 260.727 53.55 260.727 51.65V35.15H271.227L271.327 35.25Z" fill="white"/>
<path d="M324.126 40.35C321.526 39.45 317.926 38.75 313.526 38.25C310.726 37.95 308.327 37.55 306.427 37.05C304.427 36.55 303.026 35.95 302.026 35.15C301.026 34.35 300.526 33.25 300.526 31.85C300.526 30.45 300.826 29.95 301.526 29.25C302.126 28.55 303.227 27.95 304.727 27.65C306.227 27.25 308.227 27.05 310.827 27.05C313.427 27.05 316.727 27.25 319.227 27.65C321.727 28.05 323.926 28.55 325.626 29.05C327.426 29.65 328.726 30.15 329.626 30.75L327.727 25.25V24.05C326.427 23.65 324.126 23.25 321.026 22.85C317.826 22.45 314.127 22.25 309.827 22.25C305.527 22.25 303.127 22.65 300.727 23.55C298.327 24.45 296.527 25.65 295.427 27.15C294.227 28.65 293.626 30.35 293.626 32.35C293.626 34.35 294.227 36.45 295.327 37.95C296.427 39.45 298.227 40.65 300.727 41.45C303.227 42.35 306.426 43.05 310.526 43.55C313.626 43.95 316.227 44.35 318.427 44.85C320.527 45.35 322.127 45.95 323.227 46.75C324.327 47.55 324.827 48.55 324.827 49.85C324.827 51.15 324.527 51.95 323.827 52.75C323.227 53.55 322.027 54.25 320.227 54.75C318.527 55.25 315.926 55.45 312.526 55.45C309.126 55.45 305.527 55.15 302.827 54.65C300.127 54.15 297.927 53.55 296.327 52.75C294.727 52.05 293.626 51.35 293.026 50.65L294.227 57.25V58.45C295.727 58.85 298.227 59.25 301.727 59.65C305.227 60.05 309.126 60.25 313.626 60.25C318.126 60.25 319.227 60.05 321.427 59.55C323.627 59.05 325.526 58.35 327.026 57.45C328.526 56.55 329.727 55.45 330.427 54.15C331.127 52.85 331.526 51.45 331.526 49.85C331.526 47.45 330.927 45.45 329.827 43.95C328.627 42.45 326.826 41.25 324.126 40.35Z" fill="white"/>
<path d="M368.827 58.95C368.527 58.35 368.427 57.45 368.427 56.15V30.95H360.927C361.227 30.95 361.527 31.25 361.727 31.85C362.027 32.45 362.126 33.35 362.126 34.65V44.65C362.126 46.85 361.727 48.75 360.827 50.55C360.027 52.25 358.827 53.65 357.327 54.65C355.827 55.65 354.126 56.15 352.126 56.15C350.126 56.15 348.527 55.55 347.227 54.25C346.027 52.95 345.327 50.55 345.327 47.05V34.75C345.327 33.45 345.527 32.45 345.827 31.95C346.127 31.35 346.427 31.05 346.727 31.05H337.927C338.227 31.05 338.527 31.35 338.727 31.95C339.027 32.55 339.126 33.45 339.126 34.75V46.25C339.126 49.95 339.626 52.85 340.526 54.95C341.526 57.05 342.826 58.45 344.626 59.35C346.426 60.15 348.527 60.65 350.927 60.65C353.327 60.65 353.927 60.45 355.227 60.05C356.527 59.65 357.626 59.15 358.526 58.55C359.426 57.95 360.227 57.35 360.827 56.65C361.427 56.05 361.826 55.45 362.026 54.95H362.126C362.126 55.05 362.026 56.35 362.026 56.35V60.05H369.526C369.226 60.05 368.927 59.75 368.727 59.15L368.827 58.95Z" fill="white"/>
<path d="M380.027 25.05C381.227 25.05 382.127 24.75 382.827 24.05C383.527 23.35 383.827 22.55 383.827 21.65C383.827 20.75 383.527 19.95 382.827 19.25C382.227 18.55 381.227 18.25 380.027 18.25C378.827 18.25 377.827 18.55 377.227 19.25C376.627 19.95 376.227 20.75 376.227 21.65C376.227 22.55 376.527 23.35 377.227 24.05C377.927 24.75 378.827 25.05 380.027 25.05Z" fill="white"/>
<path d="M384.127 58.95C383.827 58.35 383.727 57.45 383.727 56.15V30.95H376.227C376.527 30.95 376.827 31.25 377.027 31.85C377.327 32.45 377.427 33.35 377.427 34.65V56.15C377.427 57.45 377.327 58.45 377.027 58.95C376.727 59.55 376.527 59.85 376.227 59.85H385.027C384.727 59.85 384.427 59.55 384.227 58.95H384.127Z" fill="white"/>
<path d="M412.327 35.25C412.327 34.35 412.427 33.55 412.727 32.75C413.027 31.95 413.226 31.35 413.526 30.95H401.727V22.75H397.327C397.327 24.85 397.126 26.55 396.626 27.75C396.126 28.95 395.427 29.75 394.327 30.25C393.227 30.75 391.827 30.95 389.927 30.95V35.25H395.427V52.65C395.427 55.45 396.027 57.35 397.327 58.55C398.627 59.75 400.626 60.35 403.526 60.35C406.426 60.35 406.527 60.15 407.827 59.85C409.027 59.55 410.127 59.15 410.927 58.65C411.827 58.15 412.427 57.75 412.827 57.35L412.227 53.85V51.95C411.827 52.55 411.326 53.15 410.626 53.75C409.926 54.35 409.127 54.85 408.327 55.35C407.427 55.75 406.527 55.95 405.427 55.95C404.327 55.95 403.427 55.75 402.727 55.25C402.027 54.75 401.727 53.55 401.727 51.65V35.15H412.227L412.327 35.25Z" fill="white"/>
<path d="M445.727 46.35C446.827 46.45 447.427 46.65 447.427 46.75V43.85C447.427 42.35 447.227 40.75 446.927 39.15C446.527 37.55 445.927 36.05 444.927 34.75C443.927 33.35 442.526 32.35 440.626 31.45C438.726 30.65 436.327 30.25 433.227 30.25C428.027 30.25 424.027 31.65 421.427 34.35C418.727 37.05 417.427 40.75 417.427 45.35C417.427 49.95 417.626 49.45 418.126 51.25C418.626 53.05 419.426 54.65 420.626 55.95C421.826 57.35 423.426 58.35 425.526 59.15C427.626 59.95 430.326 60.25 433.526 60.25C436.726 60.25 439.627 59.95 441.927 59.45C444.227 58.95 445.827 58.35 446.727 57.85L446.126 53.75V52.55C445.426 53.25 444.126 54.05 442.126 54.85C440.126 55.65 437.626 55.95 434.526 55.95C431.426 55.95 428.227 55.05 426.427 53.25C424.627 51.45 423.727 49.05 423.727 46.05H439.927C442.627 46.05 444.526 46.05 445.626 46.25L445.727 46.35ZM424.927 41.75C424.727 41.55 424.526 41.25 424.526 40.85C424.526 39.75 424.926 38.75 425.626 37.85C426.326 36.95 427.327 36.15 428.727 35.55C430.027 34.95 431.627 34.65 433.327 34.65C435.027 34.65 437.027 35.05 438.227 35.85C439.327 36.65 440.226 37.65 440.626 38.75C441.126 39.95 441.327 41.05 441.327 42.05H426.327C425.627 42.05 425.227 41.95 424.927 41.75Z" fill="white"/>
</g>
<defs>
<clipPath id="clip0_34_1546">
<rect width="446.853" height="78" fill="white" transform="translate(0.573608)"/>
</clipPath>
</defs>
</svg>
