<svg width="116" height="116" viewBox="0 0 116 116" fill="none" xmlns="http://www.w3.org/2000/svg">
<path d="M94.417 0H21.583C9.66305 0 0 9.66305 0 21.583V94.417C0 106.337 9.66305 116 21.583 116H94.417C106.337 116 116 106.337 116 94.417V21.583C116 9.66305 106.337 0 94.417 0Z" fill="#1C273B"/>
<path d="M12.3909 33.9564H89.0915V72.0431C89.0915 76.0152 85.8576 79.2491 81.8855 79.2491H17.523C14.6934 79.2491 12.3734 76.9467 12.3734 74.0994V33.9564H12.3909Z" fill="#E0E0DF"/>
<path d="M18.2612 22.3036H83.2037C86.4376 22.3036 89.074 24.94 89.074 28.174V33.974H12.3909V28.174C12.3909 24.94 15.0273 22.3036 18.2612 22.3036Z" fill="#F4B734"/>
<path d="M82.9751 29.123H77.9485C77.4212 29.123 76.9818 28.7012 76.9818 28.1564C76.9818 27.6115 77.4036 27.1897 77.9485 27.1897H82.9751C83.5024 27.1897 83.9418 27.6115 83.9418 28.1564C83.9418 28.7012 83.52 29.123 82.9751 29.123Z" fill="white"/>
<path d="M72.9043 29.123H67.8776C67.3503 29.123 66.9109 28.7012 66.9109 28.1564C66.9109 27.6115 67.3328 27.1897 67.8776 27.1897H72.9043C73.4316 27.1897 73.8709 27.6115 73.8709 28.1564C73.8709 28.7012 73.4491 29.123 72.9043 29.123Z" fill="white"/>
<g opacity="0.5">
<path d="M36.1709 79.1964H82.8345C86.2794 79.1964 89.0739 76.4018 89.0739 72.957V33.9212H57.1739L36.1709 79.214V79.1964Z" fill="#B9BBBD"/>
</g>
<path d="M103.609 49.3703C103.609 44.7655 94.5927 41.0394 83.4673 41.0394C72.3418 41.0394 63.3254 44.7655 63.3254 49.3703V85.3655C63.3254 89.9703 72.3418 93.6964 83.4673 93.6964C94.5927 93.6964 103.609 89.9703 103.609 85.3655V49.3703Z" fill="#1BB8E4"/>
<g opacity="0.5">
<path d="M98.2836 43.7285C98.7933 44.4491 99.0745 45.2224 99.0745 46.0309C99.0745 50.6358 90.0581 54.3618 78.9327 54.3618C73.08 54.3618 67.8072 53.3073 64.1339 51.6551C66.5418 55.1351 74.2927 57.6836 83.4848 57.6836C94.6103 57.6836 103.627 53.9576 103.627 49.3527C103.627 47.1733 101.588 45.2048 98.3012 43.7109L98.2836 43.7285Z" fill="#0073AD"/>
</g>
<mask id="mask0_34_1819" style="mask-type:luminance" maskUnits="userSpaceOnUse" x="63" y="41" width="41" height="53">
<path d="M103.609 49.3703C103.609 44.7655 94.5927 41.0394 83.4673 41.0394C72.3418 41.0394 63.3254 44.7655 63.3254 49.3703V85.3655C63.3254 89.9703 72.3418 93.6964 83.4673 93.6964C94.5927 93.6964 103.609 89.9703 103.609 85.3655V73.3612V61.357V49.3527V49.3703Z" fill="white"/>
</mask>
<g mask="url(#mask0_34_1819)">
<path d="M83.4672 82.9224C71.1115 82.9224 61.4272 78.7746 61.4272 73.4843H63.3254C63.3254 77.9309 73.9412 81.0067 83.4497 81.0067C92.9582 81.0067 103.574 77.9133 103.574 73.4843H105.472C105.472 78.7746 95.7879 82.9224 83.4321 82.9224H83.4672Z" fill="#0073AD"/>
<path d="M83.4672 70.7424C71.1115 70.7424 61.4272 66.5946 61.4272 61.3043H63.3254C63.3254 65.7509 73.9412 68.8267 83.4497 68.8267C92.9582 68.8267 103.574 65.7334 103.574 61.3043H105.472C105.472 66.5946 95.7879 70.7424 83.4321 70.7424H83.4672Z" fill="#0073AD"/>
<path d="M83.4672 58.5449C71.1115 58.5449 61.4272 54.397 61.4272 49.1067H63.3254C63.3254 53.5534 73.9412 56.6291 83.4497 56.6291C92.9582 56.6291 103.574 53.5358 103.574 49.1067H105.472C105.472 54.397 95.7879 58.5449 83.4321 58.5449H83.4672Z" fill="#0073AD"/>
</g>
<g opacity="0.5">
<path d="M96.1218 91.8509V55.8733C100.692 54.3442 103.627 52.0067 103.627 49.3879V85.383C103.627 88.0018 100.692 90.357 96.1218 91.8685V91.8509Z" fill="#0073AD"/>
</g>
<path d="M43.0782 43.8164H20.7922C20.2649 43.8164 19.8431 43.3945 19.8431 42.8673C19.8431 42.34 20.2649 41.9182 20.7922 41.9182H43.0958C43.6231 41.9182 44.0449 42.34 44.0449 42.8673C44.0449 43.3945 43.6231 43.8164 43.0958 43.8164H43.0782Z" fill="#808082"/>
<path d="M52.5164 52.4988H20.7922C20.2649 52.4988 19.8431 52.077 19.8431 51.5497C19.8431 51.0225 20.2649 50.6006 20.7922 50.6006H52.534C53.0613 50.6006 53.4831 51.0225 53.4831 51.5497C53.4831 52.077 53.0613 52.4988 52.534 52.4988H52.5164Z" fill="#808082"/>
<path d="M46.5934 61.1812H20.7922C20.2649 61.1812 19.8431 60.7594 19.8431 60.2321C19.8431 59.7048 20.2649 59.283 20.7922 59.283H46.611C47.1382 59.283 47.56 59.7048 47.56 60.2321C47.56 60.7594 47.1382 61.1812 46.611 61.1812H46.5934Z" fill="#808082"/>
<path d="M36.6455 69.8812H20.7746C20.2473 69.8812 19.8255 69.4594 19.8255 68.9321C19.8255 68.4049 20.2473 67.983 20.7746 67.983H36.6455C37.1728 67.983 37.5946 68.4049 37.5946 68.9321C37.5946 69.4594 37.1728 69.8812 36.6455 69.8812Z" fill="#808082"/>
</svg>
