<svg width="150" height="60" viewBox="0 0 150 60" fill="none" xmlns="http://www.w3.org/2000/svg">
<g clip-path="url(#clip0_222_305)">
<path d="M9.1725 30.225C9.4425 32.9325 11.745 35.0625 14.55 35.0625C17.355 35.0625 19.6575 32.94 19.9275 30.225C19.9275 30.045 19.9725 29.865 19.9725 29.685C19.9725 26.7 17.535 24.3075 14.55 24.3075C11.565 24.3075 9.1725 26.745 9.1725 29.685C9.1725 29.82 9.1725 30.045 9.1725 30.225ZM0 29.55C0 21.5025 6.5025 15 14.55 15C22.5975 15 29.145 21.5025 29.145 29.55C29.145 37.5975 22.5975 44.145 14.55 44.145C6.5025 44.145 0 37.59 0 29.55Z" fill="#19273D"/>
<path d="M47.0325 29.46C47.0325 33.885 43.9575 35.8275 41.07 35.8275C37.815 35.8275 35.3325 33.435 35.3325 29.685C35.3325 25.665 37.95 23.3175 41.25 23.3175C44.73 23.3175 47.0325 25.8 47.0325 29.46ZM37.545 29.595C37.545 32.2125 39.0375 34.2 41.16 34.2C43.2825 34.2 44.775 32.2575 44.775 29.55C44.775 27.5175 43.7775 24.945 41.205 24.945C38.6325 24.945 37.545 27.3375 37.545 29.595Z" fill="#19273D"/>
<path d="M59.82 32.3025C59.82 33.525 59.865 34.65 59.91 35.5575H57.9675L57.8325 33.615H57.7875C57.2025 34.5675 55.935 35.8275 53.8125 35.8275C51.915 35.8275 49.7025 34.785 49.7025 30.585V23.58H51.87V30.225C51.87 32.4825 52.545 34.02 54.5325 34.02C55.98 34.02 57.015 33.0225 57.4275 32.0325C57.5625 31.7175 57.6075 31.3125 57.6075 30.9V23.58H59.775L59.82 32.3025Z" fill="#19273D"/>
<path d="M70.98 33.3451C71.61 33.7501 72.7425 34.2001 73.875 34.2001C75.4575 34.2001 76.2225 33.3901 76.2225 32.4376C76.2225 31.3951 75.5925 30.8101 74.01 30.2251C71.8425 29.4601 70.845 28.2826 70.845 26.8351C70.845 24.8926 72.3825 23.3101 74.955 23.3101C76.1775 23.3101 77.2125 23.6701 77.895 24.0301L77.355 25.6126C76.905 25.2976 75.9975 24.9376 74.9175 24.9376C73.605 24.9376 72.93 25.7026 72.93 26.5651C72.93 27.5626 73.65 28.0126 75.1875 28.5976C77.265 29.4076 78.3525 30.4501 78.3525 32.2126C78.3525 34.3351 76.725 35.8276 73.8825 35.8276C72.57 35.8276 71.355 35.4676 70.4925 34.9726L70.9875 33.3451H70.98Z" fill="#19273D"/>
<path d="M92.2575 33.3451C92.8875 33.7501 94.02 34.2001 95.1525 34.2001C96.735 34.2001 97.5 33.3901 97.5 32.4376C97.5 31.3951 96.87 30.8101 95.2875 30.2251C93.12 29.4601 92.1225 28.2826 92.1225 26.8351C92.1225 24.8926 93.66 23.3101 96.2325 23.3101C97.455 23.3101 98.49 23.6701 99.1725 24.0301L98.6325 25.6126C98.1825 25.2976 97.275 24.9376 96.195 24.9376C94.9275 24.9376 94.2075 25.7026 94.2075 26.5651C94.2075 27.5626 94.9275 28.0126 96.465 28.5976C98.5425 29.4076 99.63 30.4501 99.63 32.2126C99.63 34.3351 98.0025 35.8276 95.16 35.8276C93.8475 35.8276 92.6325 35.4676 91.77 34.9726L92.265 33.3451H92.2575Z" fill="#19273D"/>
<path d="M122.303 26.8351C122.303 25.6126 122.257 24.5776 122.212 23.5801H124.11L124.2 25.5226H124.29C124.965 24.3901 126.052 23.3101 128.04 23.3101C129.667 23.3101 130.935 24.3076 131.43 25.7026H131.475C131.835 25.0276 132.33 24.5251 132.832 24.1651C133.552 23.6251 134.325 23.3101 135.495 23.3101C137.077 23.3101 139.425 24.3526 139.425 28.5076V35.5576H137.303V28.7776C137.303 26.4751 136.44 25.0726 134.73 25.0726C133.507 25.0726 132.518 25.9801 132.158 27.0601C132.068 27.3751 131.977 27.7351 131.977 28.1476V35.5576H129.855V28.3726C129.855 26.4751 129 25.0726 127.372 25.0726C126.015 25.0726 125.025 26.1601 124.665 27.2401C124.53 27.5551 124.485 27.9151 124.485 28.3276V35.5576H122.362L122.317 26.8351H122.303Z" fill="#19273D"/>
<path d="M142.635 33.3451C143.265 33.7501 144.397 34.2001 145.53 34.2001C147.112 34.2001 147.877 33.3901 147.877 32.4376C147.877 31.3951 147.247 30.8101 145.665 30.2251C143.497 29.4601 142.5 28.2826 142.5 26.8351C142.5 24.8926 144.037 23.3101 146.61 23.3101C147.832 23.3101 148.867 23.6701 149.55 24.0301L149.01 25.6126C148.56 25.2976 147.652 24.9376 146.572 24.9376C145.26 24.9376 144.585 25.7026 144.585 26.5651C144.585 27.5626 145.305 28.0126 146.842 28.5976C148.92 29.4076 150.007 30.4501 150.007 32.2126C150.007 34.3351 148.38 35.8276 145.537 35.8276C144.225 35.8276 143.01 35.4676 142.147 34.9726L142.642 33.3451H142.635Z" fill="#19273D"/>
<path d="M88.3725 23.5425L85.98 30.5475C85.665 31.4025 85.44 32.4 85.215 33.03H85.17C84.99 32.4 84.675 31.3575 84.405 30.5925L81.7875 23.5425H79.395L83.82 34.6125C83.91 34.8825 83.955 35.0625 83.955 35.1975C83.955 35.3325 83.865 35.5125 83.775 35.7375C83.28 36.87 82.5525 37.68 81.9225 38.175C81.2925 38.715 80.565 39.0825 80.025 39.2625L80.61 41.07C81.15 40.935 82.1925 40.575 83.2275 39.6675C84.72 38.4 85.755 36.2775 87.3375 32.1675L90.5925 23.625L88.38 23.535L88.3725 23.5425Z" fill="#19273D"/>
<path d="M119.55 29.955C119.595 29.73 119.64 29.37 119.64 28.9125C119.64 26.7 118.598 23.265 114.668 23.265C111.188 23.265 109.02 26.115 109.02 29.7225C109.02 33.33 111.233 35.82 114.938 35.82C116.835 35.82 118.103 35.325 118.868 34.965L118.328 33.2925C116.52 34.0575 115.118 34.1925 114.128 33.9675C113.723 33.8775 113.318 33.7425 112.95 33.5175C111.323 32.52 111.143 30.4425 111.098 29.9925V29.9025H119.543V29.9475L119.55 29.955ZM114.487 24.8475C116.925 24.8475 117.563 27.015 117.518 28.4175H111.15C111.33 27.015 112.283 24.8475 114.495 24.8475" fill="#19273D"/>
<path d="M68.31 33.345C68.31 33.345 67.545 33.885 66.9525 33.885C66.1875 33.885 65.685 33.345 65.685 31.8975V25.1625H68.805V23.58H65.685V19.335L63.4275 20.9625V31.7625C63.4275 33.165 63.6975 34.245 64.3275 34.8825C64.6425 35.2425 65.0925 35.5125 65.595 35.6475C67.4025 36.2775 68.85 35.0175 68.85 35.0175L68.31 33.345Z" fill="#19273D"/>
<path d="M107.167 33.345C107.167 33.345 106.403 33.885 105.81 33.885C105.045 33.885 104.542 33.345 104.542 31.8975V25.1625H107.663V23.58H104.542V19.335L102.285 20.9625V31.7625C102.285 33.165 102.555 34.245 103.185 34.8825C103.5 35.2425 103.95 35.5125 104.453 35.6475C106.26 36.2775 107.708 35.0175 107.708 35.0175L107.167 33.345Z" fill="#19273D"/>
</g>
<defs>
<clipPath id="clip0_222_305">
<rect width="150" height="29.145" fill="white" transform="translate(0 15)"/>
</clipPath>
</defs>
</svg>
