<svg width="155" height="155" viewBox="0 0 155 155" fill="none" xmlns="http://www.w3.org/2000/svg">
<g clip-path="url(#clip0_8_3779)">
<path d="M70.5312 91.7188H33.7188C32.9421 91.7188 32.3125 92.3484 32.3125 93.125V93.1563C32.3125 93.9329 32.9421 94.5625 33.7188 94.5625H70.5312C71.3079 94.5625 71.9375 93.9329 71.9375 93.1563V93.125C71.9375 92.3484 71.3079 91.7188 70.5312 91.7188Z" fill="#0073AD" fill-opacity="0.15"/>
<path d="M67.6562 105.969H33.7188C32.9421 105.969 32.3125 106.598 32.3125 107.375V107.406C32.3125 108.183 32.9421 108.812 33.7188 108.812H67.6562C68.4329 108.812 69.0625 108.183 69.0625 107.406V107.375C69.0625 106.598 68.4329 105.969 67.6562 105.969Z" fill="#0073AD" fill-opacity="0.15"/>
<path d="M62.0312 120.219H33.7188C32.9421 120.219 32.3125 120.848 32.3125 121.625V121.656C32.3125 122.433 32.9421 123.063 33.7188 123.063H62.0312C62.8079 123.063 63.4375 122.433 63.4375 121.656V121.625C63.4375 120.848 62.8079 120.219 62.0312 120.219Z" fill="#0073AD" fill-opacity="0.15"/>
<path d="M134 98.5625C133.875 97.875 133.219 97.375 132.562 97.375L128.781 97.4687C128.125 94.8125 127 92.2812 125.469 90L128.062 87.25C128.531 86.75 128.594 85.9688 128.156 85.4062C126.531 83.375 124.625 81.5625 122.5 80.0625C121.937 79.6562 121.156 79.75 120.656 80.25L118.062 83C115.719 81.5938 113.125 80.5937 110.437 80.0937L110.344 76.3125C110.344 75.5938 109.781 75.0312 109.062 74.9375C108.031 74.8125 107 74.7812 106 74.7812V33.0625C106 32.5312 105.562 32.0937 105.031 32.0937H86.0937V24.4062C86.0937 23.875 85.6562 23.4375 85.125 23.4375H74.75C74 17.8125 70.6562 14.9688 64.8437 14.9688C59.0312 14.9688 55.6875 17.8125 54.9375 23.4375H44.6562C44.125 23.4375 43.6875 23.875 43.6875 24.4062V32.0937H21.9687C21.4375 32.0937 21 32.5312 21 33.0625V139.031C21 139.562 21.4375 140 21.9687 140H105.062C105.594 140 106.031 139.562 106.031 139.031V131.531C106.281 131.531 106.5 131.531 106.75 131.531C108 131.5 109.312 131.375 110.625 131.156C111.312 131.031 111.812 130.437 111.781 129.719L111.687 125.937C114.344 125.281 116.875 124.125 119.156 122.625L121.906 125.219C122.406 125.687 123.187 125.75 123.75 125.312C125.781 123.687 127.594 121.781 129.094 119.656C129.5 119.094 129.406 118.312 128.906 117.812L126.156 115.219C127.562 112.875 128.562 110.281 129.062 107.594L132.844 107.5C133.531 107.5 134.125 106.969 134.219 106.281C134.375 104.969 134.406 103.656 134.375 102.406C134.344 101.156 134.219 99.875 134 98.5625ZM64.875 17.8437C69.1562 17.8437 71.3125 19.5 71.9375 23.4687H57.8125C58.4062 19.5312 60.5937 17.8437 64.875 17.8437ZM46.5625 26.2812H83.2812V37.7187H46.5625V26.2812ZM103.187 131.469V137.156H23.8437V34.9375H43.75V39.5937C43.75 40.125 44.1875 40.5625 44.7187 40.5625H85.1875C85.7188 40.5625 86.1562 40.125 86.1562 39.5937V34.9375H103.219V74.9375C102.625 75 102.031 75.0625 101.437 75.1562C100.719 75.2812 100.219 75.875 100.25 76.5937L100.344 80.375C97.6875 81.0312 95.1562 82.1562 92.875 83.6875L90.125 81.0937C89.625 80.625 88.8438 80.5625 88.2812 81C86.25 82.625 84.4375 84.5312 82.9375 86.6562C82.5312 87.2187 82.625 88 83.125 88.5L85.875 91.0937C84.4687 93.4375 83.4687 96.0312 82.9687 98.7188L79.1875 98.8125C78.5 98.8125 77.9062 99.3437 77.8125 100.031C77.6562 101.344 77.625 102.656 77.6562 103.906C77.6875 105.156 77.8125 106.469 78.0312 107.75C78.1562 108.437 78.75 108.906 79.4687 108.937L83.25 108.844C83.9062 111.5 85.0312 114.031 86.5625 116.312L83.9687 119.062C83.5 119.562 83.4375 120.344 83.875 120.906C85.5 122.937 87.4062 124.75 89.5 126.25C90.0625 126.656 90.8437 126.562 91.3437 126.062L93.9375 123.312C96.2812 124.719 98.875 125.719 101.562 126.219L101.656 130C101.656 130.687 102.219 131.281 102.906 131.375C103.312 131.406 103.687 131.437 104.062 131.469H103.187ZM131.5 104.719L127.812 104.812C127.125 104.812 126.531 105.344 126.438 106.031C126 109.156 124.875 112.062 123.125 114.687C122.75 115.25 122.812 116.031 123.312 116.5L125.969 119.031C125.031 120.219 124 121.312 122.875 122.281L120.219 119.75C119.719 119.281 118.937 119.219 118.406 119.656C115.906 121.562 113.062 122.812 109.937 123.437C109.25 123.562 108.781 124.187 108.781 124.875L108.875 128.562C108.125 128.656 107.375 128.719 106.625 128.719C105.875 128.719 105.125 128.719 104.375 128.687L104.281 125C104.281 124.312 103.75 123.719 103.062 123.625C99.9375 123.187 97.0312 122.062 94.4062 120.312C93.8437 119.937 93.0625 120 92.5937 120.5L90.0625 123.156C88.875 122.219 87.7812 121.187 86.8125 120.062L89.3438 117.406C89.8125 116.906 89.875 116.125 89.4375 115.594C87.5312 113.094 86.2812 110.25 85.6562 107.125C85.5312 106.437 84.9062 105.937 84.2187 105.969L80.5312 106.062C80.4375 105.312 80.375 104.562 80.375 103.812C80.375 103.094 80.375 102.312 80.4062 101.562L84.0937 101.469C84.7812 101.469 85.375 100.938 85.4687 100.25C85.9062 97.1562 87.0312 94.1875 88.7812 91.5937C89.1562 91.0312 89.0937 90.25 88.5937 89.7812L85.9375 87.25C86.875 86.0625 87.9062 84.9687 89.0312 84L91.6875 86.5312C92.1875 87 92.9688 87.0625 93.5 86.625C95.9688 84.75 98.9062 83.4375 101.969 82.8437C102.656 82.7187 103.125 82.0937 103.125 81.4062L103.031 77.7187C103.781 77.625 104.531 77.5625 105.281 77.5625C106 77.5625 106.75 77.5625 107.531 77.5937L107.625 81.2812C107.625 81.9687 108.156 82.5625 108.844 82.6562C111.969 83.0937 114.875 84.2187 117.5 85.9687C118.062 86.3437 118.844 86.2812 119.312 85.7812L121.844 83.125C123.031 84.0625 124.125 85.0938 125.094 86.2188L122.562 88.875C122.094 89.375 122.031 90.1562 122.469 90.6875C124.344 93.1562 125.625 96.0937 126.25 99.125C126.375 99.8125 127.031 100.25 127.687 100.281L131.375 100.187C131.469 100.937 131.531 101.687 131.531 102.437C131.531 103.156 131.531 103.938 131.5 104.688V104.719Z" fill="#0073AD" fill-opacity="0.15"/>
<path d="M103.875 91.75C100.844 92.3125 98.1875 94.0313 96.4375 96.5938C94.6875 99.1563 94.0312 102.219 94.5937 105.281C95.1562 108.313 96.875 110.969 99.4375 112.719C101.406 114.063 103.656 114.75 105.969 114.75C106.687 114.75 107.406 114.688 108.125 114.563C114.406 113.406 118.562 107.313 117.406 101.031C116.25 94.75 110.187 90.5625 103.875 91.75ZM107.594 111.781C105.281 112.219 102.969 111.719 101.031 110.406C99.0937 109.094 97.8125 107.094 97.375 104.781C96.5 100.031 99.625 95.4375 104.375 94.5625C104.906 94.4688 105.437 94.4063 105.969 94.4063C110.094 94.4063 113.812 97.3438 114.594 101.563C115.469 106.313 112.344 110.906 107.594 111.781Z" fill="#0073AD" fill-opacity="0.15"/>
<path d="M45.5312 55.0312H33.25C32.7188 55.0312 32.2812 55.4687 32.2812 56V79.4687C32.2812 80 32.7188 80.4375 33.25 80.4375H45.5312C46.0625 80.4375 46.5 80 46.5 79.4687V56C46.5 55.4687 46.0625 55.0312 45.5312 55.0312ZM43.6562 77.5938H35.125V57.8437H43.6562V77.5938Z" fill="#0073AD" fill-opacity="0.15"/>
<path d="M65.375 46.4688H53.125C52.5937 46.4688 52.1562 46.9063 52.1562 47.4375V79.5C52.1562 80.0312 52.5937 80.4688 53.125 80.4688H65.375C65.9062 80.4688 66.3438 80.0312 66.3438 79.5V47.4375C66.3438 46.9063 65.9062 46.4688 65.375 46.4688ZM63.5 77.625H54.9687V49.2813H63.5V77.625Z" fill="#0073AD" fill-opacity="0.15"/>
<path d="M85.1563 63.4688H72.9375C72.4063 63.4688 71.9688 63.9062 71.9688 64.4375V79.5C71.9688 80.0312 72.4063 80.4688 72.9375 80.4688H85.1563C85.6875 80.4688 86.125 80.0312 86.125 79.5V64.4375C86.125 63.9062 85.6875 63.4688 85.1563 63.4688ZM83.2813 77.625H74.8125V66.2812H83.2813V77.625Z" fill="#0073AD" fill-opacity="0.15"/>
</g>
<defs>
<clipPath id="clip0_8_3779">
<rect width="113.375" height="125" fill="white" transform="translate(21 15)"/>
</clipPath>
</defs>
</svg>
