<svg width="91" height="90" viewBox="0 0 91 90" fill="none" xmlns="http://www.w3.org/2000/svg">
<path d="M45.5683 3.93132C42.2264 3.94644 39.0349 4.22401 36.2268 4.70792C27.9543 6.13118 26.4523 9.1102 26.4523 14.604V21.8597H46.0012V24.2782H26.4523H19.1158C13.4344 24.2782 8.45954 27.6038 6.90348 33.9302C5.10857 41.1818 5.02896 45.7069 6.90348 53.2786C8.29308 58.9148 11.6116 62.9307 17.2931 62.9307H24.0144V54.2328C24.0144 47.949 29.5972 42.4063 36.2268 42.4063H55.7529C61.1882 42.4063 65.5273 38.048 65.5273 32.7321V14.604C65.5273 9.44466 61.0579 5.56899 55.7529 4.70792C52.3946 4.16352 48.9102 3.91619 45.5683 3.93132ZM34.9964 9.7669C37.0157 9.7669 38.6647 11.399 38.6647 13.4058C38.6647 15.4055 37.0157 17.0226 34.9964 17.0226C32.9699 17.0226 31.3282 15.4055 31.3282 13.4058C31.3282 11.399 32.9699 9.7669 34.9964 9.7669Z" fill="#1C273B"/>
<path d="M67.2653 24.9307V33.4624C67.2653 40.0769 61.666 45.6441 55.2809 45.6441H36.1193C30.8706 45.6441 26.5273 50.1431 26.5273 55.4074V73.7024C26.5273 78.9093 31.0482 81.9719 36.1193 83.4658C42.1919 85.254 48.0151 85.5772 55.2809 83.4658C60.1106 82.0653 64.8729 79.2468 64.8729 73.7024V66.38H45.7113V63.9391H64.8729H74.4649C80.0403 63.9391 82.1179 60.0443 84.0569 54.1982C86.0598 48.1798 85.9746 42.3921 84.0569 34.6716C82.679 29.1128 80.0474 24.9307 74.4649 24.9307H67.2653ZM56.4883 71.2616C58.477 71.2616 60.0881 72.8935 60.0881 74.9117C60.0881 76.9369 58.477 78.5841 56.4883 78.5841C54.5067 78.5841 52.8885 76.9369 52.8885 74.9117C52.8885 72.8935 54.5067 71.2616 56.4883 71.2616Z" fill="#1C273B"/>
</svg>
