<svg width="150" height="60" viewBox="0 0 150 60" fill="none" xmlns="http://www.w3.org/2000/svg">
<g clip-path="url(#clip0_222_308)">
<path d="M87.615 31.2875C87.255 30.65 87.345 29.855 87.84 29.315L95.4675 21.4325C96.3375 20.5325 95.085 20.5325 95.085 20.5325H87.96C87.165 20.5625 86.415 20.885 85.8525 21.44L78.765 28.94C77.925 29.8475 77.925 28.595 77.925 28.595V12.2C77.9475 11.5175 77.4075 10.955 76.725 10.9325C76.7025 10.9325 76.68 10.9325 76.6575 10.9325H71.25C70.5975 10.9175 70.0575 11.435 70.0425 12.0875C70.0425 12.1025 70.0425 12.125 70.0425 12.14V46.4525C70.02 47.1275 70.5525 47.6975 71.2275 47.72C71.25 47.72 71.28 47.72 71.3025 47.72H76.6575C77.31 47.735 77.8425 47.2175 77.8575 46.5725C77.8575 46.5575 77.8575 46.535 77.8575 46.52V40.475C77.8875 39.68 78.21 38.93 78.7725 38.3675L81.3 35.99L87.6225 46.6325C88.0425 47.2775 88.7475 47.6825 89.5125 47.705H96.2625C97.53 47.705 96.87 46.6325 96.87 46.6325L87.6 31.28L87.615 31.2875ZM64.425 46.4675V21.7325C64.4475 21.0575 63.915 20.4875 63.24 20.465C63.2175 20.465 63.1875 20.465 63.165 20.465H57.765C57.0825 20.4425 56.52 20.9825 56.4975 21.665C56.4975 21.6875 56.4975 21.71 56.4975 21.7325V46.4525C56.475 47.1275 57.0075 47.6975 57.6825 47.72C57.705 47.72 57.735 47.72 57.7575 47.72H63.165C63.84 47.7425 64.41 47.21 64.4325 46.535C64.4325 46.5125 64.4325 46.4825 64.4325 46.46M64.23 15.6725V12.14C64.245 11.4875 63.7275 10.9475 63.075 10.9325C63.06 10.9325 63.0375 10.9325 63.0225 10.9325H57.7125C57.06 10.9175 56.52 11.435 56.505 12.0875C56.505 12.1025 56.505 12.125 56.505 12.14V15.68C56.49 16.3325 57 16.8725 57.6525 16.8875C57.6675 16.8875 57.69 16.8875 57.705 16.8875H63C63.6525 16.9025 64.1925 16.385 64.2075 15.7325C64.2075 15.7175 64.2075 15.695 64.2075 15.68M50.67 46.4675V12.2C50.6925 11.525 50.16 10.955 49.485 10.9325C49.4625 10.9325 49.4325 10.9325 49.41 10.9325H43.9125C43.2375 10.91 42.6675 11.4425 42.645 12.1175C42.645 12.14 42.645 12.17 42.645 12.1925V46.445C42.6225 47.12 43.155 47.69 43.83 47.7125C43.8525 47.7125 43.8825 47.7125 43.905 47.7125H49.4325C50.1075 47.735 50.6775 47.2025 50.7 46.5275C50.7 46.505 50.7 46.475 50.7 46.4525M38.3025 44.9825C38.6925 44.555 38.6625 43.9025 38.235 43.5125C38.22 43.4975 38.2125 43.49 38.1975 43.475L33.7425 39.6275C39.465 31.19 37.26 19.7075 28.815 13.985C20.3775 8.26999 8.9025 10.475 3.18 18.9125C-2.5425 27.35 -0.337502 38.8325 8.1075 44.555C14.2725 48.7325 22.335 48.8 28.5675 44.72L33.4125 48.935C33.8475 49.325 34.515 49.2875 34.8975 48.8525C34.905 48.845 34.9125 48.83 34.92 48.8225L38.295 44.975L38.3025 44.9825ZM29.1225 29.33C29.1225 35.195 24.3675 39.95 18.5025 39.95C12.6375 39.95 7.8825 35.195 7.8825 29.33C7.8825 23.465 12.6375 18.71 18.5025 18.71C24.3675 18.71 29.1225 23.465 29.1225 29.33Z" fill="#1C273B"/>
<path d="M148.958 45.3651L143.055 40.4076C149.28 30.5376 146.325 17.4876 136.455 11.2626C126.578 5.03755 113.528 7.99255 107.303 17.8626C101.078 27.7326 104.032 40.7826 113.902 47.0076C121.117 51.5601 130.373 51.3201 137.348 46.4076L143.647 51.6951C144.142 52.1301 144.9 52.0851 145.335 51.5826C145.35 51.5676 145.358 51.5526 145.373 51.5376L149.115 47.0826C149.55 46.5876 149.505 45.8301 149.01 45.3951C148.995 45.3801 148.98 45.3726 148.973 45.3576M138.172 29.1501C138.172 36.3126 132.368 42.1251 125.205 42.1326C118.043 42.1326 112.23 36.3276 112.223 29.1651C112.223 22.0026 118.027 16.1901 125.19 16.1826C132.352 16.1826 138.165 21.9876 138.165 29.1501" fill="#1C273B"/>
<path d="M116.902 29.15C116.902 24.56 120.623 20.8325 125.22 20.8325C129.818 20.8325 133.538 24.5525 133.538 29.15C133.538 33.7475 129.818 37.4675 125.22 37.4675C120.623 37.4675 116.902 33.7475 116.902 29.15ZM145.402 14.2625C145.402 12.995 146.438 11.9675 147.705 11.9675C148.973 11.9675 150 13.0025 150 14.27C150 15.5375 148.965 16.565 147.697 16.565C147.697 16.565 147.697 16.565 147.69 16.565C146.422 16.565 145.395 15.53 145.395 14.2625M147.69 12.2675C146.617 12.2675 145.755 13.1525 145.755 14.225C145.755 14.24 145.755 14.2475 145.755 14.2625C145.755 15.3275 146.617 16.1975 147.69 16.1975C148.762 16.1975 149.625 15.335 149.625 14.2625C149.655 13.1975 148.815 12.305 147.743 12.275C147.728 12.275 147.705 12.275 147.69 12.275M147.165 15.6425H146.857V12.8525H147.87C148.283 12.8 148.657 13.1 148.71 13.5125C148.71 13.55 148.71 13.5875 148.71 13.625C148.747 14.015 148.47 14.36 148.08 14.405C148.073 14.405 148.057 14.405 148.05 14.405L148.837 15.6725H148.455L147.705 14.405H147.143L147.158 15.6425H147.165ZM147.165 14.1275H147.795C148.162 14.1275 148.425 14.045 148.425 13.6175C148.425 13.2575 148.147 13.115 147.795 13.115H147.165V14.1275Z" fill="#1C273B"/>
</g>
<defs>
<clipPath id="clip0_222_308">
<rect width="150" height="43.995" fill="white" transform="translate(0 8)"/>
</clipPath>
</defs>
</svg>
