<svg width="91" height="90" viewBox="0 0 91 90" fill="none" xmlns="http://www.w3.org/2000/svg">
<g clip-path="url(#clip0_11_4021)">
<path d="M90.6002 50.0859C90.6002 44.2722 83.1338 38.7626 71.6866 35.346C74.3283 23.969 73.1542 14.9175 67.9809 12.0196C66.7885 11.3399 65.3943 11.0179 63.8717 11.0179V15.007C64.7155 15.007 65.3943 15.168 65.963 15.4721C68.4579 16.8674 69.5402 22.1802 68.6964 29.0135C68.4946 30.695 68.1644 32.466 67.7608 34.2727C64.1652 33.414 60.2394 32.7522 56.1118 32.3229C53.6352 29.0135 51.0669 26.0083 48.4803 23.3787C54.4607 17.9585 60.0743 14.9891 63.89 14.9891V11C58.8452 11 52.241 14.5061 45.5635 20.5881C38.8859 14.5419 32.2818 11.0716 27.2369 11.0716V15.0606C31.0343 15.0606 36.6662 18.0122 42.6466 23.3966C40.0784 26.0262 37.5101 29.0135 35.0702 32.3229C30.9243 32.7522 26.9984 33.414 23.4029 34.2906C22.9809 32.5017 22.6691 30.7666 22.4489 29.103C21.5867 22.2696 22.6507 16.9568 25.1273 15.5436C25.6776 15.2216 26.3931 15.0785 27.2369 15.0785V11.0894C25.696 11.0894 24.3017 11.4114 23.091 12.0912C17.9361 14.9891 16.7803 24.0227 19.4404 35.3639C8.02984 38.7984 0.600159 44.2901 0.600159 50.0859C0.600159 55.8996 8.06652 61.4092 19.5137 64.8259C16.8721 76.2028 18.0461 85.2543 23.2194 88.1522C24.4118 88.832 25.806 89.154 27.347 89.154C32.3918 89.154 38.996 85.6479 45.6735 79.5658C52.3511 85.6121 58.9552 89.0824 64.0001 89.0824C65.541 89.0824 66.9353 88.7604 68.146 88.0807C73.3009 85.1828 74.4567 76.1492 71.7967 64.808C83.1705 61.3913 90.6002 55.8817 90.6002 50.0859ZM66.7151 38.1544C66.0364 40.462 65.1925 42.8412 64.2386 45.2203C63.4864 43.7892 62.6976 42.3582 61.8354 40.9271C60.9915 39.4961 60.0926 38.1008 59.1937 36.7413C61.7987 37.1169 64.3119 37.582 66.7151 38.1544ZM58.3132 57.2055C56.8823 59.6204 55.4147 61.9101 53.892 64.0388C51.1587 64.2714 48.3886 64.3966 45.6002 64.3966C42.8301 64.3966 40.06 64.2714 37.345 64.0567C35.8223 61.928 34.3364 59.6562 32.9055 57.2591C31.5113 54.9158 30.2455 52.5366 29.0898 50.1396C30.2271 47.7426 31.5113 45.3455 32.8872 43.0022C34.3181 40.5872 35.7856 38.2975 37.3083 36.1688C40.0417 35.9363 42.8117 35.8111 45.6002 35.8111C48.3702 35.8111 51.1403 35.9363 53.8554 36.1509C55.378 38.2797 56.8639 40.5515 58.2948 42.9485C59.689 45.2919 60.9548 47.671 62.1106 50.068C60.9548 52.4651 59.689 54.8621 58.3132 57.2055ZM64.2386 54.88C65.2292 57.277 66.0731 59.6741 66.7702 61.9995C64.367 62.572 61.8354 63.055 59.2121 63.4306C60.111 62.0532 61.0099 60.64 61.8537 59.1911C62.6976 57.76 63.4864 56.3111 64.2386 54.88ZM45.6369 73.9668C43.9308 72.2495 42.2247 70.3355 40.537 68.2426C42.188 68.3141 43.8757 68.3678 45.5818 68.3678C47.3062 68.3678 49.0123 68.332 50.6817 68.2426C49.0307 70.3355 47.3246 72.2495 45.6369 73.9668ZM31.9883 63.4306C29.3833 63.055 26.87 62.5899 24.4669 62.0174C25.1456 59.7098 25.9895 57.3307 26.9434 54.9516C27.6956 56.3826 28.4844 57.8137 29.3466 59.2447C30.2088 60.6758 31.0894 62.0711 31.9883 63.4306ZM45.5451 26.2051C47.2512 27.9223 48.9573 29.8364 50.645 31.9293C48.994 31.8578 47.3062 31.8041 45.6002 31.8041C43.8757 31.8041 42.1697 31.8399 40.5003 31.9293C42.1513 29.8364 43.8574 27.9223 45.5451 26.2051ZM31.9699 36.7413C31.071 38.1187 30.1721 39.5318 29.3282 40.9808C28.4844 42.4119 27.6956 43.8429 26.9434 45.274C25.9528 42.8769 25.1089 40.4799 24.4118 38.1544C26.815 37.5999 29.3466 37.1169 31.9699 36.7413ZM15.3678 59.1374C8.8737 56.4363 4.67272 52.8944 4.67272 50.0859C4.67272 47.2775 8.8737 43.7177 15.3678 41.0345C16.9455 40.3726 18.6699 39.7823 20.4493 39.2277C21.495 42.7338 22.8708 46.3831 24.5769 50.1217C22.8892 53.8425 21.5317 57.4738 20.5044 60.962C18.6882 60.4075 16.9638 59.7993 15.3678 59.1374ZM25.2373 84.6998C22.7424 83.3045 21.6601 77.9917 22.504 71.1583C22.7057 69.4768 23.036 67.7059 23.4395 65.8992C27.0351 66.7578 30.9609 67.4197 35.0885 67.849C37.5651 71.1583 40.1334 74.1636 42.72 76.7932C36.7396 82.2133 31.126 85.1828 27.3103 85.1828C26.4848 85.1649 25.7877 85.0039 25.2373 84.6998ZM68.7514 71.0689C69.6136 77.9022 68.5496 83.2151 66.073 84.6282C65.5227 84.9502 64.8072 85.0933 63.9634 85.0933C60.166 85.0933 54.5341 82.1418 48.5537 76.7574C51.122 74.1278 53.6903 71.1405 56.1301 67.8311C60.2761 67.4018 64.2019 66.7399 67.7975 65.8634C68.2194 67.6701 68.5496 69.4053 68.7514 71.0689ZM75.8142 59.1374C74.2365 59.7993 72.5121 60.3896 70.7327 60.9441C69.687 57.438 68.3111 53.7888 66.6051 50.0502C68.2928 46.3294 69.6503 42.6981 70.6776 39.2098C72.4938 39.7644 74.2182 40.3726 75.8325 41.0345C82.3266 43.7356 86.5276 47.2775 86.5276 50.0859C86.5092 52.8944 82.3083 56.4542 75.8142 59.1374Z" fill="#1C273B"/>
<path d="M45.5819 58.2609C50.212 58.2609 53.9655 54.6009 53.9655 50.086C53.9655 45.5711 50.212 41.911 45.5819 41.911C40.9517 41.911 37.1982 45.5711 37.1982 50.086C37.1982 54.6009 40.9517 58.2609 45.5819 58.2609Z" fill="#1C273B"/>
</g>
<defs>
<clipPath id="clip0_11_4021">
<rect width="90" height="90" fill="white" transform="translate(0.600159)"/>
</clipPath>
</defs>
</svg>
