<svg width="155" height="155" viewBox="0 0 155 155" fill="none" xmlns="http://www.w3.org/2000/svg">
<g clip-path="url(#clip0_8_3808)">
<path d="M128.094 73.75C128.75 76.4062 131.125 78.375 133.938 78.375C137.281 78.375 139.969 75.6563 139.969 72.3438C139.969 69.0313 137.25 66.3125 133.938 66.3125C131.094 66.3125 128.719 68.2813 128.094 70.9375H111.938V63.4375H122.063C122.844 63.4375 123.5 62.8125 123.5 62C123.5 61.1875 122.875 60.5625 122.063 60.5625H111.938V57.8125C111.938 49.5312 105.188 42.7813 96.9062 42.7813H94.4688V37.1563C94.4688 36.375 93.8438 35.7188 93.0312 35.7188C92.2188 35.7188 91.5938 36.3438 91.5938 37.1563V42.7813H84.0938V27.9063H99.2188C99.875 30.5625 102.25 32.5313 105.063 32.5313C108.406 32.5313 111.094 29.8125 111.094 26.5C111.094 23.1875 108.375 20.4688 105.063 20.4688C102.219 20.4688 99.8438 22.4375 99.2188 25.0938H82.6875C81.9063 25.0938 81.25 25.7188 81.25 26.5313V42.8125H73.75V26.9063C76.4062 26.25 78.375 23.875 78.375 21.0625C78.375 17.7188 75.6563 15.0312 72.3438 15.0312C69.0313 15.0312 66.3125 17.75 66.3125 21.0625C66.3125 23.9063 68.2813 26.2813 70.9375 26.9063V42.7813H63.4375V32.9688C63.4375 32.1875 62.8125 31.5312 62 31.5312C61.1875 31.5312 60.5625 32.1562 60.5625 32.9688V42.7813H58.125C49.8438 42.7813 43.0938 49.5312 43.0938 57.8125V60.5625H36.375C35.5938 60.5625 34.9375 61.1875 34.9375 62C34.9375 62.8125 35.5625 63.4375 36.375 63.4375H43.0938V70.9375H27.0938V55.8125C29.75 55.1563 31.7188 52.7812 31.7188 49.9688C31.7188 46.625 29 43.9375 25.6875 43.9375C22.375 43.9375 19.6563 46.6562 19.6563 49.9688C19.6563 52.8125 21.625 55.1875 24.2813 55.8125V72.3438C24.2813 73.125 24.9063 73.7813 25.7188 73.7813H43.125V81.2812H26.9063C26.25 78.625 23.875 76.6563 21.0625 76.6563C17.7188 76.6563 15.0312 79.375 15.0312 82.6875C15.0312 86 17.75 88.7188 21.0625 88.7188C23.9063 88.7188 26.2813 86.75 26.9063 84.0938H43.0625V91.5938H33.5625C32.7812 91.5938 32.125 92.2188 32.125 93.0312C32.125 93.8438 32.75 94.4688 33.5625 94.4688H43.0625V96.625C43.0625 104.906 49.8125 111.656 58.0938 111.656H60.5312V118.656C60.5312 119.438 61.1563 120.094 61.9688 120.094C62.7813 120.094 63.4063 119.469 63.4063 118.656V111.656H70.9062V127.938H55.7813C55.125 125.281 52.75 123.313 49.9375 123.313C46.5938 123.313 43.9063 126.031 43.9063 129.344C43.9063 132.656 46.625 135.375 49.9375 135.375C52.7813 135.375 55.1563 133.406 55.7813 130.75H72.3125C73.0938 130.75 73.75 130.125 73.75 129.313V111.625H81.25V128.094C78.5938 128.75 76.625 131.125 76.625 133.938C76.625 137.281 79.3438 139.969 82.6562 139.969C85.9688 139.969 88.6875 137.25 88.6875 133.938C88.6875 131.094 86.7188 128.719 84.0625 128.094V111.625H91.5625V121.438C91.5625 122.219 92.1875 122.875 93 122.875C93.8125 122.875 94.4375 122.25 94.4375 121.438V111.625H96.875C105.156 111.625 111.906 104.875 111.906 96.5938V94.4375H117.813C118.594 94.4375 119.25 93.8125 119.25 93C119.25 92.1875 118.625 91.5625 117.813 91.5625H111.906V84.0625H127.063V99.1875C124.406 99.8438 122.438 102.219 122.438 105.031C122.438 108.375 125.156 111.063 128.469 111.063C131.781 111.063 134.5 108.344 134.5 105.031C134.5 102.188 132.531 99.8125 129.875 99.1875V82.6562C129.875 81.875 129.25 81.2188 128.438 81.2188H111.844V73.7188H128L128.094 73.75ZM133.969 69.125C135.719 69.125 137.156 70.5625 137.156 72.3125C137.156 74.0625 135.719 75.5 133.969 75.5C132.219 75.5 130.781 74.0625 130.781 72.3125C130.781 70.5625 132.219 69.125 133.969 69.125ZM105.094 23.2813C106.844 23.2813 108.281 24.7188 108.281 26.4688C108.281 28.2188 106.844 29.6563 105.094 29.6563C103.344 29.6563 101.906 28.2188 101.906 26.4688C101.906 24.7188 103.344 23.2813 105.094 23.2813ZM69.125 21.0313C69.125 19.2812 70.5625 17.8438 72.3125 17.8438C74.0625 17.8438 75.5 19.2812 75.5 21.0313C75.5 22.7813 74.0625 24.2188 72.3125 24.2188C70.5625 24.2188 69.125 22.7813 69.125 21.0313ZM22.4688 49.9063C22.4688 48.1563 23.9063 46.7188 25.6563 46.7188C27.4063 46.7188 28.8438 48.1563 28.8438 49.9063C28.8438 51.6563 27.4063 53.0938 25.6563 53.0938C23.9063 53.0938 22.4688 51.6563 22.4688 49.9063ZM21.0313 85.875C19.2812 85.875 17.8438 84.4375 17.8438 82.6875C17.8438 80.9375 19.2812 79.5 21.0313 79.5C22.7813 79.5 24.2188 80.9375 24.2188 82.6875C24.2188 84.4375 22.7813 85.875 21.0313 85.875ZM49.9063 132.531C48.1563 132.531 46.7188 131.094 46.7188 129.344C46.7188 127.594 48.1563 126.156 49.9063 126.156C51.6563 126.156 53.0938 127.594 53.0938 129.344C53.0938 131.094 51.6563 132.531 49.9063 132.531ZM85.875 133.969C85.875 135.719 84.4375 137.156 82.6875 137.156C80.9375 137.156 79.5 135.719 79.5 133.969C79.5 132.219 80.9375 130.781 82.6875 130.781C84.4375 130.781 85.875 132.219 85.875 133.969ZM131.719 105.094C131.719 106.844 130.281 108.281 128.531 108.281C126.781 108.281 125.344 106.844 125.344 105.094C125.344 103.344 126.781 101.906 128.531 101.906C130.281 101.906 131.719 103.344 131.719 105.094ZM109.094 96.5938C109.094 103.313 103.625 108.781 96.9062 108.781H58.0938C51.375 108.781 45.9063 103.313 45.9063 96.5938V57.7812C45.9063 51.0625 51.375 45.5938 58.0938 45.5938H96.9062C103.625 45.5938 109.094 51.0625 109.094 57.7812V96.5938Z" fill="#0073AD" fill-opacity="0.15"/>
<path d="M99.5625 65.9062C99.2187 65.2812 98.4687 65 97.8125 65.2187L94.875 66.2812C93.625 64.3437 92.0625 62.625 90.25 61.1875L91.5937 58.3437C91.9062 57.6875 91.6875 56.9375 91.0625 56.5312C90.0937 55.9062 89.0937 55.3437 88.0937 54.875C87.0937 54.4062 86.0312 54 84.9375 53.6562C84.25 53.4375 83.5312 53.7812 83.2187 54.4062L81.875 57.25C79.625 56.75 77.2812 56.6562 75 56.9375L73.9375 54C73.6875 53.3437 73 52.9375 72.3125 53.0937C70.0937 53.5625 67.9687 54.3437 65.9375 55.4062C65.3125 55.75 65.0312 56.4687 65.25 57.1562L66.3125 60.0937C64.375 61.3437 62.6562 62.9062 61.25 64.7187L58.4062 63.375C57.75 63.0625 57 63.2812 56.5937 63.9062C55.9687 64.875 55.4062 65.875 54.9375 66.875C54.4687 67.875 54.0625 68.9375 53.7187 70.0312C53.5 70.7187 53.8437 71.4375 54.4687 71.75L57.3125 73.0937C56.8125 75.3437 56.7187 77.6875 57 79.9687L54.0625 81.0312C53.4062 81.2812 53 81.9687 53.1562 82.6562C53.625 84.875 54.4062 87 55.4687 89.0312C55.8125 89.6562 56.5312 89.9375 57.2187 89.7187L60.1562 88.6562C61.4062 90.5937 62.9687 92.3125 64.7812 93.75L63.4375 96.5937C63.125 97.25 63.3437 98 63.9687 98.4062C64.9375 99.0312 65.9375 99.5937 66.9375 100.062C67.9375 100.531 69 100.937 70.0937 101.281C70.7812 101.5 71.5 101.156 71.8125 100.531L73.1562 97.6875C75.4062 98.1875 77.75 98.2812 80.0312 98L81.0937 100.937C81.3125 101.5 81.8437 101.875 82.4375 101.875C82.5312 101.875 82.625 101.875 82.75 101.844C84.9687 101.375 87.0937 100.594 89.125 99.5312C89.75 99.1875 90.0312 98.4687 89.8125 97.7812L88.75 94.8437C90.6875 93.5937 92.4062 92.0312 93.8125 90.2187L96.6562 91.5625C97.3125 91.875 98.0625 91.6562 98.4687 91.0312C99.0937 90.0625 99.6562 89.0625 100.125 88.0625C100.594 87.0625 101 86 101.344 84.9062C101.562 84.2187 101.219 83.5 100.594 83.1875L97.75 81.8437C98.25 79.5937 98.3437 77.25 98.0625 74.9687L101 73.9062C101.656 73.6562 102.062 72.9687 101.906 72.2812C101.437 70.0625 100.656 67.9375 99.5937 65.9062H99.5625ZM95.9375 72.7187C95.2812 72.9687 94.9062 73.625 95.0312 74.3125C95.5 76.9375 95.375 79.6875 94.6562 82.2812C94.4687 82.9375 94.7812 83.6562 95.4375 83.9687L98.1875 85.25C97.9687 85.8125 97.75 86.375 97.5 86.875C97.25 87.4062 96.9687 87.9375 96.6875 88.4375L93.9375 87.1562C93.3125 86.875 92.5625 87.0625 92.1562 87.625C90.625 89.875 88.625 91.6875 86.2812 93C85.6875 93.3437 85.4062 94.0625 85.6562 94.7187L86.6875 97.5625C85.625 98.0625 84.5 98.4375 83.375 98.75L82.3437 95.9062C82.125 95.3437 81.5937 94.9687 81 94.9687C80.9062 94.9687 80.8437 94.9687 80.75 94.9687C78.0937 95.4687 75.4062 95.3437 72.7812 94.5937C72.125 94.4062 71.4062 94.7187 71.0937 95.375L69.8125 98.125C69.25 97.9062 68.7187 97.6875 68.1875 97.4375C67.6562 97.1875 67.125 96.9062 66.625 96.625L67.9062 93.875C68.1875 93.25 68 92.5 67.4375 92.0937C65.1875 90.5625 63.375 88.5625 62.0625 86.2187C61.7187 85.625 61 85.3437 60.3437 85.5625L57.5 86.5937C57 85.5312 56.5937 84.4062 56.2812 83.2812L59.125 82.25C59.7812 82 60.1562 81.3437 60.0312 80.6562C59.5625 78.0312 59.6875 75.2812 60.4062 72.6875C60.5937 72.0312 60.2812 71.3125 59.625 71L56.875 69.7187C57.0937 69.1562 57.3125 68.5937 57.5625 68.0937C57.8125 67.5625 58.0937 67.0312 58.375 66.5312L61.125 67.8125C61.75 68.125 62.5 67.9062 62.9062 67.3437C64.4375 65.0937 66.4375 63.2812 68.7812 61.9687C69.375 61.625 69.6562 60.9062 69.4062 60.25L68.375 57.4062C69.4375 56.9062 70.5625 56.5312 71.6875 56.2187L72.7187 59.0625C72.9687 59.7187 73.625 60.0937 74.3125 59.9687C76.9687 59.4687 79.6562 59.5937 82.2812 60.3437C82.9687 60.5312 83.6562 60.2187 83.9687 59.5625L85.25 56.8125C85.8125 57.0312 86.3437 57.25 86.875 57.5C87.4062 57.75 87.9062 58.0312 88.4375 58.3125L87.1562 61.0625C86.875 61.6875 87.0625 62.4375 87.625 62.8437C89.875 64.375 91.6875 66.375 93 68.7187C93.3437 69.3125 94.0625 69.5937 94.7187 69.375L97.5625 68.3437C98.0625 69.4062 98.4687 70.5312 98.7812 71.6562L95.9375 72.6875V72.7187Z" fill="#0073AD" fill-opacity="0.15"/>
<path d="M80.3438 67.625C74.9063 66.0625 69.1875 69.2188 67.5938 74.6563C66.0313 80.0938 69.1875 85.8125 74.625 87.4063C75.5625 87.6875 76.5313 87.8125 77.4688 87.8125C81.9375 87.8125 86.0625 84.875 87.375 80.375C88.9375 74.9375 85.7813 69.2188 80.3438 67.625ZM84.6563 79.5625C83.5313 83.5 79.375 85.7813 75.4375 84.6563C71.5 83.5313 69.2188 79.375 70.3438 75.4375C71.4688 71.5 75.625 69.2188 79.5625 70.3438C83.5 71.4688 85.7813 75.625 84.6563 79.5625Z" fill="#0073AD" fill-opacity="0.15"/>
</g>
<defs>
<clipPath id="clip0_8_3808">
<rect width="125" height="125" fill="white" transform="translate(15 15)"/>
</clipPath>
</defs>
</svg>
