<svg width="90" height="91" viewBox="0 0 90 91" fill="none" xmlns="http://www.w3.org/2000/svg">
<path d="M39.3691 90.8729C30.9446 90.2657 22.6182 88.1452 17.5116 85.3064C14.603 83.6895 12.387 81.7023 11.5174 79.9313L11 78.8774V45.8244V12.7713L11.4094 11.94C13.2389 8.22564 19.0778 4.87707 27.2284 2.8679C29.9952 2.18583 33.9895 1.5066 37.248 1.16408C40.5754 0.814244 49.3949 0.86747 52.714 1.25794C61.5355 2.29435 69.0421 4.61461 73.6681 7.7349C75.4521 8.93819 77.2827 10.8636 77.9029 12.1889L78.4346 13.3252L78.3891 46.2783L78.3436 79.2315L77.9167 80.0986C77.682 80.5755 76.973 81.5138 76.3411 82.1835C72.4945 86.2611 64.2436 89.2776 53.4211 90.5627C51.2153 90.8248 41.6322 91.0361 39.3691 90.8729ZM54.894 62.5509C54.8616 62.4664 53.6022 61.3445 52.0954 60.0576C50.5886 58.7708 49.2908 57.6574 49.2114 57.5834C49.1321 57.5095 49.4105 57.2479 49.8301 57.0019C50.2497 56.7559 51.0536 56.0716 51.6166 55.4813C53.2629 53.755 54.0397 51.6225 54.0397 48.8292C54.0397 46.0793 53.2019 43.8606 51.524 42.167C49.8328 40.4598 47.8911 39.7263 45.0634 39.7263C40.7048 39.7263 37.3573 42.2696 36.2889 46.3928C35.9214 47.8111 35.9233 50.6769 36.2927 51.9345C37.2563 55.2148 39.8804 57.5972 43.1464 58.1566C44.2516 58.3459 44.4013 58.4275 45.1547 59.2513C45.6025 59.7409 46.5215 60.7181 47.1968 61.4229L48.4247 62.7044H51.6888C53.4841 62.7044 54.9264 62.6354 54.894 62.5509ZM43.6999 53.4115C42.9141 53.0018 42.617 52.6838 42.1689 51.7728C41.8228 51.0692 41.7636 50.669 41.7598 49.006C41.7559 47.3162 41.8097 46.951 42.171 46.2173C42.7623 45.0166 43.577 44.4482 44.8374 44.357C46.5918 44.2297 47.6045 45.0908 48.1352 47.16C48.786 49.697 48.0704 52.3942 46.5091 53.2893C45.69 53.7589 44.4682 53.8121 43.6999 53.4115ZM29.2317 58.1206C32.654 57.4716 34.5967 55.4814 34.5967 52.6243C34.5967 50.0897 33.3425 48.6128 29.8761 47.0654C27.8917 46.1795 27.173 45.6235 27.173 44.9738C27.173 44.4353 27.8551 43.8453 28.6491 43.697C29.4244 43.5523 31.4808 43.9094 32.6951 44.3999L33.7129 44.8111V42.5581V40.3049L32.6082 40.0598C31.9254 39.9083 30.4907 39.8175 28.8521 39.8221C26.5311 39.8221 26.0766 39.8787 25.2031 40.2255C22.6517 41.2384 21.441 42.9638 21.4603 45.5593C21.4785 47.989 22.7603 49.5046 25.9504 50.8681C27.8326 51.6726 28.5871 52.2852 28.5871 53.0091C28.5871 54.5474 26.0238 54.7368 23.31 53.3989C22.5668 53.0325 21.8991 52.7028 21.8262 52.6663C21.7533 52.6298 21.6936 53.6823 21.6936 55.0052C21.6936 57.3997 21.6962 57.4113 22.1297 57.5763C23.7623 58.197 27.3706 58.4736 29.2317 58.1206ZM68.3568 55.8993V53.8667H65.2636H62.1704V46.8849V39.9031H59.4307H56.691V48.9176V57.932H62.5239H68.3568V55.8993ZM49.2673 20.2788C54.7116 19.9012 58.7926 19.1882 62.3838 17.9875C65.9615 16.7913 68.0749 15.3439 68.5477 13.766C68.7298 13.158 68.7167 12.9274 68.4622 12.2608C67.3208 9.27214 60.9447 6.97595 51.2017 6.04497C47.034 5.64666 39.4545 5.77578 35.4807 6.31257C29.4173 7.13182 24.4965 8.65355 22.3085 10.386C17.8824 13.8909 22.563 17.7457 33.4479 19.5601C38.1675 20.3468 44.2821 20.6246 49.2673 20.2788Z" fill="#1C273B"/>
</svg>
