<svg width="155" height="155" viewBox="0 0 155 155" fill="none" xmlns="http://www.w3.org/2000/svg">
<g clip-path="url(#clip0_8_3820)">
<path d="M46.4062 123.313L46.1562 112.062C46.1562 112.062 46.3437 111.969 46.4375 111.875L68.4375 89.0625C70.9687 91.0625 74.1562 92.25 77.625 92.25C85.8438 92.25 92.5312 85.5625 92.5312 77.3438C92.5312 69.125 85.8438 62.4375 77.625 62.4375C74.0625 62.4375 70.75 63.7188 68.1875 65.8125L46.9375 44.5312L47.625 32.9062C47.625 32.4687 47.5 32.0625 47.1875 31.75L34.4062 19C34 18.5937 33.375 18.4375 32.8125 18.6562C32.25 18.875 31.875 19.4062 31.875 19.9687L31.4375 30.4062L21 30.8437C20.4062 30.8437 19.875 31.25 19.6875 31.7812C19.4687 32.3437 19.5937 32.9687 20.0312 33.375L32.8125 46.1562C33.0937 46.4375 33.4687 46.5937 33.875 46.5937H33.9062L44.5937 46.3437L66.125 67.9062C64.0312 70.4688 62.75 73.75 62.75 77.3125C62.75 80.875 64.0937 84.3438 66.3125 86.9375L44.3125 109.75C44.3125 109.75 44.125 110 44.0625 110.156L32.75 109.5C32.3125 109.5 31.9062 109.625 31.5937 109.938L18.8125 122.719C18.4062 123.125 18.25 123.75 18.4687 124.312C18.6875 124.875 19.2187 125.25 19.7812 125.25L30.2187 125.688L30.6562 136.125C30.6562 136.719 31.0625 137.25 31.5937 137.438C31.7812 137.5 31.9375 137.531 32.125 137.531C32.5 137.531 32.9062 137.375 33.1875 137.094L45.9687 124.312C46.25 124.031 46.4062 123.625 46.4062 123.219V123.313ZM77.625 65.4688C84.1875 65.4688 89.5312 70.8125 89.5312 77.375C89.5312 83.9375 84.1875 89.2812 77.625 89.2812C74.9687 89.2812 72.5 88.375 70.5 86.9062L78.6875 78.4063C79.25 77.8125 79.25 76.9063 78.6875 76.3125L70.3437 67.9375C72.375 66.375 74.9062 65.4062 77.6562 65.4062L77.625 65.4688ZM24.5 33.7187L32.9375 33.375C33.7187 33.3437 34.3437 32.7187 34.375 31.9375L34.7187 23.5L44.625 33.4062L44.0312 43.4062L34.4375 43.625L24.5 33.6875V33.7187ZM65.6875 77.375C65.6875 74.625 66.625 72.0937 68.1875 70.0937L75.5 77.4062L68.3125 84.8438C66.6562 82.7812 65.6562 80.1875 65.6562 77.375H65.6875ZM33.4687 132.688L33.125 124.25C33.0937 123.469 32.4687 122.844 31.6875 122.813L23.25 122.469L33.1562 112.562L43.1562 113.156L43.375 122.75L33.4375 132.688H33.4687Z" fill="#0073AD" fill-opacity="0.15"/>
<path d="M47.3125 55.8438C46.6562 55.1875 45.5625 55.2813 45.0312 56.0313C40.9375 62.1875 38.5625 69.5625 38.5625 77.5C38.5625 85.4375 41.0937 93.2813 45.4375 99.5625C45.9687 100.313 47.0312 100.375 47.6875 99.75C48.1875 99.2188 48.25 98.4375 47.8438 97.8438C43.8438 92.0625 41.5312 85.0625 41.5312 77.5C41.5312 69.9375 43.7188 63.4063 47.4688 57.7188C47.875 57.125 47.8125 56.3438 47.2812 55.8438H47.3125Z" fill="#0073AD" fill-opacity="0.15"/>
<path d="M80.7813 113.281C72.5938 114 64.9063 111.969 58.5625 108.031C57.9688 107.656 57.2188 107.75 56.7188 108.219C56.0625 108.906 56.1563 110.031 56.9688 110.531C63.8125 114.781 72.0313 117 80.8125 116.281C99.1563 114.75 114.156 100.219 116.188 81.9062C118.781 58.4688 100.438 38.5625 77.5 38.5625C69.7188 38.5625 62.4375 40.875 56.3438 44.8438C55.5625 45.3438 55.4688 46.4687 56.125 47.125C56.625 47.625 57.4063 47.6875 58 47.3125C63.625 43.6563 70.3125 41.5312 77.5 41.5312C98.0938 41.5312 114.719 58.9688 113.375 79.8438C112.25 97.3438 98.2813 111.719 80.8125 113.281H80.7813Z" fill="#0073AD" fill-opacity="0.15"/>
<path d="M82.2188 15.1875C69.5625 14.25 57.6563 17.125 47.4375 22.75C46.5938 23.2188 46.4375 24.4062 47.125 25.0938C47.5938 25.5625 48.3125 25.6562 48.875 25.3438C58.6875 19.9375 70.125 17.2188 82.2813 18.1875C111.406 20.5 134.844 44.1563 136.844 73.2812C139.25 108 111.688 137.031 77.4688 137.031C67.0938 137.031 57.3438 134.344 48.8438 129.656C48.25 129.344 47.5625 129.438 47.0938 129.906C46.4063 130.625 46.5625 131.781 47.4063 132.25C56.3438 137.188 66.5938 140 77.4688 140C113.5 140 142.5 109.375 139.781 72.7812C137.563 42.1563 112.844 17.4375 82.2188 15.1875Z" fill="#0073AD" fill-opacity="0.15"/>
<path d="M25.7812 45.875C25.0937 45.1875 23.9375 45.3125 23.4375 46.1563C18.0625 55.375 14.9688 66.0938 14.9688 77.5C14.9688 88.9063 18.0625 99.625 23.4062 108.844C23.9062 109.688 25.0625 109.813 25.75 109.125C26.2187 108.656 26.3125 107.906 25.9687 107.344C20.875 98.5625 17.9375 88.375 17.9375 77.5C17.9375 66.625 20.875 56.4375 25.9687 47.6563C26.3125 47.0625 26.2187 46.3438 25.75 45.875H25.7812Z" fill="#0073AD" fill-opacity="0.15"/>
</g>
<defs>
<clipPath id="clip0_8_3820">
<rect width="125" height="125" fill="white" transform="translate(15 15)"/>
</clipPath>
</defs>
</svg>
