<svg width="155" height="155" viewBox="0 0 155 155" fill="none" xmlns="http://www.w3.org/2000/svg">
<g clip-path="url(#clip0_8_3789)">
<path d="M77.4849 107.019C60.526 107.019 44.5647 100.399 32.5635 88.428L20.9553 76.8198L32.5635 65.2116C44.5647 53.2104 60.4958 46.6203 77.4849 46.6203C94.474 46.6203 110.405 53.2406 122.406 65.2116L134.015 76.8198L122.406 88.428C110.405 100.429 94.474 107.019 77.4849 107.019ZM24.8851 76.7896L34.5284 86.4329C45.9855 97.89 61.2515 104.208 77.4849 104.208C93.7183 104.208 108.954 97.89 120.441 86.4329L130.085 76.7896L120.441 67.1463C108.984 55.6892 93.7183 49.3712 77.4849 49.3712C61.2515 49.3712 46.0157 55.6892 34.5284 67.1463L24.8851 76.7896Z" fill="#0073AD" fill-opacity="0.15"/>
<path d="M77.4849 95.5018C67.1765 95.5018 58.7727 87.098 58.7727 76.7896C58.7727 66.4813 67.1765 58.0774 77.4849 58.0774C87.7932 58.0774 96.1971 66.4813 96.1971 76.7896C96.1971 87.098 87.7932 95.5018 77.4849 95.5018ZM77.4849 60.8585C68.688 60.8585 61.5538 68.023 61.5538 76.7896C61.5538 85.5562 68.688 92.7207 77.4849 92.7207C86.2817 92.7207 93.416 85.5865 93.416 76.7896C93.416 67.9928 86.2817 60.8585 77.4849 60.8585Z" fill="#0073AD" fill-opacity="0.15"/>
<path d="M15 140L24.2503 111.493L41.7533 94.0206L43.7183 95.9855L26.6989 113.005L19.2926 135.768L42.3277 128.634L67.0858 103.936L69.0508 105.901L43.8089 131.082L15 140Z" fill="#0073AD" fill-opacity="0.15"/>
<path d="M114.486 60.4655L112.521 58.5006L132.291 38.7908C135.466 35.6167 135.466 30.4474 132.291 27.2733L127.817 22.7993C124.825 19.8065 119.958 19.8065 116.965 22.7993L89.7279 49.9758L87.763 48.0109L114.97 20.8041C119.051 16.7231 125.701 16.7231 129.782 20.8041L134.256 25.2781C138.519 29.5405 138.519 36.4631 134.256 40.7255L114.486 60.4353V60.4655Z" fill="#0073AD" fill-opacity="0.15"/>
<path d="M43.2887 25.5309L36.5126 32.307L38.4792 34.2736L45.2552 27.4975L43.2887 25.5309Z" fill="#0073AD" fill-opacity="0.15"/>
<path d="M52.4923 34.8881L45.7163 41.6642L47.6828 43.6307L54.4589 36.8547L52.4923 34.8881Z" fill="#0073AD" fill-opacity="0.15"/>
<path d="M119.266 101.571L112.49 108.347L114.457 110.314L121.233 103.538L119.266 101.571Z" fill="#0073AD" fill-opacity="0.15"/>
<path d="M127.967 110.415L121.191 117.191L123.158 119.157L129.934 112.381L127.967 110.415Z" fill="#0073AD" fill-opacity="0.15"/>
<path d="M120.26 138.458L87.4305 105.629L89.3954 103.664L120.26 134.528L135.919 118.869L112.31 95.26L114.274 93.295L139.849 118.869L120.26 138.458Z" fill="#0073AD" fill-opacity="0.15"/>
<path d="M41.5417 59.74L16.3906 34.5889L35.9794 15L68.7485 47.7388L66.7836 49.7038L35.9794 18.9299L20.3204 34.5889L43.5066 57.7751L41.5417 59.74Z" fill="#0073AD" fill-opacity="0.15"/>
<path d="M26.4529 111.238L24.4864 113.204L42.0999 130.818L44.0665 128.851L26.4529 111.238Z" fill="#0073AD" fill-opacity="0.15"/>
<path d="M110.239 27.585L108.237 29.5152L125.546 47.4703L127.548 45.5401L110.239 27.585Z" fill="#0073AD" fill-opacity="0.15"/>
</g>
<defs>
<clipPath id="clip0_8_3789">
<rect width="124.849" height="125" fill="white" transform="translate(15 15)"/>
</clipPath>
</defs>
</svg>
