<svg width="150" height="60" viewBox="0 0 150 60" fill="none" xmlns="http://www.w3.org/2000/svg">
<g clip-path="url(#clip0_222_310)">
<path d="M121.927 17.4775H116.295L106.695 36.535L97.215 17.4775H91.68C97.65 29.425 106.792 47.7325 106.792 47.7325L121.927 17.4775Z" fill="#1C273B"/>
<path d="M78.2775 21.9924C82.8525 21.9924 86.8425 25.1124 87.9525 29.5524H68.6025C69.7125 25.1124 73.7025 21.9924 78.2775 21.9924ZM78.2775 41.9049C73.7025 41.9049 69.72 38.7924 68.6025 34.3524H93.0375V31.9524C93.03 23.8149 86.4225 17.2299 78.2925 17.2374C70.155 17.2449 63.57 23.8524 63.5775 31.9824C63.585 40.1199 70.1925 46.7049 78.3225 46.6974C83.7825 46.6974 88.7925 43.6599 91.335 38.8299H85.4775C83.595 40.7949 80.9925 41.9049 78.27 41.9049" fill="#1C273B"/>
<path d="M135.24 42.0175C129.735 42.0175 125.28 37.555 125.28 32.0575C125.28 26.5525 129.743 22.0975 135.24 22.0975C140.678 22.0975 145.103 26.455 145.2 31.885V32.215C145.103 37.6525 140.67 42.0025 135.24 42.0175ZM150 32.0575V17.5525H145.2V21.19C139.2 15.67 129.862 16.06 124.342 22.06C118.822 28.06 119.212 37.3975 125.212 42.9175C130.86 48.115 139.553 48.115 145.2 42.9175V46.585H150V32.0575Z" fill="#1C273B"/>
<path d="M45.48 21.9925C50.055 22 54.0375 25.12 55.155 29.5525H35.88C36.9825 25.135 40.9275 22.0225 45.48 21.9925ZM45.48 41.905C40.935 41.8675 36.99 38.7625 35.88 34.3525H60.285V31.9525C60.285 23.8 53.685 17.185 45.5325 17.1775C37.38 17.1775 30.765 23.7775 30.7575 31.93C30.7575 40.0825 37.3575 46.6975 45.51 46.705C50.985 46.705 56.0175 43.675 58.575 38.83H52.7325C50.835 40.8025 48.2175 41.9125 45.48 41.905Z" fill="#1C273B"/>
<path d="M0 13H5.9325L17.22 35.6725L28.41 13H34.23L17.145 47.6875L0 13Z" fill="#1C273B"/>
<path d="M9.405 13.0675L17.13 28.4575L24.8325 13.0675H9.405Z" fill="#1C273B"/>
</g>
<defs>
<clipPath id="clip0_222_310">
<rect width="150" height="34.74" fill="white" transform="translate(0 13)"/>
</clipPath>
</defs>
</svg>
