<svg width="155" height="155" viewBox="0 0 155 155" fill="none" xmlns="http://www.w3.org/2000/svg">
<g clip-path="url(#clip0_111_2747)">
<path d="M116.656 25H38.3438C25.4688 25 15 35.4062 15 48.1875V91.875C15 103.594 23.9688 113.406 35.4375 114.875L27.8438 126.906C27.5 127.438 27.5625 128.125 27.9375 128.594C28.2188 128.938 28.625 129.125 29.0625 129.125C29.25 129.125 29.4062 129.125 29.5938 129.031L66.0625 115.062H116.688C129.562 115.062 140.031 104.656 140.031 91.875V48.1875C140.031 35.4062 129.562 25 116.688 25H116.656ZM137.094 91.875C137.094 103.062 127.937 112.156 116.656 112.156H65.7812C65.5938 112.156 65.4375 112.188 65.25 112.25L32.5938 124.75L39.1562 114.344C39.4375 113.906 39.4688 113.344 39.2188 112.875C38.9688 112.406 38.5 112.125 37.9688 112.125C26.9062 111.938 17.9062 102.844 17.9062 91.875V48.1875C17.9062 37 27.0625 27.9062 38.3438 27.9062H116.656C127.937 27.9062 137.094 37 137.094 48.1875V91.875Z" fill="#0073AD" fill-opacity="0.15"/>
<path d="M33.9375 59.625C33.125 59.625 32.5 60.2813 32.5 61.0625V75.75C32.5 76.5625 33.1563 77.1875 33.9375 77.1875C34.7188 77.1875 35.375 76.5312 35.375 75.75V61.0625C35.375 60.25 34.7188 59.625 33.9375 59.625Z" fill="#0073AD" fill-opacity="0.15"/>
<path d="M103.844 59.7188C103.031 59.7188 102.406 60.375 102.406 61.1563V75.375C102.406 76.1875 103.063 76.8125 103.844 76.8125C104.625 76.8125 105.281 76.1563 105.281 75.375V61.1563C105.281 60.3438 104.625 59.7188 103.844 59.7188Z" fill="#0073AD" fill-opacity="0.15"/>
<path d="M60.1563 56.7812C59.3438 56.7812 58.7188 57.4375 58.7188 58.2188V78.2812C58.7188 79.0937 59.375 79.7188 60.1563 79.7188C60.9375 79.7188 61.5938 79.0625 61.5938 78.2812V58.2188C61.5938 57.4063 60.9375 56.7812 60.1563 56.7812Z" fill="#0073AD" fill-opacity="0.15"/>
<path d="M77.625 53.9062C76.8125 53.9062 76.1875 54.5625 76.1875 55.3438V80.7813C76.1875 81.5938 76.8438 82.2187 77.625 82.2187C78.4063 82.2187 79.0625 81.5625 79.0625 80.7813V55.3438C79.0625 54.5313 78.4063 53.9062 77.625 53.9062Z" fill="#0073AD" fill-opacity="0.15"/>
<path d="M68.875 62.9375C68.0625 62.9375 67.4375 63.5938 67.4375 64.375V72.5C67.4375 73.3125 68.0937 73.9375 68.875 73.9375C69.6562 73.9375 70.3125 73.2812 70.3125 72.5V64.375C70.3125 63.5625 69.6562 62.9375 68.875 62.9375Z" fill="#0073AD" fill-opacity="0.15"/>
<path d="M121.312 62.6562C120.5 62.6562 119.875 63.3125 119.875 64.0938V72.4687C119.875 73.2812 120.531 73.9062 121.312 73.9062C122.094 73.9062 122.75 73.25 122.75 72.4687V64.0938C122.75 63.2813 122.094 62.6562 121.312 62.6562Z" fill="#0073AD" fill-opacity="0.15"/>
<path d="M42.6875 53.9062C41.875 53.9062 41.25 54.5625 41.25 55.3438V81.7812C41.25 82.5938 41.9063 83.2187 42.6875 83.2187C43.4688 83.2187 44.125 82.5625 44.125 81.7812V55.3438C44.125 54.5313 43.4688 53.9062 42.6875 53.9062Z" fill="#0073AD" fill-opacity="0.15"/>
<path d="M112.562 53.9062C111.75 53.9062 111.125 54.5625 111.125 55.3438V80.9062C111.125 81.7187 111.781 82.3438 112.562 82.3438C113.344 82.3438 114 81.6875 114 80.9062V55.3438C114 54.5313 113.344 53.9062 112.562 53.9062Z" fill="#0073AD" fill-opacity="0.15"/>
<path d="M51.4063 45.2188C50.5938 45.2188 49.9688 45.875 49.9688 46.6563V89.9688C49.9688 90.7813 50.625 91.4063 51.4063 91.4063C52.1875 91.4063 52.8438 90.75 52.8438 89.9688V46.6563C52.8438 45.8438 52.1875 45.2188 51.4063 45.2188Z" fill="#0073AD" fill-opacity="0.15"/>
<path d="M95.0937 45.2188C94.2812 45.2188 93.6562 45.875 93.6562 46.6563V89.9688C93.6562 90.7813 94.3125 91.4063 95.0937 91.4063C95.875 91.4063 96.5313 90.75 96.5313 89.9688V46.6563C96.5313 45.8438 95.875 45.2188 95.0937 45.2188Z" fill="#0073AD" fill-opacity="0.15"/>
<path d="M86.3437 39.2812C85.5312 39.2812 84.9062 39.9375 84.9062 40.7188V98.9688C84.9062 99.7812 85.5625 100.406 86.3437 100.406C87.125 100.406 87.7813 99.75 87.7813 98.9688V40.7188C87.7813 39.9063 87.125 39.2812 86.3437 39.2812Z" fill="#0073AD" fill-opacity="0.15"/>
</g>
<defs>
<clipPath id="clip0_111_2747">
<rect width="125" height="104.125" fill="white" transform="translate(15 25)"/>
</clipPath>
</defs>
</svg>
